<svg fill="none" viewBox="0 0 128 96" xmlns="http://www.w3.org/2000/svg">
  <path fill="#888" d="m105.629 38.2 1.542-.4a.875.875 0 0 0 .629-.629l.4-1.542a.84.84 0 0 1 .8-.63c.4 0 .743.287.8.63l.4 1.542a.875.875 0 0 0 .629.629l1.542.4c.4.114.629.457.629.8 0 .4-.286.743-.629.8l-1.542.4a.875.875 0 0 0-.629.628l-.4 1.543a.84.84 0 0 1-.8.629c-.4 0-.743-.286-.8-.629l-.4-1.543a.875.875 0 0 0-.629-.628l-1.542-.4A.841.841 0 0 1 105 39c0-.4.286-.743.629-.8Zm-89.686-6.4 2.314-.6c.429-.086.857-.514.943-.943l.6-2.314c.171-.6.686-.943 1.2-.943.6 0 1.114.428 1.2.943l.6 2.314c.086.429.514.857.943.943l2.314.6c.6.171.943.686.943 1.2 0 .6-.429 1.114-.943 1.2l-2.314.6c-.429.086-.857.514-.943.943l-.6 2.314c-.171.6-.686.943-1.2.943-.6 0-1.114-.429-1.2-.943l-.6-2.314c-.086-.429-.514-.857-.943-.943l-2.314-.6c-.6-.172-.943-.686-.943-1.2 0-.6.429-1.114.943-1.2ZM.629 53.2l1.542-.4a.875.875 0 0 0 .629-.629l.4-1.542a.841.841 0 0 1 .8-.63c.4 0 .743.287.8.63l.4 1.542a.875.875 0 0 0 .629.629l1.542.4c.4.114.629.457.629.8 0 .4-.286.743-.629.8l-1.542.4a.876.876 0 0 0-.629.628l-.4 1.543A.841.841 0 0 1 4 58c-.4 0-.743-.286-.8-.629l-.4-1.543a.876.876 0 0 0-.629-.628L.63 54.8A.841.841 0 0 1 0 54c0-.4.286-.743.629-.8ZM126.5 52c-.825 0-1.5-.675-1.5-1.5s.675-1.5 1.5-1.5 1.5.675 1.5 1.5-.675 1.5-1.5 1.5ZM23 70c-1.1 0-2-.9-2-2s.9-2 2-2 2 .9 2 2-.9 2-2 2Z" opacity=".2"/>
  <path fill="#E2A412" fill-rule="evenodd" d="M85.225 34.062c0 10.007-8.112 18.12-18.12 18.12a18.11 18.11 0 0 1-5.466-.84l-3.026 3.026h-6.327v5.195c0 .56-.453 1.014-1.013 1.014H45.96v7.577c0 .56-.453 1.014-1.013 1.014H32V56.28l17.585-17.584a18.145 18.145 0 0 1-.598-4.635c0-10.007 8.112-18.12 18.119-18.12s18.12 8.113 18.12 18.12Zm-13.023.566a5.662 5.662 0 1 0 0-11.324 5.662 5.662 0 0 0 0 11.324Z" clip-rule="evenodd"/>
  <path fill="#F9BE1A" fill-rule="evenodd" d="M88.225 34.062c0 10.007-8.112 18.12-18.12 18.12a18.11 18.11 0 0 1-5.466-.84l-3.026 3.026h-6.327v5.195c0 .56-.453 1.014-1.013 1.014H48.96v7.577c0 .56-.453 1.014-1.013 1.014H35V56.28l17.585-17.584a18.145 18.145 0 0 1-.598-4.635c0-10.007 8.112-18.12 18.119-18.12s18.12 8.113 18.12 18.12Zm-13.023.566a5.662 5.662 0 1 0 0-11.324 5.662 5.662 0 0 0 0 11.324Z" clip-rule="evenodd"/>
  <path fill="#E2A412" fill-rule="evenodd" d="M84.177 51.198c6.244-4.424 8.963-12.662 6.11-20.143-3.383-8.867-13.313-13.313-22.18-9.93-8.867 3.382-13.313 13.312-9.93 22.18a17.214 17.214 0 0 0 2.096 3.904l-9.638 21.525 4.356 11.419h2.734c.385 0 .737-.219.908-.564l5.824-11.768 3.013-1.149a19.877 19.877 0 0 1 1.397-4.122l-.903-2.368 3.01-1.149a20.113 20.113 0 0 1 3.924-3.957l.33-.737c.268-.016.536-.038.804-.066a19.88 19.88 0 0 1 8.145-3.075Zm-2.136-22.17a5.37 5.37 0 1 1-10.034 3.827 5.37 5.37 0 0 1 10.034-3.827Z" clip-rule="evenodd"/>
  <path fill="#FC3" fill-rule="evenodd" d="M67 71v2.239a5 5 0 0 1-3.218 4.671l-5.879 2.243-4.356-11.419 9.638-21.525a17.211 17.211 0 0 1-2.097-3.905c-3.382-8.867 1.064-18.797 9.93-22.18 8.868-3.382 18.798 1.064 22.18 9.931 2.606 6.83.567 14.291-4.56 18.904-.795.716-1.856 1.021-2.922 1.107C75.417 51.89 67 60.376 67 71Zm17.954-41.972a5.37 5.37 0 1 1-10.035 3.827 5.37 5.37 0 0 1 10.035-3.827Z" clip-rule="evenodd"/>
  <path fill="#999" fill-rule="evenodd" d="M77.037 26.42C77.903 27.341 79.272 28 81 28c3.062 0 5-2.069 5-4 0-1.81-1.703-3.74-4.437-3.976a18.097 18.097 0 0 0-5.093-2.932A9.928 9.928 0 0 1 81 16c4.67 0 9 3.304 9 8s-4.33 8-9 8c-2.355 0-4.624-.84-6.294-2.276a5.374 5.374 0 0 1 2.33-3.303Z" clip-rule="evenodd"/>
  <path fill="url(#Passwords-Add-128_svg__a)" fill-rule="evenodd" d="M85 31.161A9.957 9.957 0 0 1 81 32c-2.355 0-4.624-.84-6.294-2.276a5.374 5.374 0 0 1 2.33-3.303C77.904 27.34 79.273 28 81 28c1.752 0 3.136-.678 4-1.62v4.781Z" clip-rule="evenodd"/>
  <path fill="#557FF3" d="M87 87c8.837 0 16-7.163 16-16s-7.163-16-16-16-16 7.163-16 16 7.163 16 16 16Z"/>
  <path fill="#CCC" d="M108.501 59c.298 0 .595.12.823.354.454.468.454 1.23 0 1.698l-2.333 2.4a1.145 1.145 0 0 1-1.65 0 1.226 1.226 0 0 1 0-1.698l2.332-2.4c.228-.234.525-.354.823-.354h.005Zm-1.166 10.798h3.499c.641 0 1.166.54 1.166 1.2 0 .66-.525 1.2-1.166 1.2h-3.499c-.641 0-1.166-.54-1.166-1.2 0-.66.525-1.2 1.166-1.2Zm-1.982 8.754c.227-.234.525-.354.822-.354h.006c.297 0 .595.12.822.354l2.333 2.4c.454.467.454 1.23 0 1.697a1.146 1.146 0 0 1-1.651 0l-2.332-2.4a1.226 1.226 0 0 1 0-1.697Z"/>
  <path fill="#fff" fill-rule="evenodd" d="M90 62.667a.667.667 0 0 0-.667-.667h-4.666a.667.667 0 0 0-.667.667v4.666a.667.667 0 0 1-.667.667h-4.666a.667.667 0 0 0-.667.667v4.666c0 .368.299.667.667.667h4.666c.368 0 .667.299.667.667v4.666c0 .368.299.667.667.667h4.666a.667.667 0 0 0 .667-.667v-4.666c0-.368.299-.667.667-.667h4.666a.667.667 0 0 0 .667-.667v-4.666a.667.667 0 0 0-.667-.667h-4.666a.667.667 0 0 1-.667-.667v-4.666Z" clip-rule="evenodd"/>
  <defs>
    <linearGradient id="Passwords-Add-128_svg__a" x1="78" x2="84" y1="29" y2="29" gradientUnits="userSpaceOnUse">
      <stop stop-color="#5F5F5F"/>
      <stop offset="1" stop-color="#999" stop-opacity="0"/>
    </linearGradient>
  </defs>
</svg>
