<svg fill="none" viewBox="0 0 97 96" xmlns="http://www.w3.org/2000/svg">
  <path fill="#DE5833" d="M51.421 65.871a20.014 20.014 0 0 0-.755 5.462v2.154c0 2.52-1.879 4.69-4.398 4.65A30.972 30.972 0 0 1 32.181 74.5c-.664-.351-1.485-.137-1.856.507l-2.521 4.313c-.626 1.054-2.209.84-2.522-.351l-4.378-16.822a1.37 1.37 0 0 1 .978-1.678l16.788-4.391c1.192-.312 2.17.976 1.544 2.03l-2.58 4.39c-.39.683-.156 1.581.547 1.932a19.397 19.397 0 0 0 13.24 1.441Zm14.21-13.899c.395-1.478.608-2.982.655-4.48.039-1.679 1.114-3.123 2.736-3.552l6.469-1.698c1.134-.293 2.248.507 2.365 1.678A31.81 31.81 0 0 1 78 47.009c-.006 2.49-2.16 4.324-4.65 4.324h-2.683c-1.74 0-3.427.222-5.036.64Z"/>
  <path fill="#3969EF" d="M31.312 37.433c4.81-8.196 15.114-11.205 23.52-7.061.65.324.868 1.152.506 1.783l-2.386 4.053c-.578.973.325 2.162 1.428 1.873l15.53-4.053a1.265 1.265 0 0 0 .903-1.549l-4.05-15.528c-.288-1.099-1.753-1.297-2.331-.324L62.1 20.608c-.344.595-1.103.793-1.718.468-13.577-7.205-30.552-2.486-38.416 10.899a28.642 28.642 0 0 0-3.833 17.329c.109 1.08 1.14 1.82 2.188 1.55l5.984-1.568c1.5-.396 2.494-1.73 2.53-3.279a17.863 17.863 0 0 1 2.46-8.556l.017-.018Z"/>
  <path fill="#21C000" d="M71 87c8.837 0 16-7.163 16-16s-7.163-16-16-16-16 7.163-16 16 7.163 16 16 16Z"/>
  <path fill="#fff" d="M80.04 68.713a1.333 1.333 0 0 0 0-1.896l-1.913-1.891a1.333 1.333 0 0 0-1.873 0l-6.698 6.619a1.333 1.333 0 0 1-1.874 0l-1.936-1.913a1.333 1.333 0 0 0-1.873 0l-1.914 1.89a1.333 1.333 0 0 0 0 1.896l5.723 5.656c.52.513 1.355.513 1.874 0l10.485-10.361Z"/>
  <path fill="#CCC" d="M92.605 59a1.203 1.203 0 0 1 .846 2.053l-2.4 2.402a1.203 1.203 0 0 1-1.7 0 1.203 1.203 0 0 1 0-1.7l2.402-2.4c.234-.235.54-.355.846-.355h.006Zm-1.201 10.806h3.602c.66 0 1.201.54 1.201 1.2 0 .661-.54 1.201-1.2 1.201h-3.603c-.66 0-1.2-.54-1.2-1.2 0-.66.54-1.2 1.2-1.2Zm-2.041 8.76c.234-.234.54-.354.847-.354h.006c.306 0 .612.12.846.354l2.402 2.401a1.203 1.203 0 0 1-1.699 1.699l-2.402-2.4a1.203 1.203 0 0 1 0-1.7Z"/>
</svg>
