<svg width="16" height="16" viewBox="0 0 16 16" fill="none" xmlns="http://www.w3.org/2000/svg">
<g clip-path="url(#clip0_5095_88904)">
<path fill-rule="evenodd" clip-rule="evenodd" d="M1.19433 7.4779C1.86805 4.90128 4.21178 3 6.99957 3C8.89436 3 10.584 3.87831 11.6836 5.25H14.9794C13.8825 2.46835 11.1709 0.5 7.99957 0.5C4.12214 0.5 0.931936 3.44242 0.540039 7.21619L1.19433 7.4779Z" fill="url(#paint0_radial_5095_88904)"/>
<path fill-rule="evenodd" clip-rule="evenodd" d="M15.4598 8.7832C15.068 12.557 11.8778 15.4994 8.00031 15.4994C4.82896 15.4994 2.11735 13.5311 1.02051 10.7494L4.31628 10.7494C5.41587 12.1211 7.10552 12.9994 9.00031 12.9994C11.7881 12.9994 14.1319 11.0981 14.8056 8.52148L15.4598 8.7832Z" fill="url(#paint1_radial_5095_88904)"/>
<path d="M6.77943 1.36129C8.21763 1.09686 9.70282 1.30663 11.0115 1.95904C12.243 2.57295 13.2556 3.54755 13.9161 4.75H11.375C11.0298 4.75 10.75 5.02982 10.75 5.375C10.75 5.72018 11.0298 6 11.375 6H15.375C15.7202 6 16 5.72018 16 5.375V0.875C16 0.529822 15.7202 0.25 15.375 0.25C15.0298 0.25 14.75 0.529822 14.75 0.875V3.70607C13.9726 2.48393 12.8747 1.49113 11.5692 0.840338C10.0181 0.0671125 8.25793 -0.181504 6.55339 0.131892C4.84885 0.445289 3.29218 1.30375 2.11759 2.57811C0.942993 3.85248 0.214006 5.47382 0.0403037 7.1982C0.00570804 7.54164 0.256076 7.8481 0.599516 7.8827C0.942956 7.91729 1.24941 7.66693 1.28401 7.32349C1.43057 5.86854 2.04565 4.50053 3.03672 3.42528C4.02778 2.35004 5.34122 1.62571 6.77943 1.36129Z" fill="#DE5833"/>
<path d="M9.22057 14.6379C7.78237 14.9023 6.29718 14.6925 4.98847 14.0401C3.75699 13.4262 2.74445 12.4516 2.0839 11.2492L4.625 11.2492C4.97018 11.2492 5.25 10.9694 5.25 10.6242C5.25 10.279 4.97018 9.99917 4.625 9.99917L0.625 9.99917C0.279822 9.99917 0 10.279 0 10.6242V15.1242C0 15.4694 0.279822 15.7492 0.625 15.7492C0.970178 15.7492 1.25 15.4694 1.25 15.1242L1.25 12.2931C2.02744 13.5152 3.12532 14.508 4.43079 15.1588C5.98185 15.9321 7.74207 16.1807 9.44661 15.8673C11.1511 15.5539 12.7078 14.6954 13.8824 13.4211C15.057 12.1467 15.786 10.5254 15.9597 8.80097C15.9943 8.45753 15.7439 8.15107 15.4005 8.11648C15.057 8.08188 14.7506 8.33225 14.716 8.67569C14.5694 10.1306 13.9543 11.4986 12.9633 12.5739C11.9722 13.6491 10.6588 14.3735 9.22057 14.6379Z" fill="#3969EF"/>
</g>
<defs>
<radialGradient id="paint0_radial_5095_88904" cx="0" cy="0" r="1" gradientUnits="userSpaceOnUse" gradientTransform="translate(12.9996 3.98895) rotate(-180) scale(12.5 25.8662)">
<stop stop-color="#DE5833" stop-opacity="0.3"/>
<stop offset="1" stop-color="#DE5833" stop-opacity="0.1"/>
</radialGradient>
<radialGradient id="paint1_radial_5095_88904" cx="0" cy="0" r="1" gradientUnits="userSpaceOnUse" gradientTransform="translate(3.0003 11.4994) scale(10.5 21.7276)">
<stop stop-color="#3969EF" stop-opacity="0.3"/>
<stop offset="1" stop-color="#3969EF" stop-opacity="0.1"/>
</radialGradient>
<clipPath id="clip0_5095_88904">
<rect width="16" height="16" fill="white"/>
</clipPath>
</defs>
</svg>
