<svg width="24" height="24" viewBox="0 0 24 24" fill="none" xmlns="http://www.w3.org/2000/svg">
<g id="Check-Solid-16@1.25" opacity="0.64" clip-path="url(#clip0_839_20006)">
<path id="Shape" fill-rule="evenodd" clip-rule="evenodd" d="M24 12C24 18.6274 18.6274 24 12 24C5.37258 24 0 18.6274 0 12C0 5.37258 5.37258 0 12 0C18.6274 0 24 5.37258 24 12ZM17.5737 9.25013C17.9189 8.86427 17.886 8.27159 17.5001 7.92635C17.1143 7.5811 16.5216 7.61403 16.1764 7.99989L10.5319 14.3084L7.85061 11.0313C7.52274 10.6306 6.9321 10.5716 6.53137 10.8994C6.13064 11.2273 6.07157 11.8179 6.39944 12.2187L9.77444 16.3437C9.94792 16.5557 10.2054 16.6812 10.4793 16.6873C10.7532 16.6933 11.016 16.5793 11.1987 16.3751L17.5737 9.25013Z" fill="black" fill-opacity="0.8"/>
</g>
<defs>
<clipPath id="clip0_839_20006">
<rect width="24" height="24" fill="white"/>
</clipPath>
</defs>
</svg>
