<svg width="16" height="17" viewBox="0 0 16 17" fill="none" xmlns="http://www.w3.org/2000/svg">
<g clip-path="url(#clip0_3925_30594)">
<path d="M16 8.5C16 12.9183 12.4183 16.5 8 16.5C3.58172 16.5 0 12.9183 0 8.5C0 4.08172 3.58172 0.5 8 0.5C12.4183 0.5 16 4.08172 16 8.5Z" fill="#EE1025"/>
<path fill-rule="evenodd" clip-rule="evenodd" d="M11.4419 5.05806C11.686 5.30214 11.686 5.69786 11.4419 5.94194L5.44194 11.9419C5.19786 12.186 4.80214 12.186 4.55806 11.9419C4.31398 11.6979 4.31398 11.3021 4.55806 11.0581L10.5581 5.05806C10.8021 4.81398 11.1979 4.81398 11.4419 5.05806Z" fill="white"/>
<path fill-rule="evenodd" clip-rule="evenodd" d="M4.55806 5.05806C4.80214 4.81398 5.19786 4.81398 5.44194 5.05806L11.4419 11.0581C11.686 11.3021 11.686 11.6979 11.4419 11.9419C11.1979 12.186 10.8021 12.186 10.5581 11.9419L4.55806 5.94194C4.31398 5.69786 4.31398 5.30214 4.55806 5.05806Z" fill="white"/>
</g>
<defs>
<clipPath id="clip0_3925_30594">
<rect y="0.5" width="16" height="16" rx="4" fill="white"/>
</clipPath>
</defs>
</svg>
