<svg width="16" height="17" viewBox="0 0 16 17" fill="none" xmlns="http://www.w3.org/2000/svg">
<path fill-rule="evenodd" clip-rule="evenodd" d="M8.375 1.48193C8.72018 1.48193 9 1.76176 9 2.10693V7.98193H14.875C15.2202 7.98193 15.5 8.26176 15.5 8.60693C15.5 8.95211 15.2202 9.23193 14.875 9.23193H9V15.1069C9 15.4521 8.72018 15.7319 8.375 15.7319C8.02982 15.7319 7.75 15.4521 7.75 15.1069V9.23193H1.875C1.52982 9.23193 1.25 8.95211 1.25 8.60693C1.25 8.26176 1.52982 7.98193 1.875 7.98193H7.75V2.10693C7.75 1.76176 8.02982 1.48193 8.375 1.48193Z" fill="black" fill-opacity="0.84"/>
</svg>
