<svg width="16" height="16" viewBox="0 0 16 16" fill="none" xmlns="http://www.w3.org/2000/svg">
<g id="Icon">
<g id="Shape">
<path d="M4.125 2.25C3.08947 2.25 2.25 3.08947 2.25 4.125V11.875C2.25 12.9105 3.08947 13.75 4.125 13.75H11.875C12.9105 13.75 13.75 12.9105 13.75 11.875V8.765C13.75 8.41982 14.0298 8.14 14.375 8.14C14.7202 8.14 15 8.41982 15 8.765V11.875C15 13.6009 13.6009 15 11.875 15H4.125C2.39911 15 1 13.6009 1 11.875V4.125C1 2.39911 2.39911 1 4.125 1H7.235C7.58018 1 7.86 1.27982 7.86 1.625C7.86 1.97018 7.58018 2.25 7.235 2.25H4.125Z" fill="#3969EF"/>
<path d="M10.25 1.625C10.25 1.27982 10.5298 1 10.875 1H14.375C14.7202 1 15 1.27982 15 1.625V5.125C15 5.47018 14.7202 5.75 14.375 5.75C14.0298 5.75 13.75 5.47018 13.75 5.125V3.13388L9.06694 7.81694C8.82286 8.06102 8.42714 8.06102 8.18306 7.81694C7.93898 7.57286 7.93898 7.17714 8.18306 6.93306L12.8661 2.25H10.875C10.5298 2.25 10.25 1.97018 10.25 1.625Z" fill="#3969EF"/>
</g>
</g>
</svg>
