<svg width="16" height="16" viewBox="0 0 16 16" fill="none" xmlns="http://www.w3.org/2000/svg">
<g id="Icon">
<g id="Shape">
<path d="M5.125 0C3.9514 0 3 0.951395 3 2.125V14.3847C3 15.2504 3.93677 15.7917 4.68677 15.3594L8 13.4498L12.0629 15.7915C12.362 15.9639 12.7441 15.8612 12.9165 15.5621C13.0889 15.263 12.9862 14.8809 12.6871 14.7085L8.56177 12.3309C8.21407 12.1305 7.78593 12.1305 7.43823 12.3309L4.25 14.1684V2.125C4.25 1.64175 4.64175 1.25 5.125 1.25H10.875C11.3582 1.25 11.75 1.64175 11.75 2.125V3.375C11.75 3.72018 12.0298 4 12.375 4C12.7202 4 13 3.72018 13 3.375V2.125C13 0.951395 12.0486 0 10.875 0H5.125Z" fill="black" fill-opacity="0.84"/>
<path d="M12.375 6.25C12.7202 6.25 13 6.52982 13 6.875V8.75H14.875C15.2202 8.75 15.5 9.02982 15.5 9.375C15.5 9.72018 15.2202 10 14.875 10H13V11.875C13 12.2202 12.7202 12.5 12.375 12.5C12.0298 12.5 11.75 12.2202 11.75 11.875V10H9.875C9.52982 10 9.25 9.72018 9.25 9.375C9.25 9.02982 9.52982 8.75 9.875 8.75H11.75V6.875C11.75 6.52982 12.0298 6.25 12.375 6.25Z" fill="black" fill-opacity="0.84"/>
</g>
</g>
</svg>
