<svg width="16" height="16" viewBox="0 0 16 16" fill="none" xmlns="http://www.w3.org/2000/svg">
<path d="M5.125 0C3.90595 0 2.84993 0.698022 2.33482 1.71618C2.1216 2.09574 2 2.53367 2 3V4.11111C2 4.45629 2.27982 4.73611 2.625 4.73611C2.97018 4.73611 3.25 4.45629 3.25 4.11111V3.125C3.25 2.83087 3.31773 2.55256 3.43843 2.30481C3.67725 1.89806 4.11924 1.625 4.625 1.625H11.375C11.8808 1.625 12.3227 1.89807 12.5616 2.30481C12.6823 2.55256 12.75 2.83087 12.75 3.125V12.875C12.75 13.1691 12.6823 13.4474 12.5616 13.6952C12.3227 14.1019 11.8808 14.375 11.375 14.375H4.625C4.11924 14.375 3.67725 14.1019 3.43843 13.6952C3.31772 13.4474 3.25 13.1691 3.25 12.875V11.8889C3.25 11.5437 2.97018 11.2639 2.625 11.2639C2.27982 11.2639 2 11.5437 2 11.8889V13C2 13.4663 2.1216 13.9043 2.33482 14.2838C2.84992 15.302 3.90595 16 5.125 16H10.875C12.0941 16 13.1501 15.302 13.6652 14.2838C13.8784 13.9043 14 13.4663 14 13V3C14 2.53367 13.8784 2.09574 13.6652 1.71619C13.1501 0.698025 12.0941 0 10.875 0H5.125Z" fill="black" fill-opacity="0.84"/>
<path d="M10.9419 9.43306C11.186 9.67714 11.186 10.0729 10.9419 10.3169L8.46707 12.7918C8.22299 13.0359 7.82726 13.0359 7.58318 12.7918L5.10831 10.3169C4.86423 10.0729 4.86423 9.67714 5.10831 9.43306C5.35239 9.18898 5.74811 9.18898 5.99219 9.43306L7.375 10.8159V9.125C7.375 8.08947 6.53553 7.25 5.5 7.25H1.625C1.27982 7.25 1 6.97018 1 6.625C1 6.27982 1.27982 6 1.625 6H5.5C7.22589 6 8.625 7.39911 8.625 9.125V10.8661L10.0581 9.43306C10.3021 9.18898 10.6979 9.18898 10.9419 9.43306Z" fill="black" fill-opacity="0.84"/>
</svg>
