<svg width="256" height="96" viewBox="0 0 256 96" fill="none" xmlns="http://www.w3.org/2000/svg">
<path opacity="0.4" d="M40 31C40 22.7157 46.7157 16 55 16H209C217.284 16 224 22.7157 224 31V65C224 73.2843 217.284 80 209 80H55C46.7157 80 40 73.2843 40 65V31Z" fill="#ABABAB"/>
<path d="M40 28C40 21.3726 45.3726 16 52 16H209C215.627 16 221 21.3726 221 28V65C221 71.6274 215.627 77 209 77H52C45.3726 77 40 71.6274 40 65V28Z" fill="#F5F5F5"/>
<rect x="96" y="22" width="88" height="24" rx="6" fill="white"/>
<path fill-rule="evenodd" clip-rule="evenodd" d="M110.875 26.625C107.423 26.625 104.625 29.4232 104.625 32.875C104.625 36.3268 107.423 39.125 110.875 39.125C112.24 39.125 113.503 38.6874 114.531 37.9449L117.668 41.0821C118.058 41.4726 118.692 41.4726 119.082 41.0821C119.473 40.6916 119.473 40.0584 119.082 39.6679L115.945 36.5307C116.687 35.5027 117.125 34.24 117.125 32.875C117.125 29.4232 114.327 26.625 110.875 26.625ZM106.625 32.875C106.625 30.5278 108.528 28.625 110.875 28.625C113.222 28.625 115.125 30.5278 115.125 32.875C115.125 35.2222 113.222 37.125 110.875 37.125C108.528 37.125 106.625 35.2222 106.625 32.875Z" fill="#CCCCCC"/>
<path d="M211 32.1833C209.997 32.1833 209.183 32.9967 209.183 34C209.183 35.0033 209.997 35.8167 211 35.8167C212.003 35.8167 212.817 35.0033 212.817 34C212.817 32.9967 212.003 32.1833 211 32.1833ZM204 32.1833C202.997 32.1833 202.183 32.9967 202.183 34C202.183 35.0033 202.997 35.8167 204 35.8167C205.003 35.8167 205.817 35.0033 205.817 34C205.817 32.9967 205.003 32.1833 204 32.1833ZM197 32.1833C195.997 32.1833 195.183 32.9967 195.183 34C195.183 35.0033 195.997 35.8167 197 35.8167C198.003 35.8167 198.817 35.0033 198.817 34C198.817 32.9967 198.003 32.1833 197 32.1833Z" fill="#ABABAB" stroke="#ABABAB" stroke-width="0.366667"/>
<g opacity="0.5">
<path fill-rule="evenodd" clip-rule="evenodd" d="M239.75 62.625C239.75 61.7966 239.079 61.125 238.25 61.125H231.75C230.922 61.125 230.25 61.7966 230.25 62.625C230.25 63.4535 230.922 64.125 231.75 64.125H238.25C239.079 64.125 239.75 63.4535 239.75 62.625Z" fill="#ABABAB"/>
<path fill-rule="evenodd" clip-rule="evenodd" d="M236.433 51.0161C236.028 50.2936 235.114 50.0365 234.391 50.4418L229.266 53.3168C228.544 53.7221 228.287 54.6364 228.692 55.3589C229.097 56.0814 230.012 56.3385 230.734 55.9332L235.859 53.0582C236.582 52.6529 236.839 51.7387 236.433 51.0161Z" fill="#ABABAB"/>
<path fill-rule="evenodd" clip-rule="evenodd" d="M236.433 74.3589C236.028 75.0814 235.114 75.3385 234.391 74.9332L229.266 72.0582C228.544 71.6529 228.287 70.7387 228.692 70.0161C229.097 69.2936 230.012 69.0365 230.734 69.4418L235.859 72.3168C236.582 72.7221 236.839 73.6364 236.433 74.3589Z" fill="#ABABAB"/>
</g>
<g opacity="0.5">
<path fill-rule="evenodd" clip-rule="evenodd" d="M16.25 62.625C16.25 61.7966 16.9216 61.125 17.75 61.125H24.25C25.0784 61.125 25.75 61.7966 25.75 62.625C25.75 63.4535 25.0784 64.125 24.25 64.125H17.75C16.9216 64.125 16.25 63.4535 16.25 62.625Z" fill="#ABABAB"/>
<path fill-rule="evenodd" clip-rule="evenodd" d="M19.5668 51.0161C19.9721 50.2936 20.8864 50.0365 21.6089 50.4418L26.7339 53.3168C27.4564 53.7221 27.7135 54.6364 27.3082 55.3589C26.9029 56.0814 25.9886 56.3385 25.2661 55.9332L20.1411 53.0582C19.4186 52.6529 19.1615 51.7387 19.5668 51.0161Z" fill="#ABABAB"/>
<path fill-rule="evenodd" clip-rule="evenodd" d="M19.5668 74.3589C19.9721 75.0814 20.8864 75.3385 21.6089 74.9332L26.7339 72.0582C27.4564 71.6529 27.7135 70.7387 27.3082 70.0161C26.9029 69.2936 25.9886 69.0365 25.2661 69.4418L20.1411 72.3168C19.4186 72.7221 19.1615 73.6364 19.5668 74.3589Z" fill="#ABABAB"/>
</g>
<path fill-rule="evenodd" clip-rule="evenodd" d="M79.2929 39.7071C79.6834 40.0976 80.3166 40.0976 80.7071 39.7071L85.7071 34.7071C85.8946 34.5196 86 34.2652 86 34C86 33.7348 85.8946 33.4804 85.7071 33.2929L80.7071 28.2929C80.3166 27.9024 79.6834 27.9024 79.2929 28.2929C78.9024 28.6834 78.9024 29.3166 79.2929 29.7071L82.5858 33L75 33C74.4477 33 74 33.4477 74 34C74 34.5523 74.4477 35 75 35L82.5858 35L79.2929 38.2929C78.9024 38.6834 78.9024 39.3166 79.2929 39.7071Z" fill="#ABABAB"/>
<path fill-rule="evenodd" clip-rule="evenodd" d="M60.7071 39.7071C60.3166 40.0976 59.6834 40.0976 59.2929 39.7071L54.2929 34.7071C54.1054 34.5196 54 34.2652 54 34C54 33.7348 54.1054 33.4804 54.2929 33.2929L59.2929 28.2929C59.6834 27.9024 60.3166 27.9024 60.7071 28.2929C61.0976 28.6834 61.0976 29.3166 60.7071 29.7071L57.4142 33L65 33C65.5523 33 66 33.4477 66 34C66 34.5523 65.5523 35 65 35L57.4142 35L60.7071 38.2929C61.0976 38.6834 61.0976 39.3166 60.7071 39.7071Z" fill="#ABABAB"/>
<path d="M32 55C32 52.2386 34.2386 50 37 50H213C215.761 50 218 52.2386 218 55V65C218 69.9706 213.971 74 209 74H41C36.0294 74 32 69.9706 32 65V55Z" fill="#FFD65C"/>
<path d="M164.5 58C163.395 58 162.5 58.8954 162.5 60V64C162.5 65.1046 163.395 66 164.5 66H168.5C169.605 66 170.5 65.1046 170.5 64V60C170.5 58.8954 169.605 58 168.5 58H164.5Z" fill="#E2A412"/>
<path d="M175.5 59.5C174.395 59.5 173.5 60.3954 173.5 61.5V62.5C173.5 63.6046 174.395 64.5 175.5 64.5H196.5C197.605 64.5 198.5 63.6046 198.5 62.5V61.5C198.5 60.3954 197.605 59.5 196.5 59.5H175.5Z" fill="#E2A412"/>
<path d="M109 58C107.895 58 107 58.8954 107 60V64C107 65.1046 107.895 66 109 66H113C114.105 66 115 65.1046 115 64V60C115 58.8954 114.105 58 113 58H109Z" fill="#E2A412"/>
<path d="M120 59.5C118.895 59.5 118 60.3954 118 61.5V62.5C118 63.6046 118.895 64.5 120 64.5H141C142.105 64.5 143 63.6046 143 62.5V61.5C143 60.3954 142.105 59.5 141 59.5H120Z" fill="#E2A412"/>
<path d="M53.5 58C52.3954 58 51.5 58.8954 51.5 60V64C51.5 65.1046 52.3954 66 53.5 66H57.5C58.6046 66 59.5 65.1046 59.5 64V60C59.5 58.8954 58.6046 58 57.5 58H53.5Z" fill="#E2A412"/>
<path d="M64.5 59.5C63.3954 59.5 62.5 60.3954 62.5 61.5V62.5C62.5 63.6046 63.3954 64.5 64.5 64.5H85.5C86.6046 64.5 87.5 63.6046 87.5 62.5V61.5C87.5 60.3954 86.6046 59.5 85.5 59.5H64.5Z" fill="#E2A412"/>
</svg>
