<svg width="256" height="192" viewBox="0 0 256 192" fill="none" xmlns="http://www.w3.org/2000/svg">
<path d="M215.5 115.499C112 164.999 98.5 221.999 38.9998 140.499C-34.0571 40.4296 27.4999 -5.501 114.5 0.999018C201.499 7.49903 319 65.999 215.5 115.499Z" fill="url(#paint0_linear_5095_88990)"/>
<g clip-path="url(#clip0_5095_88990)">
<path fill-rule="evenodd" clip-rule="evenodd" d="M6 123C4.3 123 3 121.6 3 120C3 118.4 4.3 117 6 117C7.7 117 9 118.4 9 120C9 121.6 7.7 123 6 123Z" fill="#EEEEEE"/>
<path fill-rule="evenodd" clip-rule="evenodd" d="M38 174C36.8667 174 36 173.067 36 172C36 170.933 36.8667 170 38 170C39.1333 170 40 170.933 40 172C40 173.067 39.1333 174 38 174Z" fill="#EEEEEE"/>
<path fill-rule="evenodd" clip-rule="evenodd" d="M86.1224 11.0204C86.6122 10.9388 86.9388 10.5306 87.0204 10.1224L87.4286 8H88H88.5714L88.9796 10.1224C89.0612 10.6122 89.4694 10.9388 89.8776 11.0204L92 11.4286V12V12.5714L89.8776 12.9796C89.3878 13.0612 89.0612 13.4694 88.9796 13.8776L88.5714 16H88H87.4286L87.0204 13.8776C86.9388 13.3878 86.5306 13.0612 86.1224 12.9796L84 12.5714V12V11.4286L86.1224 11.0204Z" fill="#8FABF9"/>
<path opacity="0.5" fill-rule="evenodd" clip-rule="evenodd" d="M11.1837 162.531C11.9184 162.408 12.4082 161.796 12.5306 161.184L13.1429 158H14H14.8571L15.4694 161.184C15.5918 161.918 16.2041 162.408 16.8163 162.531L20 163.143V164V164.857L16.8163 165.469C16.0816 165.592 15.5918 166.204 15.4694 166.816L14.8571 170H14H13.1429L12.5306 166.816C12.4082 166.082 11.7959 165.592 11.1837 165.469L8 164.857V164V163.143L11.1837 162.531Z" fill="#CCDAFF"/>
<path opacity="0.5" fill-rule="evenodd" clip-rule="evenodd" d="M5.29961 14.5C6.39961 14.3 7.29961 13.4 7.49961 12.3L8.59961 7H9.49961L10.5996 12.3C10.7996 13.4 11.6996 14.3 12.7996 14.5L18.0996 15.6V16.5L12.7996 17.6C11.6996 17.8 10.7996 18.7 10.5996 19.8L9.49961 25.1H8.59961L7.49961 19.8C7.29961 18.7 6.39961 17.8 5.29961 17.6L-0.000391006 16.5V15.6L5.29961 14.5Z" fill="#CCDAFF"/>
<path fill-rule="evenodd" clip-rule="evenodd" d="M18.6851 56.6298C19.6575 56.453 20.453 55.6575 20.6298 54.6851L21.6022 50H22.3978L23.3702 54.6851C23.547 55.6575 24.3425 56.453 25.3149 56.6298L30 57.6022V58.3978L25.3149 59.3702C24.3425 59.547 23.547 60.3425 23.3702 61.3149L22.3978 66H21.6022L20.6298 61.3149C20.453 60.3425 19.6575 59.547 18.6851 59.3702L14 58.3978V57.6022L18.6851 56.6298Z" fill="#ADC2FC"/>
<path fill-rule="evenodd" clip-rule="evenodd" d="M66 149C64.3 149 63 147.6 63 146C63 144.4 64.3 143 66 143C67.7 143 69 144.4 69 146C69 147.6 67.7 149 66 149Z" fill="#CCDAFF"/>
</g>
<path fill-rule="evenodd" clip-rule="evenodd" d="M137 14C135.867 14 135 13.0667 135 12C135 10.9333 135.867 10 137 10C138.133 10 139 10.9333 139 12C139 13.0667 138.133 14 137 14Z" fill="#EEEEEE"/>
<path fill-rule="evenodd" clip-rule="evenodd" d="M133 148V152C133 154.209 131.209 156 129 156C126.791 156 125 154.209 125 152V142H113V165H145V148H133Z" fill="#888888"/>
<path fill-rule="evenodd" clip-rule="evenodd" d="M129 148V152C129 154.209 127.209 156 125 156C122.791 156 121 154.209 121 152V148H109V165H141V148H129Z" fill="#DDDDDD"/>
<path d="M109 142H121V148H109V142Z" fill="#CCCCCC"/>
<path d="M129 142H141V148H129V142Z" fill="#CCCCCC"/>
<path d="M141 142H146V163H141V142Z" fill="#888888"/>
<path d="M30 30C30 26.6863 32.6863 24 36 24H204C207.314 24 210 26.6863 210 30V140C210 143.314 207.314 146 204 146H36C32.6863 146 30 143.314 30 140V30Z" fill="#111111"/>
<path fill-rule="evenodd" clip-rule="evenodd" d="M206 28C206 25.7909 204.189 24 201.956 24H28.0444C25.8108 24 24 25.7909 24 28V140C24 143.314 26.7161 146 30.0667 146H199.933C203.284 146 206 143.314 206 140V28Z" fill="#444444"/>
<path d="M30 32C30 30.8954 30.8954 30 32 30H198C199.105 30 200 30.8954 200 32V131C200 132.105 199.105 133 198 133H32C30.8954 133 30 132.105 30 131V32Z" fill="#FDD20A"/>
<path d="M30 138C30 137.448 30.4477 137 31 137H33C33.5523 137 34 137.448 34 138V140C34 140.552 33.5523 141 33 141H31C30.4477 141 30 140.552 30 140V138Z" fill="white"/>
<path fill-rule="evenodd" clip-rule="evenodd" d="M170 48C170 44.6863 167.314 42 164 42H66.0002C62.6865 42 60.0002 44.6863 60.0002 48V51H170V48Z" fill="#FFDE7A"/>
<path fill-rule="evenodd" clip-rule="evenodd" d="M60.0002 51V114.086C60.0002 117.352 62.6865 120 66.0002 120H164V51H60.0002Z" fill="#FFE8A3"/>
<path fill-rule="evenodd" clip-rule="evenodd" d="M164 51V120C167.314 120 170 117.352 170 114.086V51H164Z" fill="#FFE8A3"/>
<path fill-rule="evenodd" clip-rule="evenodd" d="M113.56 94C120.187 94 125.56 88.6274 125.56 82C125.56 75.3726 120.187 70 113.56 70C106.932 70 101.56 75.3726 101.56 82C101.56 88.6274 106.932 94 113.56 94Z" fill="#DE5833"/>
<path fill-rule="evenodd" clip-rule="evenodd" d="M115.247 90.9527C115.247 90.8589 115.27 90.8375 114.972 90.2435C114.18 88.6575 113.384 86.4215 113.746 84.9795C113.812 84.7175 113 75.2775 112.426 74.9735C111.788 74.6335 111.003 74.0942 110.285 73.9742C109.921 73.9159 109.443 73.9435 109.07 73.9938C109.003 74.0027 109.001 74.122 109.064 74.1435C109.309 74.2265 109.607 74.3707 109.782 74.5888C109.815 74.63 109.771 74.6949 109.718 74.6969C109.553 74.703 109.253 74.7724 108.857 75.1085C108.811 75.1474 108.849 75.2196 108.908 75.2079C109.759 75.0397 110.627 75.1226 111.139 75.5879C111.172 75.6181 111.155 75.6723 111.112 75.684C106.669 76.8914 107.549 80.7559 108.731 85.4985C109.449 88.3763 109.862 89.9256 110.091 90.7519C110.235 91.2675 110.609 91.6926 111.131 91.8096C112.794 92.182 115.247 92.0757 115.247 91.187V90.9527Z" fill="#DDDDDD"/>
<path d="M115.856 91.844C115.317 92.0549 114.263 92.1487 113.653 92.1487C112.76 92.1487 111.474 92.0081 111.005 91.7971C110.715 90.9062 109.849 88.1445 108.993 84.6375C108.965 84.5227 108.937 84.4085 108.91 84.2948L108.909 84.292C107.892 80.1377 107.061 76.7446 111.614 75.6787C111.656 75.6689 111.676 75.6192 111.648 75.5865C111.126 74.9668 110.147 74.7637 108.91 75.1906C108.859 75.2081 108.815 75.1569 108.847 75.1134C109.089 74.779 109.564 74.5218 109.798 74.4091C109.846 74.3858 109.843 74.315 109.792 74.2989C109.639 74.251 109.378 74.1776 109.085 74.1303C109.015 74.1191 109.009 74.0002 109.079 73.9908C110.833 73.7548 112.665 74.2815 113.584 75.4394C113.593 75.4503 113.605 75.4579 113.619 75.4608C116.985 76.1837 117.226 81.5049 116.838 81.7473C116.762 81.795 116.517 81.7676 116.194 81.7315C114.884 81.5849 112.29 81.2947 114.431 85.2841C114.452 85.3235 114.424 85.3756 114.38 85.3825C113.173 85.5702 114.72 89.3525 115.856 91.844Z" fill="white"/>
<path d="M117.362 87.0054C117.106 86.8867 116.121 87.5933 115.467 88.1357C115.33 87.9423 115.072 87.8018 114.491 87.9028C113.982 87.9913 113.701 88.114 113.576 88.3255C112.773 88.021 111.422 87.5511 111.096 88.0049C110.739 88.501 111.185 90.8475 111.659 91.1522C111.906 91.3113 113.089 90.5506 113.707 90.0261C113.807 90.1666 113.967 90.247 114.297 90.2393C114.796 90.2278 115.606 90.1116 115.732 89.8792C115.739 89.8651 115.746 89.8484 115.751 89.8294C116.386 90.0668 117.504 90.318 117.754 90.2805C118.405 90.1828 117.663 87.145 117.362 87.0054Z" fill="#3CA82B"/>
<path d="M115.526 88.2052C115.553 88.2532 115.575 88.3039 115.594 88.3554C115.684 88.6087 115.832 89.4143 115.72 89.6133C115.608 89.8123 114.884 89.9084 114.437 89.9161C113.99 89.9238 113.889 89.7603 113.799 89.5071C113.726 89.3045 113.691 88.8282 113.692 88.5555C113.673 88.151 113.821 88.0087 114.504 87.8982C115.01 87.8164 115.277 87.9115 115.431 88.0744C116.149 87.5387 117.347 86.7827 117.463 86.9209C118.046 87.6098 118.119 89.2497 117.993 89.9095C117.952 90.1252 116.024 89.6958 116.024 89.4632C116.024 88.4973 115.773 88.2323 115.526 88.2052Z" fill="#4CBA3C"/>
<path d="M111.302 87.9035C111.46 87.6536 112.741 87.9644 113.444 88.2773C113.444 88.2773 113.3 88.9319 113.53 89.7031C113.597 89.9286 111.912 90.9326 111.692 90.7599C111.438 90.5603 110.97 88.429 111.302 87.9035Z" fill="#4CBA3C"/>
<path fill-rule="evenodd" clip-rule="evenodd" d="M111.922 82.8269C112.026 82.3762 112.509 81.5271 114.233 81.5477C115.104 81.5441 116.187 81.5474 116.904 81.4658C117.971 81.3447 118.763 81.0866 119.291 80.8855C120.037 80.6008 120.302 80.6643 120.394 80.8347C120.496 81.0218 120.376 81.345 120.116 81.6425C119.618 82.2108 118.722 82.6512 117.141 82.7819C115.56 82.9126 114.512 82.4884 114.061 83.179C113.867 83.4768 114.017 84.1788 115.546 84.3999C117.613 84.6981 119.31 84.0405 119.519 84.4377C119.729 84.8348 118.521 85.6428 116.451 85.6597C114.382 85.6767 113.089 84.9351 112.63 84.5665C112.049 84.0988 111.788 83.4167 111.922 82.8269Z" fill="#FFCC33"/>
<path d="M114.558 77.8994C114.674 77.7104 114.93 77.5645 115.349 77.5645C115.768 77.5645 115.965 77.7312 116.101 77.9171C116.129 77.9549 116.087 77.9994 116.044 77.9808C116.034 77.9763 116.023 77.9717 116.012 77.9671C115.859 77.9002 115.671 77.818 115.349 77.8134C115.004 77.8085 114.787 77.8948 114.65 77.9692C114.604 77.9943 114.531 77.9442 114.558 77.8994Z" fill="#14307E"/>
<path d="M109.842 78.1413C110.248 77.9713 110.568 77.9932 110.794 78.0467C110.842 78.058 110.875 78.0067 110.837 77.976C110.661 77.8345 110.269 77.6589 109.757 77.8498C109.3 78.0202 109.084 78.3741 109.083 78.6068C109.083 78.6616 109.196 78.6662 109.225 78.6198C109.304 78.4944 109.435 78.3113 109.842 78.1413Z" fill="#14307E"/>
<path fill-rule="evenodd" clip-rule="evenodd" d="M115.705 80.4855C115.345 80.4855 115.053 80.1946 115.053 79.8366C115.053 79.4785 115.345 79.1876 115.705 79.1876C116.064 79.1876 116.356 79.4785 116.356 79.8366C116.356 80.1946 116.064 80.4855 115.705 80.4855ZM116.163 79.6216C116.163 79.5289 116.088 79.4537 115.995 79.4537C115.902 79.4537 115.827 79.5289 115.826 79.6216C115.826 79.7143 115.902 79.7894 115.995 79.7894C116.088 79.7894 116.163 79.7143 116.163 79.6216Z" fill="#14307E"/>
<path fill-rule="evenodd" clip-rule="evenodd" d="M111.389 80.2857C111.389 80.7037 111.049 81.0426 110.63 81.0426C110.211 81.0426 109.87 80.7037 109.87 80.2857C109.87 79.8677 110.211 79.5288 110.63 79.5288C111.048 79.5288 111.389 79.8677 111.389 80.2857ZM111.165 80.0347C111.165 79.9268 111.077 79.8389 110.969 79.8389C110.861 79.8389 110.773 79.926 110.772 80.0347C110.772 80.1426 110.86 80.2306 110.969 80.2306C111.077 80.2306 111.165 80.1426 111.165 80.0347Z" fill="#14307E"/>
<path fill-rule="evenodd" clip-rule="evenodd" d="M113.56 92.0781C119.126 92.0781 123.638 87.566 123.638 82C123.638 76.434 119.126 71.9219 113.56 71.9219C107.994 71.9219 103.481 76.434 103.481 82C103.481 87.566 107.994 92.0781 113.56 92.0781ZM113.56 93.0156C119.643 93.0156 124.575 88.0838 124.575 82C124.575 75.9162 119.643 70.9844 113.56 70.9844C107.476 70.9844 102.544 75.9162 102.544 82C102.544 88.0838 107.476 93.0156 113.56 93.0156Z" fill="white"/>
<path d="M76 164H146C146 166.209 144.209 168 142 168H80C77.7909 168 76 166.209 76 164Z" fill="#444444"/>
<path d="M136 164H161C161 166.209 159.209 168 157 168H140C137.791 168 136 166.209 136 164Z" fill="#222222"/>
<path d="M76 164H146C146 161.791 144.209 160 142 160H80C77.7909 160 76 161.791 76 164Z" fill="#888888"/>
<path d="M136 164H161C161 161.791 159.209 160 157 160H140C137.791 160 136 161.791 136 164Z" fill="#666666"/>
<path d="M111 25.8504C111 25.3807 111.381 25 111.85 25H114.15C114.619 25 115 25.3807 115 25.8504V27.1496C115 27.6193 114.619 28 114.15 28H111.85C111.381 28 111 27.6193 111 27.1496V25.8504Z" fill="white"/>
<path d="M116 26.5C116 25.6716 116.672 25 117.5 25C118.328 25 119 25.6716 119 26.5C119 27.3284 118.328 28 117.5 28C116.672 28 116 27.3284 116 26.5Z" fill="#818BA7"/>
<path fill-rule="evenodd" clip-rule="evenodd" d="M227 74H181C178.791 74 177 75.7909 177 78V169C177 171.209 178.791 173 181 173H227C229.209 173 231 171.209 231 169V78C231 75.7909 229.209 74 227 74Z" fill="#444444"/>
<path d="M223 74H177C174.791 74 173 75.7909 173 78V169C173 171.209 174.791 173 177 173H223C225.209 173 227 171.209 227 169V78C227 75.7909 225.209 74 223 74Z" fill="#888888"/>
<path d="M177 80C177 78.8954 177.895 78 179 78H221C222.105 78 223 78.8954 223 80V167C223 168.105 222.105 169 221 169H179C177.895 169 177 168.105 177 167V80Z" fill="white"/>
<path d="M192 82C192 80.8954 192.895 80 194 80H206C207.105 80 208 80.8954 208 82C208 83.1046 207.105 84 206 84H194C192.895 84 192 83.1046 192 82Z" fill="#666666"/>
<path fill-rule="evenodd" clip-rule="evenodd" d="M200 129C206.627 129 212 123.627 212 117C212 110.373 206.627 105 200 105C193.373 105 188 110.373 188 117C188 123.627 193.373 129 200 129Z" fill="#DE5833"/>
<path fill-rule="evenodd" clip-rule="evenodd" d="M201.687 125.953C201.687 125.859 201.71 125.838 201.412 125.244C200.62 123.658 199.824 121.422 200.186 119.98C200.252 119.718 199.44 110.278 198.866 109.974C198.228 109.634 197.443 109.094 196.725 108.974C196.361 108.916 195.884 108.943 195.51 108.994C195.444 109.003 195.441 109.122 195.504 109.143C195.75 109.227 196.047 109.371 196.223 109.589C196.256 109.63 196.211 109.695 196.158 109.697C195.993 109.703 195.693 109.772 195.297 110.109C195.251 110.147 195.29 110.22 195.348 110.208C196.199 110.04 197.068 110.123 197.58 110.588C197.613 110.618 197.596 110.672 197.552 110.684C193.11 111.891 193.989 115.756 195.172 120.498C195.889 123.376 196.302 124.926 196.532 125.752C196.675 126.267 197.049 126.693 197.572 126.81C199.234 127.182 201.687 127.076 201.687 126.187V125.953Z" fill="#DDDDDD"/>
<path d="M202.297 126.844C201.758 127.055 200.703 127.149 200.094 127.149C199.2 127.149 197.914 127.008 197.445 126.797C197.156 125.906 196.289 123.144 195.434 119.637C195.406 119.523 195.378 119.408 195.35 119.295L195.349 119.292C194.332 115.138 193.502 111.745 198.054 110.679C198.096 110.669 198.116 110.619 198.089 110.586C197.567 109.967 196.588 109.764 195.351 110.191C195.3 110.208 195.256 110.157 195.287 110.113C195.53 109.779 196.004 109.522 196.238 109.409C196.287 109.386 196.284 109.315 196.232 109.299C196.079 109.251 195.819 109.178 195.525 109.13C195.456 109.119 195.45 109 195.519 108.991C197.273 108.755 199.105 109.281 200.025 110.439C200.033 110.45 200.046 110.458 200.059 110.461C203.425 111.184 203.666 116.505 203.279 116.747C203.202 116.795 202.957 116.768 202.634 116.731C201.324 116.585 198.731 116.295 200.871 120.284C200.892 120.323 200.864 120.376 200.82 120.383C199.613 120.57 201.16 124.352 202.297 126.844Z" fill="white"/>
<path d="M203.803 122.005C203.546 121.887 202.561 122.593 201.907 123.136C201.77 122.942 201.513 122.802 200.931 122.903C200.423 122.991 200.142 123.114 200.016 123.325C199.213 123.021 197.862 122.551 197.536 123.005C197.179 123.501 197.625 125.848 198.099 126.152C198.346 126.311 199.53 125.551 200.148 125.026C200.247 125.167 200.408 125.247 200.738 125.239C201.237 125.228 202.046 125.112 202.172 124.879C202.18 124.865 202.186 124.848 202.192 124.829C202.827 125.067 203.945 125.318 204.195 125.281C204.845 125.183 204.104 122.145 203.803 122.005Z" fill="#3CA82B"/>
<path d="M201.967 123.205C201.994 123.253 202.016 123.304 202.034 123.355C202.124 123.609 202.272 124.414 202.16 124.613C202.049 124.812 201.324 124.908 200.877 124.916C200.43 124.924 200.33 124.76 200.239 124.507C200.167 124.304 200.131 123.828 200.132 123.555C200.114 123.151 200.261 123.009 200.945 122.898C201.45 122.816 201.717 122.912 201.872 123.074C202.589 122.539 203.787 121.783 203.904 121.921C204.486 122.61 204.56 124.25 204.434 124.91C204.392 125.125 202.464 124.696 202.464 124.463C202.464 123.497 202.213 123.232 201.967 123.205Z" fill="#4CBA3C"/>
<path d="M197.743 122.904C197.901 122.654 199.181 122.964 199.884 123.277C199.884 123.277 199.74 123.932 199.97 124.703C200.037 124.929 198.352 125.933 198.133 125.76C197.878 125.56 197.411 123.429 197.743 122.904Z" fill="#4CBA3C"/>
<path fill-rule="evenodd" clip-rule="evenodd" d="M198.363 117.827C198.467 117.376 198.949 116.527 200.673 116.548C201.545 116.544 202.627 116.547 203.345 116.466C204.412 116.345 205.203 116.087 205.731 115.886C206.477 115.601 206.742 115.664 206.835 115.835C206.937 116.022 206.817 116.345 206.556 116.643C206.058 117.211 205.163 117.651 203.581 117.782C202 117.913 200.952 117.488 200.501 118.179C200.307 118.477 200.457 119.179 201.987 119.4C204.053 119.698 205.75 119.041 205.96 119.438C206.169 119.835 204.962 120.643 202.892 120.66C200.822 120.677 199.529 119.935 199.071 119.566C198.489 119.099 198.229 118.417 198.363 117.827Z" fill="#FFCC33"/>
<path d="M200.999 112.899C201.114 112.71 201.37 112.564 201.789 112.564C202.208 112.564 202.405 112.731 202.542 112.917C202.569 112.955 202.527 112.999 202.484 112.981C202.474 112.976 202.464 112.972 202.453 112.967C202.3 112.9 202.112 112.818 201.789 112.813C201.445 112.808 201.227 112.895 201.09 112.969C201.044 112.994 200.971 112.944 200.999 112.899Z" fill="#14307E"/>
<path d="M196.282 113.141C196.689 112.971 197.009 112.993 197.235 113.047C197.282 113.058 197.315 113.007 197.277 112.976C197.102 112.835 196.709 112.659 196.197 112.85C195.74 113.02 195.525 113.374 195.524 113.607C195.523 113.662 195.636 113.666 195.665 113.62C195.744 113.494 195.875 113.311 196.282 113.141Z" fill="#14307E"/>
<path fill-rule="evenodd" clip-rule="evenodd" d="M202.145 115.486C201.785 115.486 201.494 115.195 201.494 114.837C201.494 114.479 201.785 114.188 202.145 114.188C202.505 114.188 202.796 114.479 202.796 114.837C202.796 115.195 202.505 115.486 202.145 115.486ZM202.604 114.622C202.604 114.529 202.528 114.454 202.435 114.454C202.343 114.454 202.267 114.529 202.267 114.622C202.267 114.714 202.343 114.789 202.435 114.789C202.529 114.789 202.604 114.714 202.604 114.622Z" fill="#14307E"/>
<path fill-rule="evenodd" clip-rule="evenodd" d="M197.829 115.286C197.829 115.704 197.49 116.043 197.07 116.043C196.651 116.043 196.311 115.704 196.311 115.286C196.311 114.868 196.651 114.529 197.07 114.529C197.489 114.529 197.829 114.868 197.829 115.286ZM197.606 115.035C197.606 114.927 197.518 114.839 197.409 114.839C197.301 114.839 197.213 114.926 197.212 115.035C197.212 115.143 197.3 115.231 197.409 115.231C197.518 115.231 197.606 115.143 197.606 115.035Z" fill="#14307E"/>
<path fill-rule="evenodd" clip-rule="evenodd" d="M200 127.078C205.566 127.078 210.078 122.566 210.078 117C210.078 111.434 205.566 106.922 200 106.922C194.434 106.922 189.922 111.434 189.922 117C189.922 122.566 194.434 127.078 200 127.078ZM200 128.016C206.084 128.016 211.016 123.084 211.016 117C211.016 110.916 206.084 105.984 200 105.984C193.916 105.984 188.984 110.916 188.984 117C188.984 123.084 193.916 128.016 200 128.016Z" fill="white"/>
<path d="M229.694 33.5308C229.694 45.3206 220.137 54.8781 208.347 54.8781C196.557 54.8781 187 45.3206 187 33.5308C187 21.7411 196.557 12.1836 208.347 12.1836C220.137 12.1836 229.694 21.7411 229.694 33.5308Z" fill="#63C853"/>
<path fill-rule="evenodd" clip-rule="evenodd" d="M197.463 28.6474C197.951 28.1592 198.743 28.1592 199.231 28.6474L203.231 32.6474C203.719 33.1355 203.719 33.927 203.231 34.4151C202.743 34.9033 201.951 34.9033 201.463 34.4151L198.347 31.299L195.231 34.4151C194.743 34.9033 193.951 34.9033 193.463 34.4151C192.975 33.927 192.975 33.1355 193.463 32.6474L197.463 28.6474ZM213.463 32.6474C213.951 32.1592 214.743 32.1592 215.231 32.6474L218.347 35.7635L221.463 32.6474C221.951 32.1592 222.743 32.1592 223.231 32.6474C223.719 33.1355 223.719 33.927 223.231 34.4151L219.231 38.4151C218.997 38.6496 218.679 38.7812 218.347 38.7812C218.016 38.7812 217.698 38.6496 217.463 38.4151L213.463 34.4151C212.975 33.927 212.975 33.1355 213.463 32.6474Z" fill="white"/>
<path fill-rule="evenodd" clip-rule="evenodd" d="M209.665 24.8339C207.814 24.5581 205.922 24.8953 204.28 25.794C203.675 26.1254 202.915 25.9031 202.584 25.2975C202.252 24.6919 202.474 23.9323 203.08 23.6009C205.201 22.4404 207.642 22.0051 210.033 22.3612C212.424 22.7173 214.633 23.8453 216.324 25.5733L216.328 25.5777L216.328 25.5777C217.801 27.0983 218.819 29.001 219.266 31.0703C219.713 33.1396 219.571 35.2927 218.857 37.2857C218.624 37.9356 217.908 38.2737 217.259 38.0408C216.609 37.808 216.271 37.0924 216.503 36.4425C217.06 34.8891 217.17 33.211 216.822 31.5981C216.474 29.9863 215.681 28.5042 214.535 27.3194C213.226 25.9823 211.516 25.1095 209.665 24.8339ZM199.427 29.0179C200.079 29.2465 200.422 29.9598 200.193 30.6113C199.646 32.1712 199.547 33.8534 199.908 35.4666C200.27 37.0798 201.077 38.5592 202.237 39.7366L202.24 39.74C203.549 41.0783 205.26 41.9518 207.112 42.2276C208.963 42.5034 210.855 42.1662 212.497 41.2675C213.102 40.9361 213.862 41.1584 214.193 41.764C214.525 42.3696 214.303 43.1292 213.697 43.4606C211.576 44.6211 209.135 45.0564 206.744 44.7003C204.353 44.3443 202.145 43.2169 200.455 41.4896C198.967 39.9793 197.932 38.082 197.469 36.0131C197.005 33.9433 197.132 31.785 197.834 29.7836C198.063 29.1322 198.776 28.7894 199.427 29.0179Z" fill="white"/>
<path opacity="0.3" d="M237.795 56.7024C238.635 57.419 239.897 57.3186 240.614 56.4781C241.331 55.6376 241.23 54.3753 240.39 53.6586L234.302 48.468C233.462 47.7513 232.199 47.8517 231.483 48.6922C230.766 49.5327 230.867 50.7951 231.707 51.5118L237.795 56.7024Z" fill="#FAFAFA"/>
<path opacity="0.3" d="M237.795 10.2976C238.635 9.58098 239.897 9.68137 240.614 10.5219C241.331 11.3624 241.23 12.6247 240.39 13.3414L234.302 18.532C233.462 19.2487 232.199 19.1483 231.483 18.3078C230.766 17.4673 230.867 16.2049 231.707 15.4882L237.795 10.2976Z" fill="#CCCCCC"/>
<path opacity="0.3" d="M245.316 36C246.421 36 247.316 35.1046 247.316 34C247.316 32.8954 246.421 32 245.316 32H237.316C236.212 32 235.316 32.8954 235.316 34C235.316 35.1046 236.212 36 237.316 36H245.316Z" fill="#CCCCCC"/>
<defs>
<linearGradient id="paint0_linear_5095_88990" x1="44" y1="187.999" x2="246.081" y2="146.33" gradientUnits="userSpaceOnUse">
<stop stop-color="#6E88CE"/>
<stop offset="1" stop-color="#D4DFFF"/>
</linearGradient>
<clipPath id="clip0_5095_88990">
<rect width="133" height="181" fill="white" transform="matrix(-1 0 0 1 133 7)"/>
</clipPath>
</defs>
</svg>
