<svg width="96" height="72" viewBox="0 0 96 72" fill="none" xmlns="http://www.w3.org/2000/svg">
<path opacity="0.2" d="M79.2214 28.65L80.3786 28.35C80.5929 28.3071 80.8072 28.0929 80.85 27.8786L81.15 26.7214C81.2357 26.4214 81.4929 26.25 81.75 26.25C82.05 26.25 82.3072 26.4643 82.35 26.7214L82.65 27.8786C82.6928 28.0929 82.9071 28.3071 83.1214 28.35L84.2786 28.65C84.5786 28.7357 84.75 28.9929 84.75 29.25C84.75 29.55 84.5357 29.8071 84.2786 29.85L83.1214 30.15C82.9071 30.1929 82.6928 30.4071 82.65 30.6214L82.35 31.7786C82.2643 32.0786 82.0071 32.25 81.75 32.25C81.45 32.25 81.1928 32.0357 81.15 31.7786L80.85 30.6214C80.8072 30.4071 80.5929 30.1929 80.3786 30.15L79.2214 29.85C78.9214 29.7643 78.75 29.5071 78.75 29.25C78.75 28.95 78.9643 28.6929 79.2214 28.65Z" fill="#888888"/>
<path opacity="0.2" d="M11.9571 23.85L13.6928 23.4C14.0143 23.3357 14.3357 23.0143 14.4 22.6929L14.85 20.9571C14.9786 20.5071 15.3643 20.25 15.75 20.25C16.2 20.25 16.5857 20.5714 16.65 20.9571L17.1 22.6929C17.1643 23.0143 17.4857 23.3357 17.8072 23.4L19.5429 23.85C19.9929 23.9786 20.25 24.3643 20.25 24.75C20.25 25.2 19.9286 25.5857 19.5429 25.65L17.8072 26.1C17.4857 26.1643 17.1643 26.4857 17.1 26.8071L16.65 28.5429C16.5214 28.9929 16.1357 29.25 15.75 29.25C15.3 29.25 14.9143 28.9286 14.85 28.5429L14.4 26.8071C14.3357 26.4857 14.0143 26.1643 13.6928 26.1L11.9571 25.65C11.5071 25.5214 11.25 25.1357 11.25 24.75C11.25 24.3 11.5714 23.9143 11.9571 23.85Z" fill="#888888"/>
<path opacity="0.2" d="M0.471418 39.9L1.62857 39.6C1.84285 39.5571 2.05715 39.3429 2.10001 39.1286L2.39999 37.9714C2.4857 37.6714 2.74286 37.5 3 37.5C3.3 37.5 3.55715 37.7143 3.60001 37.9714L3.89999 39.1286C3.94285 39.3429 4.15715 39.5571 4.37143 39.6L5.52858 39.9C5.82858 39.9857 6 40.2429 6 40.5C6 40.8 5.78572 41.0571 5.52858 41.1L4.37143 41.4C4.15715 41.4429 3.94285 41.6571 3.89999 41.8714L3.60001 43.0286C3.5143 43.3286 3.25714 43.5 3 43.5C2.7 43.5 2.44285 43.2857 2.39999 43.0286L2.10001 41.8714C2.05715 41.6571 1.84285 41.4429 1.62857 41.4L0.471418 41.1C0.171418 41.0143 0 40.7571 0 40.5C0 40.2 0.214275 39.9429 0.471418 39.9Z" fill="#888888"/>
<path opacity="0.2" d="M94.875 39C94.2562 39 93.75 38.4937 93.75 37.875C93.75 37.2562 94.2562 36.75 94.875 36.75C95.4937 36.75 96 37.2562 96 37.875C96 38.4937 95.4937 39 94.875 39Z" fill="#888888"/>
<path opacity="0.2" d="M17.25 52.5C16.425 52.5 15.75 51.825 15.75 51C15.75 50.175 16.425 49.5 17.25 49.5C18.075 49.5 18.75 50.175 18.75 51C18.75 51.825 18.075 52.5 17.25 52.5Z" fill="#888888"/>
<path d="M52.5 57.0944C52.5 58.5356 51.4757 59.7937 50.0395 59.9146C49.3672 59.9711 48.687 60 48 60C34.7452 60 24 49.2548 24 36C24 22.7452 34.7452 12 48 12C57.8208 12 66.2639 17.8987 69.9795 26.3465C70.7688 28.1409 69.3343 30 67.374 30H58.5C55.1863 30 52.5 32.6863 52.5 36V57.0944Z" fill="#557FF3"/>
<path fill-rule="evenodd" clip-rule="evenodd" d="M56.6683 30.2847C56.1424 30.4532 55.6481 30.6921 55.1965 30.9905C54.7968 30.6475 54.3893 30.3132 53.9743 29.9881C53.7004 30.26 53.3669 30.4719 52.995 30.6024C52.2644 36.7944 49.9944 42.5151 46.5781 47.3711C46.91 47.7404 47.1386 48.2043 47.2186 48.7174C47.7264 48.7391 48.237 48.75 48.7501 48.75C50.0168 48.75 51.2679 48.6832 52.5 48.5529V50.0611C51.267 50.186 50.016 50.25 48.7501 50.25C48.1688 50.25 47.5908 50.2365 47.0161 50.2099C46.6033 51.1183 45.688 51.75 44.6251 51.75C44.1429 51.75 43.6912 51.6201 43.3029 51.3932C41.691 53.1108 39.9159 54.6734 38.0024 56.0563C38.569 56.9202 39.1724 57.7577 39.8106 58.5665C38.8721 58.2259 37.9609 57.8283 37.0811 57.3781C36.9757 57.223 36.8715 57.067 36.7685 56.9103C36.6837 56.9665 36.5986 57.0223 36.5133 57.0778C36.0201 56.8085 35.5375 56.5223 35.0661 56.2202C35.3705 56.0312 35.6718 55.8377 35.97 55.6398C34.2248 52.7331 32.8702 49.5652 31.9788 46.2087C29.2964 44.8305 26.8057 43.1322 24.557 41.164C24.3838 40.3742 24.2495 39.5698 24.1562 38.7529L24.2085 38.8037C26.1585 35.8966 28.5126 33.2833 31.1904 31.0442C31.5707 28.6046 32.1909 26.2444 33.0263 23.9885C32.6307 23.5961 32.3594 23.0785 32.2767 22.5L32.2501 22.5C30.8055 22.5 29.3812 22.5869 27.9822 22.7558C28.3531 22.1963 28.7469 21.6532 29.1622 21.1279C30.1802 21.0432 31.2101 21 32.2501 21C32.3342 21 32.4183 21.0003 32.5023 21.0009C32.9234 20.1136 33.8276 19.5 34.8751 19.5C34.9302 19.5 34.9849 19.5017 35.0392 19.5051C36.1067 17.4998 37.3546 15.6052 38.7612 13.8428C39.6704 13.4632 40.608 13.138 41.5699 12.8712C39.5836 15.027 37.8627 17.4311 36.4591 20.0317C36.8936 20.3609 37.2224 20.8223 37.3856 21.356C40.326 21.7672 43.1548 22.5262 45.8292 23.5903C47.6898 23.1263 49.6064 22.8042 51.5671 22.636C51.1856 18.8899 50.2175 15.3174 48.7562 12.0117C49.3214 12.0292 49.8817 12.0662 50.4364 12.1222C51.7954 15.3829 52.6982 18.8814 53.0649 22.538C53.6235 22.5128 54.1853 22.5 54.7501 22.5C60.0581 22.5 65.1033 23.6254 69.66 25.6505C69.9827 26.3245 70.2748 27.0159 70.5346 27.723C65.7859 25.3409 60.4246 24 54.7501 24C54.2254 24 53.7034 24.0115 53.1844 24.0342C53.2182 24.6031 53.2391 25.1755 53.2468 25.7511C54.1354 26.1717 54.7501 27.0766 54.7501 28.125C54.7501 28.3049 54.732 28.4805 54.6975 28.6501C55.3735 29.1724 56.0308 29.7176 56.6683 30.2847ZM37.3922 22.8724C37.0703 23.9581 36.0652 24.75 34.8751 24.75C34.7 24.75 34.5289 24.7329 34.3634 24.7002C33.7818 26.2993 33.3126 27.9524 32.9654 29.6499C36.0946 27.343 39.6028 25.5205 43.3793 24.293C41.4521 23.6522 39.451 23.1733 37.3922 22.8724ZM25.3218 39.8383C26.9137 37.43 28.7932 35.2284 30.9115 33.2828C30.8047 34.4242 30.7501 35.5807 30.7501 36.75C30.7501 39.323 31.0145 41.8342 31.5176 44.2579C29.2918 43.0082 27.2153 41.5238 25.3218 39.8383ZM32.59 31.8352C36.3943 28.7562 40.8522 26.4531 45.7232 25.1665C47.0949 25.7343 48.423 26.3862 49.7011 27.1159C49.5716 27.4265 49.5001 27.7674 49.5001 28.125C49.5001 29.3507 50.3401 30.3801 51.4758 30.6691C50.7406 36.5474 48.5579 41.9759 45.2958 46.5865C45.0817 46.5301 44.8569 46.5 44.6251 46.5C43.5234 46.5 42.5802 47.1788 42.1908 48.1409C39.0478 47.5494 36.052 46.5407 33.2631 45.1746C32.6011 42.4752 32.2501 39.6536 32.2501 36.75C32.2501 35.0821 32.3659 33.4413 32.59 31.8352ZM42.0507 49.6409C39.1637 49.1091 36.3948 48.2399 33.7866 47.0757C34.6197 49.7993 35.7738 52.3826 37.2048 54.7817C39.0359 53.4506 40.7339 51.9475 42.2752 50.2962C42.173 50.0915 42.0967 49.8716 42.0507 49.6409ZM48.1629 24.6144C49.0167 25.0252 49.8522 25.468 50.6679 25.9413C50.9844 25.7297 51.3494 25.5851 51.7428 25.5277C51.7334 25.0599 51.7149 24.5944 51.6875 24.1312C50.4946 24.2339 49.3188 24.396 48.1629 24.6144Z" fill="#ADC2FC"/>
<path d="M52.5 57.0936C52.5 58.5348 51.4757 59.7929 50.0395 59.9137C49.3672 59.9703 48.687 59.9992 48.0001 59.9992C41.8885 59.9992 36.3104 57.7148 32.0732 53.9532C32.6283 53.9838 33.1874 53.9993 33.75 53.9993C40.8446 53.9993 47.364 51.5366 52.5 47.4195V57.0936Z" fill="#7295F6" fill-opacity="0.6" style="mix-blend-mode:multiply"/>
<path d="M63.1499 29.9995C63.5434 28.0608 63.75 26.0542 63.75 23.9993C63.75 21.6799 63.4868 19.4221 62.9887 17.2539C65.995 19.6608 68.4097 22.7759 69.9799 26.3463C70.7691 28.1408 69.3345 29.9995 67.3742 29.9995H63.1499Z" fill="#7295F6" fill-opacity="0.6" style="mix-blend-mode:multiply"/>
<path d="M58.4999 33H64.4999C66.1567 33 67.4999 34.3431 67.4999 36V53.25V63C67.4999 64.6569 66.1567 66 64.4999 66H59.9604H58.4999C56.843 66 55.4999 64.6569 55.4999 63V36C55.4999 34.3431 56.843 33 58.4999 33Z" fill="#444444"/>
<path d="M60.5001 33H74.5001C76.157 33 77.5001 34.3431 77.5001 36V63C77.5001 64.6569 76.157 66 74.5001 66H60.5001C58.8433 66 57.5001 64.6569 57.5001 63V57.1154V36C57.5001 34.3431 58.8433 33 60.5001 33Z" fill="#666666"/>
<path fill-rule="evenodd" clip-rule="evenodd" d="M74.6788 64H60.3209C59.8662 64 59.4999 63.6045 59.4999 63.1212V35.8788C59.4999 35.3955 59.8662 35 60.3209 35H74.6788C75.1336 35 75.4999 35.3955 75.4999 35.8788V63.1212C75.4999 63.6045 75.1336 64 74.6788 64ZM65.4998 36.0001C64.9475 36.0001 64.4998 36.4478 64.4998 37.0001C64.4998 37.5524 64.9475 38.0001 65.4998 38.0001H69.4998C70.0521 38.0001 70.4998 37.5524 70.4998 37.0001C70.4998 36.4478 70.0521 36.0001 69.4998 36.0001H65.4998Z" fill="#FFCC33"/>
<path fill-rule="evenodd" clip-rule="evenodd" d="M73.5 48.75C73.5 52.0649 70.8149 54.75 67.5 54.75C64.1851 54.75 61.5 52.0649 61.5 48.75C61.5 45.4351 64.1851 42.75 67.5 42.75C70.8149 42.75 73.5 45.4351 73.5 48.75ZM72 48.75C72 50.4284 71.0811 51.8922 69.7189 52.6658C69.7741 52.3167 69.7293 51.5402 69.4475 51.2049C69.3892 51.1349 68.7915 51.5139 68.4329 51.7822C68.3571 51.7005 68.223 51.6539 67.9694 51.6947C67.9456 51.6981 67.9237 51.7025 67.9027 51.7067C67.8877 51.7097 67.8732 51.7127 67.8586 51.7151C67.7332 51.3069 67.6603 50.9483 67.6895 50.7151C67.4096 50.5664 67.223 50.3944 67.188 50.3273C67.1268 50.2166 67.2289 50.1641 67.2813 50.1932C67.2843 50.1961 67.2901 50.1991 67.2988 50.202C67.5933 50.3623 68.0656 50.5373 68.707 50.5693C68.7828 50.5722 68.8615 50.5752 68.9402 50.5752C69.9752 50.5664 70.5787 50.1641 70.4738 49.9629C70.4243 49.8694 70.2094 49.8933 69.8878 49.929H69.8878C69.5276 49.9691 69.0336 50.024 68.4883 49.9454C67.7245 49.8346 67.6487 49.4848 67.7449 49.3361C67.8918 49.111 68.1673 49.123 68.5615 49.1403C68.7697 49.1494 69.0112 49.16 69.2843 49.1378C70.0743 49.0737 70.5233 48.8521 70.7711 48.5693C70.9023 48.4206 70.9606 48.2603 70.9111 48.1641C70.8644 48.0795 70.7332 48.0475 70.3601 48.1903C70.1006 48.2894 69.7099 48.4177 69.188 48.4789C69.2784 47.8988 69.0073 45.7967 67.5233 45.4789C67.5175 45.476 67.5117 45.4731 67.5058 45.4673C67.0934 44.9405 66.2925 44.6759 65.4908 44.7223C66.0956 44.4201 66.7779 44.25 67.5 44.25C69.9853 44.25 72 46.2647 72 48.75ZM68.8003 52.4622C68.8003 52.5554 69.3638 52.722 69.6056 52.728C69.2358 52.9241 68.8354 53.0702 68.4135 53.1572C68.385 53.0919 68.3572 53.0275 68.3309 52.9658C68.1706 53.0154 67.9431 53.0387 67.7799 53.0445C67.656 53.0445 67.5554 53.0387 67.5029 52.9658C67.4018 53.0521 67.2679 53.1476 67.1282 53.2349C66.9037 53.3751 66.6642 53.4944 66.5216 53.5209C66.4741 53.5298 66.4373 53.5283 66.4155 53.5139C66.3306 53.4594 66.2476 53.2782 66.1828 53.0542L66.1828 53.0542C66.0607 52.6314 66.0039 52.0558 66.1239 51.89C66.1647 51.8317 66.2405 51.8026 66.3338 51.7938C66.2464 52.1524 66.4504 53.0387 66.5641 53.1291C66.6749 53.2166 67.4687 52.7442 67.4337 52.6335C67.3637 52.4002 67.3637 52.1903 67.3725 52.0591C67.4045 52.0154 67.5029 51.9483 67.57 51.9192C67.5641 51.9512 67.5612 51.9862 67.5641 52.0271C67.5641 52.1641 67.5816 52.4002 67.6166 52.5023C67.6633 52.6276 67.7128 52.7093 67.9344 52.7064C68.1589 52.7034 68.5204 52.6539 68.5758 52.5547C68.6312 52.4556 68.5583 52.0533 68.5117 51.925L68.4854 51.8638C68.4825 51.858 68.4796 51.8521 68.4767 51.8492H68.5547C68.6713 51.8754 68.7711 51.925 68.8003 52.4622ZM63 48.75C63 50.597 64.1128 52.1842 65.7045 52.8775C65.5595 52.3481 65.3525 51.567 65.086 50.4994C64.4942 48.1291 64.0539 46.1961 66.2755 45.5926C66.2988 45.5868 66.3076 45.5606 66.2901 45.546C66.0335 45.3128 65.5991 45.2719 65.1735 45.3565C65.1531 45.3594 65.1385 45.3448 65.1385 45.3273C65.1385 45.3215 65.1385 45.3157 65.1443 45.3098C65.2464 45.167 65.43 45.0562 65.5554 44.9892C65.4765 44.9182 65.3739 44.8685 65.2818 44.8338C63.9192 45.6072 63 47.0713 63 48.75ZM72.75 48.75C72.75 51.6495 70.3995 54 67.5 54C64.6005 54 62.25 51.6495 62.25 48.75C62.25 45.8505 64.6005 43.5 67.5 43.5C70.3995 43.5 72.75 45.8505 72.75 48.75ZM68.742 46.7413L68.7307 46.7363C68.654 46.702 68.5589 46.6596 68.395 46.6568C68.223 46.6539 68.1152 46.6976 68.0452 46.7355C68.0219 46.7472 67.9869 46.7238 67.9985 46.7005C68.0568 46.6072 68.1851 46.5343 68.395 46.5343C68.605 46.5343 68.7041 46.6189 68.7711 46.7093C68.7857 46.7268 68.7624 46.7501 68.742 46.7413ZM68.8994 47.6685C68.8994 47.8463 68.7536 47.9921 68.5729 47.9921C68.3921 47.9921 68.2464 47.8463 68.2464 47.6685C68.2464 47.4906 68.3921 47.3448 68.5729 47.3448C68.7536 47.3448 68.8994 47.4877 68.8994 47.6685ZM66.0364 47.5139C66.2464 47.5139 66.4154 47.683 66.4154 47.8929C66.4154 48.1029 66.2464 48.2719 66.0364 48.2719C65.8265 48.2719 65.6574 48.1029 65.6574 47.8929C65.6545 47.683 65.8265 47.5139 66.0364 47.5139ZM65.6399 46.8201C65.4359 46.9046 65.3717 46.9979 65.3309 47.0591C65.3163 47.0824 65.2609 47.0795 65.2609 47.0533C65.2609 46.9367 65.3688 46.7588 65.5962 46.6743C65.8528 46.5781 66.0481 46.6655 66.1356 46.7384C66.156 46.753 66.1385 46.7792 66.1152 46.7734C66.0044 46.7472 65.844 46.7355 65.6399 46.8201ZM68.8032 47.5606C68.8032 47.6072 68.7653 47.6451 68.7187 47.6451C68.672 47.6451 68.6341 47.6072 68.6341 47.5606C68.6341 47.5139 68.672 47.476 68.7187 47.476C68.7653 47.476 68.8032 47.5139 68.8032 47.5606ZM66.3047 47.7646C66.3047 47.82 66.2609 47.8638 66.2055 47.8638C66.1501 47.8638 66.1064 47.82 66.1064 47.7646C66.1064 47.7092 66.1501 47.6655 66.2055 47.6655C66.2609 47.6655 66.3047 47.7092 66.3047 47.7646Z" fill="#E2A412"/>
<path d="M80.553 47.6426H83.2546C83.7498 47.6426 84.1551 48.0478 84.1551 48.5431C84.1551 49.0384 83.7498 49.4436 83.2546 49.4436H80.553C80.0578 49.4436 79.6525 49.0384 79.6525 48.5431C79.6525 48.0478 80.0578 47.6426 80.553 47.6426Z" fill="#CCCCCC"/>
<path d="M81.4536 39.5391C81.6832 39.5391 81.9128 39.6291 82.0884 39.8047C82.4396 40.1559 82.4396 40.7277 82.0884 41.0789L80.2874 42.8799C79.9362 43.2311 79.3644 43.2311 79.0132 42.8799C78.662 42.5288 78.662 41.9569 79.0132 41.6057L80.8142 39.8047C80.9898 39.6291 81.2195 39.5391 81.4491 39.5391H81.4536Z" fill="#CCCCCC"/>
<path d="M79.6572 53.9473C79.4276 53.9473 79.198 54.0373 79.0224 54.2129C78.6712 54.5641 78.6712 55.1359 79.0224 55.4871L80.8234 57.2882C81.1746 57.6394 81.7464 57.6394 82.0976 57.2882C82.4488 56.937 82.4488 56.3651 82.0976 56.0139L80.2966 54.2129C80.121 54.0373 79.8914 53.9473 79.6617 53.9473H79.6572Z" fill="#CCCCCC"/>
</svg>
