<svg width="16" height="16" viewBox="0 0 16 16" fill="none" xmlns="http://www.w3.org/2000/svg">
<g clip-path="url(#clip0_6015_45704)">
<path fill-rule="evenodd" clip-rule="evenodd" d="M3.125 2.25C2.08947 2.25 1.25 3.08947 1.25 4.125V11.875C1.25 12.9105 2.08947 13.75 3.125 13.75H12.915C13.9505 13.75 14.79 12.9105 14.79 11.875V4.125C14.79 3.08947 13.9505 2.25 12.915 2.25H7.625C7.27982 2.25 7 1.97018 7 1.625C7 1.27982 7.27982 1 7.625 1H12.915C14.6409 1 16.04 2.39911 16.04 4.125V11.875C16.04 13.6009 14.6409 15 12.915 15H3.125C1.39911 15 0 13.6009 0 11.875V4.125C0 2.39911 1.39911 1 3.125 1H3.81135C4.30275 1 4.77452 1.19292 5.12512 1.53723L7.68793 4.05408C7.81731 4.18114 7.88513 4.35814 7.87377 4.53912C7.86242 4.72011 7.77302 4.88724 7.62878 4.99714L5.59747 6.54481L7.36039 8.1648C7.59682 8.38206 7.63016 8.74312 7.4375 9L6.125 10.75C5.91789 11.0261 5.52614 11.0821 5.25 10.875C4.97386 10.6679 4.91789 10.2761 5.125 10L6.09813 8.70249L4.20211 6.9602C4.06591 6.83505 3.99215 6.656 4.00066 6.47123C4.00918 6.28646 4.0991 6.11495 4.24622 6.00286L6.29716 4.44024L4.24927 2.42908C4.1324 2.31431 3.97515 2.25 3.81135 2.25H3.125Z" fill="black"/>
</g>
<defs>
<clipPath id="clip0_6015_45704">
<rect width="16" height="16" fill="white"/>
</clipPath>
</defs>
</svg>
