<svg width="13" height="12" viewBox="0 0 13 12" fill="none" xmlns="http://www.w3.org/2000/svg">
<g clip-path="url(#clip0_8556_735)">
<path d="M6.31451 8.6983C6.06692 8.45778 6.06119 8.0621 6.3017 7.81451L7.45722 6.625H4.125C3.77982 6.625 3.5 6.34518 3.5 6C3.5 5.65482 3.77982 5.375 4.125 5.375H7.3358L6.3017 4.31049C6.06119 4.0629 6.06692 3.66721 6.31451 3.4267C6.5621 3.18618 6.95778 3.19192 7.1983 3.43951L9.3233 5.62701C9.5589 5.86954 9.5589 6.25546 9.3233 6.49799L7.1983 8.68549C6.95778 8.93308 6.5621 8.93881 6.31451 8.6983Z" fill="#3969EF"/>
<path fill-rule="evenodd" clip-rule="evenodd" d="M6.5 0C3.18629 0 0.5 2.68629 0.5 6C0.5 9.31371 3.18629 12 6.5 12C9.81371 12 12.5 9.31371 12.5 6C12.5 2.68629 9.81371 0 6.5 0ZM1.75 6C1.75 3.37665 3.87665 1.25 6.5 1.25C9.12335 1.25 11.25 3.37665 11.25 6C11.25 8.62335 9.12335 10.75 6.5 10.75C3.87665 10.75 1.75 8.62335 1.75 6Z" fill="#3969EF"/>
</g>
<defs>
<clipPath id="clip0_8556_735">
<rect width="12" height="12" fill="white" transform="translate(0.5)"/>
</clipPath>
</defs>
</svg>
