<svg width="16" height="16" viewBox="0 0 16 16" fill="none" xmlns="http://www.w3.org/2000/svg">
<g id="Image-Copy-16D">
<g id="Shape">
<path d="M6.4375 5.37537C6.95527 5.37537 7.375 4.95563 7.375 4.43787C7.375 3.9201 6.95527 3.50037 6.4375 3.50037C5.91973 3.50037 5.5 3.9201 5.5 4.43787C5.5 4.95563 5.91973 5.37537 6.4375 5.37537Z" fill="black" fill-opacity="0.84"/>
<path fill-rule="evenodd" clip-rule="evenodd" d="M3 4.14258C3 2.41669 4.39911 1.01758 6.125 1.01758H12.875C14.6009 1.01758 16 2.41669 16 4.14258V9.27189C16 10.9978 14.6009 12.3969 12.875 12.3969H6.125C4.39911 12.3969 3 10.9978 3 9.27189V4.14258ZM6.125 2.26758C5.08947 2.26758 4.25 3.10705 4.25 4.14258V9.27189C4.25 9.56502 4.31727 9.84244 4.43721 10.0896L7.86312 6.66365C8.1072 6.41957 8.50293 6.41957 8.74701 6.66365L9.49996 7.41661L11.8462 5.07039C11.9634 4.95318 12.1224 4.88733 12.2881 4.88733C12.4539 4.88733 12.6129 4.95318 12.7301 5.07039L14.75 7.09032V4.14258C14.75 3.10704 13.9105 2.26758 12.875 2.26758H6.125ZM14.75 8.85809L12.2881 6.39621L10.3838 8.30049L11.1368 9.05348C11.3809 9.29756 11.3809 9.69328 11.1368 9.93736C10.8928 10.1814 10.497 10.1814 10.253 9.93736L8.30506 7.98947L5.32594 10.9686C5.56834 11.0829 5.8392 11.1469 6.125 11.1469H12.875C13.9105 11.1469 14.75 10.3074 14.75 9.27189V8.85809Z" fill="black" fill-opacity="0.84"/>
<path d="M2 4.21568C2 4.0401 1.82369 3.92014 1.66841 4.00209C0.67625 4.52574 0 5.56769 0 6.76758V11.8969C0 13.6228 1.39911 15.0219 3.125 15.0219H9.875C11.0841 15.0219 12.1329 14.3352 12.6525 13.3305C12.7328 13.1752 12.6128 13.0004 12.438 13.0004H11.5182C11.4383 13.0004 11.3641 13.0393 11.3128 13.1005C10.9688 13.5109 10.4524 13.7719 9.875 13.7719H3.125C2.08947 13.7719 1.25 12.9324 1.25 11.8969V6.76758C1.25 6.19901 1.50306 5.68956 1.9027 5.3457C1.9623 5.29442 2 5.22118 2 5.14255V4.21568Z" fill="black" fill-opacity="0.84"/>
</g>
</g>
</svg>
