<svg width="16" height="16" viewBox="0 0 16 16" fill="none" xmlns="http://www.w3.org/2000/svg">
<path fill-rule="evenodd" clip-rule="evenodd" d="M9.975 1H10.125C11.8509 1 13.25 2.39911 13.25 4.125V6.29259L14.5081 7.6671C14.8245 8.01279 15 8.46444 15 8.93307V14.125C15 15.1605 14.1605 16 13.125 16H7.875C7.15543 16 6.53054 15.5947 6.21619 14.9999C6.21462 14.9999 6.21304 14.9999 6.21146 14.9999C6.20866 15 6.20585 15 6.20303 15H4.125C2.39911 15 1 13.6009 1 11.875V4.125C1 2.43267 2.34522 1.05454 4.02468 1.00158C4.13989 0.430233 4.6447 0 5.25 0H8.75C9.35474 0 9.85918 0.42944 9.975 1ZM4.10406 2.25011C3.07817 2.26134 2.25 3.09645 2.25 4.125V11.875C2.25 12.9105 3.08947 13.75 4.125 13.75H6V6.875C6 5.83947 6.83946 5 7.875 5H11.2412C11.5054 5 11.7635 5.05574 12 5.16039V4.125C12 3.08947 11.1605 2.25 10.125 2.25H9.89599C9.7031 2.69148 9.26258 3 8.75 3H5.25C4.73746 3 4.29698 2.69153 4.10406 2.25011ZM5 1.75C5 1.88807 5.11193 2 5.25 2H8.75C8.88807 2 9 1.88807 9 1.75V1.25C9 1.11193 8.88807 1 8.75 1H5.25C5.11193 1 5 1.11193 5 1.25V1.75ZM7.25 6.875C7.25 6.52982 7.52982 6.25 7.875 6.25H11V9C11 9.55228 11.4477 10 12 10H13.75V14.125C13.75 14.4702 13.4702 14.75 13.125 14.75H7.875C7.52982 14.75 7.25 14.4702 7.25 14.125V6.875ZM13.75 9V8.93307C13.75 8.77686 13.6915 8.62631 13.586 8.51108L12 6.77829V9H13.75Z" fill="black" fill-opacity="0.84"/>
</svg>
