<svg width="16" height="16" viewBox="0 0 16 16" fill="none" xmlns="http://www.w3.org/2000/svg">
<g id="Icon">
<g id="Shape">
<path d="M6.25 5.625C6.25 5.27982 5.97018 5 5.625 5C5.27982 5 5 5.27982 5 5.625V12.375C5 12.7202 5.27982 13 5.625 13C5.97018 13 6.25 12.7202 6.25 12.375V5.625Z" fill="black" fill-opacity="0.84"/>
<path d="M11 5.625C11 5.27982 10.7202 5 10.375 5C10.0298 5 9.75 5.27982 9.75 5.625V12.375C9.75 12.7202 10.0298 13 10.375 13C10.7202 13 11 12.7202 11 12.375V5.625Z" fill="black" fill-opacity="0.84"/>
<path fill-rule="evenodd" clip-rule="evenodd" d="M11 2V1.875C11 0.839466 10.1605 0 9.125 0H6.875C5.83947 0 5 0.839466 5 1.875V2H1.625C1.27982 2 1 2.27982 1 2.625C1 2.97018 1.27982 3.25 1.625 3.25H2V12.875C2 14.6009 3.39911 16 5.125 16H10.875C12.6009 16 14 14.6009 14 12.875V3.25H14.375C14.7202 3.25 15 2.97018 15 2.625C15 2.27982 14.7202 2 14.375 2H11ZM6.25 2H9.75V1.875C9.75 1.52982 9.47018 1.25 9.125 1.25H6.875C6.52982 1.25 6.25 1.52982 6.25 1.875V2ZM12.75 3.25H3.25V12.875C3.25 13.9105 4.08947 14.75 5.125 14.75H10.875C11.9105 14.75 12.75 13.9105 12.75 12.875V3.25Z" fill="black" fill-opacity="0.84"/>
</g>
</g>
</svg>
