<svg width="96" height="64" viewBox="0 0 96 64" fill="none" xmlns="http://www.w3.org/2000/svg">
<g opacity="0.2">
<path d="M79.2214 24.4L80.3786 24.1C80.5929 24.0571 80.8072 23.8429 80.85 23.6286L81.15 22.4714C81.2357 22.1714 81.4929 22 81.75 22C82.05 22 82.3072 22.2143 82.35 22.4714L82.65 23.6286C82.6928 23.8429 82.9071 24.0571 83.1214 24.1L84.2786 24.4C84.5786 24.4857 84.75 24.7429 84.75 25C84.75 25.3 84.5357 25.5571 84.2786 25.6L83.1214 25.9C82.9071 25.9429 82.6928 26.1571 82.65 26.3714L82.35 27.5286C82.2643 27.8286 82.0071 28 81.75 28C81.45 28 81.1928 27.7857 81.15 27.5286L80.85 26.3714C80.8072 26.1571 80.5929 25.9429 80.3786 25.9L79.2214 25.6C78.9214 25.5143 78.75 25.2571 78.75 25C78.75 24.7 78.9643 24.4429 79.2214 24.4Z" fill="#888888"/>
<path d="M11.9571 19.6L13.6928 19.15C14.0143 19.0857 14.3357 18.7643 14.4 18.4429L14.85 16.7071C14.9786 16.2571 15.3643 16 15.75 16C16.2 16 16.5857 16.3214 16.65 16.7071L17.1 18.4429C17.1643 18.7643 17.4857 19.0857 17.8072 19.15L19.5429 19.6C19.9929 19.7286 20.25 20.1143 20.25 20.5C20.25 20.95 19.9286 21.3357 19.5429 21.4L17.8072 21.85C17.4857 21.9143 17.1643 22.2357 17.1 22.5571L16.65 24.2929C16.5214 24.7429 16.1357 25 15.75 25C15.3 25 14.9143 24.6786 14.85 24.2929L14.4 22.5571C14.3357 22.2357 14.0143 21.9143 13.6928 21.85L11.9571 21.4C11.5071 21.2714 11.25 20.8857 11.25 20.5C11.25 20.05 11.5714 19.6643 11.9571 19.6Z" fill="#888888"/>
<path d="M0.471418 35.65L1.62857 35.35C1.84285 35.3071 2.05715 35.0929 2.10001 34.8786L2.39999 33.7214C2.4857 33.4214 2.74286 33.25 3 33.25C3.3 33.25 3.55715 33.4643 3.60001 33.7214L3.89999 34.8786C3.94285 35.0929 4.15715 35.3071 4.37143 35.35L5.52858 35.65C5.82858 35.7357 6 35.9929 6 36.25C6 36.55 5.78572 36.8071 5.52858 36.85L4.37143 37.15C4.15715 37.1929 3.94285 37.4071 3.89999 37.6214L3.60001 38.7786C3.5143 39.0786 3.25714 39.25 3 39.25C2.7 39.25 2.44285 39.0357 2.39999 38.7786L2.10001 37.6214C2.05715 37.4071 1.84285 37.1929 1.62857 37.15L0.471418 36.85C0.171418 36.7643 0 36.5071 0 36.25C0 35.95 0.214275 35.6929 0.471418 35.65Z" fill="#888888"/>
<path d="M94.875 34.75C94.2562 34.75 93.75 34.2438 93.75 33.625C93.75 33.0062 94.2562 32.5 94.875 32.5C95.4938 32.5 96 33.0062 96 33.625C96 34.2438 95.4938 34.75 94.875 34.75Z" fill="#888888"/>
<path d="M17.25 48.25C16.425 48.25 15.75 47.575 15.75 46.75C15.75 45.925 16.425 45.25 17.25 45.25C18.075 45.25 18.75 45.925 18.75 46.75C18.75 47.575 18.075 48.25 17.25 48.25Z" fill="#888888"/>
</g>
<path d="M36 9L60 8C66.0751 8 72 13.9249 72 20V34C72 35.1046 71.1046 36 70 36H54V54C54 55.1046 53.1046 56 52 56H36C29.9249 56 24 50.0751 24 44L25 20C25 13.9249 29.9249 9 36 9Z" fill="#7295F6"/>
<path fill-rule="evenodd" clip-rule="evenodd" d="M35 11C30.5817 11 27 14.5817 27 19V43C27 47.4183 30.5817 51 35 51H54.0085C54.0028 50.834 54 50.6673 54 50.5C54 42.9984 59.6967 36.8272 67 36.0766V19C67 14.5817 63.4183 11 59 11H35Z" fill="#CCDAFF"/>
<path d="M36.5746 17.9707H35.0843C34.4701 17.9707 33.9722 18.4686 33.9722 19.0828V20.5732C33.9722 21.1874 34.4701 21.6853 35.0843 21.6853H36.5746C37.1888 21.6853 37.6868 21.1874 37.6868 20.5732V19.0828C37.6868 18.4686 37.1888 17.9707 36.5746 17.9707Z" fill="#8FABF9"/>
<path d="M50.6899 15H49.9425C49.7385 15 49.5732 15.1653 49.5732 15.3692V25.7746C49.5732 25.9785 49.7385 26.1438 49.9425 26.1438H50.6899C50.8938 26.1438 51.0591 25.9785 51.0591 25.7746V15.3692C51.0591 15.1653 50.8938 15 50.6899 15Z" fill="#8FABF9"/>
<path d="M62.5761 26.8867H61.8332C61.6261 26.8867 61.464 27.0533 61.464 27.2559V29.1155C61.464 29.5252 61.1308 29.8584 60.7211 29.8584H55.5206C55.1109 29.8584 54.7777 29.5252 54.7777 29.1155V27.2604C54.7777 27.0533 54.6111 26.8867 54.4085 26.8867H53.6656C53.4585 26.8867 53.2964 27.0533 53.2964 27.2604V29.4892C53.2964 30.5158 54.1294 31.3442 55.1514 31.3442H61.0948C62.1214 31.3442 62.9498 30.5113 62.9498 29.4892V27.2604C62.9498 27.0533 62.7832 26.8912 62.5806 26.8912L62.5761 26.8867Z" fill="#8FABF9"/>
<path d="M38.0556 26.8867H37.3127C37.1056 26.8867 36.9435 27.0533 36.9435 27.2604V29.1155C36.9435 29.5252 36.6103 29.8584 36.2006 29.8584H35.0884C34.8813 29.8584 34.7192 30.025 34.7192 30.2276V30.9705C34.7192 31.1776 34.8858 31.3442 35.0884 31.3442H36.5743C37.6009 31.3442 38.4293 30.5113 38.4293 29.4892V27.2604C38.4293 27.0533 38.2627 26.8867 38.0556 26.8867Z" fill="#8FABF9"/>
<path d="M45.1157 39.5159C45.1157 39.1061 45.4489 38.773 45.8586 38.773H49.9425C50.1496 38.773 50.3117 38.6064 50.3117 38.3992V37.6563C50.3117 37.4492 50.1451 37.2871 49.9425 37.2871H45.4849C44.4583 37.2871 43.6299 38.1201 43.6299 39.1422V45.0855C43.6299 46.1121 44.4629 46.9406 45.4849 46.9406H49.1995C49.4066 46.9406 49.5732 46.774 49.5732 46.5714V45.8284C49.5732 45.6213 49.4066 45.4547 49.1995 45.4547H45.8586C45.4489 45.4547 45.1157 45.1215 45.1157 44.7118V39.5114V39.5159Z" fill="#8FABF9"/>
<path d="M31 32.0872C31 33.7306 32.3282 35.0588 33.9717 35.0588H49.9422C50.1493 35.0588 50.3114 34.8922 50.3114 34.6851V33.9422C50.3114 33.7351 50.1448 33.573 49.9422 33.573H33.9717C33.1522 33.573 32.4858 32.9066 32.4858 32.0872V27.2604C32.4858 27.0533 32.3192 26.8867 32.1166 26.8867H31.3737C31.1666 26.8867 31.0045 27.0533 31.0045 27.2604V32.0872H31Z" fill="#8FABF9"/>
<path d="M56.2593 33.5723C54.6159 33.5723 53.2876 34.9005 53.2876 36.5439V42.861C53.2876 43.0681 53.4542 43.2302 53.6568 43.2302H54.3997C54.6068 43.2302 54.7689 43.0636 54.7689 42.861V36.5439C54.7689 35.7245 55.4353 35.0581 56.2548 35.0581H61.8289C62.036 35.0581 62.1981 34.8915 62.1981 34.6844V33.9415C62.1981 33.7344 62.0315 33.5723 61.8289 33.5723H56.2548H56.2593Z" fill="#8FABF9"/>
<path d="M45.1152 23.9142H46.9703C47.1774 23.9142 47.3395 23.7476 47.3395 23.5405V22.7975C47.3395 22.5904 47.1729 22.4283 46.9703 22.4238H45.1152C43.4718 22.4238 42.1436 23.7521 42.1436 25.3955V28.3672C42.1436 30.0106 43.4718 31.3389 45.1152 31.3389H49.942C50.1491 31.3389 50.3112 31.1723 50.3112 30.9652V30.2222C50.3112 30.0151 50.1446 29.853 49.942 29.8485H45.1107C44.2913 29.8485 43.6249 29.1821 43.6249 28.3627V25.391C43.6249 24.5715 44.2913 23.9052 45.1107 23.9052L45.1152 23.9142Z" fill="#8FABF9"/>
<path d="M36.8668 15H34.7911C32.6975 15 31 16.6975 31 18.7911V20.8668C31 22.9605 32.6975 24.658 34.7911 24.658H36.8668C38.9605 24.658 40.658 22.9605 40.658 20.8668V18.7911C40.658 16.6975 38.9605 15 36.8668 15ZM36.9434 23.1721H34.7101C33.4809 23.1721 32.4858 22.1771 32.4858 20.9479V18.7146C32.4858 17.4854 33.4809 16.4903 34.7101 16.4903H36.9434C38.1726 16.4903 39.1676 17.4854 39.1676 18.7146V20.9479C39.1676 22.1771 38.1726 23.1721 36.9434 23.1721Z" fill="#8FABF9"/>
<path d="M36.8668 37.2871H34.7911C32.6975 37.2871 31 38.9846 31 41.0783V43.1539C31 45.2476 32.6975 46.9451 34.7911 46.9451H36.8668C38.9605 46.9451 40.658 45.2476 40.658 43.1539V41.0783C40.658 38.9846 38.9605 37.2871 36.8668 37.2871ZM36.9434 45.4592H34.7101C33.4809 45.4592 32.4858 44.4642 32.4858 43.235V41.0017C32.4858 39.7725 33.4809 38.7775 34.7101 38.7775H36.9434C38.1726 38.7775 39.1676 39.7725 39.1676 41.0017V43.235C39.1676 44.4642 38.1726 45.4592 36.9434 45.4592Z" fill="#8FABF9"/>
<path d="M59.1544 15H57.0787C54.9851 15 53.2876 16.6975 53.2876 18.7911V20.8668C53.2876 22.9605 54.9851 24.658 57.0787 24.658H59.1544C61.2481 24.658 62.9456 22.9605 62.9456 20.8668V18.7911C62.9456 16.6975 61.2481 15 59.1544 15ZM59.231 23.1721H56.9977C55.7685 23.1721 54.7734 22.1771 54.7734 20.9479V18.7146C54.7734 17.4854 55.7685 16.4903 56.9977 16.4903H59.231C60.4601 16.4903 61.4552 17.4854 61.4552 18.7146V20.9479C61.4552 22.1771 60.4601 23.1721 59.231 23.1721Z" fill="#8FABF9"/>
<path d="M47.3442 18.7136C47.3442 18.3033 47.0116 17.9707 46.6013 17.9707C46.191 17.9707 45.8584 18.3033 45.8584 18.7136C45.8584 19.1239 46.191 19.4565 46.6013 19.4565C47.0116 19.4565 47.3442 19.1239 47.3442 18.7136Z" fill="#8FABF9"/>
<path d="M58.4883 38.7722C58.4883 38.3619 58.1557 38.0293 57.7454 38.0293C57.3351 38.0293 57.0024 38.3619 57.0024 38.7722C57.0024 39.1825 57.3351 39.5151 57.7454 39.5151C58.1557 39.5151 58.4883 39.1825 58.4883 38.7722Z" fill="#8FABF9"/>
<path d="M44.3726 15.7429C44.3726 15.3326 44.0399 15 43.6296 15C43.2193 15 42.8867 15.3326 42.8867 15.7429C42.8867 16.1532 43.2193 16.4858 43.6296 16.4858C44.0399 16.4858 44.3726 16.1532 44.3726 15.7429Z" fill="#8FABF9"/>
<path d="M58.8613 17.9707H57.3709C56.7567 17.9707 56.2588 18.4686 56.2588 19.0828V20.5732C56.2588 21.1874 56.7567 21.6853 57.3709 21.6853H58.8613C59.4755 21.6853 59.9734 21.1874 59.9734 20.5732V19.0828C59.9734 18.4686 59.4755 17.9707 58.8613 17.9707Z" fill="#8FABF9"/>
<path d="M36.5701 40.2598H35.0888C34.4721 40.2598 33.9722 40.7597 33.9722 41.3764V42.8577C33.9722 43.4744 34.4721 43.9744 35.0888 43.9744H36.5701C37.1868 43.9744 37.6868 43.4744 37.6868 42.8577V41.3764C37.6868 40.7597 37.1868 40.2598 36.5701 40.2598Z" fill="#8FABF9"/>
<path d="M59 8H35C28.9249 8 24 12.9249 24 19V43C24 49.0751 28.9249 54 35 54H54.0085C54 52.5 54.0434 52.0309 54.0085 51H35C30.5817 51 27 47.4183 27 43V19C27 14.5817 30.5817 11 35 11H59C63.4183 11 67 14.5817 67 19V36.0766C67.9862 35.9753 69 36.0766 70 36V19C70 12.9249 65.0751 8 59 8Z" fill="#8FABF9"/>
<path d="M68.5 62C74.8513 62 80 56.8513 80 50.5C80 44.1487 74.8513 39 68.5 39C62.1487 39 57 44.1487 57 50.5C57 56.8513 62.1487 62 68.5 62Z" fill="#4CBA3C"/>
<path d="M70.59 49.1914V44.8195C70.59 44.3647 70.2208 44 69.7706 44H67.0375C66.5828 44 66.2181 44.3692 66.2181 44.8195V49.1914C66.2181 49.6462 65.8488 50.0109 65.3986 50.0109H63.8227C63.0933 50.0109 62.7241 50.8934 63.2419 51.4112L67.821 55.9903C68.1406 56.31 68.6584 56.31 68.9826 55.9903L73.5617 51.4112C74.0795 50.8934 73.7103 50.0109 72.9809 50.0109H71.405C70.9502 50.0109 70.5855 49.6417 70.5855 49.1914H70.59Z" fill="white"/>
<path d="M83.9239 49.3945H86.6255C87.1208 49.3945 87.526 49.7998 87.526 50.295C87.526 50.7903 87.1208 51.1955 86.6255 51.1955H83.9239C83.4287 51.1955 83.0234 50.7903 83.0234 50.295C83.0234 49.7998 83.4287 49.3945 83.9239 49.3945Z" fill="#CCCCCC"/>
<path d="M84.8244 41.2891C85.054 41.2891 85.2836 41.3791 85.4592 41.5547C85.8104 41.9059 85.8104 42.4777 85.4592 42.8289L83.6582 44.6299C83.307 44.9811 82.7352 44.9811 82.384 44.6299C82.0328 44.2788 82.0328 43.7069 82.384 43.3557L84.185 41.5547C84.3606 41.3791 84.5902 41.2891 84.8199 41.2891H84.8244Z" fill="#CCCCCC"/>
<path d="M83.0281 55.6973C82.7985 55.6973 82.5689 55.7873 82.3933 55.9629C82.0421 56.3141 82.0421 56.8859 82.3933 57.2371L84.1943 59.0382C84.5455 59.3894 85.1173 59.3894 85.4685 59.0382C85.8197 58.687 85.8197 58.1151 85.4685 57.7639L83.6675 55.9629C83.4919 55.7873 83.2623 55.6973 83.0326 55.6973H83.0281Z" fill="#CCCCCC"/>
</svg>
