<svg xmlns="http://www.w3.org/2000/svg" width="16" height="16" fill="none" viewBox="0 0 16 16">
  <path fill="#000" fill-opacity=".84" d="M.753 2.247a.625.625 0 0 1-.136-1.243l.07.62-.07-.62h.005l.007-.001L.647 1A2.955 2.955 0 0 1 .888.993c.155.001.371.013.638.053.536.08 1.275.27 2.14.71 1.623.823 3.649 2.497 5.607 5.856l.816-3.045a.625.625 0 0 1 1.207.324l-1.23 4.588a.625.625 0 0 1-.765.442l-4.588-1.23a.625.625 0 0 1 .324-1.207l3.216.862C6.376 5.087 4.49 3.575 3.1 2.87c-.737-.374-1.346-.527-1.757-.588a3.37 3.37 0 0 0-.57-.037.689.689 0 0 0-.02.002Z"/>
  <path fill="#000" fill-opacity=".84" d="M10 1.625c0-.345.28-.625.625-.625h2.25C14.601 1 16 2.4 16 4.125v7.75C16 13.601 14.6 15 12.875 15h-9.75A3.125 3.125 0 0 1 0 11.875v-4.25a.625.625 0 1 1 1.25 0v4.25c0 1.036.84 1.875 1.875 1.875h9.75c1.036 0 1.875-.84 1.875-1.875v-7.75c0-1.036-.84-1.875-1.875-1.875h-2.25A.625.625 0 0 1 10 1.625Z"/>
</svg>
