<svg width="44" height="44" viewBox="0 0 44 44" fill="none" xmlns="http://www.w3.org/2000/svg">
<path fill-rule="evenodd" clip-rule="evenodd" d="M22 44C34.1503 44 44 34.1503 44 22C44 9.84974 34.1503 0 22 0C9.84974 0 0 9.84974 0 22C0 34.1503 9.84974 44 22 44Z" fill="#DE5833"/>
<path d="M22.0044 3.56229C11.8186 3.56229 3.56094 11.8194 3.56094 22.0059C3.56094 29.9785 8.62021 36.7699 15.7041 39.3448C14.5419 33.7989 12.1621 22.7014 11.576 19.4017C10.9167 15.6986 12.0233 12.6088 14.5302 11.2898C14.6106 11.2473 14.6998 11.2091 14.7977 11.171C14.8314 11.1534 14.8635 11.1343 14.8971 11.1167C15.6777 10.7044 16.7639 10.3948 17.9435 10.232C16.2756 9.73462 13.9967 9.62605 12.4589 9.78303C12.4516 9.52628 12.6898 8.98343 13.0085 8.83672C13.1269 8.7839 13.2585 8.75015 13.3959 8.72815C13.7321 8.59023 14.1604 8.51834 14.4747 8.39804C13.83 8.13542 12.8053 7.65859 12.5363 7.63071C12.7571 7.59697 12.9193 7.49867 13.1912 7.44879C13.1898 7.44879 13.1883 7.44879 13.1854 7.44879C15.4731 7.05706 17.8266 7.42678 19.8819 8.50514C20.93 9.06559 21.6711 9.66713 22.1286 10.298C23.3244 10.5254 24.3798 10.9582 25.0683 11.6463C27.185 13.759 29.0736 18.5845 28.2901 21.3648C29.6963 21.0273 32.7208 20.2644 33.5876 19.8609C34.5042 19.4399 38.3896 20.0693 35.6517 21.598C34.4676 22.2612 31.2751 23.4789 28.9917 24.1597C26.7114 24.8419 25.33 23.5068 24.5713 24.6292C23.9705 25.5198 24.45 26.7404 27.1733 26.9943C30.8541 27.3346 34.3799 25.3378 34.7687 26.4001C35.1576 27.4637 31.6084 28.7827 29.4464 28.8267C27.2844 28.8678 22.9282 27.3977 22.2763 26.9429C22.2733 26.9414 22.2719 26.94 22.269 26.9385C21.8494 28.7724 22.4108 31.274 23.2732 33.595C24.026 33.4791 24.7759 33.5055 24.8593 33.7138C24.887 33.7843 24.9221 33.9031 24.9587 34.0557C25.8957 33.372 28.2652 31.7024 28.885 31.8403C29.6583 32.0163 29.8308 37.5255 29.1423 37.7896C28.6278 37.9818 26.248 37.1088 25.0741 36.654C25.0405 36.7244 24.9981 36.7802 24.9455 36.8139C24.9046 36.8418 24.8563 36.8682 24.8037 36.8932C24.7964 36.921 24.7891 36.946 24.7803 36.9709C25.1955 37.7823 25.7378 38.8093 26.324 39.9375C34.4252 37.995 40.4478 30.7032 40.4478 22.0045C40.4478 11.8194 32.1901 3.56229 22.0044 3.56229Z" fill="#DE5833"/>
<path d="M22.0044 0.0102539C9.85836 0.0102539 0.0102539 9.8578 0.0102539 22.0044C0.0102539 33.1826 8.34833 42.4125 19.1451 43.8137C20.0807 43.9354 21.0352 43.9985 22.0044 43.9985C22.709 43.9985 23.4048 43.9648 24.0918 43.9002C35.26 42.8483 43.9971 33.4467 43.9971 22.0044C43.9986 9.8578 34.1519 0.0102539 22.0044 0.0102539ZM26.1296 41.7435C24.7979 42.0208 23.418 42.166 22.0044 42.166C19.9564 42.166 17.9801 41.8609 16.1192 41.2931C7.8557 38.7754 1.84334 31.092 1.84334 22.0044C1.84334 10.8701 10.8699 1.84273 22.0044 1.84273C33.1389 1.84273 42.1655 10.8687 42.1655 22.0044C42.1655 31.7258 35.2863 39.8391 26.1296 41.7435Z" fill="#DE5833"/>
<path d="M11.576 19.4017C12.1621 22.7013 14.542 33.7989 15.7056 39.3433C16.0374 39.4636 16.3751 39.5751 16.7157 39.6778C15.6544 34.5765 13.0115 22.2905 12.3829 18.7826C11.7324 15.1294 12.3653 12.5076 14.7978 11.171C14.6998 11.2077 14.6107 11.2473 14.5303 11.2898C12.0233 12.6103 10.9167 15.7001 11.576 19.4017Z" fill="#D5D7D8"/>
<path d="M12.4589 9.78303C13.9967 9.62605 16.2742 9.73462 17.9435 10.232C18.0649 10.2158 18.1862 10.1997 18.309 10.1865C16.644 9.44559 14.6721 9.15949 12.8697 9.34289C12.8667 9.02892 13.0933 8.85139 13.3959 8.72815C13.2585 8.75016 13.1284 8.78537 13.0085 8.83672C12.6899 8.9849 12.4516 9.52628 12.4589 9.78303Z" fill="#D5D7D8"/>
<path d="M14.4747 8.39949C14.5653 8.36428 14.6472 8.32613 14.713 8.28065C14.3812 8.2337 13.5596 7.49278 13.1898 7.44876C12.9194 7.49864 12.7556 7.59841 12.5349 7.63069C12.8068 7.65857 13.8301 8.13686 14.4747 8.39949Z" fill="#D5D7D8"/>
<path d="M16.6776 20.3583C17.4451 20.3583 18.0663 19.7362 18.0663 18.9689C18.0663 18.2015 17.4436 17.5795 16.6776 17.5795C15.9116 17.5795 15.2889 18.2015 15.2889 18.9689C15.2889 19.7362 15.9116 20.3583 16.6776 20.3583ZM17.2974 18.1487C17.4962 18.1487 17.657 18.3101 17.657 18.5082C17.657 18.7062 17.4962 18.8676 17.2974 18.8676C17.0986 18.8676 16.9378 18.7062 16.9378 18.5082C16.9393 18.3086 17.1001 18.1487 17.2974 18.1487Z" fill="#2D4F8E"/>
<path d="M17.2974 18.8662C17.4962 18.8662 17.657 18.7048 17.657 18.5067C17.657 18.3087 17.4962 18.1473 17.2974 18.1473C17.0986 18.1473 16.9378 18.3087 16.9378 18.5067C16.9393 18.7063 17.1001 18.8662 17.2974 18.8662Z" fill="white"/>
<path d="M24.7686 18.1443C24.7686 18.8016 25.3022 19.3357 25.96 19.3357C26.6178 19.3357 27.1514 18.8016 27.1514 18.1443C27.1514 17.487 26.6178 16.953 25.96 16.953C25.3022 16.953 24.7686 17.487 24.7686 18.1443ZM26.4907 17.4416C26.6602 17.4416 26.7991 17.5795 26.7991 17.7497C26.7991 17.9199 26.6617 18.0578 26.4907 18.0578C26.3211 18.0578 26.1822 17.9199 26.1822 17.7497C26.1837 17.5795 26.3211 17.4416 26.4907 17.4416Z" fill="#2D4F8E"/>
<path d="M26.4907 18.0563C26.6602 18.0563 26.7991 17.9184 26.7991 17.7482C26.7991 17.578 26.6617 17.4401 26.4907 17.4401C26.3211 17.4401 26.1823 17.578 26.1823 17.7482C26.1837 17.9184 26.3211 18.0563 26.4907 18.0563Z" fill="white"/>
<path d="M15.0141 15.1132C16.0301 14.472 17.0782 14.9488 17.0782 14.9488C17.0782 14.9488 16.3751 14.0245 14.9337 14.6114C13.4968 15.2012 14.0362 16.4043 14.0362 16.4043C14.0362 16.4043 13.9982 15.7514 15.0141 15.1132Z" fill="white"/>
<path d="M15.0141 15.1132C16.0301 14.472 17.0782 14.9488 17.0782 14.9488C17.0782 14.9488 16.3751 14.0245 14.9337 14.6114C13.4968 15.2012 14.0362 16.4043 14.0362 16.4043C14.0362 16.4043 13.9982 15.7514 15.0141 15.1132Z" fill="url(#paint0_linear_1694_946)"/>
<path d="M25.5492 13.9659C24.0173 13.7135 23.8156 14.9738 23.8156 14.9738C23.8156 14.9738 24.1415 14.4456 25.3402 14.4309C25.9264 14.4236 26.6777 14.852 26.6777 14.852C26.4716 14.3884 26.0492 14.0568 25.5492 13.9659Z" fill="white"/>
<path d="M25.5492 13.9659C24.0173 13.7135 23.8156 14.9738 23.8156 14.9738C23.8156 14.9738 24.1415 14.4456 25.3402 14.4309C25.9264 14.4236 26.6777 14.852 26.6777 14.852C26.4716 14.3884 26.0492 14.0568 25.5492 13.9659Z" fill="url(#paint1_linear_1694_946)"/>
<path d="M29.4464 28.8267C31.6099 28.7827 35.1576 27.4637 34.7688 26.4C34.38 25.3363 30.8541 27.3346 27.1733 26.9942C24.45 26.7419 23.9691 25.5212 24.5713 24.6292C25.33 23.5083 26.7128 24.8419 28.9918 24.1597C31.2751 23.4775 34.4677 22.2612 35.6517 21.598C38.3897 20.0692 34.5042 19.4384 33.5877 19.8609C32.7208 20.2644 29.6964 21.0273 28.2901 21.3647C28.2141 21.3824 28.1439 21.4 28.0782 21.4146C26.7947 21.7227 26.3182 21.7007 24.7789 21.7961C23.5554 21.8753 21.9328 22.8935 21.2487 23.7313C21.0718 23.9469 20.9578 24.1523 20.93 24.3255C20.8247 24.9681 21.0762 25.5975 21.4343 26.1007C21.6887 26.4572 21.9956 26.7507 22.2675 26.9385C22.2705 26.9399 22.2719 26.9414 22.2748 26.9429C22.9283 27.3962 27.2829 28.8663 29.4464 28.8267Z" fill="#FDD20A"/>
<path d="M21.3451 34.8054H21.3422C21.3422 34.6454 21.4694 34.5046 21.6726 34.3843C21.6726 34.3902 21.6726 34.396 21.6726 34.4019L21.6755 34.4048C21.6755 36.1126 21.4431 36.8961 22.0702 37.1235C22.1067 37.1367 22.1462 37.1484 22.1886 37.1572C22.6008 37.2511 23.2089 37.2452 23.7659 37.166C24.1445 37.1132 24.4982 37.0266 24.7526 36.9151C24.7701 36.9078 24.7877 36.899 24.8037 36.8917C24.8564 36.8667 24.9031 36.8403 24.9455 36.8124C24.9982 36.7772 25.0391 36.7229 25.0742 36.6525C26.2494 37.1073 28.6292 37.9788 29.1423 37.7881C29.8308 37.524 29.6598 32.0148 28.8851 31.8388C28.2653 31.7009 25.8957 33.3705 24.9587 34.0542C24.9221 33.9016 24.8885 33.7813 24.8593 33.7123C24.776 33.5025 24.0246 33.4761 23.2732 33.5935C22.9414 33.6448 22.6096 33.7241 22.3348 33.8282C22.117 33.9104 21.9342 34.0072 21.8173 34.1173C20.3701 33.3969 17.4056 32.0295 17.3427 32.8731C17.255 33.9955 17.3427 38.5584 17.9435 38.9031C18.3294 39.1232 20.2269 38.1505 21.5469 37.4184C21.1653 37.0941 21.3451 36.3048 21.3451 34.8054Z" fill="#65BC46"/>
<path d="M24.7511 36.9166C24.4982 37.0281 24.143 37.1147 23.7644 37.1675C23.2075 37.2452 22.5993 37.2526 22.1871 37.1587C22.1447 37.1499 22.1053 37.1381 22.0687 37.1249C21.4416 36.8975 21.674 36.1141 21.674 34.4063L21.6711 34.4033C21.6711 34.3975 21.6711 34.3916 21.6711 34.3857C21.4679 34.506 21.3407 34.6469 21.3407 34.8068H21.3437C21.3437 36.3048 21.1653 37.0956 21.5439 37.4198C21.6229 37.4873 21.7237 37.5343 21.8568 37.5636C22.3962 37.6839 23.2674 37.637 23.9223 37.4815C24.2103 37.414 24.4573 37.3245 24.6166 37.2188C24.6868 37.1719 24.7409 37.0853 24.7789 36.9724C24.7877 36.9474 24.795 36.921 24.8023 36.8946C24.7862 36.9019 24.7687 36.9093 24.7511 36.9166Z" fill="#43A244"/>
<path d="M22.0044 1.84277C10.8699 1.84277 1.84332 10.8687 1.84332 22.0044C1.84332 31.092 7.85569 38.774 16.1192 41.2931C17.9815 41.8609 19.9579 42.166 22.0044 42.166C23.418 42.166 24.7979 42.0208 26.1296 41.7435C35.2848 39.8391 42.1655 31.7258 42.1655 22.0044C42.1655 10.8702 33.1389 1.84277 22.0044 1.84277ZM26.324 39.9389C25.7378 38.8107 25.1955 37.7822 24.7804 36.9723C24.7423 37.0853 24.6897 37.1704 24.6181 37.2188C24.4588 37.3244 24.2117 37.4139 23.9237 37.4814C23.2674 37.6369 22.3976 37.6824 21.8582 37.5636C21.7267 37.5342 21.6243 37.4873 21.5454 37.4198C20.2254 38.1519 18.3295 39.1246 17.9421 38.9046C17.3413 38.5598 17.2536 33.9969 17.3413 32.8746C17.4056 32.0295 20.3701 33.3983 21.8158 34.1187C21.9342 34.0087 22.1155 33.9104 22.3333 33.8297C22.6081 33.7255 22.94 33.6463 23.2718 33.5949C22.4093 31.2739 21.848 28.7724 22.2675 26.9385C21.9956 26.7507 21.6872 26.4572 21.4343 26.1007C21.0762 25.5975 20.8247 24.9681 20.93 24.3254C20.9592 24.1523 21.0732 23.9484 21.2487 23.7313C21.9328 22.8935 23.5539 21.8738 24.7789 21.7961C26.3182 21.7007 26.7947 21.7227 28.0782 21.4146C28.1439 21.3985 28.2141 21.3823 28.2901 21.3647C29.0736 18.5845 27.185 13.759 25.0683 11.6463C24.3798 10.9567 23.3229 10.5239 22.1287 10.298C21.6711 9.66711 20.93 9.06704 19.8819 8.50512C17.8251 7.42823 15.4716 7.05704 13.1854 7.44877C13.1869 7.44877 13.1883 7.44877 13.1912 7.44877C13.5611 7.49132 14.3826 8.23223 14.7144 8.28065C14.6472 8.32613 14.5668 8.36427 14.4762 8.39949C14.1619 8.51979 13.7321 8.59168 13.3974 8.7296C13.0948 8.85284 12.8682 9.03036 12.8711 9.34433C14.675 9.16094 16.6469 9.44704 18.3104 10.1879C18.1877 10.2012 18.0649 10.2173 17.945 10.2334C16.7653 10.3963 15.6792 10.7073 14.8986 11.1181C14.865 11.1357 14.8314 11.1533 14.7992 11.1724C12.3668 12.509 11.7338 15.1308 12.3843 18.784C13.0129 22.292 15.6558 34.5779 16.7171 39.6792C16.3765 39.578 16.0388 39.4665 15.707 39.3447C8.62313 36.7698 3.56386 29.9784 3.56386 22.0059C3.56386 11.8194 11.8215 3.56228 22.0073 3.56228C32.1931 3.56228 40.4493 11.8194 40.4493 22.0059C40.4479 30.7032 34.4253 37.9949 26.324 39.9389ZM14.0362 16.4043C14.0362 16.4043 13.4968 15.2012 14.9337 14.6114C16.3736 14.0246 17.0782 14.9489 17.0782 14.9489C17.0782 14.9489 16.03 14.472 15.0141 15.1132C13.9982 15.7514 14.0362 16.4043 14.0362 16.4043ZM16.6776 17.5795C17.4451 17.5795 18.0663 18.2015 18.0663 18.9689C18.0663 19.7362 17.4436 20.3583 16.6776 20.3583C15.9116 20.3583 15.2889 19.7362 15.2889 18.9689C15.2889 18.203 15.9116 17.5795 16.6776 17.5795ZM25.3402 14.431C24.1415 14.4456 23.8156 14.9738 23.8156 14.9738C23.8156 14.9738 24.0173 13.7121 25.5493 13.9659C26.0492 14.0568 26.4717 14.3884 26.6778 14.8535C26.6778 14.8535 25.9264 14.4236 25.3402 14.431ZM27.1514 18.1443C27.1514 18.8016 26.6178 19.3357 25.96 19.3357C25.3022 19.3357 24.7687 18.8016 24.7687 18.1443C24.7687 17.487 25.3022 16.953 25.96 16.953C26.6178 16.953 27.1514 17.487 27.1514 18.1443Z" fill="white"/>
<defs>
<linearGradient id="paint0_linear_1694_946" x1="13.9365" y1="15.4098" x2="17.0779" y2="15.4098" gradientUnits="userSpaceOnUse">
<stop offset="0.01" stop-color="#6176B9"/>
<stop offset="0.69" stop-color="#394A9F"/>
</linearGradient>
<linearGradient id="paint1_linear_1694_946" x1="23.8154" y1="14.4531" x2="26.6782" y2="14.4531" gradientUnits="userSpaceOnUse">
<stop offset="0.01" stop-color="#6176B9"/>
<stop offset="0.69" stop-color="#394A9F"/>
</linearGradient>
</defs>
</svg>
