<svg width="24" height="24" viewBox="0 0 24 24" fill="none" xmlns="http://www.w3.org/2000/svg">
<g id="Group 1194" opacity="0.64">
<path id="Subtract" fill-rule="evenodd" clip-rule="evenodd" d="M12 24C18.6274 24 24 18.6274 24 12C24 5.37258 18.6274 0 12 0C5.37258 0 0 5.37258 0 12C0 18.6274 5.37258 24 12 24ZM14.1039 6.66784C14.9932 5.77805 16.4411 5.77672 17.3331 6.66784L17.3325 6.66924C18.2225 7.55897 18.2225 9.00792 17.3325 9.8977L15.9346 11.2953C16.0611 11.5094 16.1283 11.7544 16.1283 12.0092C16.1283 12.384 15.982 12.737 15.7166 13.0024C15.4517 13.2678 15.0987 13.4141 14.7232 13.4141C14.3483 13.4141 13.9952 13.2678 13.7297 13.0024L9.87928 16.852C9.51629 17.2149 9.03936 17.4138 8.53211 17.4138H8.48139C8.16321 17.4138 7.85489 17.3236 7.5769 17.1675L6.89904 17.8452C6.79694 17.9486 6.66189 18 6.52685 18C6.39247 18 6.25742 17.948 6.15465 17.8452C5.94845 17.6391 5.94845 17.3058 6.15465 17.0997L6.83317 16.4213C6.67572 16.1374 6.58349 15.82 6.58349 15.4854C6.58349 14.9684 6.78376 14.4836 7.14806 14.1194L10.9985 10.2698C10.733 10.0044 10.5868 9.6527 10.5868 9.27662C10.5868 8.90122 10.733 8.5482 10.9985 8.28278C11.4445 7.83688 12.1784 7.75324 12.706 8.06543L14.1039 6.66784ZM8.50638 16.36C8.72971 16.3666 8.96818 16.2737 9.13419 16.1071L12.9853 12.2575L11.7429 11.0153L7.89242 14.8649C7.72773 15.0302 7.63682 15.2502 7.63682 15.486C7.63682 15.7218 7.72773 15.9424 7.89242 16.1071C8.05775 16.273 8.27384 16.3514 8.50638 16.36ZM14.8483 10.8907L16.5874 9.15208L16.5893 9.15333C17.0682 8.67461 17.0682 7.89348 16.5893 7.41467C16.1105 6.93652 15.3305 6.93652 14.8503 7.41467L13.1112 9.15333C12.905 9.35949 12.5717 9.35949 12.3655 9.15333L12.241 9.02886C12.1738 8.96233 12.0862 8.92611 11.992 8.92611C11.8977 8.92611 11.8095 8.96299 11.7429 9.02886C11.6764 9.09604 11.6402 9.18363 11.6402 9.27782C11.6402 9.37201 11.6771 9.46026 11.7429 9.52678L14.4755 12.2587C14.6092 12.3917 14.8398 12.3917 14.9722 12.2587C15.0394 12.1915 15.0756 12.1039 15.0756 12.0097C15.0756 11.9156 15.0394 11.8273 14.9728 11.7608L14.8483 11.6363C14.6421 11.4301 14.6421 11.0969 14.8483 10.8907Z" fill="black" fill-opacity="0.84"/>
</g>
</svg>
