<svg width="16" height="17" viewBox="0 0 16 17" fill="none" xmlns="http://www.w3.org/2000/svg">
<g id="Device-All-16">
<g id="Union">
<path d="M10.5 5.5C10.2239 5.5 10 5.72386 10 6C10 6.27614 10.2239 6.5 10.5 6.5H11.5C11.7761 6.5 12 6.27614 12 6C12 5.72386 11.7761 5.5 11.5 5.5H10.5Z" fill="black" fill-opacity="0.84"/>
<path fill-rule="evenodd" clip-rule="evenodd" d="M8.875 3.5C7.83947 3.5 7 4.33947 7 5.375V13.625C7 14.6605 7.83947 15.5 8.875 15.5H13.125C14.1605 15.5 15 14.6605 15 13.625V5.375C15 4.33947 14.1605 3.5 13.125 3.5H8.875ZM8.25 5.375C8.25 5.02982 8.52982 4.75 8.875 4.75H13.125C13.4702 4.75 13.75 5.02982 13.75 5.375V13.625C13.75 13.9702 13.4702 14.25 13.125 14.25H8.875C8.52982 14.25 8.25 13.9702 8.25 13.625V5.375Z" fill="black" fill-opacity="0.84"/>
</g>
<path id="Intersect" d="M12.4358 2.74932C12.7809 2.74929 13.0149 2.40238 12.7879 2.14238C12.4442 1.74871 11.9387 1.5 11.375 1.5H2.875C1.83947 1.5 1 2.33947 1 3.375V10C1 11.0355 1.83947 11.875 2.875 11.875H5V13.25H3.625C3.27982 13.25 3 13.5298 3 13.875C3 14.2202 3.27982 14.5 3.625 14.5H6.00008L6.00008 10H2.875C2.52982 10 2.25 9.72018 2.25 9.375V3.375C2.25 3.02982 2.52982 2.75 2.875 2.75L12.4358 2.74932Z" fill="black" fill-opacity="0.84"/>
</g>
</svg>
