<svg width="16" height="16" viewBox="0 0 16 16" fill="none" xmlns="http://www.w3.org/2000/svg">
<g clip-path="url(#clip0_10319_2710)">
<path d="M8.00004 4.24902C8.34522 4.24902 8.62504 4.52885 8.62504 4.87402V7.43652H11.1875C11.5327 7.43652 11.8125 7.71635 11.8125 8.06152C11.8125 8.4067 11.5327 8.68652 11.1875 8.68652H8.62504V11.249C8.62504 11.5942 8.34522 11.874 8.00004 11.874C7.65486 11.874 7.37504 11.5942 7.37504 11.249V8.68652H4.81254C4.46736 8.68652 4.18754 8.4067 4.18754 8.06152C4.18754 7.71635 4.46736 7.43652 4.81254 7.43652H7.37504V4.87402C7.37504 4.52885 7.65486 4.24902 8.00004 4.24902Z" fill="black" fill-opacity="0.84"/>
<path fill-rule="evenodd" clip-rule="evenodd" d="M6.54689 0.572848C6.92713 0.189795 7.45894 -0.0130381 7.99765 -0.0117123C8.53636 -0.0103864 9.06716 0.195077 9.44526 0.580327C10.1407 1.28895 10.7554 1.66824 11.3827 1.86276C12.0103 2.05738 12.7584 2.10016 13.787 1.96928C14.3185 1.90165 14.8682 2.03589 15.2966 2.35771C15.7282 2.68201 16.0048 3.17668 16.0095 3.7263C16.0422 7.56366 15.482 10.0454 14.2869 11.8326C13.0681 13.6552 11.0979 14.6747 9.20468 15.6543C9.16222 15.6762 9.11981 15.6982 9.07744 15.7201L9.07647 15.7206L9.07604 15.7208L9.0749 15.7214C8.44468 16.0432 7.69534 16.1119 7.05213 15.7858L7.02818 15.7736C5.06186 14.7769 2.97448 13.7187 1.7132 11.8326C0.518088 10.0454 -0.042076 7.56377 -0.00939163 3.72657C-0.00471385 3.17739 0.271389 2.68304 0.70251 2.35872C1.13034 2.03687 1.67947 1.90227 2.2106 1.96922C3.24598 2.09975 3.99644 2.04884 4.6242 1.84823C5.24981 1.6483 5.85856 1.26627 6.54689 0.572848ZM7.99452 1.25984C7.76776 1.25928 7.57104 1.34603 7.44932 1.46865C6.65694 2.2669 5.87912 2.78209 5.01127 3.05943C4.1503 3.33457 3.20002 3.37557 2.05157 3.23079C1.8298 3.20284 1.6159 3.26277 1.46693 3.37484C1.32124 3.48444 1.2631 3.62102 1.26211 3.7374C1.23028 7.47524 1.78421 9.65135 2.77019 11.1258C3.84529 12.7335 5.63088 13.6391 7.31185 14.4917C7.37544 14.524 7.43888 14.5561 7.50213 14.5883L7.62722 14.6517C7.92413 14.8023 8.2213 14.7285 8.49965 14.5874L8.50019 14.5871L8.50273 14.5858L8.50312 14.5856L8.54815 14.5628C10.5801 13.5329 12.1685 12.713 13.2299 11.1258C14.2159 9.65132 14.7698 7.47513 14.738 3.73714C14.737 3.62067 14.6787 3.48396 14.5328 3.37433C14.3836 3.26223 14.1694 3.20243 13.9475 3.23066C12.8132 3.37499 11.8671 3.34426 11.0061 3.07727C10.1313 2.80602 9.3424 2.29086 8.53774 1.47098C8.41714 1.3481 8.22128 1.26039 7.99452 1.25984Z" fill="black" fill-opacity="0.84"/>
</g>
<defs>
<clipPath id="clip0_10319_2710">
<rect width="16" height="16" fill="white"/>
</clipPath>
</defs>
</svg>
