<svg width="16" height="16" viewBox="0 0 16 16" fill="none" xmlns="http://www.w3.org/2000/svg">
<g id="Icon">
<path id="Rectangle 862" d="M1.5 2.5C1.5 1.39543 2.39543 0.5 3.5 0.5H14.5V11.5H3L1.5 12.5V2.5Z" fill="#F9BE1A"/>
<path id="Rectangle 708 (Stroke)" fill-rule="evenodd" clip-rule="evenodd" d="M1 2.5C1 1.11929 2.11929 0 3.5 0H14.5C14.7761 0 15 0.223858 15 0.5V11.5C15 11.7761 14.7761 12 14.5 12C14.2239 12 14 11.7761 14 11.5V1H3.5C2.67157 1 2 1.67157 2 2.5V13.5C2 13.7761 1.77614 14 1.5 14C1.22386 14 1 13.7761 1 13.5V2.5Z" fill="#92540C"/>
<path id="Rectangle 864" d="M1.5 13.5C1.5 12.3954 2.39543 11.5 3.5 11.5H14.5L14.3523 11.9546C14.0258 12.959 14.0258 14.041 14.3523 15.0454L14.5 15.5H3.5C2.39543 15.5 1.5 14.6046 1.5 13.5Z" fill="#FFF0C2"/>
<path id="Rectangle 709 (Stroke)" fill-rule="evenodd" clip-rule="evenodd" d="M1 13.5C1 12.1193 2.11929 11 3.5 11H14.5C14.6601 11 14.8104 11.0766 14.9045 11.2061C14.9986 11.3356 15.025 11.5023 14.9755 11.6545L14.8278 12.1091C14.534 13.0131 14.534 13.9869 14.8278 14.8909L14.9755 15.3455C15.025 15.4977 14.9986 15.6644 14.9045 15.7939C14.8104 15.9234 14.6601 16 14.5 16H3.5C2.11929 16 1 14.8807 1 13.5ZM3.5 12C2.67157 12 2 12.6716 2 13.5C2 14.3284 2.67157 15 3.5 15H13.8159C13.5379 14.0194 13.5379 12.9806 13.8159 12H3.5Z" fill="#92540C"/>
<path id="Vector 278" d="M4.5 8.26984V0.5H9.5V8.26984C9.5 8.47209 9.27233 8.59063 9.10663 8.47464L7.14337 7.10036C7.05729 7.0401 6.94271 7.0401 6.85663 7.10036L4.89337 8.47464C4.72767 8.59063 4.5 8.47209 4.5 8.26984Z" fill="#7295F6"/>
<path id="Vector 277 (Stroke)" fill-rule="evenodd" clip-rule="evenodd" d="M4 0H10V8.26984C10 8.87661 9.31698 9.23222 8.8199 8.88426L7 7.61033L5.1801 8.88426C4.68301 9.23222 4 8.8766 4 8.26984V0ZM5 1V7.78967L6.5699 6.69074C6.82814 6.50997 7.17186 6.50997 7.4301 6.69074L9 7.78967V1H5Z" fill="#1E42A4"/>
</g>
</svg>
