<svg width="16" height="16" viewBox="0 0 16 16" fill="none" xmlns="http://www.w3.org/2000/svg">
<g id="Icon">
<path id="Subtract" d="M2.5 1C1.11929 1 0 2.11929 0 3.5V12.5C0 13.8807 1.11929 15 2.5 15H7.99963C7.37194 14.1643 7 13.1256 7 12C7 9.23858 9.23858 7 12 7C13.6356 7 15.0878 7.78534 16 8.99951V3.5C16 2.11929 14.8807 1 13.5 1H2.5Z" fill="#F5F5F5"/>
<path id="Subtract_2" d="M2.5 2H13.5C14.3284 2 15 2.67157 15 3.5V7.99963C15.3786 8.28403 15.7156 8.62092 16 8.99951V3.5C16 2.11929 14.8807 1 13.5 1H2.5C1.11929 1 0 2.11929 0 3.5V12.5C0 13.8807 1.11929 15 2.5 15H7.99963C7.76849 14.6923 7.57202 14.357 7.41604 14H2.5C1.67157 14 1 13.3284 1 12.5V3.5C1 2.67157 1.67157 2 2.5 2Z" fill="#666666"/>
<path id="Toolbar" d="M0 5.8V3.5C0 2.11929 1.11929 1 2.5 1H13.5C14.8807 1 16 2.11929 16 3.5V5.8H0Z" fill="#DDDDDD"/>
<path id="Toolbar (Stroke)" fill-rule="evenodd" clip-rule="evenodd" d="M0 5.8V3.5C0 2.11929 1.11929 1 2.5 1H13.5C14.8807 1 16 2.11929 16 3.5V5.8H0ZM15 4.8V3.5C15 2.67157 14.3284 2 13.5 2H2.5C1.67157 2 1 2.67157 1 3.5V4.8H15Z" fill="#666666"/>
<path id="Circle" d="M16 12C16 14.2091 14.2091 16 12 16C9.79086 16 8 14.2091 8 12C8 9.79086 9.79086 8 12 8C14.2091 8 16 9.79086 16 12Z" fill="#4CBA3C"/>
<path id="Circle (Stroke)" fill-rule="evenodd" clip-rule="evenodd" d="M12 15C13.6569 15 15 13.6569 15 12C15 10.3431 13.6569 9 12 9C10.3431 9 9 10.3431 9 12C9 13.6569 10.3431 15 12 15ZM12 16C14.2091 16 16 14.2091 16 12C16 9.79086 14.2091 8 12 8C9.79086 8 8 9.79086 8 12C8 14.2091 9.79086 16 12 16Z" fill="#288419"/>
<path id="Check (Stroke)" fill-rule="evenodd" clip-rule="evenodd" d="M13.8536 10.8964C14.0488 11.0917 14.0488 11.4083 13.8536 11.6036L11.9786 13.4786C11.7833 13.6738 11.4667 13.6738 11.2714 13.4786L10.1464 12.3536C9.95118 12.1583 9.95118 11.8417 10.1464 11.6464C10.3417 11.4512 10.6583 11.4512 10.8536 11.6464L11.625 12.4179L13.1464 10.8964C13.3417 10.7012 13.6583 10.7012 13.8536 10.8964Z" fill="white"/>
</g>
</svg>
