<svg xmlns="http://www.w3.org/2000/svg" viewBox="0 0 16 16">
  <path fill="#000" fill-rule="evenodd" d="M3.117 1A3.121 3.121 0 0 0 0 4.125v7.75A3.121 3.121 0 0 0 3.117 15H8.44a4.73 4.73 0 0 1-.543-1.25h-4.78c-1.033 0-1.87-.84-1.87-1.875V6.25h13.506v2.087c.47.26.892.598 1.247.996V4.125A3.121 3.121 0 0 0 12.883 1H3.117Zm-1.87 3.125c0-1.036.837-1.875 1.87-1.875h9.766c1.033 0 1.87.84 1.87 1.875V5H1.247v-.875Z" clip-rule="evenodd"/>
  <path fill="#000" fill-rule="evenodd" d="M15.96 12.5c0 1.933-1.563 3.5-3.491 3.5a3.496 3.496 0 0 1-3.491-3.5c0-1.933 1.563-3.5 3.49-3.5a3.496 3.496 0 0 1 3.492 3.5Zm-1.144-.896-2.846 2.853-1.849-1.854.705-.707 1.144 1.147 2.141-2.147.705.707Z" clip-rule="evenodd"/>
</svg>
