<svg width="48" height="48" viewBox="0 0 48 48" fill="none" xmlns="http://www.w3.org/2000/svg">
<g id="Image">
<path id="Vector" d="M25 39C33.2843 39 40 32.2843 40 24C40 15.7157 33.2843 9 25 9C16.7157 9 10 15.7157 10 24C10 32.2843 16.7157 39 25 39Z" fill="#399F29"/>
<path id="Rectangle 3465270" d="M23 9H25V39H23V9Z" fill="#399F29"/>
<path id="Vector_2" d="M23 39C31.2843 39 38 32.2843 38 24C38 15.7157 31.2843 9 23 9C14.7157 9 8 15.7157 8 24C8 32.2843 14.7157 39 23 39Z" fill="#4CBA3C"/>
<path id="Union" fill-rule="evenodd" clip-rule="evenodd" d="M25.3389 18.8068C22.6654 17.4256 19.3882 18.4285 17.8588 21.1609L17.8531 21.1669C17.3471 22.0677 17.0999 23.0466 17.0711 24.0195C17.0596 24.5359 16.7434 24.9803 16.2662 25.1124L14.3631 25.6349C14.0296 25.725 13.7019 25.4788 13.6674 25.1184C13.4892 23.1727 13.8686 21.1549 14.8863 19.3413C17.3873 14.8793 22.7862 13.306 27.1041 15.7081C27.2995 15.8162 27.541 15.7501 27.6503 15.5519L28.3919 14.2248C28.5759 13.9005 29.0416 13.9665 29.1336 14.3329L30.4215 19.5095C30.479 19.7317 30.3525 19.9659 30.1341 20.0259L25.1952 21.3771C24.8445 21.4732 24.557 21.0769 24.741 20.7526L25.4999 19.4014C25.6149 19.1912 25.5459 18.9149 25.3389 18.8068ZM20.2104 29.2679C22.9868 30.6492 26.39 29.6463 27.9782 26.9138L27.9842 26.9078C28.5096 26.007 28.7664 25.0282 28.7962 24.0553C28.8082 23.5388 29.1366 23.0945 29.6321 22.9623L31.6084 22.4399C31.9547 22.3498 32.295 22.596 32.3309 22.9563C32.5159 24.9021 32.1219 26.9199 31.0651 28.7335C28.4678 33.1954 22.8614 34.7688 18.3774 32.3667C18.1744 32.2586 17.9236 32.3247 17.8102 32.5228L17.04 33.85C16.8489 34.1743 16.3653 34.1082 16.2698 33.7419L14.9323 28.5653C14.8726 28.3431 15.004 28.1089 15.2309 28.0489L20.3597 26.6977C20.7239 26.6016 21.0224 26.9979 20.8313 27.3222L20.0432 28.6734C19.9238 28.8836 19.9955 29.1598 20.2104 29.2679Z" fill="white"/>
</g>
</svg>
