<svg width="128" height="96" viewBox="0 0 128 96" fill="none" xmlns="http://www.w3.org/2000/svg">
<path opacity="0.2" d="M105.629 38.8665L107.171 38.4665C107.457 38.4094 107.743 38.1236 107.8 37.8379L108.2 36.2951C108.314 35.8951 108.657 35.6665 109 35.6665C109.4 35.6665 109.743 35.9522 109.8 36.2951L110.2 37.8379C110.257 38.1236 110.543 38.4094 110.829 38.4665L112.371 38.8665C112.771 38.9808 113 39.3236 113 39.6665C113 40.0665 112.714 40.4094 112.371 40.4665L110.829 40.8665C110.543 40.9236 110.257 41.2094 110.2 41.4951L109.8 43.0379C109.686 43.4379 109.343 43.6665 109 43.6665C108.6 43.6665 108.257 43.3808 108.2 43.0379L107.8 41.4951C107.743 41.2094 107.457 40.9236 107.171 40.8665L105.629 40.4665C105.229 40.3522 105 40.0094 105 39.6665C105 39.2665 105.286 38.9236 105.629 38.8665Z" fill="#888888"/>
<path opacity="0.2" d="M15.9428 32.4665L18.2571 31.8665C18.6857 31.7808 19.1143 31.3522 19.2 30.9236L19.8 28.6094C19.9714 28.0094 20.4857 27.6665 21 27.6665C21.6 27.6665 22.1143 28.0951 22.2 28.6094L22.8 30.9236C22.8857 31.3522 23.3143 31.7808 23.7429 31.8665L26.0572 32.4665C26.6572 32.6379 27 33.1522 27 33.6665C27 34.2665 26.5714 34.7808 26.0572 34.8665L23.7429 35.4665C23.3143 35.5522 22.8857 35.9808 22.8 36.4094L22.2 38.7236C22.0286 39.3236 21.5143 39.6665 21 39.6665C20.4 39.6665 19.8857 39.2379 19.8 38.7236L19.2 36.4094C19.1143 35.9808 18.6857 35.5522 18.2571 35.4665L15.9428 34.8665C15.3428 34.6951 15 34.1808 15 33.6665C15 33.0665 15.4286 32.5522 15.9428 32.4665Z" fill="#888888"/>
<path opacity="0.2" d="M0.628558 53.8665L2.17142 53.4665C2.45714 53.4094 2.74287 53.1236 2.80001 52.8379L3.19999 51.2951C3.31427 50.8951 3.65714 50.6665 4 50.6665C4.4 50.6665 4.74287 50.9522 4.80001 51.2951L5.19999 52.8379C5.25713 53.1236 5.54286 53.4094 5.82858 53.4665L7.37144 53.8665C7.77144 53.9808 8 54.3236 8 54.6665C8 55.0665 7.7143 55.4094 7.37144 55.4665L5.82858 55.8665C5.54286 55.9236 5.25713 56.2094 5.19999 56.4951L4.80001 58.0379C4.68573 58.4379 4.34286 58.6665 4 58.6665C3.6 58.6665 3.25713 58.3808 3.19999 58.0379L2.80001 56.4951C2.74287 56.2094 2.45714 55.9236 2.17142 55.8665L0.628558 55.4665C0.228558 55.3522 4.76837e-07 55.0094 4.76837e-07 54.6665C4.76837e-07 54.2665 0.285701 53.9236 0.628558 53.8665Z" fill="#888888"/>
<path opacity="0.2" d="M126.5 52.6665C125.675 52.6665 125 51.9915 125 51.1665C125 50.3415 125.675 49.6665 126.5 49.6665C127.325 49.6665 128 50.3415 128 51.1665C128 51.9915 127.325 52.6665 126.5 52.6665Z" fill="#888888"/>
<path opacity="0.2" d="M23 70.6665C21.9 70.6665 21 69.7665 21 68.6665C21 67.5665 21.9 66.6665 23 66.6665C24.1 66.6665 25 67.5665 25 68.6665C25 69.7665 24.1 70.6665 23 70.6665Z" fill="#888888"/>
<path d="M67.4213 65.8715C66.9296 67.6075 66.6665 69.4395 66.6665 71.333V73.4869C66.6665 76.0062 64.7873 78.1771 62.2684 78.1375C57.4868 78.0623 52.6628 76.8833 48.1814 74.4999C47.5169 74.1487 46.696 74.3633 46.3247 75.0073L43.8035 79.3201C43.1781 80.3739 41.595 80.1593 41.2823 78.9689L36.9045 62.147C36.7091 61.425 37.139 60.6639 37.8817 60.4688L54.67 56.0779C55.8622 55.7657 56.8394 57.0536 56.214 58.1074L53.6342 62.4983C53.2433 63.1813 53.4778 64.079 54.1814 64.4303C58.4187 66.523 63.1021 66.9315 67.4213 65.8715Z" fill="#DE5833"/>
<path d="M81.6313 51.9722C82.0261 50.4936 82.2394 48.9903 82.2858 47.4913C82.3249 45.8131 83.3998 44.369 85.0219 43.9396L91.491 42.2418C92.6246 41.9491 93.7386 42.7492 93.8558 43.9201C93.954 44.9448 94.0024 45.9756 93.9998 47.0088C93.9937 49.4981 91.8393 51.333 89.3501 51.333H86.6665C84.9273 51.333 83.24 51.555 81.6313 51.9722Z" fill="#DE5833"/>
<path d="M47.3124 37.4329C52.1212 29.2366 62.4257 26.2283 70.8321 30.3715C71.4829 30.6957 71.6999 31.5244 71.3383 32.1549L68.952 36.2079C68.3735 37.1807 69.2774 38.3696 70.3802 38.0814L85.9094 34.0283C86.5964 33.8481 86.9941 33.1456 86.8133 32.4791L82.7638 16.9512C82.4745 15.8524 81.0102 15.6543 80.4317 16.627L78.0996 20.608C77.7561 21.2025 76.9968 21.4007 76.3822 21.0764C62.8054 13.8709 45.8299 18.5905 37.9659 31.9747C34.766 37.4149 33.5729 43.4675 34.1333 49.3039C34.2418 50.3848 35.2722 51.1233 36.3208 50.8531L42.3047 49.2859C43.8052 48.8896 44.7994 47.5566 44.8356 46.0074C44.926 43.0892 45.7034 40.153 47.2943 37.4509L47.3124 37.4329Z" fill="#3969EF"/>
<path d="M87 87C95.8366 87 103 79.8366 103 71C103 62.1634 95.8366 55 87 55C78.1634 55 71 62.1634 71 71C71 79.8366 78.1634 87 87 87Z" fill="#21C000"/>
<path d="M96.0408 68.7127C96.5687 68.1909 96.5687 67.3385 96.0408 66.8168L94.1273 64.9258C93.6082 64.4127 92.7729 64.4127 92.2537 64.9258L85.556 71.5448C85.0369 72.0579 84.2016 72.0579 83.6824 71.5448L81.7464 69.6316C81.2272 69.1186 80.3919 69.1186 79.8728 69.6317L77.9593 71.5226C77.4314 72.0443 77.4314 72.8968 77.9594 73.4185L83.6824 79.0742C84.2016 79.5873 85.0369 79.5873 85.556 79.0742L96.0408 68.7127Z" fill="white"/>
<path d="M108.605 59C108.911 59 109.217 59.1201 109.452 59.3542C109.92 59.8225 109.92 60.5849 109.452 61.0532L107.05 63.4545C106.582 63.9228 105.819 63.9228 105.351 63.4545C104.883 62.9863 104.883 62.2238 105.351 61.7556L107.753 59.3542C107.987 59.1201 108.293 59 108.599 59H108.605Z" fill="#CCCCCC"/>
<path d="M107.404 69.8062H111.006C111.667 69.8062 112.207 70.3465 112.207 71.0068C112.207 71.6672 111.667 72.2075 111.006 72.2075H107.404C106.744 72.2075 106.204 71.6672 106.204 71.0068C106.204 70.3465 106.744 69.8062 107.404 69.8062Z" fill="#CCCCCC"/>
<path d="M105.363 78.5661C105.598 78.332 105.904 78.2119 106.21 78.2119H106.216C106.522 78.2119 106.828 78.332 107.062 78.5661L109.464 80.9675C109.932 81.4357 109.932 82.1982 109.464 82.6664C108.995 83.1347 108.233 83.1347 107.765 82.6664L105.363 80.2651C104.895 79.7968 104.895 79.0344 105.363 78.5661Z" fill="#CCCCCC"/>
</svg>
