<svg width="48" height="48" viewBox="0 0 48 48" fill="none" xmlns="http://www.w3.org/2000/svg">
<g id="Image">
<path id="Vector 613 (Stroke)" fill-rule="evenodd" clip-rule="evenodd" d="M19 28.5V31.8648C19 33.5005 19.9958 34.9713 21.5144 35.5787C24.1419 36.6297 27 34.6947 27 31.8648V28.9857H29V31.8648C29 36.1096 24.7128 39.0122 20.7717 37.4357C18.4937 36.5245 17 34.3183 17 31.8648V28.5H19Z" fill="#557FF3"/>
<path id="Vector 614" d="M36.5 11.5L9.5 19V28L36.5 35.5V11.5Z" fill="#8FABF9"/>
<path id="Vector 612" d="M36.5 27L9.5 25V28L36.5 35.5V27Z" fill="#7295F6"/>
<path id="Vector 615 (Stroke)" fill-rule="evenodd" clip-rule="evenodd" d="M36.9767 15.2856C37.0951 15.825 36.7538 16.3583 36.2144 16.4767L15.7144 20.9767C15.1749 21.0951 14.6416 20.7538 14.5232 20.2144C14.4048 19.6749 14.7461 19.1416 15.2856 19.0232L35.7856 14.5232C36.325 14.4048 36.8583 14.7461 36.9767 15.2856Z" fill="#ADC2FC"/>
<path id="Vector 616 (Stroke)" fill-rule="evenodd" clip-rule="evenodd" d="M40.25 24C40.25 23.5858 40.5858 23.25 41 23.25H44C44.4142 23.25 44.75 23.5858 44.75 24C44.75 24.4142 44.4142 24.75 44 24.75H41C40.5858 24.75 40.25 24.4142 40.25 24Z" fill="#CCCCCC"/>
<path id="Vector 617 (Stroke)" fill-rule="evenodd" clip-rule="evenodd" d="M39.3506 19.375C39.1435 19.0163 39.2664 18.5576 39.6251 18.3505L42.2232 16.8505C42.5819 16.6434 43.0406 16.7663 43.2477 17.125C43.4548 17.4837 43.3319 17.9424 42.9732 18.1495L40.3751 19.6495C40.0164 19.8566 39.5577 19.7337 39.3506 19.375Z" fill="#CCCCCC"/>
<path id="Vector 618 (Stroke)" fill-rule="evenodd" clip-rule="evenodd" d="M39.3506 28.625C39.5577 28.2663 40.0164 28.1434 40.3751 28.3505L42.9732 29.8505C43.3319 30.0576 43.4548 30.5163 43.2477 30.875C43.0406 31.2337 42.5819 31.3566 42.2232 31.1495L39.6251 29.6495C39.2664 29.4424 39.1435 28.9837 39.3506 28.625Z" fill="#CCCCCC"/>
<path id="Rectangle 3465266" d="M35 11.5C35 10.6716 35.6716 10 36.5 10C37.3284 10 38 10.6716 38 11.5V35.5C38 36.3284 37.3284 37 36.5 37C35.6716 37 35 36.3284 35 35.5V11.5Z" fill="#3969EF"/>
<path id="Rectangle 3465267" d="M8 19C8 18.1716 8.67157 17.5 9.5 17.5C10.3284 17.5 11 18.1716 11 19V28C11 28.8284 10.3284 29.5 9.5 29.5C8.67157 29.5 8 28.8284 8 28V19Z" fill="#3969EF"/>
</g>
</svg>
