<svg xmlns="http://www.w3.org/2000/svg" fill="none" viewBox="0 0 16 16">
  <path fill="#000" fill-rule="evenodd" d="m7.943 4.517.061.037.073-.043c.39-.228 1.008-.522 1.681-.522 1.104 0 2.081.793 2.389 1.845.35 1.195-.187 2.422-1.383 3.327-.356.269-.626.47-.856.64-.191.143-.355.265-.516.388-.158.12-.27.207-.35.275-.063.054-.09.08-.096.086v.001l.001-.002a1.25 1.25 0 0 1-1.901.003.892.892 0 0 0-.086-.077 9.122 9.122 0 0 0-.336-.264c-.087-.065-.188-.14-.302-.227a84.91 84.91 0 0 1-1.095-.83c-1.184-.915-1.725-2.138-1.373-3.333.312-1.059 1.297-1.832 2.388-1.832.689 0 1.304.29 1.701.528Zm-.88 4.46.33.25c.308.233.492.382.602.512.113-.133.317-.3.644-.548.147-.112.32-.24.52-.39.241-.18.523-.39.85-.637 1.822-1.378.764-2.925-.25-2.925-.439 0-.955.267-1.325.526-.201.142-.36.28-.439.374a2.764 2.764 0 0 0-.495-.422c-.354-.244-.824-.478-1.258-.478-1.014 0-2.073 1.519-.252 2.925.442.34.793.604 1.072.813Z" clip-rule="evenodd"/>
  <path fill="#000" fill-rule="evenodd" d="M3.125 1A3.125 3.125 0 0 0 0 4.125V9.88a3.125 3.125 0 0 0 3.021 3.124c-.043.5-.126.986-.211 1.473-.174.987.841 1.884 1.826 1.358 1.008-.537 2.547-1.356 4.209-2.552.25-.18.543-.277.838-.277h3.192c1.726 0 3.125-1.4 3.125-3.126V4.125C16 2.399 14.6 1 12.875 1h-9.75ZM1.25 4.125c0-1.036.84-1.875 1.875-1.875h9.75c1.036 0 1.875.84 1.875 1.875V9.88c0 1.036-.84 1.875-1.875 1.875H9.683c-.57 0-1.116.188-1.569.513-1.603 1.155-3.091 1.944-4.064 2.463a.035.035 0 0 1-.01-.02v-.018c.1-.56.2-1.164.241-1.77.046-.664-.493-1.168-1.104-1.168h-.052A1.875 1.875 0 0 1 1.25 9.88V4.125Z" clip-rule="evenodd"/>
</svg>
