<svg fill="none" viewBox="0 0 32 16" xmlns="http://www.w3.org/2000/svg">
  <path fill="#7295F6" d="M3.179 1.5H14.32A2.68 2.68 0 0 1 17 4.179v6.642a2.678 2.678 0 0 1-2.678 2.679h-4.288a.535.535 0 0 0-.534.536v.932c0 .314-.215.58-.53.566-.674-.028-1.984-.292-3.855-1.601a2.308 2.308 0 0 0-1.318-.433h-.618A2.68 2.68 0 0 1 .5 10.821V4.18A2.68 2.68 0 0 1 3.179 1.5Z"/>
  <path fill="#1E42A4" fill-rule="evenodd" d="M17.5 4.179A3.179 3.179 0 0 0 14.321 1H3.18A3.179 3.179 0 0 0 0 4.179v6.642A3.179 3.179 0 0 0 3.179 14h.628c.354 0 .709.12 1.024.334 1.782 1.21 3.193 1.557 4.002 1.646.702.078 1.167-.506 1.167-1.094v-.85c0-.022.017-.036.034-.036h4.288a3.178 3.178 0 0 0 3.178-3.179V4.18ZM14.321 2c1.204 0 2.179.975 2.179 2.179v6.642A2.178 2.178 0 0 1 14.322 13h-4.288C9.459 13 9 13.467 9 14.036v.85c0 .051-.02.081-.03.093a.028.028 0 0 1-.01.007s-.005.002-.017 0c-.647-.071-1.904-.362-3.55-1.48A2.833 2.833 0 0 0 3.807 13H3.18A2.179 2.179 0 0 1 1 10.821V4.18C1 2.975 1.975 2 3.179 2H14.32Z" clip-rule="evenodd"/>
  <path fill="#fff" d="M6.5 7.768C6.5 8.478 7.107 9 8.163 9s.869-.958.539-.958c-.33 0-.55-.144-.55-.35 0-.314.445-.505.984-.736.823-.354 1.864-.8 1.864-1.921 0-.876-.825-1.535-2.2-1.535-.714 0-1.684.218-2.3.547V5.36c.572-.37 1.421-.562 1.916-.562.473 0 .693.185.693.422 0 .342-.46.571-.993.838-.738.368-1.616.807-1.616 1.71Zm.5 2.861c0-.543.422-1.129 1.116-1.129.408 0 .884.257.884.886 0 .5-.327 1.114-1.102 1.114-.422 0-.898-.214-.898-.871Z"/>
  <path fill="#F2A18A" d="M28.821.5H17.68A2.68 2.68 0 0 0 15 3.179V9.82a2.68 2.68 0 0 0 2.679 2.679h1.286c.296 0 .535.24.535.536v.86c0 .347.258.626.602.582.697-.09 1.987-.427 3.811-1.602a2.286 2.286 0 0 1 1.234-.376h3.675c1.48 0 2.678-1.2 2.678-2.679V3.18A2.68 2.68 0 0 0 28.821.5Z"/>
  <path fill="#77230C" fill-rule="evenodd" d="M14.5 3.179A3.179 3.179 0 0 1 17.679 0H28.82A3.179 3.179 0 0 1 32 3.179V9.82A3.178 3.178 0 0 1 28.822 13h-3.675c-.333 0-.666.105-.963.296-1.88 1.21-3.239 1.577-4.018 1.678-.706.09-1.166-.497-1.166-1.078v-.86a.036.036 0 0 0-.035-.036h-1.286A3.179 3.179 0 0 1 14.5 9.821V3.18ZM17.679 1A2.179 2.179 0 0 0 15.5 3.179V9.82c0 1.204.975 2.179 2.179 2.179h1.286c.574 0 1.035.466 1.035 1.036v.86c0 .05.019.077.026.084a.018.018 0 0 0 .002.002h.01c.615-.08 1.835-.387 3.604-1.526.441-.284.96-.456 1.505-.456h3.675A2.178 2.178 0 0 0 31 9.821V3.18A2.179 2.179 0 0 0 28.821 1H17.68Z" clip-rule="evenodd"/>
  <path fill="#DE5833" d="M23.245 5c-.244-.294-1.126-1-1.9-1-1.098 0-2.245 1.688-.272 3.25 1.358 1.075 1.928 1.456 2.172 1.75.244-.294.878-.739 2.182-1.75C27.4 5.72 26.253 4 25.155 4c-.733 0-1.666.706-1.91 1Z"/>
  <path fill="#551605" fill-rule="evenodd" d="m22.486 8.348-.252-.194a95.644 95.644 0 0 1-1.161-.904C19.1 5.687 20.246 4 21.345 4c.412 0 .854.2 1.214.431.317.204.571.431.686.569.104-.126.334-.326.62-.515.384-.253.87-.485 1.29-.485 1.098 0 2.244 1.72.272 3.25-.355.275-.66.508-.921.708L24 8.345c-.389.302-.627.5-.756.655-.133-.16-.361-.344-.759-.652Zm.767-4.656a4.38 4.38 0 0 1 .249-.16C23.906 3.29 24.513 3 25.154 3c1.044 0 1.964.773 2.25 1.777.318 1.115-.148 2.32-1.364 3.263-.378.293-.674.519-.925.711-.211.161-.39.298-.562.432-.37.288-.498.407-.539.456a1 1 0 0 1-1.539 0c-.039-.047-.148-.149-.512-.431l-.332-.256a113.69 113.69 0 0 1-1.18-.918c-1.206-.956-1.675-2.157-1.355-3.271C19.386 3.755 20.31 3 21.345 3c.659 0 1.263.287 1.671.537.08.05.16.102.237.155Z" clip-rule="evenodd"/>
</svg>
