<svg width="64" height="48" viewBox="0 0 64 48" fill="none" xmlns="http://www.w3.org/2000/svg">
<path opacity="0.2" d="M52.8143 19.1L53.5857 18.9C53.7286 18.8714 53.8714 18.7286 53.9 18.5857L54.1 17.8143C54.1571 17.6143 54.3286 17.5 54.5 17.5C54.7 17.5 54.8714 17.6429 54.9 17.8143L55.1 18.5857C55.1286 18.7286 55.2714 18.8714 55.4143 18.9L56.1857 19.1C56.3857 19.1571 56.5 19.3286 56.5 19.5C56.5 19.7 56.3571 19.8714 56.1857 19.9L55.4143 20.1C55.2714 20.1286 55.1286 20.2714 55.1 20.4143L54.9 21.1857C54.8429 21.3857 54.6714 21.5 54.5 21.5C54.3 21.5 54.1286 21.3571 54.1 21.1857L53.9 20.4143C53.8714 20.2714 53.7286 20.1286 53.5857 20.1L52.8143 19.9C52.6143 19.8429 52.5 19.6714 52.5 19.5C52.5 19.3 52.6428 19.1286 52.8143 19.1Z" fill="#888888"/>
<path opacity="0.2" d="M7.97142 15.9L9.12857 15.6C9.34285 15.5571 9.55715 15.3429 9.60001 15.1286L9.89999 13.9714C9.9857 13.6714 10.2429 13.5 10.5 13.5C10.8 13.5 11.0572 13.7143 11.1 13.9714L11.4 15.1286C11.4428 15.3429 11.6571 15.5571 11.8714 15.6L13.0286 15.9C13.3286 15.9857 13.5 16.2429 13.5 16.5C13.5 16.8 13.2857 17.0571 13.0286 17.1L11.8714 17.4C11.6571 17.4429 11.4428 17.6571 11.4 17.8714L11.1 19.0286C11.0143 19.3286 10.7571 19.5 10.5 19.5C10.2 19.5 9.94285 19.2857 9.89999 19.0286L9.60001 17.8714C9.55715 17.6571 9.34285 17.4429 9.12857 17.4L7.97142 17.1C7.67142 17.0143 7.5 16.7571 7.5 16.5C7.5 16.2 7.71427 15.9429 7.97142 15.9Z" fill="#888888"/>
<path opacity="0.2" d="M0.314279 26.6L1.08571 26.4C1.22857 26.3714 1.37144 26.2286 1.40001 26.0857L1.59999 25.3143C1.65714 25.1143 1.82857 25 2 25C2.2 25 2.37144 25.1429 2.40001 25.3143L2.59999 26.0857C2.62856 26.2286 2.77143 26.3714 2.91429 26.4L3.68572 26.6C3.88572 26.6571 4 26.8286 4 27C4 27.2 3.85715 27.3714 3.68572 27.4L2.91429 27.6C2.77143 27.6286 2.62856 27.7714 2.59999 27.9143L2.40001 28.6857C2.34286 28.8857 2.17143 29 2 29C1.8 29 1.62856 28.8571 1.59999 28.6857L1.40001 27.9143C1.37144 27.7714 1.22857 27.6286 1.08571 27.6L0.314279 27.4C0.114279 27.3429 0 27.1714 0 27C0 26.8 0.14285 26.6286 0.314279 26.6Z" fill="#888888"/>
<path opacity="0.2" d="M63.25 26C62.8375 26 62.5 25.6625 62.5 25.25C62.5 24.8375 62.8375 24.5 63.25 24.5C63.6625 24.5 64 24.8375 64 25.25C64 25.6625 63.6625 26 63.25 26Z" fill="#888888"/>
<path opacity="0.2" d="M11.5 35C10.95 35 10.5 34.55 10.5 34C10.5 33.45 10.95 33 11.5 33C12.05 33 12.5 33.45 12.5 34C12.5 34.55 12.05 35 11.5 35Z" fill="#888888"/>
<path fill-rule="evenodd" clip-rule="evenodd" d="M43.1667 25.5C37.8279 25.5 33.5 29.8279 33.5 35.1667V36C33.5 38.2091 31.7091 40 29.5 40H23C20.7909 40 19 38.2091 19 36L19 12C19 9.79086 20.7909 8 23 8L41.5 8C43.7091 8 45.5 9.79086 45.5 12V23.1667C45.5 24.4553 44.4553 25.5 43.1667 25.5Z" fill="#C18010"/>
<path fill-rule="evenodd" clip-rule="evenodd" d="M43.1667 25.5C37.8279 25.5 33.5 29.8279 33.5 35.1667V36C33.5 38.2091 31.7091 40 29.5 40H22.5C20.2909 40 18.5 38.2091 18.5 36L18.5 12C18.5 9.79086 20.2909 8 22.5 8L39.5 8C41.7091 8 43.5 9.79086 43.5 12V25.5H43.1667Z" fill="#E2A412"/>
<path d="M54.1676 34.899H55.9168C56.2375 34.899 56.4999 35.169 56.4999 35.4989C56.4999 35.8289 56.2375 36.0989 55.9168 36.0989H54.1676C53.8469 36.0989 53.5845 35.8289 53.5845 35.4989C53.5845 35.169 53.8469 34.899 54.1676 34.899Z" fill="#CCCCCC"/>
<path d="M54.7507 29.5C54.8994 29.5 55.0481 29.56 55.1618 29.677C55.3892 29.9109 55.3892 30.2919 55.1618 30.5258L53.9956 31.7256C53.7682 31.9596 53.398 31.9596 53.1706 31.7256C52.9431 31.4917 52.9431 31.1107 53.1706 30.8768L54.3367 29.677C54.4504 29.56 54.5991 29.5 54.7478 29.5H54.7507Z" fill="#CCCCCC"/>
<path d="M53.5876 39.099C53.4389 39.099 53.2902 39.159 53.1765 39.276C52.9491 39.5099 52.9491 39.8909 53.1765 40.1248L54.3427 41.3246C54.5701 41.5586 54.9404 41.5586 55.1678 41.3246C55.3952 41.0907 55.3952 40.7097 55.1678 40.4758L54.0016 39.276C53.8879 39.159 53.7392 39.099 53.5905 39.099H53.5876Z" fill="#CCCCCC"/>
<path fill-rule="evenodd" clip-rule="evenodd" d="M40.9825 25.7478C36.6957 26.7379 33.5 30.5791 33.5 35.1667V38H21.2198C20.5888 38 20.1066 37.4226 20.1984 36.7983C20.4899 34.8155 21 30.4279 21 24L21 11C21 10.4477 21.4478 10 22 10L40 10C40.5523 10 41 10.4439 41 10.9962V24C41 24.5897 40.9939 25.1732 40.9825 25.7478Z" fill="#FFDE7A"/>
<path d="M25 10C25 9.44772 25.4477 9 26 9H36C36.5523 9 37 9.44772 37 10V12C37 12.5523 36.5523 13 36 13H26C25.4477 13 25 12.5523 25 12V10Z" fill="#999999"/>
<path opacity="0.8" fill-rule="evenodd" clip-rule="evenodd" d="M33.8725 32.5C34.0212 31.9808 34.2122 31.4795 34.4416 31H29.75C29.3358 31 29 31.3358 29 31.75C29 32.1642 29.3358 32.5 29.75 32.5H33.8725ZM29.75 17.5C29.3358 17.5 29 17.8358 29 18.25C29 18.6642 29.3358 19 29.75 19H37.75C38.1642 19 38.5 18.6642 38.5 18.25C38.5 17.8358 38.1642 17.5 37.75 17.5H29.75ZM29.75 24C29.3358 24 29 24.3358 29 24.75C29 25.1642 29.3358 25.5 29.75 25.5H37.75C38.1642 25.5 38.5 25.1642 38.5 24.75C38.5 24.3358 38.1642 24 37.75 24H29.75Z" fill="#C18010"/>
<path d="M25 10C25 9.44772 25.4477 9 26 9H36C36.5523 9 37 9.44772 37 10V11C37 11.5523 36.5523 12 36 12H26C25.4477 12 25 11.5523 25 11V10Z" fill="#D9D9D9"/>
<path opacity="0.7" fill-rule="evenodd" clip-rule="evenodd" d="M27.2185 16.1643C26.8951 15.9056 26.4231 15.958 26.1643 16.2815L24.6878 18.1271L24.2803 17.7197C23.9874 17.4268 23.5126 17.4268 23.2197 17.7197C22.9268 18.0126 22.9268 18.4874 23.2197 18.7803L24.2197 19.7803C24.3705 19.9312 24.5785 20.0106 24.7915 19.9989C25.0045 19.9871 25.2024 19.8851 25.3357 19.7185L27.3357 17.2185C27.5944 16.8951 27.542 16.4231 27.2185 16.1643Z" fill="#C18010"/>
<path opacity="0.7" fill-rule="evenodd" clip-rule="evenodd" d="M25.25 25.5C25.6642 25.5 26 25.1642 26 24.75C26 24.3358 25.6642 24 25.25 24C24.8358 24 24.5 24.3358 24.5 24.75C24.5 25.1642 24.8358 25.5 25.25 25.5ZM25.25 27C26.4926 27 27.5 25.9926 27.5 24.75C27.5 23.5074 26.4926 22.5 25.25 22.5C24.0074 22.5 23 23.5074 23 24.75C23 25.9926 24.0074 27 25.25 27Z" fill="#C18010"/>
<path opacity="0.8" fill-rule="evenodd" clip-rule="evenodd" d="M25.25 32.5C25.6642 32.5 26 32.1642 26 31.75C26 31.3358 25.6642 31 25.25 31C24.8358 31 24.5 31.3358 24.5 31.75C24.5 32.1642 24.8358 32.5 25.25 32.5ZM25.25 34C26.4926 34 27.5 32.9926 27.5 31.75C27.5 30.5074 26.4926 29.5 25.25 29.5C24.0074 29.5 23 30.5074 23 31.75C23 32.9926 24.0074 34 25.25 34Z" fill="#C18010"/>
<path d="M43.5 43.5C47.9183 43.5 51.5 39.9183 51.5 35.5C51.5 31.0817 47.9183 27.5 43.5 27.5C39.0817 27.5 35.5 31.0817 35.5 35.5C35.5 39.9183 39.0817 43.5 43.5 43.5Z" fill="#3969EF"/>
<path d="M42.5 37.0747C42.2647 36.7554 42.1029 36.2765 42.1029 35.6959C42.1029 34.1139 43.75 33.8382 43.75 33.3882C43.75 33.2141 43.6324 33.0835 43.1765 33.0835C42.7941 33.0835 42.2647 33.3157 41.8971 33.693L40.25 31.8208C41.1029 30.9209 42.3676 30.5 43.5147 30.5C45.5 30.5 46.75 31.3999 46.75 32.8367C46.75 34.8832 44.6618 35.0283 44.6618 36.0152C44.6618 36.262 44.75 36.4652 44.8235 36.5522L42.5 37.0747ZM43.6029 40.5C42.75 40.5 42.0294 39.7888 42.0294 38.947C42.0294 38.1052 42.75 37.394 43.6029 37.394C44.4559 37.394 45.1765 38.1052 45.1765 38.947C45.1765 39.7888 44.4559 40.5 43.6029 40.5Z" fill="white"/>
</svg>
