<svg width="32" height="32" viewBox="0 0 32 32" fill="none" xmlns="http://www.w3.org/2000/svg">
<path opacity="0.1" fill-rule="evenodd" clip-rule="evenodd" d="M13.2007 31.2447L13.2771 31.2839L13.2784 31.2845L13.2798 31.2853L13.2822 31.2865L13.285 31.2879L13.2885 31.2898L13.5162 31.4066C15.0576 32.1977 16.9421 32.1978 18.4835 31.4067L18.7127 31.2891L18.7149 31.288L18.7179 31.2864L18.7187 31.286L18.7194 31.2856L18.7263 31.2821L18.7273 31.2816L19.0365 31.123C22.494 29.3498 26.1938 27.4523 28.6777 23.6923C31.0441 20.1103 32.0573 15.2803 31.9975 8.18379C31.9857 6.78624 31.2912 5.50845 30.1735 4.65844C29.0619 3.81312 27.6226 3.45308 26.2228 3.63338C24.5139 3.85349 23.4367 3.75936 22.6199 3.50298C21.8136 3.2499 20.9157 2.73098 19.7783 1.5578C18.8036 0.552514 17.42 0.00355504 16 1.72046e-05C14.5801 -0.00352013 13.1936 0.538505 12.2131 1.53832C11.083 2.69072 10.1895 3.2185 9.37842 3.48087C8.56049 3.74546 7.48158 3.85133 5.77074 3.63302C4.3718 3.45451 2.93407 3.8155 1.82395 4.66087C0.707653 5.51092 0.0142364 6.78786 0.00248556 8.18429C-0.0572261 15.2805 0.955967 20.1103 3.32227 23.6923C5.80624 27.4523 9.50606 29.3498 12.9635 31.123L13.0761 31.1808L13.2007 31.2447Z" fill="white"/>
<mask id="mask0_4213_130095" style="mask-type:alpha" maskUnits="userSpaceOnUse" x="2" y="2" width="28" height="28">
<path fill-rule="evenodd" clip-rule="evenodd" d="M15.9927 2.52638C15.2935 2.52465 14.628 2.78918 14.1695 3.2511C12.8169 4.6137 11.5503 5.43328 10.1861 5.86926C8.82618 6.30385 7.2726 6.38779 5.27773 6.13632C4.58998 6.04962 3.89298 6.22732 3.36609 6.62369C2.83919 7.02007 2.53387 7.5964 2.52869 8.20438C2.46976 15.124 3.48745 19.3787 5.47982 22.3581C7.61554 25.5519 10.8102 27.1711 14.4735 29.0278L14.5574 29.0703L14.5612 29.0722L14.5627 29.073L14.7935 29.19C15.5397 29.5684 16.4602 29.5684 17.2064 29.19L17.4379 29.0726L17.4387 29.0722L17.4433 29.0699L17.4441 29.0695L17.5264 29.0277C21.1897 27.1711 24.3844 25.5519 26.5201 22.3581C28.5125 19.3786 29.5302 15.1238 29.4712 8.2039C29.466 7.59543 29.1602 7.01869 28.6326 6.62231C28.105 6.22593 27.4072 6.04868 26.719 6.13625C24.7433 6.38764 23.1957 6.32049 21.8358 5.89883C20.4637 5.47337 19.1816 4.65631 17.8113 3.26006C17.3558 2.7959 16.692 2.5281 15.9927 2.52638Z" fill="#3969EF"/>
</mask>
<g mask="url(#mask0_4213_130095)">
<path fill-rule="evenodd" clip-rule="evenodd" d="M15.9927 2.52638C15.2935 2.52465 14.628 2.78918 14.1695 3.2511C12.8169 4.6137 11.5503 5.43328 10.1861 5.86926C8.82618 6.30385 7.2726 6.38779 5.27773 6.13632C4.58998 6.04962 3.89297 6.22732 3.36609 6.62369C2.83919 7.02007 2.53387 7.5964 2.52869 8.20438C2.46976 15.124 3.48745 19.3787 5.47982 22.3581C7.61554 25.5519 10.8102 27.1711 14.4735 29.0278L14.5574 29.0703L14.5612 29.0722L14.5627 29.073L14.7935 29.19C15.5397 29.5684 16.4602 29.5684 17.2064 29.19L17.4379 29.0726L17.4387 29.0722L17.4433 29.0699L17.4441 29.0695L17.5264 29.0277C21.1897 27.1711 24.3844 25.5519 26.5201 22.3581C28.5125 19.3786 29.5302 15.1238 29.4712 8.2039C29.466 7.59543 29.1602 7.01869 28.6326 6.62231C28.105 6.22593 27.4072 6.04868 26.719 6.13625C24.7433 6.38764 23.1957 6.32049 21.8358 5.89883C20.4637 5.47337 19.1816 4.65631 17.8113 3.26006C17.3558 2.7959 16.692 2.5281 15.9927 2.52638Z" fill="#808080"/>
<path d="M16 27.8441C16.5005 27.6124 16 27.8441 16.499 27.6132L16.5005 27.6124C20.3404 25.6218 23.0192 24.1999 24.8263 21.4362C26.5149 18.8536 27.5434 14.9154 27.4848 7.8771C25.2125 8.17005 23.2008 8.10375 21.3228 7.48997C19.4358 6.87322 17.5485 5.75111 16 4.15576V27.8441Z" fill="#E6E6E6"/>
<path d="M16 27.8441C15.4995 27.6124 16 27.8441 15.501 27.6132L15.4995 27.6124C11.6596 25.6218 8.98083 24.1999 7.17373 21.4362C5.48505 18.8536 4.45658 14.9154 4.5152 7.8771C6.78745 8.17005 8.7992 8.10375 10.6772 7.48997C12.5642 6.87322 14.4515 5.75111 16 4.15576V27.8441Z" fill="white"/>
</g>
</svg>
