<svg width="16" height="17" viewBox="0 0 16 17" fill="none" xmlns="http://www.w3.org/2000/svg">
<path d="M7 2.25C6.65482 2.25 6.375 2.52982 6.375 2.875C6.375 3.22018 6.65482 3.5 7 3.5H9C9.34518 3.5 9.625 3.22018 9.625 2.875C9.625 2.52982 9.34518 2.25 9 2.25H7Z" fill="black" fill-opacity="0.84"/>
<path fill-rule="evenodd" clip-rule="evenodd" d="M4.875 0.5C3.83947 0.5 3 1.33947 3 2.375V14.625C3 15.6605 3.83947 16.5 4.875 16.5H11.125C12.1605 16.5 13 15.6605 13 14.625V2.375C13 1.33947 12.1605 0.5 11.125 0.5H4.875ZM4.25 2.375C4.25 2.02982 4.52982 1.75 4.875 1.75H11.125C11.4702 1.75 11.75 2.02982 11.75 2.375V14.625C11.75 14.9702 11.4702 15.25 11.125 15.25H4.875C4.52982 15.25 4.25 14.9702 4.25 14.625V2.375Z" fill="black" fill-opacity="0.84"/>
</svg>
