<svg width="16" height="16" viewBox="0 0 16 16" fill="none" xmlns="http://www.w3.org/2000/svg">
<g clip-path="url(#clip0_6032_32892)">
<path fill-rule="evenodd" clip-rule="evenodd" d="M0 4.125C0 2.39911 1.39911 1 3.125 1H12.915C14.6409 1 16.04 2.39911 16.04 4.125V6.375C16.04 6.72018 15.7602 7 15.415 7C15.0698 7 14.79 6.72018 14.79 6.375V6.25H1.25V11.875C1.25 12.9105 2.08947 13.75 3.125 13.75H6.3125C6.65768 13.75 6.9375 14.0298 6.9375 14.375C6.9375 14.7202 6.65768 15 6.3125 15H3.125C1.39911 15 0 13.6009 0 11.875V4.125ZM14.79 4.125V5H1.25V4.125C1.25 3.08947 2.08947 2.25 3.125 2.25H12.915C13.9505 2.25 14.79 3.08947 14.79 4.125Z" fill="black"/>
<path fill-rule="evenodd" clip-rule="evenodd" d="M7.0009 11.4089C7.0003 11.4392 7 11.4696 7 11.5C7 13.9853 9.01472 16 11.5 16C13.9853 16 16 13.9853 16 11.5C16 11.4696 15.9997 11.4392 15.9991 11.4089C15.9997 11.3977 16 11.3864 16 11.375C16 11.35 15.9985 11.3254 15.9957 11.3012C15.8917 8.90815 13.9187 7 11.5 7C9.08134 7 7.10835 8.90815 7.00431 11.3012C7.00146 11.3254 7 11.35 7 11.375C7 11.3864 7.0003 11.3977 7.0009 11.4089ZM8.28822 12C8.41896 12.8467 8.8765 13.5855 9.52792 14.0835C9.31542 13.4783 9.17984 12.7639 9.13846 12H8.28822ZM10.3906 12C10.4404 12.7929 10.6061 13.4822 10.8322 13.9828C11.1307 14.6439 11.4147 14.75 11.5 14.75C11.5853 14.75 11.8693 14.6439 12.1678 13.9828C12.3939 13.4822 12.5596 12.7929 12.6094 12L10.3906 12ZM12.5896 10.75L10.4104 10.75C10.4764 10.0623 10.6302 9.46443 10.8322 9.0172C11.1307 8.35611 11.4147 8.25 11.5 8.25C11.5853 8.25 11.8693 8.35611 12.1678 9.0172C12.3698 9.46443 12.5236 10.0623 12.5896 10.75ZM13.8615 12C13.8202 12.7639 13.6846 13.4783 13.4721 14.0835C14.1235 13.5855 14.581 12.8467 14.7118 12H13.8615ZM14.663 10.75H13.8445C13.7894 10.0804 13.6612 9.45516 13.4721 8.91649C14.0585 9.36483 14.4878 10.0083 14.663 10.75ZM9.15549 10.75H8.33697C8.51216 10.0083 8.94147 9.36483 9.52792 8.91649C9.33877 9.45516 9.21057 10.0804 9.15549 10.75Z" fill="black"/>
</g>
<defs>
<clipPath id="clip0_6032_32892">
<rect width="16" height="16" fill="white"/>
</clipPath>
</defs>
</svg>
