<svg width="16" height="17" viewBox="0 0 16 17" fill="none" xmlns="http://www.w3.org/2000/svg">
<path fill-rule="evenodd" clip-rule="evenodd" d="M1.875 1.5C0.839466 1.5 0 2.33947 0 3.375V10.625C0 11.6605 0.839466 12.5 1.875 12.5H7V14.25H4.625C4.27982 14.25 4 14.5298 4 14.875C4 15.2202 4.27982 15.5 4.625 15.5H11.375C11.7202 15.5 12 15.2202 12 14.875C12 14.5298 11.7202 14.25 11.375 14.25H9V12.5H14.125C15.1605 12.5 16 11.6605 16 10.625V3.375C16 2.33947 15.1605 1.5 14.125 1.5H1.875ZM1.25 3.375C1.25 3.02982 1.52982 2.75 1.875 2.75H14.125C14.4702 2.75 14.75 3.02982 14.75 3.375V9.625C14.75 9.97018 14.4702 10.25 14.125 10.25H1.875C1.52982 10.25 1.25 9.97018 1.25 9.625V3.375Z" fill="black" fill-opacity="0.84"/>
</svg>
