<svg width="75" height="62" viewBox="0 0 75 62" fill="none" xmlns="http://www.w3.org/2000/svg">
<path d="M20 10C15.5817 10 12 13.5817 12 18V43C12 47.4183 15.5817 51 20 51H38V48.5C38 40.4919 44.4919 34 52.5 34H53V18C53 13.5817 49.4183 10 45 10H20Z" fill="#4CBA3C"/>
<path d="M45 7H20C13.9249 7 9 11.9249 9 18V43C9 49.0751 13.9249 54 20 54H36C37.1046 54 38 53.1046 38 52V51H20C15.5817 51 12 47.4183 12 43V18C12 13.5817 15.5817 10 20 10H45C49.4183 10 53 13.5817 53 18V34H54C55.1046 34 56 33.1046 56 32V18C56 11.9249 51.0751 7 45 7Z" fill="#399F29"/>
<path d="M19 9C14.5817 9 11 12.5817 11 17V41C11 45.4183 14.5817 49 19 49H38V48.5C38 40.9984 43.6967 34.8272 51 34.0766V17C51 12.5817 47.4183 9 43 9H19Z" fill="#B3F1AA"/>
<path d="M43 6H19C12.9249 6 8 10.9249 8 17V41C8 47.0751 12.9249 52 19 52H38V49H19C14.5817 49 11 45.4183 11 41V17C11 12.5817 14.5817 9 19 9H43C47.4183 9 51 12.5817 51 17V34.0766C51.4931 34.026 51.9935 34 52.5 34H54V17C54 10.9249 49.0751 6 43 6Z" fill="#4CBA3C"/>
<path d="M20.5744 15.9707H19.0841C18.4698 15.9707 17.9719 16.4686 17.9719 17.0828V18.5732C17.9719 19.1874 18.4698 19.6853 19.0841 19.6853H20.5744C21.1886 19.6853 21.6865 19.1874 21.6865 18.5732V17.0828C21.6865 16.4686 21.1886 15.9707 20.5744 15.9707Z" fill="#4CBA3C"/>
<path d="M34.6896 13H33.9422C33.7383 13 33.573 13.1653 33.573 13.3692V23.7746C33.573 23.9785 33.7383 24.1438 33.9422 24.1438H34.6896C34.8935 24.1438 35.0588 23.9785 35.0588 23.7746V13.3692C35.0588 13.1653 34.8935 13 34.6896 13Z" fill="#4CBA3C"/>
<path d="M46.5764 24.8867H45.8335C45.6263 24.8867 45.4642 25.0533 45.4642 25.2559V27.1155C45.4642 27.5252 45.1311 27.8584 44.7213 27.8584H39.5209C39.1112 27.8584 38.778 27.5252 38.778 27.1155V25.2604C38.778 25.0533 38.6114 24.8867 38.4088 24.8867H37.6658C37.4587 24.8867 37.2966 25.0533 37.2966 25.2604V27.4892C37.2966 28.5158 38.1296 29.3442 39.1517 29.3442H45.095C46.1216 29.3442 46.9501 28.5113 46.9501 27.4892V25.2604C46.9501 25.0533 46.7835 24.8912 46.5809 24.8912L46.5764 24.8867Z" fill="#4CBA3C"/>
<path d="M22.0559 24.8867H21.3129C21.1058 24.8867 20.9437 25.0533 20.9437 25.2604V27.1155C20.9437 27.5252 20.6106 27.8584 20.2008 27.8584H19.0887C18.8816 27.8584 18.7195 28.025 18.7195 28.2276V28.9705C18.7195 29.1776 18.8861 29.3442 19.0887 29.3442H20.5745C21.6011 29.3442 22.4296 28.5113 22.4296 27.4892V25.2604C22.4296 25.0533 22.263 24.8867 22.0559 24.8867Z" fill="#4CBA3C"/>
<path d="M29.1157 37.5159C29.1157 37.1061 29.4489 36.773 29.8586 36.773H33.9425C34.1496 36.773 34.3117 36.6064 34.3117 36.3992V35.6563C34.3117 35.4492 34.1451 35.2871 33.9425 35.2871H29.4849C28.4583 35.2871 27.6299 36.1201 27.6299 37.1422V43.0855C27.6299 44.1121 28.4629 44.9406 29.4849 44.9406H33.1995C33.4066 44.9406 33.5732 44.774 33.5732 44.5714V43.8284C33.5732 43.6213 33.4066 43.4547 33.1995 43.4547H29.8586C29.4489 43.4547 29.1157 43.1215 29.1157 42.7118V37.5114V37.5159Z" fill="#4CBA3C"/>
<path d="M15 30.0872C15 31.7306 16.3282 33.0588 17.9717 33.0588H33.9422C34.1493 33.0588 34.3114 32.8922 34.3114 32.6851V31.9422C34.3114 31.7351 34.1448 31.573 33.9422 31.573H17.9717C17.1522 31.573 16.4858 30.9066 16.4858 30.0872V25.2604C16.4858 25.0533 16.3192 24.8867 16.1166 24.8867H15.3737C15.1666 24.8867 15.0045 25.0533 15.0045 25.2604V30.0872H15Z" fill="#4CBA3C"/>
<path d="M40.2593 31.5723C38.6159 31.5723 37.2876 32.9005 37.2876 34.5439V40.861C37.2876 41.0681 37.4542 41.2302 37.6568 41.2302H38.3997C38.6068 41.2302 38.7689 41.0636 38.7689 40.861V34.5439C38.7689 33.7245 39.4353 33.0581 40.2548 33.0581H45.8289C46.036 33.0581 46.1981 32.8915 46.1981 32.6844V31.9415C46.1981 31.7344 46.0315 31.5723 45.8289 31.5723H40.2548H40.2593Z" fill="#4CBA3C"/>
<path d="M29.1152 21.9142H30.9703C31.1774 21.9142 31.3395 21.7476 31.3395 21.5405V20.7975C31.3395 20.5904 31.1729 20.4283 30.9703 20.4238H29.1152C27.4718 20.4238 26.1436 21.7521 26.1436 23.3955V26.3672C26.1436 28.0106 27.4718 29.3389 29.1152 29.3389H33.942C34.1491 29.3389 34.3112 29.1723 34.3112 28.9652V28.2222C34.3112 28.0151 34.1446 27.853 33.942 27.8485H29.1107C28.2913 27.8485 27.6249 27.1821 27.6249 26.3627V23.391C27.6249 22.5715 28.2913 21.9052 29.1107 21.9052L29.1152 21.9142Z" fill="#4CBA3C"/>
<path d="M20.8668 13H18.7911C16.6975 13 15 14.6975 15 16.7911V18.8668C15 20.9605 16.6975 22.658 18.7911 22.658H20.8668C22.9605 22.658 24.658 20.9605 24.658 18.8668V16.7911C24.658 14.6975 22.9605 13 20.8668 13ZM20.9434 21.1721H18.7101C17.4809 21.1721 16.4858 20.1771 16.4858 18.9479V16.7146C16.4858 15.4854 17.4809 14.4903 18.7101 14.4903H20.9434C22.1726 14.4903 23.1676 15.4854 23.1676 16.7146V18.9479C23.1676 20.1771 22.1726 21.1721 20.9434 21.1721Z" fill="#4CBA3C"/>
<path d="M20.8668 35.2871H18.7911C16.6975 35.2871 15 36.9846 15 39.0783V41.1539C15 43.2476 16.6975 44.9451 18.7911 44.9451H20.8668C22.9605 44.9451 24.658 43.2476 24.658 41.1539V39.0783C24.658 36.9846 22.9605 35.2871 20.8668 35.2871ZM20.9434 43.4592H18.7101C17.4809 43.4592 16.4858 42.4642 16.4858 41.235V39.0017C16.4858 37.7725 17.4809 36.7775 18.7101 36.7775H20.9434C22.1726 36.7775 23.1676 37.7725 23.1676 39.0017V41.235C23.1676 42.4642 22.1726 43.4592 20.9434 43.4592Z" fill="#4CBA3C"/>
<path d="M43.1544 13H41.0787C38.9851 13 37.2876 14.6975 37.2876 16.7911V18.8668C37.2876 20.9605 38.9851 22.658 41.0787 22.658H43.1544C45.2481 22.658 46.9456 20.9605 46.9456 18.8668V16.7911C46.9456 14.6975 45.2481 13 43.1544 13ZM43.231 21.1721H40.9977C39.7685 21.1721 38.7734 20.1771 38.7734 18.9479V16.7146C38.7734 15.4854 39.7685 14.4903 40.9977 14.4903H43.231C44.4601 14.4903 45.4552 15.4854 45.4552 16.7146V18.9479C45.4552 20.1771 44.4601 21.1721 43.231 21.1721Z" fill="#4CBA3C"/>
<path d="M31.3442 16.7136C31.3442 16.3033 31.0116 15.9707 30.6013 15.9707C30.191 15.9707 29.8584 16.3033 29.8584 16.7136C29.8584 17.1239 30.191 17.4565 30.6013 17.4565C31.0116 17.4565 31.3442 17.1239 31.3442 16.7136Z" fill="#4CBA3C"/>
<path d="M42.4883 36.7722C42.4883 36.3619 42.1557 36.0293 41.7454 36.0293C41.3351 36.0293 41.0024 36.3619 41.0024 36.7722C41.0024 37.1825 41.3351 37.5151 41.7454 37.5151C42.1557 37.5151 42.4883 37.1825 42.4883 36.7722Z" fill="#4CBA3C"/>
<path d="M28.3728 13.7429C28.3728 13.3326 28.0402 13 27.6299 13C27.2196 13 26.887 13.3326 26.887 13.7429C26.887 14.1532 27.2196 14.4858 27.6299 14.4858C28.0402 14.4858 28.3728 14.1532 28.3728 13.7429Z" fill="#4CBA3C"/>
<path d="M42.8615 15.9707H41.3712C40.757 15.9707 40.259 16.4686 40.259 17.0828V18.5732C40.259 19.1874 40.757 19.6853 41.3712 19.6853H42.8615C43.4757 19.6853 43.9736 19.1874 43.9736 18.5732V17.0828C43.9736 16.4686 43.4757 15.9707 42.8615 15.9707Z" fill="#4CBA3C"/>
<path d="M20.5699 38.2598H19.0886C18.4719 38.2598 17.9719 38.7597 17.9719 39.3764V40.8577C17.9719 41.4744 18.4719 41.9744 19.0886 41.9744H20.5699C21.1866 41.9744 21.6865 41.4744 21.6865 40.8577V39.3764C21.6865 38.7597 21.1866 38.2598 20.5699 38.2598Z" fill="#4CBA3C"/>
<path d="M52.5 60C58.8513 60 64 54.8513 64 48.5C64 42.1487 58.8513 37 52.5 37C46.1487 37 41 42.1487 41 48.5C41 54.8513 46.1487 60 52.5 60Z" fill="#4CBA3C"/>
<path d="M69.9239 47.3945H72.6255C73.1208 47.3945 73.526 47.7998 73.526 48.295C73.526 48.7903 73.1208 49.1955 72.6255 49.1955H69.9239C69.4287 49.1955 69.0234 48.7903 69.0234 48.295C69.0234 47.7998 69.4287 47.3945 69.9239 47.3945Z" fill="#CCCCCC"/>
<path d="M70.8244 39.2891C71.054 39.2891 71.2836 39.3791 71.4592 39.5547C71.8104 39.9059 71.8104 40.4777 71.4592 40.8289L69.6582 42.6299C69.307 42.9811 68.7352 42.9811 68.384 42.6299C68.0328 42.2788 68.0328 41.7069 68.384 41.3557L70.185 39.5547C70.3606 39.3791 70.5902 39.2891 70.8199 39.2891H70.8244Z" fill="#CCCCCC"/>
<path d="M69.0281 53.6973C68.7985 53.6973 68.5689 53.7873 68.3933 53.9629C68.0421 54.3141 68.0421 54.8859 68.3933 55.2371L70.1943 57.0382C70.5455 57.3894 71.1173 57.3894 71.4685 57.0382C71.8197 56.687 71.8197 56.1151 71.4685 55.7639L69.6675 53.9629C69.4919 53.7873 69.2623 53.6973 69.0326 53.6973H69.0281Z" fill="#CCCCCC"/>
<path d="M59.1424 46.5354C59.5329 46.1449 59.5329 45.5117 59.1424 45.1212L57.7282 43.707C57.3376 43.3164 56.7045 43.3164 56.3139 43.707L51.3642 48.6567C50.9737 49.0472 50.3405 49.0472 49.95 48.6567L48.5356 47.2425C48.1451 46.8519 47.5119 46.852 47.1214 47.2425L45.7072 48.6567C45.3167 49.0472 45.3167 49.6804 45.7072 50.0709L49.95 54.3136C50.3405 54.7041 50.9737 54.7041 51.3642 54.3136L59.1424 46.5354Z" fill="white"/>
</svg>
