<svg width="16" height="16" viewBox="0 0 16 16" fill="none" xmlns="http://www.w3.org/2000/svg">
<g clip-path="url(#clip0_2318_29543)">
<path fill-rule="evenodd" clip-rule="evenodd" d="M6.5 0C2.91015 0 0 2.91015 0 6.5C0 10.0899 2.91015 13 6.5 13C8.06985 13 9.50972 12.4435 10.6331 11.517L14.9331 15.8169C15.1771 16.061 15.5729 16.061 15.8169 15.8169C16.061 15.5729 16.061 15.1771 15.8169 14.9331L11.517 10.6331C12.4435 9.50972 13 8.06985 13 6.5C13 2.91015 10.0899 0 6.5 0ZM1.25 6.5C1.25 3.60051 3.60051 1.25 6.5 1.25C9.3995 1.25 11.75 3.60051 11.75 6.5C11.75 9.3995 9.3995 11.75 6.5 11.75C3.60051 11.75 1.25 9.3995 1.25 6.5Z" fill="black" fill-opacity="0.84"/>
</g>
<defs>
<clipPath id="clip0_2318_29543">
<rect width="16" height="16" fill="white"/>
</clipPath>
</defs>
</svg>
