<svg fill="none" viewBox="0 0 16 16" xmlns="http://www.w3.org/2000/svg">
  <path fill="url(#VideoPlayer-Multicolor-16_svg__a)" d="M.5 4.5a3 3 0 0 1 3-3h9a3 3 0 0 1 3 3v7a3 3 0 0 1-3 3h-9a3 3 0 0 1-3-3v-7Z"/>
  <path fill="url(#VideoPlayer-Multicolor-16_svg__b)" fill-rule="evenodd" d="M15.5 8.75V11a3 3 0 0 1-3 3h-9a3 3 0 0 1-3-3V8.75H1V9a2 2 0 0 0 2 2h10a2 2 0 0 0 2-2v-.25h.5Z" clip-rule="evenodd"/>
  <path fill="url(#VideoPlayer-Multicolor-16_svg__c)" fill-rule="evenodd" d="M0 4.5A3.5 3.5 0 0 1 3.5 1h9A3.5 3.5 0 0 1 16 4.5v7a3.5 3.5 0 0 1-3.5 3.5h-9A3.5 3.5 0 0 1 0 11.5v-7ZM3.5 2A2.5 2.5 0 0 0 1 4.5v7A2.5 2.5 0 0 0 3.5 14h9a2.5 2.5 0 0 0 2.5-2.5v-7A2.5 2.5 0 0 0 12.5 2h-9Z" clip-rule="evenodd"/>
  <path fill="#551605" d="M10.737 6.087c.35.178.35.648 0 .826L6.746 8.942C6.41 9.112 6 8.886 6 8.529V4.471c0-.357.41-.584.746-.413l3.991 2.03Z"/>
  <path fill="#551605" fill-rule="evenodd" d="M10 11a.5.5 0 0 0-1 0v1a.5.5 0 0 0 1 0v-1Zm-7.5 0H8v1H2.5a.5.5 0 0 1 0-1Zm11 1H11v-1h2.5a.5.5 0 0 1 0 1Z" clip-rule="evenodd"/>
  <defs>
    <linearGradient id="VideoPlayer-Multicolor-16_svg__a" x1="8" x2="8" y1="1.5" y2="14.5" gradientUnits="userSpaceOnUse">
      <stop stop-color="#F2A18A"/>
      <stop offset=".831" stop-color="#E46F4F"/>
    </linearGradient>
    <linearGradient id="VideoPlayer-Multicolor-16_svg__b" x1="14.088" x2="2.498" y1="11.5" y2="8.99" gradientUnits="userSpaceOnUse">
      <stop stop-color="#FAD4B6"/>
      <stop offset=".914" stop-color="#E7785A"/>
    </linearGradient>
    <linearGradient id="VideoPlayer-Multicolor-16_svg__c" x1="8" x2="8" y1="1.5" y2="14.5" gradientUnits="userSpaceOnUse">
      <stop offset=".472" stop-color="#9A3216"/>
      <stop offset="1" stop-color="#4F2115"/>
      <stop offset="1" stop-color="#330B01"/>
    </linearGradient>
  </defs>
</svg>
