<svg width="16" height="16" viewBox="0 0 16 16" fill="none" xmlns="http://www.w3.org/2000/svg">
<path d="M1.625 1C1.27982 1 1 1.27982 1 1.625C1 1.97018 1.27982 2.25 1.625 2.25H15.375C15.7202 2.25 16 1.97018 16 1.625C16 1.27982 15.7202 1 15.375 1H1.625Z" fill="black" fill-opacity="0.9"/>
<path d="M6 5.625C6 5.27982 6.27982 5 6.625 5L15.375 5C15.7202 5 16 5.27982 16 5.625C16 5.97018 15.7202 6.25 15.375 6.25L6.625 6.25C6.27982 6.25 6 5.97018 6 5.625Z" fill="black" fill-opacity="0.9"/>
<path d="M8.625 9C8.27982 9 8 9.27982 8 9.625C8 9.97018 8.27982 10.25 8.625 10.25H15.375C15.7202 10.25 16 9.97018 16 9.625C16 9.27982 15.7202 9 15.375 9H8.625Z" fill="black" fill-opacity="0.9"/>
<path d="M8.625 13C8.27982 13 8 13.2798 8 13.625C8 13.9702 8.27982 14.25 8.625 14.25H15.375C15.7202 14.25 16 13.9702 16 13.625C16 13.2798 15.7202 13 15.375 13H8.625Z" fill="black" fill-opacity="0.9"/>
<path d="M3.25 15C3.4261 15 3.59402 14.9257 3.71247 14.7954L6.21247 12.0454C6.44466 11.79 6.42584 11.3947 6.17042 11.1625C5.91501 10.9303 5.51973 10.9492 5.28754 11.2046L3.875 12.7584V5.625C3.875 5.27982 3.59518 5 3.25 5C2.90482 5 2.625 5.27982 2.625 5.625V12.7584L1.21247 11.2046C0.980275 10.9492 0.584995 10.9303 0.329584 11.1625C0.0741729 11.3947 0.0553501 11.79 0.287542 12.0454L2.78754 14.7954C2.90599 14.9257 3.07391 15 3.25 15Z" fill="black" fill-opacity="0.9"/>
</svg>
