<svg fill="none" viewBox="0 0 16 16" xmlns="http://www.w3.org/2000/svg">
  <path fill="#8FABF9" d="M14.5 3.5h-3v10l1 1h1l2-1.5V4.5z"/>
  <path fill="#7295F6" d="M13 3.5h-1.5v10l1 1 .5-.5z"/>
  <path fill="#CCDAFF" d="M11.5 2.5a1 1 0 0 0-1-1h-9a1 1 0 0 0-1 1v9a3 3 0 0 0 3 3H12l-.5-1.5z"/>
  <path fill="#14307E" fill-rule="evenodd" d="M0 2.75C0 1.784.784 1 1.75 1h8.5c.966 0 1.75.784 1.75 1.75V3h2.25c.966 0 1.75.784 1.75 1.75v7.5A2.75 2.75 0 0 1 13.25 15H3a3 3 0 0 1-3-3zM13.25 14A1.75 1.75 0 0 0 15 12.25v-7.5a.75.75 0 0 0-.75-.75H12v8.75c0 .69.56 1.25 1.25 1.25m-1.871 0H3a2 2 0 0 1-2-2V2.75A.75.75 0 0 1 1.75 2h8.5a.75.75 0 0 1 .75.75v10c0 .463.14.893.379 1.25" clip-rule="evenodd"/>
  <path fill="#2B55CA" fill-rule="evenodd" d="M3 3.5a.5.5 0 0 0-.5.5v1.5A.5.5 0 0 0 3 6h6a.5.5 0 0 0 .5-.5V4a.5.5 0 0 0-.5-.5zm-.5 5A.5.5 0 0 1 3 8h2a.5.5 0 0 1 0 1H3a.5.5 0 0 1-.5-.5m0 3A.5.5 0 0 1 3 11h2a.5.5 0 0 1 0 1H3a.5.5 0 0 1-.5-.5M7 8a.5.5 0 0 0 0 1h2a.5.5 0 0 0 0-1zm-.5 3.5A.5.5 0 0 1 7 11h2a.5.5 0 0 1 0 1H7a.5.5 0 0 1-.5-.5" clip-rule="evenodd"/>
</svg>
