<svg width="48" height="48" viewBox="0 0 48 48" fill="none" xmlns="http://www.w3.org/2000/svg">
<g id="Image">
<path id="Shadow" fill-rule="evenodd" clip-rule="evenodd" d="M27.629 9.23049C26.8 8.34395 25.7498 7.99321 24.4999 8.0001C21.2503 7.99324 21.7126 8.46165 21.0003 9.21477C19.73 10.5579 19.4795 11.283 18.3526 11.661C17.22 12.0408 15.9189 12.7539 14 12.5C11.8615 12.2171 9.02112 11.9033 9.00175 14.2896C8.94035 21.8556 10.4937 28.0976 12.7723 31.6739C15.296 35.6347 17.8011 37.6973 21.2503 39.5324C22.422 40.1559 25.4632 40.1559 26.6348 39.5323C30.084 37.6972 34.2058 35.6346 36.7294 31.6739C39.0081 28.0976 40.0589 23.1568 39.9975 15.5905C39.9781 13.2022 38.0998 11.8892 35.5646 11.8892C35.2955 11.8892 34.3346 11.8361 33.9988 11.8603C33.696 11.8821 33.9083 12.0335 33.6341 12.0349C32.6677 12.0396 31.8684 11.9194 31.1599 11.6889C30.0308 11.3214 28.9118 10.6022 27.629 9.23049Z" fill="#C18010"/>
<path id="Union (Stroke) (Stroke) (Stroke)" fill-rule="evenodd" clip-rule="evenodd" d="M25.8311 9.237C24.3178 7.59213 21.6746 7.58847 20.1552 9.22129C18.9056 10.5641 17.8147 11.2891 16.7062 11.6669C15.5921 12.0467 14.2457 12.1488 12.3581 11.895C10.2546 11.6121 8.02155 13.2104 8.0025 15.5962C7.9421 23.1605 8.97575 28.1002 11.2172 31.6756C13.6996 35.6356 17.7541 37.6977 21.147 39.5325C22.2995 40.1559 23.7006 40.1558 24.8532 39.5324C28.246 37.6977 32.3004 35.6356 34.7828 31.6756C37.0243 28.1001 38.0579 23.1603 37.9975 15.5957C37.9784 13.2078 35.742 11.6094 33.6371 11.8951C31.7607 12.1498 30.4182 12.0633 29.3044 11.6949C28.1937 11.3275 27.0929 10.6084 25.8311 9.237Z" fill="#FFCC33"/>
<path id="Union (Stroke) (Stroke) (Stroke)_2" fill-rule="evenodd" clip-rule="evenodd" d="M25.8311 9.237C24.3178 7.59213 21.6746 7.58847 20.1552 9.22129C18.9056 10.5641 17.8147 11.2891 16.7062 11.6669C15.5921 12.0467 14.2457 12.1488 12.3581 11.895C10.2546 11.6121 8.02155 13.2104 8.0025 15.5962C7.9421 23.1605 8.97575 28.1002 11.2172 31.6756C13.6996 35.6356 17.7541 37.6977 21.147 39.5325C22.2995 40.1559 23.7006 40.1558 24.8532 39.5324C28.246 37.6977 32.3004 35.6356 34.7828 31.6756C37.0243 28.1001 38.0579 23.1603 37.9975 15.5957C37.9784 13.2078 35.742 11.6094 33.6371 11.8951C31.7607 12.1498 30.4182 12.0633 29.3044 11.6949C28.1937 11.3275 27.0929 10.6084 25.8311 9.237Z" fill="#FFD65C"/>
<path id="Intersect" fill-rule="evenodd" clip-rule="evenodd" d="M23.0632 39.9995C22.4038 40.0101 21.7423 39.8544 21.147 39.5325C20.9945 39.45 20.8405 39.367 20.6855 39.2834C17.3927 37.5084 13.588 35.4575 11.2172 31.6756C8.97583 28.1002 7.94218 23.1605 8.00258 15.5962C8.02163 13.2104 10.2547 11.6121 12.3582 11.895C14.2458 12.1488 15.5922 12.0467 16.7063 11.6669C17.8148 11.2891 18.9057 10.5641 20.1553 9.22129C20.9127 8.40729 21.9495 8 22.9863 8C23.072 8 23.1578 8.00279 23.2434 8.00836C23.2001 8.24461 22.2614 13.4877 22.2614 23.7377C22.2614 31.3487 22.779 37.3033 23.0632 39.9995Z" fill="#FFDE7A"/>
<path id="Outline (Stroke)" fill-rule="evenodd" clip-rule="evenodd" d="M22.3363 37.3335L22.3361 37.3334C22.2395 37.2811 22.1429 37.229 22.0465 37.1769C18.6189 35.325 15.3476 33.5576 13.3354 30.3478C11.4696 27.3715 10.4434 23.0044 10.5024 15.6162C10.5054 15.2466 10.6669 14.9331 10.9655 14.6929C11.2889 14.4328 11.6941 14.3282 12.0249 14.3727C14.1505 14.6585 15.9152 14.5779 17.5129 14.0332C19.1172 13.4863 20.5415 12.476 21.9854 10.9244C22.5139 10.3564 23.4662 10.3589 23.9913 10.9297C25.457 12.5228 26.9015 13.5333 28.5193 14.0684C30.1176 14.5971 31.8746 14.6573 33.9733 14.3724C34.3043 14.3275 34.71 14.4318 35.0338 14.6919C35.3329 14.9321 35.4946 15.2458 35.4976 15.6157C35.5566 23.0042 34.5305 27.3714 32.6646 30.3478C30.6524 33.5577 27.3808 35.3252 23.9531 37.1771C23.8569 37.2291 23.7605 37.2812 23.664 37.3333L23.6637 37.3335C23.2533 37.5555 22.7467 37.5555 22.3363 37.3335ZM24.8532 39.5324C23.7006 40.1558 22.2995 40.1559 21.147 39.5325C20.9944 39.45 20.8405 39.367 20.6854 39.2834C17.3926 37.5084 13.588 35.4575 11.2172 31.6756C8.97575 28.1002 7.9421 23.1605 8.0025 15.5962C8.02155 13.2104 10.2546 11.6121 12.3581 11.895C14.2457 12.1488 15.5921 12.0467 16.7062 11.6669C17.8147 11.2891 18.9056 10.5641 20.1552 9.22129C21.6746 7.58847 24.3178 7.59213 25.8311 9.237C27.0929 10.6084 28.1937 11.3275 29.3044 11.6949C30.4182 12.0633 31.7607 12.1498 33.6371 11.8951C35.742 11.6094 37.9784 13.2078 37.9975 15.5957C38.0579 23.1603 37.0243 28.1001 34.7828 31.6756C32.412 35.4577 28.6071 37.5086 25.3142 39.2836C25.1594 39.3671 25.0056 39.45 24.8532 39.5324Z" fill="#E2A412"/>
<path id="Intersect_2" fill-rule="evenodd" clip-rule="evenodd" d="M23.1069 39.9985C22.4331 40.0169 21.7553 39.8616 21.1469 39.5325C20.9946 39.4501 20.841 39.3673 20.6863 39.2839L20.6854 39.2834C17.3926 37.5084 13.5879 35.4575 11.2171 31.6756C8.9757 28.1002 7.94205 23.1605 8.00245 15.5962C8.0215 13.2104 10.2545 11.6121 12.3581 11.895C14.2456 12.1488 15.5921 12.0467 16.7062 11.6669C17.8147 11.2891 18.9056 10.5641 20.1551 9.22129C20.9126 8.40729 21.9493 8 22.9862 8C23.072 8 23.1579 8.00279 23.2437 8.00838C23.2311 8.09934 23.1185 8.93031 22.9845 10.5C22.6164 10.5003 22.2484 10.6417 21.9853 10.9244C20.5414 12.476 19.1171 13.4863 17.5128 14.0332C15.9152 14.5779 14.1505 14.6585 12.0249 14.3727C11.6941 14.3282 11.2888 14.4328 10.9655 14.6929C10.6668 14.9331 10.5053 15.2466 10.5024 15.6162C10.4434 23.0044 11.4695 27.3715 13.3353 30.3478C15.3475 33.5576 18.6188 35.325 22.0464 37.1769L22.0464 37.1769L22.3361 37.3334L22.3363 37.3335C22.52 37.4329 22.7229 37.4878 22.9279 37.4982C22.9926 38.5066 23.0549 39.3475 23.1069 39.9985Z" fill="#F9BE1A"/>
<path id="Vector 586 (Stroke)" fill-rule="evenodd" clip-rule="evenodd" d="M30 23.75C30 24.7165 29.2165 25.5 28.25 25.5L17.25 25.5C16.2835 25.5 15.5 24.7165 15.5 23.75C15.5 22.7835 16.2835 22 17.25 22L28.25 22C29.2165 22 30 22.7835 30 23.75Z" fill="#F9BE1A"/>
<path id="Vector 587 (Stroke)" fill-rule="evenodd" clip-rule="evenodd" d="M22.75 16.5C23.7165 16.5 24.5 17.2835 24.5 18.25V29.25C24.5 30.2165 23.7165 31 22.75 31C21.7835 31 21 30.2165 21 29.25V18.25C21 17.2835 21.7835 16.5 22.75 16.5Z" fill="#F9BE1A"/>
<path id="Union" fill-rule="evenodd" clip-rule="evenodd" d="M22.75 16.5C23.7165 16.5 24.5 17.2835 24.5 18.25V22H28.25C29.2165 22 30 22.7835 30 23.75C30 24.7165 29.2165 25.5 28.25 25.5H24.5V29.25C24.5 30.2165 23.7165 31 22.75 31C21.7835 31 21 30.2165 21 29.25V18.25C21 17.2835 21.7835 16.5 22.75 16.5Z" fill="#E2A412"/>
<path id="Intersect_3" fill-rule="evenodd" clip-rule="evenodd" d="M22.6392 30.9965C21.7243 30.9393 21 30.1793 21 29.25V25.5H17.25C16.2836 25.5 15.5001 24.7165 15.5001 23.75C15.5001 22.7835 16.2836 22 17.25 22H21V18.25C21 17.3225 21.7215 16.5636 22.6339 16.5038C22.5543 18.4726 22.4998 20.8047 22.4998 23.5C22.4998 26.2543 22.5567 28.781 22.6392 30.9965Z" fill="#F9BE1A"/>
</g>
</svg>
