<svg width="32" height="32" viewBox="0 0 32 32" fill="none" xmlns="http://www.w3.org/2000/svg">
<path d="M7.65619 10.7164C10.0606 6.6183 15.2129 5.11416 19.4161 7.18574C19.7415 7.34786 19.8499 7.76218 19.6692 8.07743L18.476 10.104C18.1868 10.5903 18.6387 11.1848 19.1901 11.0407L26.9547 9.01413C27.2982 8.92407 27.497 8.5728 27.4066 8.23954L25.3819 0.475621C25.2373 -0.0737983 24.5051 -0.172867 24.2158 0.313504L23.0498 2.30402C22.8781 2.60124 22.4984 2.70033 22.1911 2.5382C15.4027 -1.06455 6.91496 1.29524 2.98295 7.98735C1.38302 10.7074 0.786444 13.7337 1.06666 16.652C1.12089 17.1924 1.63611 17.5617 2.16038 17.4266L5.15233 16.643C5.90258 16.4448 6.39972 15.7783 6.4178 15.0037C6.463 13.5446 6.85169 12.0765 7.64714 10.7254L7.65619 10.7164Z" fill="#3969EF"/>
<path d="M14.0629 25.1281C13.0516 24.9893 12.0484 24.6883 11.0907 24.2154C10.7389 24.0397 10.6217 23.5909 10.8171 23.2494L12.107 21.054C12.4197 20.5271 11.9311 19.8831 11.335 20.0392L2.94085 22.2346C2.56951 22.3322 2.35453 22.7127 2.45225 23.0738L4.64117 31.4847C4.79752 32.0799 5.58907 32.1872 5.90177 31.6603L7.16234 29.5039C7.34801 29.1819 7.75845 29.0746 8.0907 29.2502C10.8723 30.7295 13.9178 31.2809 16.859 31.0005C15.338 29.4491 14.3185 27.4041 14.0629 25.1281Z" fill="#DE5833"/>
<path d="M30.9428 16.803C31.0243 15.8529 31.0181 14.9014 30.9279 13.9603C30.8693 13.3748 30.3123 12.9748 29.7455 13.1212L26.511 13.9701C26.3217 14.0201 26.1474 14.0979 25.991 14.1982C27.8928 14.5824 29.5989 15.5062 30.9428 16.803Z" fill="#DE5833"/>
<path d="M24 32C28.4183 32 32 28.4183 32 24C32 19.5817 28.4183 16 24 16C19.5817 16 16 19.5817 16 24C16 28.4183 19.5817 32 24 32Z" fill="#21C000"/>
<path d="M28.4423 22.6549C28.7026 22.3946 28.7026 21.9727 28.4423 21.7125L27.5128 20.783C27.2526 20.5227 26.8307 20.5227 26.5704 20.783L23.3011 24.0523C23.0408 24.3126 22.6189 24.3126 22.3587 24.0523L21.4291 23.1228C21.1688 22.8626 20.7469 22.8626 20.4867 23.1228L19.5572 24.0523C19.297 24.3126 19.297 24.7345 19.5572 24.9947L22.3587 27.7961C22.6189 28.0564 23.0408 28.0564 23.3011 27.7961L28.4423 22.6549Z" fill="white"/>
</svg>
