<svg width="16" height="16" viewBox="0 0 16 16" fill="none" xmlns="http://www.w3.org/2000/svg">
<g id="Icon">
<g id="Shape">
<path fill-rule="evenodd" clip-rule="evenodd" d="M2.665 1C1.19316 1 0 2.19316 0 3.665V12.335C0 13.8068 1.19316 15 2.665 15H8.25431C8.59949 15 8.87931 14.7202 8.87931 14.375C8.87931 14.0298 8.59949 13.75 8.25431 13.75H2.665C1.88352 13.75 1.25 13.1165 1.25 12.335V7.35H14.75V7.745C14.75 8.09018 15.0298 8.37 15.375 8.37C15.7202 8.37 16 8.09018 16 7.745V5.705C16 4.23316 14.8068 3.04 13.335 3.04H8.86901C8.75982 1.8953 7.79561 1 6.62231 1H2.665ZM14.75 6.1H1.25V3.665C1.25 2.88352 1.88352 2.25 2.665 2.25H6.62231C7.17846 2.25 7.62931 2.70085 7.62931 3.257C7.62931 3.82751 8.0918 4.29 8.66231 4.29H13.335C14.1165 4.29 14.75 4.92352 14.75 5.705V6.1Z" fill="black" fill-opacity="0.84"/>
<path d="M12.375 8.5C12.7202 8.5 13 8.77982 13 9.125V11H14.875C15.2202 11 15.5 11.2798 15.5 11.625C15.5 11.9702 15.2202 12.25 14.875 12.25H13V14.125C13 14.4702 12.7202 14.75 12.375 14.75C12.0298 14.75 11.75 14.4702 11.75 14.125V12.25H9.875C9.52982 12.25 9.25 11.9702 9.25 11.625C9.25 11.2798 9.52982 11 9.875 11H11.75V9.125C11.75 8.77982 12.0298 8.5 12.375 8.5Z" fill="black" fill-opacity="0.84"/>
</g>
</g>
</svg>
