<svg width="16" height="16" viewBox="0 0 16 16" fill="none" xmlns="http://www.w3.org/2000/svg">
<path d="M1.625 1C1.27982 1 1 1.27982 1 1.625C1 1.97018 1.27982 2.25 1.625 2.25H15.375C15.7202 2.25 16 1.97018 16 1.625C16 1.27982 15.7202 1 15.375 1H1.625Z" fill="black" fill-opacity="0.9"/>
<path d="M8 5.625C8 5.27982 8.27982 5 8.625 5H15.375C15.7202 5 16 5.27982 16 5.625C16 5.97018 15.7202 6.25 15.375 6.25H8.625C8.27982 6.25 8 5.97018 8 5.625Z" fill="black" fill-opacity="0.9"/>
<path d="M8.625 9C8.27982 9 8 9.27982 8 9.625C8 9.97018 8.27982 10.25 8.625 10.25H15.375C15.7202 10.25 16 9.97018 16 9.625C16 9.27982 15.7202 9 15.375 9H8.625Z" fill="black" fill-opacity="0.9"/>
<path d="M6.625 13C6.27982 13 6 13.2798 6 13.625C6 13.9702 6.27982 14.25 6.625 14.25H15.375C15.7202 14.25 16 13.9702 16 13.625C16 13.2798 15.7202 13 15.375 13H6.625Z" fill="black" fill-opacity="0.9"/>
<path d="M3.25 5C3.4208 5 3.58416 5.0699 3.7021 5.19345L6.3271 7.94345C6.56543 8.19314 6.55623 8.58876 6.30655 8.8271C6.05686 9.06543 5.66124 9.05623 5.4229 8.80655L3.875 7.18493V14.375C3.875 14.7202 3.59518 15 3.25 15C2.90482 15 2.625 14.7202 2.625 14.375V7.18494L1.0771 8.80655C0.838761 9.05623 0.44314 9.06543 0.193454 8.8271C-0.0562327 8.58876 -0.0654331 8.19314 0.172904 7.94345L2.7979 5.19345C2.91584 5.0699 3.0792 5 3.25 5Z" fill="black" fill-opacity="0.9"/>
</svg>
