<svg width="24" height="24" viewBox="0 0 24 24" fill="none" xmlns="http://www.w3.org/2000/svg">
<path fill-rule="evenodd" clip-rule="evenodd" d="M21.3151 8.62736C21.3151 11.9091 18.6547 14.5695 15.3729 14.5695C14.6536 14.5695 13.9641 14.4417 13.3259 14.2076L12.0003 15.5331H9.43073V18.365C9.43073 18.575 9.26056 18.7451 9.05064 18.7451H6.86114V20.9347C6.86114 21.1446 6.69096 21.3148 6.48105 21.3148H2.68555V17.4603L9.71072 10.4352C9.52888 9.86512 9.43073 9.2577 9.43073 8.62736C9.43073 5.34559 12.0911 2.68518 15.3729 2.68518C18.6547 2.68518 21.3151 5.34559 21.3151 8.62736ZM16.5003 9.33329C17.5128 9.33329 18.3337 8.51248 18.3337 7.49996C18.3337 6.48744 17.5128 5.66663 16.5003 5.66663C15.4878 5.66663 14.667 6.48744 14.667 7.49996C14.667 8.51248 15.4878 9.33329 16.5003 9.33329Z" fill="#FFDE7A"/>
<path fill-rule="evenodd" clip-rule="evenodd" d="M10.2503 8.625C10.2503 5.79454 12.5449 3.5 15.3753 3.5C18.2058 3.5 20.5003 5.79454 20.5003 8.625C20.5003 11.4555 18.2058 13.75 15.3753 13.75C14.7631 13.75 14.1776 13.643 13.6353 13.4473C13.3619 13.3486 13.056 13.4168 12.8504 13.6224L11.6897 14.7832H9.43073C9.01652 14.7832 8.68073 15.119 8.68073 15.5332V17.9952H6.86114C6.44692 17.9952 6.11114 18.3309 6.11114 18.7452V20.5648H3.43555V17.771L10.297 10.9096C10.4943 10.7123 10.5658 10.4218 10.4826 10.1556C10.3318 9.67314 10.2503 9.15929 10.2503 8.625ZM15.3753 2C11.7164 2 8.75033 4.96611 8.75033 8.625C8.75033 9.15153 8.8119 9.66451 8.92847 10.1568L2.15522 16.93C2.01456 17.0707 1.93555 17.2615 1.93555 17.4604V21.3148C1.93555 21.729 2.27133 22.0648 2.68555 22.0648H6.48105C7.10518 22.0648 7.61114 21.5588 7.61114 20.9347V19.4952H9.05064C9.67477 19.4952 10.1807 18.9892 10.1807 18.3651V16.2832H12.0003C12.1992 16.2832 12.39 16.2042 12.5307 16.0635L13.5882 15.006C14.1574 15.1651 14.757 15.25 15.3753 15.25C19.0342 15.25 22.0003 12.2839 22.0003 8.625C22.0003 4.96611 19.0342 2 15.3753 2ZM15.0003 7.5C15.0003 6.67157 15.6719 6 16.5003 6C17.3288 6 18.0003 6.67157 18.0003 7.5C18.0003 8.32843 17.3288 9 16.5003 9C15.6719 9 15.0003 8.32843 15.0003 7.5ZM16.5003 4.66667C14.9355 4.66667 13.667 5.93519 13.667 7.5C13.667 9.06481 14.9355 10.3333 16.5003 10.3333C18.0651 10.3333 19.3337 9.06481 19.3337 7.5C19.3337 5.93519 18.0651 4.66667 16.5003 4.66667Z" fill="#C18010"/>
</svg>
