<svg width="40" height="40" viewBox="0 0 40 40" fill="none" xmlns="http://www.w3.org/2000/svg">
<g clip-path="url(#clip0_4090_148671)">
<path d="M9.65528 17.4186C10.2368 20.6919 12.5976 31.7008 13.7519 37.2008C14.081 37.3202 14.416 37.4308 14.7539 37.5327C13.7011 32.4721 11.0793 20.2844 10.4557 16.8044C9.81044 13.1804 10.4383 10.5796 12.8513 9.25366C12.7542 9.29005 12.6657 9.32934 12.586 9.37155C10.099 10.6814 9.00128 13.7466 9.65528 17.4186Z" fill="#D5D7D8"/>
<path d="M10.5304 7.87678C12.056 7.72105 14.3152 7.82875 15.9713 8.32214C16.0916 8.30613 16.212 8.29012 16.3338 8.27702C14.6821 7.54203 12.7259 7.25822 10.9379 7.44015C10.935 7.12869 11.1598 6.95258 11.46 6.83032C11.3236 6.85215 11.1946 6.88708 11.0757 6.93802C10.7596 7.08502 10.5232 7.62208 10.5304 7.87678Z" fill="#D5D7D8"/>
<path d="M12.5307 6.50441C12.6207 6.46948 12.7019 6.43164 12.7671 6.38652C12.4379 6.33994 11.623 5.60494 11.2561 5.56128C10.9878 5.61076 10.8254 5.70973 10.6064 5.74175C10.8762 5.76941 11.8912 6.24388 12.5307 6.50441Z" fill="#D5D7D8"/>
<path d="M14.7155 18.3677C15.4768 18.3677 16.0931 17.7506 16.0931 16.9894C16.0931 16.2282 15.4754 15.6111 14.7155 15.6111C13.9556 15.6111 13.3379 16.2282 13.3379 16.9894C13.3379 17.7506 13.9556 18.3677 14.7155 18.3677ZM15.3303 16.1758C15.5276 16.1758 15.6871 16.3359 15.6871 16.5324C15.6871 16.7289 15.5276 16.889 15.3303 16.889C15.1331 16.889 14.9736 16.7289 14.9736 16.5324C14.9751 16.3344 15.1346 16.1758 15.3303 16.1758Z" fill="#2D4F8E"/>
<path d="M15.3304 16.8875C15.5276 16.8875 15.6871 16.7274 15.6871 16.5309C15.6871 16.3344 15.5276 16.1743 15.3304 16.1743C15.1331 16.1743 14.9736 16.3344 14.9736 16.5309C14.9751 16.7288 15.1346 16.8875 15.3304 16.8875Z" fill="white"/>
<path d="M22.7422 16.1713C22.7422 16.8233 23.2715 17.3531 23.9241 17.3531C24.5766 17.3531 25.1059 16.8233 25.1059 16.1713C25.1059 15.5193 24.5766 14.9895 23.9241 14.9895C23.2715 14.9895 22.7422 15.5193 22.7422 16.1713ZM24.4505 15.4742C24.6187 15.4742 24.7564 15.611 24.7564 15.7798C24.7564 15.9486 24.6201 16.0854 24.4505 16.0854C24.2822 16.0854 24.1445 15.9486 24.1445 15.7798C24.1459 15.611 24.2822 15.4742 24.4505 15.4742Z" fill="#2D4F8E"/>
<path d="M24.4505 16.0839C24.6187 16.0839 24.7564 15.9471 24.7564 15.7783C24.7564 15.6095 24.6201 15.4727 24.4505 15.4727C24.2823 15.4727 24.1445 15.6095 24.1445 15.7783C24.146 15.9471 24.2823 16.0839 24.4505 16.0839Z" fill="white"/>
<path d="M13.0656 13.1644C14.0734 12.5284 15.1132 13.0014 15.1132 13.0014C15.1132 13.0014 14.4157 12.0845 12.9858 12.6667C11.5604 13.2517 12.0955 14.4452 12.0955 14.4452C12.0955 14.4452 12.0578 13.7975 13.0656 13.1644Z" fill="white"/>
<path d="M13.0656 13.1644C14.0734 12.5284 15.1132 13.0014 15.1132 13.0014C15.1132 13.0014 14.4157 12.0845 12.9858 12.6667C11.5604 13.2517 12.0955 14.4452 12.0955 14.4452C12.0955 14.4452 12.0578 13.7975 13.0656 13.1644Z" fill="url(#paint0_linear_4090_148671)"/>
<path d="M23.5167 12.0263C21.997 11.776 21.7969 13.0262 21.7969 13.0262C21.7969 13.0262 22.1203 12.5022 23.3093 12.4877C23.8908 12.4804 24.6362 12.9054 24.6362 12.9054C24.4317 12.4455 24.0127 12.1165 23.5167 12.0263Z" fill="white"/>
<path d="M23.5167 12.0263C21.997 11.776 21.7969 13.0262 21.7969 13.0262C21.7969 13.0262 22.1203 12.5022 23.3093 12.4877C23.8908 12.4804 24.6362 12.9054 24.6362 12.9054C24.4317 12.4455 24.0127 12.1165 23.5167 12.0263Z" fill="url(#paint1_linear_4090_148671)"/>
<path d="M27.3825 26.7684C29.5287 26.7247 33.0481 25.4163 32.6624 24.3611C32.2766 23.3059 28.779 25.2882 25.1276 24.9505C22.426 24.7002 21.9489 23.4893 22.5464 22.6044C23.299 21.4924 24.6708 22.8154 26.9315 22.1386C29.1966 21.4618 32.3636 20.2553 33.5382 19.5974C36.2543 18.0809 32.3999 17.455 31.4907 17.8742C30.6307 18.2744 27.6305 19.0313 26.2355 19.366C26.16 19.3835 26.0904 19.4009 26.0252 19.4155C24.752 19.7211 24.2792 19.6993 22.7523 19.7939C21.5385 19.8725 19.9289 20.8826 19.2503 21.7136C19.0748 21.9276 18.9617 22.1313 18.9341 22.3031C18.8297 22.9406 19.0791 23.5649 19.4344 24.0642C19.6867 24.4178 19.9913 24.7089 20.261 24.8952C20.2639 24.8967 20.2653 24.8981 20.2682 24.8996C20.9164 25.3493 25.2363 26.8076 27.3825 26.7684Z" fill="#FDD20A"/>
<path d="M19.3458 32.6994H19.3429C19.3429 32.5408 19.469 32.401 19.6706 32.2817C19.6706 32.2875 19.6706 32.2933 19.6706 32.2992L19.6735 32.3021C19.6735 33.9962 19.4429 34.7734 20.065 34.999C20.1013 35.0121 20.1404 35.0237 20.1825 35.0325C20.5914 35.1256 21.1947 35.1198 21.7472 35.0412C22.1228 34.9888 22.4737 34.9029 22.726 34.7923C22.7434 34.785 22.7608 34.7763 22.7768 34.769C22.829 34.7443 22.8754 34.7181 22.9174 34.6904C22.9696 34.6555 23.0102 34.6017 23.045 34.5318C24.2109 34.983 26.5717 35.8475 27.0807 35.6583C27.7637 35.3963 27.594 29.9312 26.8255 29.7565C26.2106 29.6197 23.86 31.276 22.9305 31.9542C22.8942 31.8029 22.8609 31.6835 22.8319 31.6151C22.7492 31.407 22.0038 31.3808 21.2585 31.4972C20.9293 31.5482 20.6001 31.6268 20.3275 31.7301C20.1114 31.8116 19.9302 31.9077 19.8142 32.0168C18.3786 31.3022 15.4377 29.9457 15.3754 30.7826C15.2884 31.896 15.3754 36.4224 15.9714 36.7644C16.3542 36.9828 18.2364 36.0178 19.5459 35.2915C19.1674 34.9699 19.3458 34.1869 19.3458 32.6994Z" fill="#65BC46"/>
<path d="M22.7246 34.7934C22.4737 34.904 22.1213 34.9898 21.7458 35.0422C21.1933 35.1194 20.59 35.1267 20.1811 35.0335C20.139 35.0248 20.0999 35.0131 20.0636 35C19.4415 34.7744 19.6721 33.9972 19.6721 32.3031L19.6692 32.3002C19.6692 32.2944 19.6692 32.2885 19.6692 32.2827C19.4676 32.4021 19.3415 32.5418 19.3415 32.7004H19.3444C19.3444 34.1864 19.1675 34.9709 19.543 35.2926C19.6213 35.3595 19.7214 35.4061 19.8534 35.4352C20.3885 35.5546 21.2527 35.508 21.9024 35.3537C22.1881 35.2868 22.4331 35.198 22.5912 35.0932C22.6608 35.0466 22.7144 34.9607 22.7521 34.8487C22.7608 34.8239 22.7681 34.7977 22.7753 34.7715C22.7594 34.7788 22.742 34.7861 22.7246 34.7934Z" fill="#43A244"/>
<path d="M20 0C8.95447 0 0 8.95382 0 20.0005C0 29.0155 5.96433 36.6361 14.1618 39.1351C16.0093 39.6984 17.9698 40.0011 20 40.0011C21.4023 40.0011 22.7712 39.857 24.0922 39.5819C33.1743 37.6928 40 29.6442 40 20.0005C40 8.95527 31.0455 0 20 0ZM24.2851 37.7917C23.7036 36.6725 23.1656 35.6523 22.7538 34.8489C22.7161 34.9609 22.6639 35.0453 22.5928 35.0934C22.4347 35.1982 22.1897 35.2869 21.904 35.3539C21.2529 35.5082 20.3901 35.5533 19.855 35.4354C19.7245 35.4063 19.623 35.3597 19.5447 35.2928C18.2352 36.019 16.3544 36.984 15.9701 36.7657C15.3741 36.4236 15.2871 31.8972 15.3741 30.7838C15.4379 29.9455 18.3788 31.3034 19.8129 32.018C19.9304 31.9089 20.1102 31.8114 20.3263 31.7313C20.5989 31.628 20.9281 31.5494 21.2573 31.4985C20.4017 29.196 19.8448 26.7145 20.261 24.8952C19.9913 24.7089 19.6853 24.4178 19.4345 24.0641C19.0792 23.5649 18.8298 22.9405 18.9342 22.303C18.9632 22.1313 19.0763 21.929 19.2503 21.7136C19.9289 20.8825 21.5371 19.871 22.7523 19.7939C24.2793 19.6993 24.752 19.7211 26.0252 19.4155C26.0905 19.3995 26.1601 19.3834 26.2355 19.366C27.0128 16.6079 25.1392 11.821 23.0394 9.7252C22.3564 9.04114 21.308 8.61179 20.1233 8.38766C19.6694 7.76182 18.9342 7.16655 17.8944 6.60912C15.8541 5.54083 13.5194 5.17261 11.2515 5.56121C11.2529 5.56121 11.2544 5.56121 11.2573 5.56121C11.6241 5.60341 12.4391 6.33841 12.7683 6.38644C12.7016 6.43155 12.6218 6.4694 12.5319 6.50433C12.2201 6.62367 11.7938 6.69499 11.4617 6.8318C11.1615 6.95405 10.9368 7.13016 10.9397 7.44162C12.7291 7.2597 14.6853 7.54351 16.3356 8.2785C16.2137 8.2916 16.0919 8.30761 15.973 8.32362C14.8028 8.48517 13.7253 8.79372 12.951 9.20124C12.9176 9.21871 12.8843 9.23617 12.8524 9.25509C10.4394 10.581 9.81149 13.1818 10.4568 16.8059C11.0803 20.2858 13.7021 32.4736 14.7549 37.5341C14.4171 37.4337 14.0821 37.3231 13.7529 37.2023C6.72564 34.648 1.70679 27.9108 1.70679 20.002C1.70679 9.89694 9.89849 1.70577 20.0029 1.70577C30.1073 1.70577 38.2976 9.89694 38.2976 20.002C38.2961 28.6298 32.3216 35.8633 24.2851 37.7917ZM12.0954 14.4452C12.0954 14.4452 11.5603 13.2517 12.9858 12.6666C14.4142 12.0845 15.1131 13.0014 15.1131 13.0014C15.1131 13.0014 14.0734 12.5284 13.0655 13.1644C12.0577 13.7975 12.0954 14.4452 12.0954 14.4452ZM14.7158 15.611C15.4771 15.611 16.0934 16.2281 16.0934 16.9893C16.0934 17.7505 15.4756 18.3676 14.7158 18.3676C13.9559 18.3676 13.3382 17.7505 13.3382 16.9893C13.3382 16.2295 13.9559 15.611 14.7158 15.611ZM23.3092 12.4876C22.1201 12.5022 21.7967 13.0261 21.7967 13.0261C21.7967 13.0261 21.9968 11.7744 23.5165 12.0262C24.0125 12.1165 24.4316 12.4454 24.636 12.9068C24.636 12.9068 23.8907 12.4803 23.3092 12.4876ZM25.1059 16.1713C25.1059 16.8233 24.5766 17.3531 23.924 17.3531C23.2715 17.3531 22.7422 16.8233 22.7422 16.1713C22.7422 15.5193 23.2715 14.9895 23.924 14.9895C24.5766 14.9895 25.1059 15.5193 25.1059 16.1713Z" fill="white"/>
</g>
<defs>
<linearGradient id="paint0_linear_4090_148671" x1="11.9966" y1="13.4587" x2="15.1129" y2="13.4587" gradientUnits="userSpaceOnUse">
<stop offset="0.01" stop-color="#6176B9"/>
<stop offset="0.69" stop-color="#394A9F"/>
</linearGradient>
<linearGradient id="paint1_linear_4090_148671" x1="21.7967" y1="12.5097" x2="24.6366" y2="12.5097" gradientUnits="userSpaceOnUse">
<stop offset="0.01" stop-color="#6176B9"/>
<stop offset="0.69" stop-color="#394A9F"/>
</linearGradient>
<clipPath id="clip0_4090_148671">
<rect width="40" height="40" fill="white"/>
</clipPath>
</defs>
</svg>
