<svg width="96" height="64" viewBox="0 0 96 64" fill="none" xmlns="http://www.w3.org/2000/svg">
<g opacity="0.2">
<path d="M79.2214 24.4L80.3786 24.1C80.5929 24.0571 80.8072 23.8429 80.85 23.6286L81.15 22.4714C81.2357 22.1714 81.4929 22 81.75 22C82.05 22 82.3072 22.2143 82.35 22.4714L82.65 23.6286C82.6928 23.8429 82.9071 24.0571 83.1214 24.1L84.2786 24.4C84.5786 24.4857 84.75 24.7429 84.75 25C84.75 25.3 84.5357 25.5571 84.2786 25.6L83.1214 25.9C82.9071 25.9429 82.6928 26.1571 82.65 26.3714L82.35 27.5286C82.2643 27.8286 82.0071 28 81.75 28C81.45 28 81.1928 27.7857 81.15 27.5286L80.85 26.3714C80.8072 26.1571 80.5929 25.9429 80.3786 25.9L79.2214 25.6C78.9214 25.5143 78.75 25.2571 78.75 25C78.75 24.7 78.9643 24.4429 79.2214 24.4Z" fill="#888888"/>
<path d="M11.9571 19.6L13.6928 19.15C14.0143 19.0857 14.3357 18.7643 14.4 18.4429L14.85 16.7071C14.9786 16.2571 15.3643 16 15.75 16C16.2 16 16.5857 16.3214 16.65 16.7071L17.1 18.4429C17.1643 18.7643 17.4857 19.0857 17.8072 19.15L19.5429 19.6C19.9929 19.7286 20.25 20.1143 20.25 20.5C20.25 20.95 19.9286 21.3357 19.5429 21.4L17.8072 21.85C17.4857 21.9143 17.1643 22.2357 17.1 22.5571L16.65 24.2929C16.5214 24.7429 16.1357 25 15.75 25C15.3 25 14.9143 24.6786 14.85 24.2929L14.4 22.5571C14.3357 22.2357 14.0143 21.9143 13.6928 21.85L11.9571 21.4C11.5071 21.2714 11.25 20.8857 11.25 20.5C11.25 20.05 11.5714 19.6643 11.9571 19.6Z" fill="#888888"/>
<path d="M0.471418 35.65L1.62857 35.35C1.84285 35.3071 2.05715 35.0929 2.10001 34.8786L2.39999 33.7214C2.4857 33.4214 2.74286 33.25 3 33.25C3.3 33.25 3.55715 33.4643 3.60001 33.7214L3.89999 34.8786C3.94285 35.0929 4.15715 35.3071 4.37143 35.35L5.52858 35.65C5.82858 35.7357 6 35.9929 6 36.25C6 36.55 5.78572 36.8071 5.52858 36.85L4.37143 37.15C4.15715 37.1929 3.94285 37.4071 3.89999 37.6214L3.60001 38.7786C3.5143 39.0786 3.25714 39.25 3 39.25C2.7 39.25 2.44285 39.0357 2.39999 38.7786L2.10001 37.6214C2.05715 37.4071 1.84285 37.1929 1.62857 37.15L0.471418 36.85C0.171418 36.7643 0 36.5071 0 36.25C0 35.95 0.214275 35.6929 0.471418 35.65Z" fill="#888888"/>
<path d="M94.875 34.75C94.2562 34.75 93.75 34.2438 93.75 33.625C93.75 33.0062 94.2562 32.5 94.875 32.5C95.4938 32.5 96 33.0062 96 33.625C96 34.2438 95.4938 34.75 94.875 34.75Z" fill="#888888"/>
<path d="M17.25 48.25C16.425 48.25 15.75 47.575 15.75 46.75C15.75 45.925 16.425 45.25 17.25 45.25C18.075 45.25 18.75 45.925 18.75 46.75C18.75 47.575 18.075 48.25 17.25 48.25Z" fill="#888888"/>
</g>
<path d="M40 8H61C62.6569 8 64 9.34315 64 11V32.8027C64 34.9069 62.8977 36.8573 61.0951 37.9427L61 38L60.9001 38.1489C57.3946 40.3105 54.8787 43.9228 54.1897 48.1487L51.1545 52.6717C50.5974 53.5019 49.6633 54 48.6634 54H40C38.3431 54 37 52.6569 37 51V11C37 9.34315 38.3431 8 40 8Z" fill="#666666"/>
<path d="M35 8H58C59.6569 8 61 9.34315 61 11V38.0878C56.8042 40.6286 54 45.2368 54 50.5V53.8814C53.6235 55.1081 52.4817 56 51.1316 56H35C33.3431 56 32 54.6569 32 53V11C32 9.34315 33.3431 8 35 8Z" fill="#888888"/>
<path d="M40.25 11.1382V10H35.2829C34.5724 10 34 10.5864 34 11.303V51.697C34 52.4136 34.5724 53 35.2829 53H54V50.5C54 46.1257 55.937 42.2038 59 39.5453V11.303C59 10.5864 58.4276 10 57.7171 10H52.75V11.1381C52.75 11.7595 52.2463 12.2631 51.625 12.2631H41.375C40.7537 12.2631 40.25 11.7595 40.25 11.1382Z" fill="#FFD65C"/>
<path d="M54 25.5C54 21.3579 50.6421 18 46.5 18C42.3579 18 39 21.3579 39 25.5C39 29.6421 42.3579 33 46.5 33C50.6421 33 54 29.6421 54 25.5Z" fill="#F9BE1A"/>
<path d="M39 41.5C39 40.1193 40.1193 39 41.5 39H51.5C52.8807 39 54 40.1193 54 41.5C54 42.8807 52.8807 44 51.5 44H41.5C40.1193 44 39 42.8807 39 41.5Z" fill="white"/>
<path d="M69.0004 63C75.6278 63 81.0004 57.6274 81.0004 51C81.0004 44.3726 75.6278 39 69.0004 39C62.3729 39 57.0004 44.3726 57.0004 51C57.0004 57.6274 62.3729 63 69.0004 63Z" fill="#7295F6"/>
<path d="M85.9243 50.6445H88.6258C89.1211 50.6445 89.5263 51.0498 89.5263 51.545C89.5263 52.0403 89.1211 52.4455 88.6258 52.4455H85.9243C85.429 52.4455 85.0238 52.0403 85.0238 51.545C85.0238 51.0498 85.429 50.6445 85.9243 50.6445Z" fill="#CCCCCC"/>
<path d="M86.8247 42.5391C87.0544 42.5391 87.284 42.6291 87.4596 42.8047C87.8108 43.1559 87.8108 43.7277 87.4596 44.0789L85.6586 45.8799C85.3074 46.2311 84.7356 46.2311 84.3844 45.8799C84.0332 45.5288 84.0332 44.9569 84.3844 44.6057L86.1854 42.8047C86.361 42.6291 86.5906 42.5391 86.8202 42.5391H86.8247Z" fill="#CCCCCC"/>
<path d="M85.0285 56.9473C84.7989 56.9473 84.5692 57.0373 84.3936 57.2129C84.0424 57.5641 84.0424 58.1359 84.3936 58.4871L86.1947 60.2882C86.5459 60.6394 87.1177 60.6394 87.4689 60.2882C87.8201 59.937 87.8201 59.3651 87.4689 59.0139L85.6679 57.2129C85.4923 57.0373 85.2626 56.9473 85.033 56.9473H85.0285Z" fill="#CCCCCC"/>
<path fill-rule="evenodd" clip-rule="evenodd" d="M71.0005 44.5C71.0005 44.2239 70.7766 44 70.5005 44H67.5005C67.2243 44 67.0005 44.2239 67.0005 44.5V48.5C67.0005 48.7761 66.7766 49 66.5005 49L62.5005 49C62.2243 49 62.0005 49.2239 62.0005 49.5V52.5C62.0005 52.7761 62.2243 53 62.5005 53H66.5005C66.7766 53 67.0005 53.2239 67.0005 53.5V57.5C67.0005 57.7761 67.2243 58 67.5005 58L70.5005 58C70.7766 58 71.0005 57.7761 71.0005 57.5V53.5C71.0005 53.2239 71.2243 53 71.5005 53H75.5005C75.7766 53 76.0005 52.7761 76.0005 52.5V49.5C76.0005 49.2239 75.7766 49 75.5005 49L71.5005 49C71.2243 49 71.0005 48.7761 71.0005 48.5V44.5Z" fill="white"/>
</svg>
