<svg width="129" height="97" viewBox="0 0 129 97" fill="none" xmlns="http://www.w3.org/2000/svg">
<path opacity="0.2" d="M106.629 39.1818L108.171 38.7818C108.457 38.7247 108.743 38.439 108.8 38.1532L109.2 36.6104C109.314 36.2104 109.657 35.9818 110 35.9818C110.4 35.9818 110.743 36.2675 110.8 36.6104L111.2 38.1532C111.257 38.439 111.543 38.7247 111.829 38.7818L113.371 39.1818C113.771 39.2961 114 39.639 114 39.9818C114 40.3818 113.714 40.7247 113.371 40.7818L111.829 41.1818C111.543 41.239 111.257 41.5247 111.2 41.8104L110.8 43.3532C110.686 43.7532 110.343 43.9818 110 43.9818C109.6 43.9818 109.257 43.6961 109.2 43.3532L108.8 41.8104C108.743 41.5247 108.457 41.239 108.171 41.1818L106.629 40.7818C106.229 40.6675 106 40.3247 106 39.9818C106 39.5818 106.286 39.239 106.629 39.1818Z" fill="#888888"/>
<path opacity="0.2" d="M16.9428 32.7818L19.2571 32.1818C19.6857 32.0961 20.1143 31.6675 20.2 31.239L20.8 28.9247C20.9714 28.3247 21.4857 27.9818 22 27.9818C22.6 27.9818 23.1143 28.4104 23.2 28.9247L23.8 31.239C23.8857 31.6675 24.3143 32.0961 24.7429 32.1818L27.0572 32.7818C27.6572 32.9532 28 33.4675 28 33.9818C28 34.5818 27.5714 35.0961 27.0572 35.1818L24.7429 35.7818C24.3143 35.8675 23.8857 36.2961 23.8 36.7247L23.2 39.039C23.0286 39.639 22.5143 39.9818 22 39.9818C21.4 39.9818 20.8857 39.5532 20.8 39.039L20.2 36.7247C20.1143 36.2961 19.6857 35.8675 19.2571 35.7818L16.9428 35.1818C16.3428 35.0104 16 34.4961 16 33.9818C16 33.3818 16.4285 32.8675 16.9428 32.7818Z" fill="#888888"/>
<path opacity="0.2" d="M1.62856 54.1818L3.17142 53.7818C3.45714 53.7247 3.74287 53.439 3.80001 53.1532L4.19999 51.6104C4.31427 51.2104 4.65714 50.9818 5 50.9818C5.4 50.9818 5.74287 51.2675 5.80001 51.6104L6.19999 53.1532C6.25713 53.439 6.54286 53.7247 6.82858 53.7818L8.37144 54.1818C8.77144 54.2961 9 54.639 9 54.9818C9 55.3818 8.7143 55.7247 8.37144 55.7818L6.82858 56.1818C6.54286 56.239 6.25713 56.5247 6.19999 56.8104L5.80001 58.3532C5.68573 58.7532 5.34286 58.9818 5 58.9818C4.6 58.9818 4.25713 58.6961 4.19999 58.3532L3.80001 56.8104C3.74287 56.5247 3.45714 56.239 3.17142 56.1818L1.62856 55.7818C1.22856 55.6675 1 55.3247 1 54.9818C1 54.5818 1.2857 54.239 1.62856 54.1818Z" fill="#888888"/>
<path opacity="0.2" d="M127.5 52.9818C126.675 52.9818 126 52.3068 126 51.4818C126 50.6568 126.675 49.9818 127.5 49.9818C128.325 49.9818 129 50.6568 129 51.4818C129 52.3068 128.325 52.9818 127.5 52.9818Z" fill="#888888"/>
<path opacity="0.2" d="M24 70.9818C22.9 70.9818 22 70.0818 22 68.9818C22 67.8818 22.9 66.9818 24 66.9818C25.1 66.9818 26 67.8818 26 68.9818C26 70.0818 25.1 70.9818 24 70.9818Z" fill="#888888"/>
<path d="M33 27.9819C33 24.6682 35.6863 21.9819 39 21.9819H91C94.3137 21.9819 97 24.6682 97 27.9819V69.9819C97 73.2956 94.3137 75.9819 91 75.9819H39C35.6863 75.9819 33 73.2956 33 69.9819V27.9819Z" fill="url(#paint0_linear_822_15775)"/>
<path d="M35 27.9819C35 25.7728 36.7909 23.9819 39 23.9819H91C93.2091 23.9819 95 25.7728 95 27.9819H35Z" fill="white" fill-opacity="0.66"/>
<path d="M63.8062 48.7847L63.8062 45.1827C63.8062 44.5223 64.3465 43.982 65.0068 43.982C65.6672 43.982 66.2075 44.5223 66.2075 45.1827L66.2075 48.7847C66.2075 49.4451 65.6672 49.9854 65.0068 49.9854C64.3465 49.9854 63.8062 49.4451 63.8062 48.7847Z" fill="white" fill-opacity="0.3"/>
<path d="M53 47.5841C53 47.2779 53.1201 46.9717 53.3542 46.7376C53.8225 46.2693 54.5849 46.2693 55.0532 46.7376L57.4545 49.1389C57.9228 49.6072 57.9228 50.3696 57.4545 50.8379C56.9863 51.3062 56.2238 51.3062 55.7556 50.8379L53.3542 48.4365C53.1201 48.2024 53 47.8962 53 47.5901L53 47.5841Z" fill="white" fill-opacity="0.3"/>
<path d="M72.2119 49.9791C72.2119 50.2853 72.332 50.5915 72.5661 50.8256C73.0344 51.2939 73.7968 51.2939 74.2651 50.8256L76.6664 48.4243C77.1347 47.956 77.1347 47.1936 76.6664 46.7253C76.1982 46.257 75.4357 46.257 74.9675 46.7253L72.5661 49.1267C72.332 49.3608 72.2119 49.667 72.2119 49.9731L72.2119 49.9791Z" fill="white" fill-opacity="0.3"/>
<path d="M37 60.9819C37 58.7728 38.7909 56.9819 41 56.9819H49C51.2091 56.9819 53 58.7728 53 60.9819V68.9819C53 71.1911 51.2091 72.9819 49 72.9819H41C38.7909 72.9819 37 71.1911 37 68.9819V60.9819Z" fill="#F9BE1A"/>
<path d="M37 60.9819H53V68.9819C53 71.1911 51.2091 72.9819 49 72.9819H41C38.7909 72.9819 37 71.1911 37 68.9819V60.9819Z" fill="#FFDE7A"/>
<path d="M77 60.9819C77 58.7728 78.7909 56.9819 81 56.9819H89C91.2091 56.9819 93 58.7728 93 60.9819V68.9819C93 71.1911 91.2091 72.9819 89 72.9819H81C78.7909 72.9819 77 71.1911 77 68.9819V60.9819Z" fill="#4CBA3C"/>
<path d="M79.3999 62.5819C79.3999 61.6983 80.1162 60.9819 80.9999 60.9819H88.9999C89.8836 60.9819 90.5999 61.6983 90.5999 62.5819V67.3819C90.5999 68.2656 89.8836 68.9819 88.9999 68.9819H80.9999C80.1162 68.9819 79.3999 68.2656 79.3999 67.3819V62.5819Z" fill="#96E38A"/>
<path d="M55 57.9819C55 55.2205 57.2386 52.9819 60 52.9819H70C72.7614 52.9819 75 55.2205 75 57.9819V67.9819C75 70.7434 72.7614 72.9819 70 72.9819H60C57.2386 72.9819 55 70.7434 55 67.9819V57.9819Z" fill="#DE5833"/>
<path fill-rule="evenodd" clip-rule="evenodd" d="M65 70.9819C69.4183 70.9819 73 67.4002 73 62.9819C73 58.5637 69.4183 54.9819 65 54.9819C60.5817 54.9819 57 58.5637 57 62.9819C57 67.4002 60.5817 70.9819 65 70.9819ZM65 68.982C68.3137 68.982 71 66.2957 71 62.982C71 59.6683 68.3137 56.982 65 56.982C61.6863 56.982 59 59.6683 59 62.982C59 66.2957 61.6863 68.982 65 68.982Z" fill="#F2A18A"/>
<defs>
<linearGradient id="paint0_linear_822_15775" x1="74" y1="74.4819" x2="52" y2="21.9819" gradientUnits="userSpaceOnUse">
<stop stop-color="#BBCBF7"/>
<stop offset="1" stop-color="#658EFF" stop-opacity="0.72"/>
</linearGradient>
</defs>
</svg>
