<svg width="49" height="48" viewBox="0 0 49 48" fill="none" xmlns="http://www.w3.org/2000/svg">
<path d="M25.9578 32.5C25.6604 33.447 25.5 34.4548 25.5 35.5V38L20 39.5V32.5H25.9578Z" fill="#ABABAB"/>
<path d="M9.5 9.33333C9.5 8.59695 10.097 8 10.8333 8H38.6667C39.403 8 40 8.59695 40 9.33333V24.1667C40 24.903 39.403 25.5 38.6667 25.5H10.8333C10.097 25.5 9.5 24.903 9.5 24.1667V9.33333Z" fill="#888888"/>
<path d="M23.5 40C24.6046 40 25.5 39.1046 25.5 38H15.5C14.9477 38 14.5 38.4477 14.5 39C14.5 39.5523 14.9477 40 15.5 40H23.5Z" fill="#888888"/>
<path fill-rule="evenodd" clip-rule="evenodd" d="M37.5687 8H8.9313C8.41695 8 8 8.45667 8 9.02V32.48C8 33.0433 8.41695 33.5 8.9313 33.5H29.2503C31.5479 30.3588 34.7624 27.9306 38.5 26.6096V9.02C38.5 8.45667 38.083 8 37.5687 8Z" fill="#CCCCCC"/>
<path fill-rule="evenodd" clip-rule="evenodd" d="M36.3182 10H10.1818C9.80526 10 9.5 10.3438 9.5 10.7679V30.7321C9.5 31.1562 9.80526 31.5 10.1818 31.5H30.9287C32.648 29.7084 34.7061 28.2445 37 27.2113V10.7679C37 10.3438 36.6947 10 36.3182 10Z" fill="#FFD65C"/>
<path d="M27.0999 22.4743C25.8717 24.5874 23.2399 25.363 21.0928 24.2949C20.9266 24.2113 20.8712 23.9976 20.9635 23.8351L21.573 22.7901C21.7208 22.5394 21.4899 22.2328 21.2083 22.3072L17.242 23.3521C17.0665 23.3985 16.9649 23.5797 17.0111 23.7515L18.0454 27.7548C18.1193 28.0381 18.4933 28.0891 18.641 27.8383L19.2367 26.812C19.3244 26.6587 19.5183 26.6076 19.6753 26.6912C23.1429 28.5489 27.4786 27.3321 29.4871 23.8815C30.3043 22.479 30.6091 20.9185 30.466 19.4138C30.4382 19.1352 30.1751 18.9448 29.9073 19.0144L28.3789 19.4185C27.9957 19.5207 27.7417 19.8643 27.7325 20.2637C27.7094 21.0161 27.5109 21.7731 27.1046 22.4697L27.0999 22.4743Z" fill="#F9BE1A"/>
<path d="M19.2741 18.0257C20.4569 15.9126 22.9912 15.137 25.0588 16.2051C25.2188 16.2887 25.2722 16.5024 25.1833 16.6649L24.5964 17.7099C24.4541 17.9606 24.6764 18.2672 24.9476 18.1928L28.767 17.1479C28.9359 17.1015 29.0338 16.9203 28.9893 16.7485L27.9933 12.7452C27.9222 12.4619 27.562 12.4109 27.4197 12.6617L26.8462 13.688C26.7617 13.8413 26.575 13.8924 26.4238 13.8088C23.0846 11.9511 18.9095 13.1679 16.9754 16.6185C16.1884 18.021 15.895 19.5815 16.0328 21.0862C16.0595 21.3648 16.3129 21.5552 16.5708 21.4856L18.0425 21.0815C18.4116 20.9793 18.6561 20.6357 18.665 20.2363C18.6872 19.4839 18.8784 18.7269 19.2697 18.0303L19.2741 18.0257Z" fill="#F9BE1A"/>
<path d="M46.3828 29.5254C46.5359 29.5254 46.689 29.5854 46.8061 29.7025C47.0402 29.9366 47.0402 30.3178 46.8061 30.552L45.6054 31.7526C45.3713 31.9868 44.9901 31.9868 44.7559 31.7526C44.5218 31.5185 44.5218 31.1373 44.7559 30.9032L45.9566 29.7025C46.0737 29.5854 46.2267 29.5254 46.3798 29.5254H46.3828Z" fill="#CCCCCC"/>
<path d="M45.7825 34.9285H47.5835C47.9137 34.9285 48.1838 35.1986 48.1838 35.5288C48.1838 35.859 47.9137 36.1291 47.5835 36.1291H45.7825C45.4523 36.1291 45.1821 35.859 45.1821 35.5288C45.1821 35.1986 45.4523 34.9285 45.7825 34.9285Z" fill="#CCCCCC"/>
<path d="M44.762 39.3084C44.8791 39.1914 45.0322 39.1313 45.1853 39.1313H45.1883C45.3414 39.1313 45.4944 39.1914 45.6115 39.3084L46.8122 40.5091C47.0463 40.7433 47.0463 41.1245 46.8122 41.3586C46.5781 41.5927 46.1968 41.5927 45.9627 41.3586L44.762 40.1579C44.5279 39.9238 44.5279 39.5426 44.762 39.3084Z" fill="#CCCCCC"/>
<path d="M35.5 43.5C39.9183 43.5 43.5 39.9183 43.5 35.5C43.5 31.0817 39.9183 27.5 35.5 27.5C31.0817 27.5 27.5 31.0817 27.5 35.5C27.5 39.9183 31.0817 43.5 35.5 43.5Z" fill="#4CBA3C"/>
<path fill-rule="evenodd" clip-rule="evenodd" d="M36.7474 32.7301C35.3216 31.9934 33.5737 32.5283 32.758 33.9856L32.755 33.9888C32.4851 34.4692 32.3533 34.9913 32.3379 35.5101C32.3318 35.7856 32.1631 36.0226 31.9086 36.093L30.8936 36.3717C30.7158 36.4197 30.541 36.2884 30.5226 36.0962C30.4276 35.0585 30.6299 33.9824 31.1727 33.0151C32.5066 30.6354 35.386 29.7963 37.6888 31.0774C37.7931 31.135 37.9219 31.0998 37.9801 30.9941L38.3757 30.2863C38.4738 30.1133 38.7222 30.1486 38.7713 30.3439L39.4581 33.1048C39.4888 33.2233 39.4214 33.3482 39.3048 33.3802L36.6708 34.1009C36.4837 34.1521 36.3304 33.9407 36.4285 33.7678L36.8333 33.0471C36.8946 32.935 36.8578 32.7877 36.7474 32.7301ZM34.0122 38.3093C35.4929 39.046 37.308 38.5111 38.1551 37.0538L38.1582 37.0506C38.4385 36.5702 38.5754 36.0481 38.5913 35.5292C38.5977 35.2538 38.7728 35.0168 39.0371 34.9463L40.0912 34.6677C40.2758 34.6196 40.4574 34.7509 40.4765 34.9431C40.5752 35.9808 40.365 37.057 39.8014 38.0243C38.4162 40.404 35.4261 41.2431 33.0346 39.962C32.9263 39.9043 32.7926 39.9396 32.7321 40.0452L32.3213 40.7531C32.2194 40.926 31.9615 40.8908 31.9105 40.6954L31.1972 37.9346C31.1654 37.8161 31.2355 37.6912 31.3565 37.6591L34.0918 36.9385C34.2861 36.8872 34.4453 37.0986 34.3434 37.2716L33.9231 37.9922C33.8594 38.1043 33.8976 38.2517 34.0122 38.3093Z" fill="white"/>
</svg>
