<svg width="64" height="48" viewBox="0 0 64 48" fill="none" xmlns="http://www.w3.org/2000/svg">
<path opacity="0.2" d="M52.8143 19.1L53.5857 18.9C53.7286 18.8714 53.8714 18.7286 53.9 18.5857L54.1 17.8143C54.1571 17.6143 54.3286 17.5 54.5 17.5C54.7 17.5 54.8714 17.6429 54.9 17.8143L55.1 18.5857C55.1286 18.7286 55.2714 18.8714 55.4143 18.9L56.1857 19.1C56.3857 19.1571 56.5 19.3286 56.5 19.5C56.5 19.7 56.3571 19.8714 56.1857 19.9L55.4143 20.1C55.2714 20.1286 55.1286 20.2714 55.1 20.4143L54.9 21.1857C54.8429 21.3857 54.6714 21.5 54.5 21.5C54.3 21.5 54.1286 21.3571 54.1 21.1857L53.9 20.4143C53.8714 20.2714 53.7286 20.1286 53.5857 20.1L52.8143 19.9C52.6143 19.8429 52.5 19.6714 52.5 19.5C52.5 19.3 52.6428 19.1286 52.8143 19.1Z" fill="#888888"/>
<path opacity="0.2" d="M7.97142 15.9L9.12857 15.6C9.34285 15.5571 9.55715 15.3429 9.60001 15.1286L9.89999 13.9714C9.9857 13.6714 10.2429 13.5 10.5 13.5C10.8 13.5 11.0572 13.7143 11.1 13.9714L11.4 15.1286C11.4428 15.3429 11.6571 15.5571 11.8714 15.6L13.0286 15.9C13.3286 15.9857 13.5 16.2429 13.5 16.5C13.5 16.8 13.2857 17.0571 13.0286 17.1L11.8714 17.4C11.6571 17.4429 11.4428 17.6571 11.4 17.8714L11.1 19.0286C11.0143 19.3286 10.7571 19.5 10.5 19.5C10.2 19.5 9.94285 19.2857 9.89999 19.0286L9.60001 17.8714C9.55715 17.6571 9.34285 17.4429 9.12857 17.4L7.97142 17.1C7.67142 17.0143 7.5 16.7571 7.5 16.5C7.5 16.2 7.71428 15.9429 7.97142 15.9Z" fill="#888888"/>
<path opacity="0.2" d="M0.314279 26.6L1.08571 26.4C1.22857 26.3714 1.37144 26.2286 1.40001 26.0857L1.59999 25.3143C1.65714 25.1143 1.82857 25 2 25C2.2 25 2.37144 25.1429 2.40001 25.3143L2.59999 26.0857C2.62856 26.2286 2.77143 26.3714 2.91429 26.4L3.68572 26.6C3.88572 26.6571 4 26.8286 4 27C4 27.2 3.85715 27.3714 3.68572 27.4L2.91429 27.6C2.77143 27.6286 2.62856 27.7714 2.59999 27.9143L2.40001 28.6857C2.34286 28.8857 2.17143 29 2 29C1.8 29 1.62856 28.8571 1.59999 28.6857L1.40001 27.9143C1.37144 27.7714 1.22857 27.6286 1.08571 27.6L0.314279 27.4C0.114279 27.3429 0 27.1714 0 27C0 26.8 0.14285 26.6286 0.314279 26.6Z" fill="#888888"/>
<path opacity="0.2" d="M63.25 26C62.8375 26 62.5 25.6625 62.5 25.25C62.5 24.8375 62.8375 24.5 63.25 24.5C63.6625 24.5 64 24.8375 64 25.25C64 25.6625 63.6625 26 63.25 26Z" fill="#888888"/>
<path opacity="0.2" d="M11.5 35C10.95 35 10.5 34.55 10.5 34C10.5 33.45 10.95 33 11.5 33C12.05 33 12.5 33.45 12.5 34C12.5 34.55 12.05 35 11.5 35Z" fill="#888888"/>
<path fill-rule="evenodd" clip-rule="evenodd" d="M42.6125 17.0309C42.6125 22.0344 38.5564 26.0905 33.5529 26.0905C32.6002 26.0905 31.6819 25.9435 30.8194 25.6709L29.3063 27.1839H26.1433V29.7816C26.1433 30.0615 25.9164 30.2884 25.6365 30.2884H22.9802V34.0772C22.9802 34.3571 22.7533 34.584 22.4734 34.584H16V28.1406L24.7924 19.3482C24.5973 18.6086 24.4933 17.8319 24.4933 17.0309C24.4933 12.0274 28.5494 7.97131 33.5529 7.97131C38.5564 7.97131 42.6125 12.0274 42.6125 17.0309ZM36.101 17.314C37.6646 17.314 38.9321 16.0465 38.9321 14.4829C38.9321 12.9193 37.6646 11.6518 36.101 11.6518C34.5374 11.6518 33.2699 12.9193 33.2699 14.4829C33.2699 16.0465 34.5374 17.314 36.101 17.314Z" fill="#E2A412"/>
<path fill-rule="evenodd" clip-rule="evenodd" d="M44.1125 17.0309C44.1125 22.0344 40.0564 26.0905 35.0529 26.0905C34.1002 26.0905 33.1819 25.9435 32.3194 25.6709L30.8063 27.1839H27.6433V29.7816C27.6433 30.0615 27.4164 30.2884 27.1365 30.2884H24.4802V34.0772C24.4802 34.3571 24.2533 34.584 23.9734 34.584H17.5V28.1406L26.2924 19.3482C26.0973 18.6086 25.9933 17.8319 25.9933 17.0309C25.9933 12.0274 30.0494 7.97131 35.0529 7.97131C40.0564 7.97131 44.1125 12.0274 44.1125 17.0309ZM37.601 17.314C39.1646 17.314 40.4321 16.0465 40.4321 14.4829C40.4321 12.9193 39.1646 11.6518 37.601 11.6518C36.0374 11.6518 34.7699 12.9193 34.7699 14.4829C34.7699 16.0465 36.0374 17.314 37.601 17.314Z" fill="#F9BE1A"/>
<path fill-rule="evenodd" clip-rule="evenodd" d="M42.0884 25.5989C45.2107 23.3869 46.5701 19.268 45.1431 15.5275C43.4519 11.094 38.4868 8.87105 34.0533 10.5623C29.6198 12.2536 27.3969 17.2187 29.0881 21.6522C29.3589 22.3618 29.7135 23.0149 30.1364 23.6043L25.3176 34.3671L27.4956 40.0763H28.8624C29.0551 40.0763 29.2312 39.9671 29.3166 39.7944L32.2286 33.9107L33.7347 33.3361C33.8934 32.617 34.1294 31.9269 34.4337 31.2751L33.9819 30.0907L35.4868 29.5166C36.0456 28.7694 36.7065 28.1029 37.4489 27.5379L37.6138 27.1695C37.7478 27.1616 37.8819 27.1507 38.0161 27.1364C39.2181 26.3467 40.6006 25.8091 42.0884 25.5989ZM41.0206 14.5138C41.5491 15.8993 40.8545 17.4509 39.469 17.9794C38.0835 18.5079 36.5319 17.8132 36.0034 16.4278C35.4749 15.0423 36.1696 13.4907 37.555 12.9622C38.9405 12.4337 40.4921 13.1284 41.0206 14.5138Z" fill="#E2A412"/>
<path fill-rule="evenodd" clip-rule="evenodd" d="M33.5 35.5C33.5 37.2109 32.4439 38.7442 30.8453 39.354L28.9517 40.0764L26.7737 34.3671L31.5924 23.6043C31.1696 23.0149 30.8149 22.3618 30.5442 21.6522C28.8529 17.2187 31.0759 12.2536 35.5094 10.5623C39.9428 8.87104 44.9079 11.094 46.5992 15.5275C47.7979 18.6697 47.0304 22.079 44.9032 24.4005C44.1808 25.1889 43.097 25.4609 42.0414 25.6313C37.271 26.4014 33.5 30.4716 33.5 35.5ZM42.4768 14.5138C43.0053 15.8993 42.3106 17.4509 40.9252 17.9794C39.5397 18.5079 37.9881 17.8132 37.4596 16.4278C36.9311 15.0423 37.6257 13.4907 39.0112 12.9622C40.3967 12.4337 41.9482 13.1284 42.4768 14.5138Z" fill="#FFCC33"/>
<path fill-rule="evenodd" clip-rule="evenodd" d="M38.5184 13.2102C38.9513 13.6707 39.6362 14 40.5 14C42.0309 14 43 12.9655 43 12C43 11.0951 42.1487 10.1295 40.7814 10.0119C40.0248 9.39366 39.1663 8.8953 38.2349 8.54588C38.916 8.19487 39.698 8 40.5 8C42.8351 8 45 9.65179 45 12C45 14.3482 42.8351 16 40.5 16C39.3223 16 38.188 15.5799 37.3528 14.8622C37.5091 14.193 37.9196 13.5934 38.5184 13.2102Z" fill="#999999"/>
<path fill-rule="evenodd" clip-rule="evenodd" d="M42.5 15.5806C41.8844 15.8516 41.1999 16 40.5 16C39.3224 16 38.188 15.5799 37.3528 14.8622C37.5091 14.193 37.9197 13.5934 38.5184 13.2102C38.9513 13.6707 39.6363 14 40.5 14C41.3761 14 42.0682 13.6612 42.5 13.1904V15.5806Z" fill="url(#paint0_linear_157_6450)"/>
<path d="M54.2507 29.5C54.3994 29.5 54.5481 29.56 54.6618 29.677C54.8892 29.9109 54.8892 30.2919 54.6618 30.5258L53.4956 31.7256C53.2682 31.9596 52.898 31.9596 52.6706 31.7256C52.4431 31.4917 52.4431 31.1107 52.6706 30.8768L53.8367 29.677C53.9505 29.56 54.0991 29.5 54.2478 29.5H54.2507Z" fill="#CCCCCC"/>
<path d="M53.6676 34.8991H55.4169C55.7376 34.8991 56 35.1691 56 35.499C56 35.829 55.7376 36.0989 55.4169 36.0989H53.6676C53.3469 36.0989 53.0845 35.829 53.0845 35.499C53.0845 35.1691 53.3469 34.8991 53.6676 34.8991Z" fill="#CCCCCC"/>
<path d="M52.6765 39.2759C52.7902 39.1589 52.9389 39.0989 53.0876 39.0989H53.0905C53.2392 39.0989 53.3879 39.1589 53.5016 39.2759L54.6678 40.4757C54.8952 40.7096 54.8952 41.0906 54.6678 41.3245C54.4403 41.5585 54.0701 41.5585 53.8427 41.3245L52.6765 40.1247C52.4491 39.8908 52.4491 39.5098 52.6765 39.2759Z" fill="#CCCCCC"/>
<rect x="35.5" y="27.5" width="16" height="16" rx="8" fill="#DE5833"/>
<path d="M45.4072 35.2322C45.3583 35.2633 45.2017 35.2453 44.9952 35.2218C43.1653 34.9 42.987 35.9442 43.8687 37.5338C43.0703 37.7718 44.0119 40.074 44.7798 41.8027C43.94 42.1002 42.3941 42.0361 41.6789 41.7722C41.6777 41.7686 41.6765 41.7643 41.6753 41.7606C41.5183 41.7027 41.3236 41.7033 41.2325 41.5791C40.9865 39.8876 37.5549 31.8156 41.7475 31.2869C41.7739 31.2794 41.206 31.1029 40.4413 31.294C39.4854 31.4852 41.3699 28.6913 43.3498 31.1408C45.5013 31.6112 45.6553 35.0742 45.4075 35.2319L45.4072 35.2322Z" fill="white"/>
<path d="M46.145 40.5446C46.1238 40.6818 46.0764 40.7734 45.9922 40.7862C45.8325 40.8106 45.1183 40.6471 44.7123 40.4927C44.6662 40.705 43.578 40.9061 43.4058 40.6208C43.0109 40.9622 42.2544 41.4573 42.0962 41.3536C41.7933 41.1553 41.5084 39.6282 41.7364 39.3054C42.0827 38.9906 42.8108 39.3332 43.3216 39.5141C43.4947 39.2212 44.3333 39.1102 44.5074 39.3506C44.9661 39.0019 45.7316 38.5102 45.8062 38.5998C46.1783 39.0483 46.2253 40.1154 46.1447 40.5449L46.145 40.5446Z" fill="#4CBA3C"/>
<path fill-rule="evenodd" clip-rule="evenodd" d="M42.2647 35.9347C42.4208 34.8271 44.5132 35.1736 45.4489 35.0491C46.1308 34.9701 46.6368 34.8023 46.9738 34.6715C47.7477 34.3536 47.8795 34.669 47.5011 35.1641C46.4328 36.4307 44.0566 35.5088 43.6312 36.1638C43.5068 36.3578 43.603 36.8145 44.5803 36.9585C45.901 37.1525 46.9858 36.7245 47.1197 36.9832C46.8186 38.3657 41.8048 37.895 42.2641 35.935L42.2647 35.9347Z" fill="#FFCC33"/>
<path d="M44.9356 32.7397C44.7972 32.4399 44.0857 32.442 43.9496 32.7281C43.9372 32.7872 43.9868 32.7716 44.0812 32.7419C44.2466 32.6898 44.5498 32.5944 44.8991 32.7812C44.9266 32.7931 44.9533 32.7644 44.9356 32.7397Z" fill="#14307E"/>
<path d="M41.4585 32.8117C41.3264 32.8022 41.1119 32.7867 40.9347 32.8852C40.6747 32.9959 40.5908 33.1152 40.5404 33.197C40.5219 33.2272 40.45 33.2241 40.45 33.1884C40.4676 32.7113 41.2766 32.4813 41.5708 32.7778C41.6065 32.8223 41.554 32.8186 41.4585 32.8117Z" fill="#14307E"/>
<path d="M44.6822 34.4111C44.1378 34.4084 44.1378 33.5692 44.6822 33.5664C45.2266 33.5692 45.2266 34.4084 44.6822 34.4111Z" fill="#14307E"/>
<path d="M41.9235 34.2809C41.9128 34.9283 40.9639 34.9283 40.9531 34.2809C40.9561 33.6367 41.9205 33.637 41.9235 34.2809Z" fill="#14307E"/>
<path fill-rule="evenodd" clip-rule="evenodd" d="M43.4999 29.478C40.174 29.478 37.4778 32.1741 37.4778 35.5C37.4778 38.8259 40.174 41.522 43.4999 41.522C46.8257 41.522 49.5219 38.8259 49.5219 35.5C49.5219 32.1741 46.8257 29.478 43.4999 29.478ZM36.522 35.5C36.522 31.6462 39.6461 28.5221 43.4999 28.5221C47.3536 28.5221 50.4778 31.6462 50.4778 35.5C50.4778 39.3538 47.3536 42.4779 43.4999 42.4779C39.6461 42.4779 36.522 39.3538 36.522 35.5Z" fill="white"/>
<defs>
<linearGradient id="paint0_linear_157_6450" x1="39" y1="14.5" x2="42" y2="14.5" gradientUnits="userSpaceOnUse">
<stop stop-color="#5F5F5F"/>
<stop offset="1" stop-color="#999999" stop-opacity="0"/>
</linearGradient>
</defs>
</svg>
