<svg width="16" height="16" viewBox="0 0 16 16" fill="none" xmlns="http://www.w3.org/2000/svg">
<g clip-path="url(#clip0_4179_15953)">
<g clip-path="url(#clip1_4179_15953)">
<path d="M16 8C16 12.4183 12.4183 16 8 16C3.58172 16 0 12.4183 0 8C0 3.58172 3.58172 0 8 0C12.4183 0 16 3.58172 16 8Z" fill="#EE1025"/>
<path d="M8.00065 2.76367C7.26194 2.76367 6.68632 3.40425 6.76502 4.13876L7.34983 9.59701C7.38547 9.92961 7.66615 10.1818 8.00065 10.1818C8.33515 10.1818 8.61583 9.92961 8.65147 9.59701L9.23628 4.13876C9.31498 3.40425 8.73937 2.76367 8.00065 2.76367Z" fill="white"/>
<path d="M8.00069 13.4545C8.60318 13.4545 9.09159 12.9661 9.09159 12.3636C9.09159 11.7611 8.60318 11.2727 8.00069 11.2727C7.3982 11.2727 6.90978 11.7611 6.90978 12.3636C6.90978 12.9661 7.3982 13.4545 8.00069 13.4545Z" fill="white"/>
</g>
</g>
<defs>
<clipPath id="clip0_4179_15953">
<rect width="16" height="16" fill="white"/>
</clipPath>
<clipPath id="clip1_4179_15953">
<rect width="16" height="16" fill="white"/>
</clipPath>
</defs>
</svg>
