<svg width="24" height="25" viewBox="0 0 24 25" fill="none" xmlns="http://www.w3.org/2000/svg">
<g id="Shield-20">
<path id="Subtract" d="M12 21.8151C12.2886 21.8151 12.5773 21.7496 12.8357 21.6185L13.0574 21.5061C15.595 20.22 17.808 19.0984 19.2874 16.886C20.6675 14.8221 21.3725 11.8747 21.3317 7.08128C21.3281 6.6598 21.1162 6.26028 20.7507 5.98571C20.3853 5.71113 19.9019 5.58835 19.4252 5.64901C18.0566 5.82315 16.9846 5.77663 16.0426 5.48454C15.0921 5.18982 14.204 4.62384 13.2547 3.65665C12.9403 3.33622 12.4825 3.15089 12 3.14844V21.8151Z" fill="#4CBA3C"/>
<path id="Subtract_2" d="M12 21.8151C11.7114 21.8151 11.4227 21.7496 11.1643 21.6185L10.9426 21.5061C8.40503 20.22 6.19205 19.0984 4.71261 16.886C3.33245 14.8221 2.62748 11.8747 2.66835 7.08128C2.67194 6.6598 2.88377 6.26028 3.24926 5.98571C3.61473 5.71113 4.09811 5.58835 4.57481 5.64901C5.94339 5.82315 7.01544 5.77663 7.95744 5.48454C8.9079 5.18982 9.79603 4.62384 10.7453 3.65665C11.0597 3.33622 11.5175 3.15089 12 3.14844V21.8151Z" fill="#96E38A"/>
<path id="Stroke" fill-rule="evenodd" clip-rule="evenodd" d="M10.2589 3.18097C10.712 2.72445 11.3487 2.48035 11.9966 2.48194C12.6446 2.48354 13.28 2.73078 13.7305 3.18987C14.6225 4.09873 15.4193 4.59348 16.24 4.84797C17.0596 5.10211 18.0279 5.15494 19.341 4.98785C19.98 4.90655 20.6393 5.06835 21.1512 5.45288C21.6665 5.84001 21.9928 6.42719 21.9983 7.07578C22.0396 11.9213 21.3314 15.0289 19.8416 17.2568C18.2648 19.6147 15.9146 20.8057 13.4322 22.0638L13.1371 22.2133C12.7859 22.3914 12.3962 22.4809 12.0063 22.4819C12.0042 22.4819 12.0021 22.4819 12 22.4819C11.9979 22.4819 11.9958 22.4819 11.9936 22.4819C11.6037 22.4809 11.2141 22.3914 10.8628 22.2133L10.5678 22.0638C8.08542 20.8057 5.73522 19.6147 4.15844 17.2568C2.66866 15.029 1.96043 11.9215 2.0017 7.07612C2.00722 6.42806 2.333 5.84125 2.84764 5.4541C3.35882 5.06954 4.0174 4.9073 4.65601 4.98781C5.97858 5.15453 6.95 5.09119 7.76974 4.82922C8.58776 4.5678 9.37649 4.06989 10.2589 3.18097ZM12.6667 20.9569L12.756 20.9116C15.3217 19.6112 17.3667 18.5592 18.7332 16.5156C20.0037 14.6157 20.7054 11.8285 20.665 7.08715C20.6634 6.89276 20.566 6.68092 20.3503 6.5189C20.1312 6.35427 19.8237 6.27052 19.5093 6.31052C18.0853 6.49172 16.9095 6.45152 15.8451 6.12148C14.7649 5.78654 13.7854 5.14933 12.7789 4.1238C12.745 4.08925 12.7074 4.05682 12.6667 4.02693V20.9569ZM11.3333 4.01308V20.9569L11.244 20.9117C8.67831 19.6113 6.63335 18.5592 5.26679 16.5156C3.99631 14.6157 3.29461 11.8286 3.33499 7.08748C3.33664 6.89324 3.43386 6.68158 3.64919 6.5196C3.86797 6.35501 4.17504 6.27106 4.48925 6.31067C5.93039 6.49234 7.11133 6.43939 8.17562 6.09927C9.24764 5.75668 10.2137 5.11913 11.2052 4.12029C11.2435 4.08165 11.2865 4.04572 11.3333 4.01308Z" fill="#288419"/>
</g>
</svg>
