<svg width="24" height="24" viewBox="0 0 24 24" fill="none" xmlns="http://www.w3.org/2000/svg">
<path d="M12.9114 3.60532L12.0313 5.4204L9.90977 5.73418C7.76515 6.05138 6.91184 8.68288 8.446 10.205L10.0068 11.7536L9.64039 13.9283C9.28687 16.0264 11.434 17.6434 13.3327 16.7529V20.4998C13.3327 21.1179 12.6271 21.4707 12.1327 21.0998L8.44935 18.3373C8.18268 18.1373 7.81602 18.1373 7.54935 18.3373L3.86601 21.0998C3.37159 21.4707 2.66602 21.1179 2.66602 20.4998V4.91651C2.66602 3.67387 3.67338 2.6665 4.91602 2.6665H11.0827C11.8361 2.6665 12.503 3.0368 12.9114 3.60532Z" fill="#8FABF9"/>
<path d="M4.91667 2C3.30584 2 2 3.30584 2 4.91667V20.5C2 21.6674 3.33275 22.3338 4.26667 21.6333L7.95 18.8708C7.97963 18.8486 8.02037 18.8486 8.05 18.8708L11.7333 21.6333C12.6673 22.3338 14 21.6674 14 20.5V16.4005L13.4661 16.6862C13.2032 16.8268 12.9342 16.9179 12.6667 16.9647V20.5C12.6667 20.524 12.6608 20.5365 12.6556 20.5445C12.649 20.5548 12.6374 20.5662 12.6206 20.5745C12.6038 20.5829 12.5878 20.5854 12.5756 20.5845C12.5661 20.5839 12.5526 20.5811 12.5333 20.5667L8.85 17.8042C8.3463 17.4264 7.6537 17.4264 7.15 17.8042L3.46667 20.5667C3.44744 20.5811 3.43393 20.5839 3.42442 20.5845C3.41223 20.5854 3.39617 20.5829 3.3794 20.5745C3.36263 20.5662 3.35103 20.5548 3.34439 20.5445C3.33921 20.5365 3.33333 20.524 3.33333 20.5V4.91667C3.33333 4.04222 4.04222 3.33333 4.91667 3.33333H11.0833C11.7531 3.33333 12.3258 3.74923 12.5571 4.33687L12.9722 3.48087C13.059 3.30189 13.161 3.13914 13.2754 2.9926C12.7409 2.38409 11.9569 2 11.0833 2H4.91667Z" fill="#2B55CA"/>
<path d="M14.4426 4.22356C14.8039 3.48082 15.8621 3.48082 16.2234 4.22355L17.3029 6.44301C17.446 6.73722 17.7252 6.94175 18.0488 6.98947L20.4862 7.34886C21.2939 7.46794 21.6185 8.45825 21.0381 9.03232L19.2561 10.7949C19.0268 11.0217 18.9223 11.3459 18.9761 11.6638L19.3942 14.1377C19.5313 14.9485 18.6775 15.5634 17.952 15.1763L15.799 14.0278C15.5078 13.8724 15.1582 13.8724 14.867 14.0278L12.7141 15.1763C11.9885 15.5633 11.1347 14.9485 11.2718 14.1377L11.6899 11.6638C11.7437 11.3459 11.6392 11.0217 11.4099 10.7949L9.62793 9.03232C9.04753 8.45825 9.37215 7.46794 10.1798 7.34886L12.6172 6.98947C12.9408 6.94175 13.22 6.73722 13.3631 6.44301L14.4426 4.22356Z" fill="#FFDE7A"/>
<path fill-rule="evenodd" clip-rule="evenodd" d="M13.8722 3.91715C14.4652 2.69428 16.2021 2.69428 16.7951 3.91715L17.8812 6.15729C17.9343 6.2668 18.0379 6.34292 18.158 6.36068L20.6105 6.72342C21.9361 6.91948 22.4689 8.54997 21.5163 9.49515L19.7232 11.2741C19.6382 11.3585 19.5994 11.4792 19.6194 11.5976L20.0401 14.0945C20.265 15.4294 18.8636 16.4417 17.6728 15.8045L15.5066 14.6453C15.3985 14.5874 15.2688 14.5874 15.1607 14.6453L12.9945 15.8045C11.8037 16.4417 10.4023 15.4294 10.6272 14.0945L11.048 11.5976C11.0679 11.4792 11.0291 11.3585 10.9441 11.2741L9.15106 9.49515C8.19842 8.54997 8.73124 6.91948 10.0568 6.72342L12.5093 6.36068C12.6294 6.34292 12.733 6.2668 12.7861 6.15729L13.8722 3.91715ZM15.664 4.46898C15.53 4.19254 15.1373 4.19254 15.0033 4.46898L13.9171 6.70912C13.6823 7.19352 13.224 7.53027 12.6928 7.60884L10.2403 7.97157C9.94062 8.01589 9.82017 8.38448 10.0355 8.59815L11.8285 10.3771C12.2048 10.7505 12.3763 11.2843 12.2881 11.8078L11.8674 14.3048C11.8165 14.6065 12.1333 14.8354 12.4025 14.6913L14.5688 13.5321C15.0468 13.2763 15.6205 13.2763 16.0986 13.5321L18.2648 14.6913C18.534 14.8354 18.8508 14.6065 18.8 14.3048L18.3792 11.8078C18.291 11.2843 18.4625 10.7505 18.8388 10.3771L20.6318 8.59815C20.8472 8.38448 20.7267 8.01589 20.427 7.97157L17.9746 7.60884C17.4433 7.53027 16.9851 7.19352 16.7502 6.70912L15.664 4.46898Z" fill="#E2A412"/>
</svg>
