<svg width="96" height="96" viewBox="0 0 96 96" fill="none" xmlns="http://www.w3.org/2000/svg">
<path d="M51 73.0466C51 74.5119 49.942 75.7793 48.4816 75.8988C47.6633 75.9659 46.8356 76 46 76C29.4315 76 16 62.5686 16 46C16 29.4315 29.4315 16 46 16C62.5685 16 76 29.4315 76 46C76 46.8356 75.9658 47.6633 75.8988 48.4816C75.7792 49.942 74.5119 51 73.0466 51H71C59.9543 51 51 59.9543 51 71V73.0466Z" fill="#DE5833"/>
<path d="M50.2193 68.3368C50.219 68.3517 50.2188 68.3668 50.2188 68.3829V68.9688C50.2188 71.5236 42.1091 71.4919 38.2204 70.0283C38.024 69.9544 37.8788 69.7914 37.8189 69.5903C37.4592 68.3832 36.4415 64.8215 33.9293 54.7475C30.9726 42.8911 28.7739 33.2296 39.8806 30.2113C39.9889 30.1819 40.0323 30.0464 39.9493 29.971C38.6694 28.8077 36.4977 28.6004 34.3712 29.0211C34.2239 29.0502 34.1288 28.8697 34.2432 28.7725C35.2327 27.9321 35.9827 27.7588 36.3961 27.7435C36.5284 27.7386 36.6398 27.5763 36.5568 27.4731C36.1183 26.9281 35.3741 26.5676 34.7613 26.3599C34.6027 26.3062 34.6096 26.008 34.7755 25.9857C35.709 25.8599 36.9031 25.7909 37.8138 25.9366C39.1928 26.1671 40.6707 27.0164 42.0048 27.783C42.4073 28.0143 42.7967 28.238 43.1663 28.435C44.6013 29.195 46.6313 52.795 46.4663 53.45C45.5613 57.055 47.5513 62.645 49.5313 66.61C50.2254 67.9936 50.2229 68.1345 50.2193 68.3368Z" fill="#DDDDDD"/>
<path d="M73.0863 51C73.3837 49.3785 73.5391 47.7074 73.5391 46C73.5391 30.7906 61.2094 18.4609 46 18.4609C30.7906 18.4609 18.4609 30.7906 18.4609 46C18.4609 61.2094 30.7906 73.5391 46 73.5391C47.7074 73.5391 49.3785 73.3837 51 73.0863V71C51 70.376 51.0286 69.7586 51.0845 69.1491C48.3555 63.0044 45.2606 54.8894 48.0507 54.4556C48.1611 54.4384 48.2311 54.3081 48.1782 54.2096C42.8268 44.2362 49.3108 44.9617 52.5852 45.328C53.3931 45.4184 54.0057 45.4869 54.1968 45.3675C55.1662 44.7616 54.5637 31.4587 46.1483 29.6515C46.1143 29.6442 46.083 29.6251 46.0613 29.5978C43.7632 26.703 39.1837 25.3864 34.7982 25.9764C34.6241 25.9998 34.6397 26.2971 34.8132 26.3251C35.5463 26.4434 36.1981 26.6268 36.5809 26.7466C36.709 26.7867 36.7164 26.9639 36.5954 27.0221C36.0102 27.3039 34.8247 27.9468 34.2181 28.7829C34.1393 28.8916 34.2495 29.0195 34.3764 28.9757C37.4698 27.9085 39.9163 28.4163 41.2222 29.9656C41.2911 30.0473 41.2402 30.1717 41.1362 30.1961C29.7541 32.861 31.8308 41.3436 34.3735 51.7293L34.3752 51.7364C34.4448 52.0206 34.5147 52.3061 34.5847 52.593C36.6853 61.2037 38.8121 68.0174 39.573 70.3682C28.7712 67.5269 20.8047 57.6938 20.8047 46C20.8047 32.085 32.085 20.8047 46 20.8047C59.915 20.8047 71.1953 32.085 71.1953 46C71.1953 47.7127 71.0244 49.3855 70.6988 51.0022C70.799 51.0007 70.8994 51 71 51H73.0863Z" fill="white"/>
<path d="M55.3982 58.4855C54.6239 58.3919 52.3216 60.0516 50.7677 61.3404C50.426 60.857 49.7817 60.5056 48.3284 60.7583C47.0565 60.9795 46.3543 61.2861 46.041 61.8149C44.0335 61.0537 40.656 59.8791 39.8401 61.0135C38.9482 62.2536 40.063 68.12 41.2476 68.8817C41.8661 69.2794 44.8244 67.3778 46.3693 66.0665C46.6185 66.4177 47.0198 66.6187 47.8447 66.5996C49.0923 66.5706 51.1159 66.2803 51.43 65.6993C51.449 65.664 51.4655 65.6222 51.4795 65.5747C51.557 65.6037 51.6374 65.6328 51.7203 65.6618C52.4537 63.0074 53.7205 60.5744 55.3982 58.4855Z" fill="#3CA82B"/>
<path d="M55.5773 58.2656C54.8396 58.3564 52.2814 59.9911 50.6794 61.1868C50.2936 60.7797 49.6254 60.5419 48.3616 60.7464C46.6537 61.0228 46.2842 61.3783 46.33 62.3896C46.3278 63.0714 46.417 64.2622 46.5981 64.7686C46.8244 65.4017 47.076 65.8104 48.1934 65.7911C49.3109 65.7718 51.1224 65.5316 51.4013 65.0341C51.6801 64.5366 51.3113 62.5226 51.085 61.8895C51.0389 61.7607 50.9848 61.634 50.9174 61.5139C51.5005 61.578 52.093 62.1749 52.1548 64.2861C52.9431 62.0736 54.1099 60.0408 55.5773 58.2656Z" fill="#4CBA3C"/>
<path d="M45.7112 61.6943C43.9535 60.912 40.7514 60.1349 40.3566 60.7598C39.5266 62.0733 40.696 67.4016 41.3314 67.9007C41.8812 68.3325 46.0933 65.8225 45.9251 65.2586C45.35 63.3307 45.7112 61.6943 45.7112 61.6943Z" fill="#4CBA3C"/>
<path fill-rule="evenodd" clip-rule="evenodd" d="M41.9073 48.0657C42.1664 46.9392 43.3732 44.8163 47.6828 44.8679C49.8615 44.8588 52.5679 44.8669 54.3622 44.6631C57.029 44.3602 59.0085 43.7151 60.3276 43.2123C62.1931 42.5006 62.8552 42.6593 63.0873 43.0852C63.3423 43.5531 63.0418 44.3611 62.3899 45.1049C61.1448 46.5256 58.9065 47.6265 54.9533 47.9532C51.0001 48.28 48.3811 47.2195 47.2537 48.946C46.7675 49.6906 47.1434 51.4456 50.9664 51.9982C56.1325 52.7438 60.3753 51.0999 60.8995 52.0927C61.4237 53.0856 58.4039 55.1056 53.2295 55.1479C48.0551 55.1902 44.8231 53.3362 43.6769 52.4147C42.2228 51.2455 41.572 49.5403 41.9073 48.0657Z" fill="#FFCC33"/>
<g opacity="0.8">
<path d="M48.4971 35.7471C48.7857 35.2744 49.4257 34.9097 50.4731 34.9097C51.5205 34.9097 52.0133 35.3264 52.3544 35.7912C52.4238 35.8858 52.3186 35.997 52.211 35.9505C52.1851 35.9393 52.1589 35.9279 52.1323 35.9162C51.7492 35.7489 51.2789 35.5435 50.4731 35.532C49.6113 35.5198 49.0679 35.7356 48.7257 35.9216C48.6104 35.9843 48.4287 35.8591 48.4971 35.7471Z" fill="#14307E"/>
<path d="M36.7051 36.3517C37.7221 35.9267 38.5215 35.9816 39.0866 36.1153C39.2055 36.1434 39.2882 36.0154 39.1931 35.9387C38.7545 35.5849 37.7729 35.1457 36.4926 35.6231C35.3506 36.0489 34.8123 36.9337 34.8091 37.5154C34.8083 37.6525 35.0904 37.6642 35.1633 37.5481C35.3604 37.2345 35.6881 36.7767 36.7051 36.3517Z" fill="#14307E"/>
<path fill-rule="evenodd" clip-rule="evenodd" d="M51.3628 42.2124C50.4636 42.2124 49.7343 41.4851 49.7343 40.5899C49.7343 39.6948 50.4636 38.9675 51.3628 38.9675C52.2619 38.9675 52.9912 39.6948 52.9912 40.5899C52.9912 41.4851 52.2619 42.2124 51.3628 42.2124ZM52.5097 40.0525C52.5097 39.8207 52.3199 39.6329 52.0881 39.6329C51.8563 39.6329 51.6685 39.8207 51.6665 40.0525C51.6665 40.2842 51.8563 40.4721 52.0881 40.4721C52.3219 40.4721 52.5097 40.2842 52.5097 40.0525Z" fill="#14307E"/>
<path fill-rule="evenodd" clip-rule="evenodd" d="M40.5735 41.7128C40.5735 42.7578 39.7243 43.605 38.6753 43.605C37.6283 43.605 36.7772 42.7578 36.7772 41.7128C36.7772 40.6678 37.6283 39.8206 38.6753 39.8206C39.7223 39.8206 40.5735 40.6678 40.5735 41.7128ZM40.014 41.0854C40.014 40.8157 39.7942 40.5959 39.5225 40.5959C39.2528 40.5959 39.033 40.8137 39.031 41.0854C39.031 41.3551 39.2508 41.5749 39.5225 41.5749C39.7942 41.5749 40.014 41.3551 40.014 41.0854Z" fill="#14307E"/>
</g>
<path d="M61.4092 80.519C61.8758 80.829 62.0384 81.4505 61.7486 81.9299L59.4051 85.8058C58.9506 86.5576 59.609 87.4816 60.4643 87.2806C65.1751 86.1739 75.8642 83.5079 79.1278 81.3842C83.8397 78.9178 87 74.3722 87 69.1728C87 61.3449 79.8366 54.999 71 54.999C62.1634 54.999 55 61.3449 55 69.1728C55 73.8136 57.5177 77.9335 61.4092 80.519Z" fill="#63C853"/>
<path d="M92.5015 59C92.7989 59 93.0962 59.12 93.3236 59.3539C93.7785 59.8219 93.7785 60.5837 93.3236 61.0517L90.9913 63.4512C90.5364 63.9192 89.7959 63.9192 89.3411 63.4512C88.8863 62.9833 88.8863 62.2215 89.3411 61.7535L91.6735 59.3539C91.9009 59.12 92.1983 59 92.4957 59H92.5015Z" fill="#CCCCCC"/>
<path d="M91.3352 69.7982H94.8338C95.4752 69.7982 96 70.3381 96 70.998C96 71.6579 95.4752 72.1978 94.8338 72.1978H91.3352C90.6938 72.1978 90.169 71.6579 90.169 70.998C90.169 70.3381 90.6938 69.7982 91.3352 69.7982Z" fill="#CCCCCC"/>
<path d="M89.353 78.5518C89.5804 78.3178 89.8778 78.1978 90.1751 78.1978H90.181C90.4783 78.1978 90.7757 78.3178 91.0031 78.5518L93.3355 80.9513C93.7903 81.4193 93.7903 82.1811 93.3355 82.6491C92.8807 83.117 92.1402 83.117 91.6854 82.6491L89.353 80.2495C88.8982 79.7815 88.8982 79.0197 89.353 78.5518Z" fill="#CCCCCC"/>
<path d="M68.9971 71.8345C68.5791 71.2598 68.2917 70.3977 68.2917 69.3527C68.2917 66.5051 71.2177 66.0087 71.2177 65.1988C71.2177 64.8853 71.0087 64.6502 70.1988 64.6502C69.5196 64.6502 68.5791 65.0682 67.926 65.7475L65 62.3774C66.5152 60.7576 68.762 60 70.7997 60C74.3266 60 76.5472 61.6197 76.5472 64.2061C76.5472 67.8897 72.8374 68.1509 72.8374 69.9274C72.8374 70.3716 72.9942 70.7373 73.1248 70.894L68.9971 71.8345ZM70.9565 78C69.4412 78 68.1611 76.7199 68.1611 75.2046C68.1611 73.6894 69.4412 72.4093 70.9565 72.4093C72.4717 72.4093 73.7518 73.6894 73.7518 75.2046C73.7518 76.7199 72.4717 78 70.9565 78Z" fill="white"/>
</svg>
