<svg width="16" height="16" viewBox="0 0 16 16" fill="none" xmlns="http://www.w3.org/2000/svg">
<g id="DuckDuckGo-Dax-16">
<path id="Shape" fill-rule="evenodd" clip-rule="evenodd" d="M16 8C16 12.4198 12.4198 16 8 16C3.58017 16 0 12.4198 0 8C0 3.58017 3.58017 0 8 0C12.4198 0 16 3.58017 16 8ZM14 8C14 10.2379 12.7748 12.1897 10.9586 13.2211C11.0322 12.7556 10.9724 11.7203 10.5967 11.2732C10.5189 11.1799 9.72205 11.6852 9.24392 12.0429C9.14285 11.934 8.96404 11.8718 8.62584 11.9263C8.59407 11.9308 8.56495 11.9367 8.53694 11.9423C8.51696 11.9463 8.49754 11.9502 8.47813 11.9535C8.31098 11.4092 8.21379 10.9311 8.25267 10.6201C7.87949 10.4219 7.6307 10.1925 7.58406 10.1031C7.50242 9.95541 7.63848 9.88544 7.70845 9.92431C7.71234 9.9282 7.72011 9.93208 7.73177 9.93597C8.12439 10.1498 8.75412 10.383 9.60932 10.4258C9.71039 10.4297 9.81535 10.4335 9.92031 10.4335C11.3003 10.4219 12.105 9.88544 11.965 9.61721C11.899 9.49254 11.6125 9.52439 11.1838 9.57204H11.1838C10.7035 9.62542 10.0448 9.69864 9.31778 9.59389C8.29931 9.44617 8.19825 8.9797 8.32652 8.78145C8.52238 8.48131 8.88967 8.49739 9.41532 8.52042C9.693 8.53258 10.0149 8.54668 10.379 8.51712C11.4325 8.4316 12.0311 8.13617 12.3615 7.7591C12.5364 7.56085 12.6142 7.34705 12.5481 7.21877C12.4859 7.10604 12.311 7.06328 11.8134 7.25376C11.4674 7.38592 10.9465 7.55696 10.2507 7.63859C10.3712 6.86503 10.0097 4.06231 8.03109 3.63859C8.02332 3.63471 8.01554 3.63082 8.00777 3.62305C7.45789 2.92061 6.38998 2.56785 5.32113 2.62976C6.12746 2.22675 7.03725 2 8 2C11.3137 2 14 4.68629 14 8ZM9.73373 12.9496C9.73373 13.0738 10.4851 13.296 10.8074 13.304C10.3144 13.5655 9.78058 13.7603 9.21799 13.8763C9.18004 13.7892 9.14296 13.7033 9.10787 13.6211C8.89407 13.6872 8.59086 13.7183 8.37317 13.7261C8.20797 13.7261 8.07385 13.7183 8.00388 13.6211C7.86904 13.7361 7.6905 13.8634 7.50422 13.9798C7.20492 14.1668 6.88563 14.3259 6.69551 14.3613C6.63213 14.373 6.5831 14.3711 6.55395 14.3519C6.44085 14.2792 6.33007 14.0376 6.24376 13.7389L6.24374 13.7389C6.08088 13.1751 6.00514 12.4077 6.1652 12.1867C6.21963 12.109 6.32069 12.0701 6.44509 12.0584C6.32847 12.5366 6.60058 13.7183 6.75218 13.8388C6.8999 13.9554 7.95822 13.3257 7.91157 13.1779C7.81827 12.867 7.81827 12.5871 7.82994 12.4122C7.8727 12.3538 8.00388 12.2644 8.09329 12.2256C8.08551 12.2683 8.08163 12.315 8.08551 12.3694C8.08551 12.5521 8.10884 12.867 8.15549 13.003C8.21768 13.1702 8.28376 13.279 8.5792 13.2751C8.87852 13.2712 9.36054 13.2052 9.4344 13.073C9.50826 12.9408 9.41107 12.4044 9.34888 12.2333L9.31389 12.1517C9.31 12.1439 9.30612 12.1362 9.30223 12.1323H9.40622C9.56171 12.1673 9.69485 12.2333 9.73373 12.9496ZM2 8C2 10.4627 3.48373 12.5789 5.60604 13.5034C5.41271 12.7974 5.13662 11.756 4.78134 10.3325C3.99222 7.17212 3.40524 4.59486 6.36734 3.7902C6.39844 3.78242 6.4101 3.74744 6.38678 3.728C6.0447 3.41702 5.4655 3.3626 4.89795 3.47533C4.87074 3.47922 4.85131 3.45978 4.85131 3.43646C4.85131 3.42868 4.85131 3.42091 4.85908 3.41313C4.99514 3.22266 5.24003 3.07494 5.40719 2.98553C5.30201 2.89088 5.16522 2.82468 5.04243 2.77838C3.22565 3.80963 2 5.76168 2 8ZM15 8C15 11.866 11.866 15 8 15C4.13401 15 1 11.866 1 8C1 4.13401 4.13401 1 8 1C11.866 1 15 4.13401 15 8ZM9.65597 5.32178L9.64094 5.31508C9.53867 5.26939 9.4119 5.21276 9.19339 5.20905C8.96404 5.20516 8.82021 5.26347 8.72691 5.31401C8.69582 5.32956 8.64917 5.29846 8.66472 5.26736C8.74246 5.14297 8.9135 5.04579 9.19339 5.04579C9.47327 5.04579 9.60544 5.15852 9.69484 5.27902C9.71428 5.30235 9.68318 5.33344 9.65597 5.32178ZM9.86588 6.55793C9.86588 6.79506 9.67152 6.98942 9.43051 6.98942C9.1895 6.98942 8.99514 6.79506 8.99514 6.55793C8.99514 6.32081 9.1895 6.12645 9.43051 6.12645C9.67152 6.12645 9.86588 6.31692 9.86588 6.55793ZM6.04859 6.35191C6.32847 6.35191 6.55393 6.57737 6.55393 6.85725C6.55393 7.13714 6.32847 7.3626 6.04859 7.3626C5.7687 7.3626 5.54324 7.13714 5.54324 6.85725C5.53935 6.57737 5.7687 6.35191 6.04859 6.35191ZM5.51992 5.42674C5.24781 5.53947 5.16229 5.66386 5.10787 5.74549C5.08843 5.77659 5.01457 5.77271 5.01457 5.73772C5.01457 5.58223 5.1584 5.34511 5.46161 5.23238C5.80369 5.1041 6.06413 5.22071 6.18075 5.31789C6.20796 5.33733 6.18464 5.37232 6.15354 5.36454C6.00583 5.32956 5.79203 5.31401 5.51992 5.42674ZM9.73762 6.41408C9.73762 6.47628 9.68708 6.52681 9.62488 6.52681C9.56269 6.52681 9.51215 6.47628 9.51215 6.41408C9.51215 6.35189 9.56269 6.30135 9.62488 6.30135C9.68708 6.30135 9.73762 6.35189 9.73762 6.41408ZM6.40622 6.68619C6.40622 6.76005 6.34791 6.81836 6.27405 6.81836C6.20019 6.81836 6.14188 6.76005 6.14188 6.68619C6.14188 6.61233 6.20019 6.55402 6.27405 6.55402C6.34791 6.55402 6.40622 6.61233 6.40622 6.68619Z" fill="black" fill-opacity="0.84"/>
</g>
</svg>
