<svg width="96" height="64" viewBox="0 0 96 64" fill="none" xmlns="http://www.w3.org/2000/svg">
<g opacity="0.2">
<path d="M79.2214 24.65L80.3786 24.35C80.5929 24.3071 80.8072 24.0929 80.85 23.8786L81.15 22.7214C81.2357 22.4214 81.4929 22.25 81.75 22.25C82.05 22.25 82.3072 22.4643 82.35 22.7214L82.65 23.8786C82.6928 24.0929 82.9071 24.3071 83.1214 24.35L84.2786 24.65C84.5786 24.7357 84.75 24.9929 84.75 25.25C84.75 25.55 84.5357 25.8071 84.2786 25.85L83.1214 26.15C82.9071 26.1929 82.6928 26.4071 82.65 26.6214L82.35 27.7786C82.2643 28.0786 82.0071 28.25 81.75 28.25C81.45 28.25 81.1928 28.0357 81.15 27.7786L80.85 26.6214C80.8072 26.4071 80.5929 26.1929 80.3786 26.15L79.2214 25.85C78.9214 25.7643 78.75 25.5071 78.75 25.25C78.75 24.95 78.9643 24.6929 79.2214 24.65Z" fill="#888888"/>
<path d="M11.9571 19.85L13.6928 19.4C14.0143 19.3357 14.3357 19.0143 14.4 18.6929L14.85 16.9571C14.9786 16.5071 15.3643 16.25 15.75 16.25C16.2 16.25 16.5857 16.5714 16.65 16.9571L17.1 18.6929C17.1643 19.0143 17.4857 19.3357 17.8072 19.4L19.5429 19.85C19.9929 19.9786 20.25 20.3643 20.25 20.75C20.25 21.2 19.9286 21.5857 19.5429 21.65L17.8072 22.1C17.4857 22.1643 17.1643 22.4857 17.1 22.8071L16.65 24.5429C16.5214 24.9929 16.1357 25.25 15.75 25.25C15.3 25.25 14.9143 24.9286 14.85 24.5429L14.4 22.8071C14.3357 22.4857 14.0143 22.1643 13.6928 22.1L11.9571 21.65C11.5071 21.5214 11.25 21.1357 11.25 20.75C11.25 20.3 11.5714 19.9143 11.9571 19.85Z" fill="#888888"/>
<path d="M0.471418 35.9L1.62857 35.6C1.84285 35.5571 2.05715 35.3429 2.10001 35.1286L2.39999 33.9714C2.4857 33.6714 2.74286 33.5 3 33.5C3.3 33.5 3.55715 33.7143 3.60001 33.9714L3.89999 35.1286C3.94285 35.3429 4.15715 35.5571 4.37143 35.6L5.52858 35.9C5.82858 35.9857 6 36.2429 6 36.5C6 36.8 5.78572 37.0571 5.52858 37.1L4.37143 37.4C4.15715 37.4429 3.94285 37.6571 3.89999 37.8714L3.60001 39.0286C3.5143 39.3286 3.25714 39.5 3 39.5C2.7 39.5 2.44285 39.2857 2.39999 39.0286L2.10001 37.8714C2.05715 37.6571 1.84285 37.4429 1.62857 37.4L0.471418 37.1C0.171418 37.0143 0 36.7571 0 36.5C0 36.2 0.214275 35.9429 0.471418 35.9Z" fill="#888888"/>
<path d="M94.875 35C94.2562 35 93.75 34.4938 93.75 33.875C93.75 33.2562 94.2562 32.75 94.875 32.75C95.4938 32.75 96 33.2562 96 33.875C96 34.4938 95.4938 35 94.875 35Z" fill="#888888"/>
<path d="M17.25 48.5C16.425 48.5 15.75 47.825 15.75 47C15.75 46.175 16.425 45.5 17.25 45.5C18.075 45.5 18.75 46.175 18.75 47C18.75 47.825 18.075 48.5 17.25 48.5Z" fill="#888888"/>
</g>
<path d="M55 45L42 44.75V55.25L55 53V45Z" fill="#ABABAB"/>
<path d="M34 54.5C34 53.6716 34.6716 53 35.5 53H55V53.75C55 54.9926 53.9926 56 52.75 56H35.5C34.6716 56 34 55.3284 34 54.5Z" fill="#888888"/>
<path d="M26.25 10C26.25 8.89543 27.1454 8 28.25 8H70C71.1046 8 72 8.89543 72 10V24C72 25.1046 71.1046 26 70 26H28.25C27.1454 26 26.25 25.1046 26.25 24V10Z" fill="#888888"/>
<path d="M68.5954 8H25.4046C24.6289 8 24 8.68053 24 9.52V44.48C24 45.3195 24.6289 46 25.4046 46H55V32C55 28.6863 57.6863 26 61 26H70V9.52C70 8.68053 69.3711 8 68.5954 8Z" fill="#CCCCCC"/>
<path d="M66.9587 11H27.0413C26.4662 11 26 11.5117 26 12.1429V41.8571C26 42.4883 26.4662 43 27.0413 43H55V32C55 28.6863 57.6863 26 61 26H68V12.1429C68 11.5117 67.5338 11 66.9587 11Z" fill="#FFD65C"/>
<path d="M43.6392 32.4423C46.8598 34.0445 50.8076 32.8812 52.6499 29.7115L52.6568 29.7045C53.2663 28.6596 53.5641 27.5241 53.5988 26.3956C53.6126 25.7965 53.9935 25.281 54.5684 25.1277L56.8609 24.5217C57.2626 24.4172 57.6574 24.7028 57.6989 25.1208C57.7573 25.7341 57.766 26.3537 57.7232 26.973C56.0835 28.044 55 29.8955 55 32V33.5427C51.6718 37.3706 46.0886 38.4881 41.513 36.0369C41.2775 35.9115 40.9866 35.9881 40.855 36.218L39.9615 37.7575C39.7399 38.1337 39.1789 38.0571 39.0681 37.6321L37.5167 31.6272C37.4474 31.3695 37.5998 31.0978 37.863 31.0281L43.8124 29.4607C44.2349 29.3493 44.5811 29.809 44.3595 30.1852L43.4453 31.7526C43.3068 31.9964 43.3899 32.3169 43.6392 32.4423Z" fill="#F9BE1A"/>
<path d="M40.9112 23.0385C42.6853 19.8688 46.4869 18.7055 49.5882 20.3077C49.8282 20.4331 49.9083 20.7536 49.7749 20.9974L48.8945 22.5648C48.6811 22.941 49.0146 23.4007 49.4214 23.2893L55.1505 21.7219C55.4039 21.6522 55.5506 21.3805 55.4839 21.1228L53.99 15.1179C53.8833 14.6929 53.343 14.6163 53.1296 14.9925L52.2693 16.532C52.1426 16.7619 51.8624 16.8385 51.6357 16.7131C46.6269 13.9266 40.3643 15.7518 37.4631 20.9277C36.2826 23.0315 35.8424 25.3722 36.0492 27.6292C36.0892 28.0472 36.4694 28.3328 36.8562 28.2283L39.0638 27.6223C39.6173 27.469 39.9841 26.9535 39.9975 26.3544C40.0308 25.2259 40.3176 24.0904 40.9045 23.0455L40.9112 23.0385Z" fill="#F9BE1A"/>
<path d="M77.25 29H71.25C69.5931 29 68.25 30.3431 68.25 32V49.25V59C68.25 60.6569 69.5931 62 71.25 62H75.7895H77.25C78.9069 62 80.25 60.6569 80.25 59V32C80.25 30.3431 78.9069 29 77.25 29Z" fill="#666666"/>
<path d="M75 29H61C59.3431 29 58 30.3431 58 32V59C58 60.6569 59.3431 62 61 62H75C76.6569 62 78 60.6569 78 59V53.1154V32C78 30.3431 76.6569 29 75 29Z" fill="#888888"/>
<path fill-rule="evenodd" clip-rule="evenodd" d="M60.8211 60H75.1789C75.6337 60 76 59.6045 76 59.1212V31.8788C76 31.3955 75.6337 31 75.1789 31H73V31.875C73 32.4963 72.4963 33 71.875 33H64.125C63.5037 33 63 32.4963 63 31.875V31H60.8211C60.3663 31 60 31.3955 60 31.8788V59.1212C60 59.6045 60.3663 60 60.8211 60Z" fill="#FFD65C"/>
<path d="M70.7333 43.3162C69.9145 44.725 68.1599 45.242 66.7285 44.5299C66.6177 44.4742 66.5808 44.3318 66.6424 44.2234L67.0487 43.5268C67.1472 43.3596 66.9933 43.1552 66.8055 43.2048L64.1613 43.9014C64.0444 43.9324 63.9766 44.0531 64.0074 44.1677L64.6969 46.8365C64.7462 47.0254 64.9955 47.0594 65.094 46.8922L65.4911 46.208C65.5496 46.1058 65.6789 46.0718 65.7835 46.1275C68.0953 47.3659 70.9857 46.5548 72.3247 44.2544C72.8696 43.3193 73.0727 42.279 72.9773 41.2759C72.9588 41.0901 72.7834 40.9632 72.6048 41.0096L71.586 41.279C71.3305 41.3471 71.1612 41.5762 71.155 41.8425C71.1396 42.344 71.0072 42.8487 70.7364 43.3131L70.7333 43.3162Z" fill="#F9BE1A"/>
<path d="M65.2667 39.6838C66.0855 38.275 67.8401 37.758 69.2715 38.4701C69.3823 38.5258 69.4192 38.6682 69.3576 38.7766L68.9513 39.4732C68.8528 39.6404 69.0067 39.8448 69.1945 39.7952L71.8387 39.0986C71.9556 39.0676 72.0234 38.9469 71.9926 38.8323L71.3031 36.1635C71.2538 35.9746 71.0045 35.9406 70.906 36.1078L70.5089 36.792C70.4504 36.8942 70.3211 36.9282 70.2165 36.8725C67.9047 35.6341 65.0143 36.4452 63.6753 38.7456C63.1304 39.6807 62.9273 40.721 63.0227 41.7241C63.0412 41.9099 63.2166 42.0368 63.3952 41.9904L64.414 41.721C64.6695 41.6529 64.8388 41.4238 64.845 41.1575C64.8604 40.656 64.9928 40.1513 65.2636 39.6869L65.2667 39.6838Z" fill="#F9BE1A"/>
</svg>
