<svg width="24" height="25" viewBox="0 0 24 25" fill="none" xmlns="http://www.w3.org/2000/svg">
<g id="Icon">
<path id="Base" d="M2 6.48193C2 4.82508 3.34315 3.48193 5 3.48193L19 3.48193C20.6569 3.48193 22 4.82508 22 6.48193L22 18.4819C22 20.1388 20.6569 21.4819 19 21.4819L5 21.4819C3.34315 21.4819 2 20.1388 2 18.4819L2 6.48193Z" fill="#8FABF9"/>
<path id="Stroke" fill-rule="evenodd" clip-rule="evenodd" d="M19 4.81527L5 4.81527C4.07953 4.81527 3.33333 5.56146 3.33333 6.48193L3.33333 18.4819C3.33333 19.4024 4.07953 20.1486 5 20.1486L19 20.1486C19.9205 20.1486 20.6667 19.4024 20.6667 18.4819L20.6667 6.48193C20.6667 5.56146 19.9205 4.81527 19 4.81527ZM5 3.48193C3.34315 3.48193 2 4.82508 2 6.48193L2 18.4819C2 20.1388 3.34315 21.4819 5 21.4819L19 21.4819C20.6569 21.4819 22 20.1388 22 18.4819L22 6.48193C22 4.82508 20.6569 3.48193 19 3.48193L5 3.48193Z" fill="#2B55CA"/>
<path id="Dock" d="M3.33301 15.1486C3.33301 14.2281 4.0792 13.4819 4.99967 13.4819L18.9997 13.4819C19.9201 13.4819 20.6663 14.2281 20.6663 15.1486V18.4819C20.6663 19.4024 19.9201 20.1486 18.9997 20.1486H4.99968C4.0792 20.1486 3.33301 19.4024 3.33301 18.4819L3.33301 15.1486Z" fill="white" fill-opacity="0.84"/>
<path id="Notes" d="M4.33301 16.1484C4.33301 15.5962 4.78072 15.1484 5.33301 15.1484H7.33301C7.88529 15.1484 8.33301 15.5962 8.33301 16.1484V18.1484C8.33301 18.7007 7.88529 19.1484 7.33301 19.1484H5.33301C4.78072 19.1484 4.33301 18.7007 4.33301 18.1484V16.1484Z" fill="#E2A412"/>
<path id="Note Sheet" d="M4.33301 16.1484H8.33301V18.1484C8.33301 18.7007 7.88529 19.1484 7.33301 19.1484H5.33301C4.78072 19.1484 4.33301 18.7007 4.33301 18.1484V16.1484Z" fill="#F9BE1A"/>
<rect id="Facetime" x="15.667" y="15.1486" width="4" height="4" rx="1" fill="#399F29"/>
<rect id="Facetime Icon" x="16.666" y="16.1484" width="2" height="2" rx="0.5" fill="#7BD66D"/>
<rect id="DDG" x="9.66699" y="14.4819" width="4.66667" height="4.66667" rx="1" fill="#DE5833"/>
<rect id="DDG Icon" x="11" y="15.8153" width="2" height="2" rx="0.5" fill="#EB876C"/>
<g id="Attention Lines">
<path d="M16.4067 9.74142C16.667 10.0018 16.667 10.4239 16.4067 10.6842L15.4067 11.6842C15.1463 11.9446 14.7242 11.9446 14.4639 11.6842C14.2035 11.4239 14.2035 11.0018 14.4639 10.7414L15.4639 9.74142C15.7242 9.48107 16.1463 9.48107 16.4067 9.74142Z" fill="white" fill-opacity="0.84"/>
<path d="M11.9994 7.81543C12.3676 7.81543 12.6661 8.11391 12.6661 8.4821V10.1488C12.6661 10.517 12.3676 10.8154 11.9994 10.8154C11.6312 10.8154 11.3327 10.517 11.3327 10.1488V8.4821C11.3327 8.11391 11.6312 7.81543 11.9994 7.81543Z" fill="white" fill-opacity="0.84"/>
<path d="M8.51112 9.71756C8.25077 9.45721 7.82866 9.45721 7.56831 9.71756C7.30796 9.97791 7.30796 10.4 7.56831 10.6604L8.56831 11.6604C8.82866 11.9207 9.25077 11.9207 9.51112 11.6604C9.77147 11.4 9.77147 10.9779 9.51112 10.7176L8.51112 9.71756Z" fill="white" fill-opacity="0.84"/>
</g>
</g>
</svg>
