<svg width="172" height="22" viewBox="0 0 172 22" fill="none" xmlns="http://www.w3.org/2000/svg">
<path d="M151.745 12.2518V17.0889C150.161 18.4233 148.243 19.1738 146.158 19.1738C140.487 19.1738 137.901 15.0874 137.901 11.0843C137.901 6.9978 140.487 2.57771 146.074 2.57771C148.326 2.57771 150.411 3.41167 152.079 4.91283L152.162 4.99624L153.663 3.24488L153.58 3.1615C151.578 1.15996 148.91 0.15918 145.991 0.15918C142.822 0.15918 140.153 1.15996 138.235 3.1615C136.233 5.16305 135.149 7.99855 135.232 11.1677C135.232 16.0881 138.068 21.7592 146.074 21.7592H146.241C149.243 21.7592 152.079 20.5082 154.08 18.2565V10.0001H145.24V12.2518H151.745Z" fill="#333333"/>
<path fill-rule="evenodd" clip-rule="evenodd" d="M0.711914 0.49305H8.3011C15.4733 0.49305 18.7258 5.83049 18.7258 10.751C18.7258 16.005 15.5567 21.3425 8.3011 21.3425H0.711914V0.49305ZM8.3845 18.6737C13.722 18.6737 16.1405 14.6707 16.1405 10.6676C16.1405 6.99808 13.6386 3.07838 8.3011 3.07838H3.38064V18.6737H8.3845Z" fill="#333333"/>
<path d="M62.5933 6.66437H65.8458L58.9238 13.5864L66.513 21.0922V21.3424H63.5107L56.672 14.5038V21.3424H54.1701V0.576349H56.672V12.7524L62.5933 6.66437Z" fill="#333333"/>
<path d="M46.0804 19.174C47.5815 19.174 48.9159 18.6736 49.8332 17.7562L49.7499 17.5894L51.4178 19.2574L51.3344 19.3408C50 20.7585 48.0819 21.5091 46.0804 21.5091H45.997C42.1607 21.5091 38.3244 19.174 38.3244 13.9199C38.3244 9.41646 41.4101 6.33074 45.997 6.33074C47.9985 6.33074 49.7499 6.99792 51.251 8.41568L51.3344 8.49908L49.7499 10.167L49.6665 10.0836C48.6657 9.16626 47.4147 8.66586 46.0804 8.66586C43.078 8.66586 40.9097 10.8342 40.9097 13.9199C40.9097 17.5894 43.495 19.174 46.0804 19.174Z" fill="#333333"/>
<path d="M32.9034 14.5033C32.9034 17.172 31.0687 19.1736 28.4833 19.257C25.7312 19.257 24.0633 17.589 24.0633 14.7535V6.66394H21.5613V14.7535C21.5613 18.9234 24.0633 21.5921 27.983 21.5921H28.0664C29.9845 21.5921 31.7358 20.6748 32.9034 19.257L32.9868 19.0902L33.0702 21.3419H35.4053V6.66394H32.9034V14.5033Z" fill="#333333"/>
<path fill-rule="evenodd" clip-rule="evenodd" d="M68.848 0.49305H76.4371C83.6094 0.49305 86.8619 5.83049 86.8619 10.751C86.8619 16.005 83.6927 21.3425 76.4371 21.3425H68.848V0.49305ZM76.5205 18.6737C81.858 18.6737 84.2765 14.6707 84.2765 10.6676C84.2765 6.99808 81.7746 3.07838 76.5205 3.07838H71.6001V18.6737H76.5205Z" fill="#333333"/>
<path fill-rule="evenodd" clip-rule="evenodd" d="M164.255 6.33074C159.835 6.33074 156.666 9.58326 156.666 14.0033C156.666 18.4234 159.835 21.5925 164.255 21.5925C168.675 21.5925 171.928 18.4234 171.928 14.0033C171.928 9.49986 168.759 6.33074 164.255 6.33074ZM169.426 14.0033C169.426 17.0891 167.257 19.2574 164.255 19.2574C161.336 19.2574 159.168 17.0891 159.168 14.0033C159.168 10.8342 161.253 8.58249 164.338 8.58249C167.257 8.66588 169.426 10.9176 169.426 14.0033Z" fill="#333333"/>
<path d="M96.6194 19.257C99.2047 19.1736 101.039 17.172 101.039 14.5033H100.956V6.66394H103.458V21.3419H101.123L101.039 19.0902L100.956 19.257C99.7885 20.6748 98.0371 21.5921 96.119 21.5921H96.0356C92.1993 21.5921 89.6974 18.9234 89.6974 14.7535V6.66394H92.1993V14.7535C92.1993 17.589 93.8673 19.257 96.6194 19.257Z" fill="#333333"/>
<path d="M117.969 17.7562C117.052 18.6736 115.718 19.174 114.216 19.174C111.631 19.174 109.046 17.5894 109.046 13.9199C109.046 10.8342 111.214 8.66586 114.216 8.66586C115.551 8.66586 116.802 9.16626 117.802 10.0836L117.886 10.167L119.47 8.49908L119.387 8.41568C117.886 6.99792 116.135 6.33074 114.133 6.33074C109.546 6.33074 106.46 9.41646 106.46 13.9199C106.46 19.174 110.297 21.5091 114.133 21.5091H114.216C116.218 21.5091 118.136 20.7585 119.47 19.3408L119.554 19.2574L117.886 17.5894L117.969 17.7562Z" fill="#333333"/>
<path d="M130.729 6.66437H133.981L127.059 13.5864L134.649 21.0922V21.3424H131.646L124.808 14.5038V21.3424H122.306V0.576349H124.808V12.7524L130.729 6.66437Z" fill="#333333"/>
</svg>
