<svg width="48" height="48" viewBox="0 0 48 48" fill="none" xmlns="http://www.w3.org/2000/svg">
<g id="Image">
<rect id="background" x="8" y="8" width="32" height="32" rx="16" fill="#DE5833"/>
<path id="Head Shadow" fill-rule="evenodd" clip-rule="evenodd" d="M27.6052 38.3435C26.933 37.0366 26.2903 35.8342 25.8913 35.0388C24.8308 32.9152 23.7649 29.9212 24.2497 27.9903C24.338 27.6395 23.2508 14.9993 22.4822 14.5922C21.6279 14.1369 20.5768 13.4148 19.6154 13.2541C19.1276 13.176 18.488 13.213 17.988 13.2803C17.8992 13.2923 17.8955 13.452 17.9804 13.4808C18.3087 13.592 18.7072 13.7851 18.9421 14.077C18.9866 14.1323 18.9269 14.2192 18.856 14.2218C18.6346 14.23 18.2329 14.3228 17.703 14.773C17.6417 14.825 17.6926 14.9217 17.7715 14.9061C18.9104 14.6808 20.0736 14.7918 20.7591 15.4149C20.8036 15.4553 20.7803 15.5278 20.7223 15.5436C14.7736 17.1602 15.9512 22.3349 17.5348 28.6852C19.027 34.6686 19.7347 37.0285 19.82 37.3087C19.8257 37.3275 19.8362 37.342 19.8535 37.3514C21.0795 38.0243 27.5263 38.4328 27.2529 37.6624L27.6052 38.3435Z" fill="#DDDDDD"/>
<path id="Union" fill-rule="evenodd" clip-rule="evenodd" d="M38.75 24C38.75 32.1462 32.1462 38.75 24 38.75C15.8538 38.75 9.25 32.1462 9.25 24C9.25 15.8538 15.8538 9.25 24 9.25C32.1462 9.25 38.75 15.8538 38.75 24ZM20.5608 37.0398C20.1134 35.6496 18.9707 31.9777 17.8859 27.5312C17.8485 27.3776 17.811 27.2246 17.7738 27.0724L17.7728 27.0686C16.411 21.506 15.2986 16.9627 21.3949 15.5354C21.4507 15.5223 21.4779 15.4557 21.441 15.4119C20.7416 14.5821 19.4312 14.3102 17.7744 14.8818C17.7064 14.9052 17.6474 14.8367 17.6896 14.7785C18.0145 14.3307 18.6494 13.9863 18.9629 13.8354C19.0277 13.8042 19.0237 13.7093 18.9551 13.6878C18.7501 13.6237 18.401 13.5254 18.0083 13.4621C17.9154 13.4471 17.907 13.2879 18.0003 13.2753C20.3492 12.9593 22.802 13.6645 24.0329 15.215C24.0445 15.2296 24.0612 15.2398 24.0794 15.2437C28.5867 16.2116 28.9095 23.3367 28.3902 23.6612C28.2879 23.7252 27.9598 23.6885 27.5271 23.6401C25.7733 23.4439 22.3004 23.0553 25.1667 28.3971C25.195 28.4498 25.1575 28.5197 25.0984 28.5289C23.506 28.7764 25.5552 33.7922 27.0719 37.1309C33.0379 35.7407 37.4824 30.3894 37.4824 24C37.4824 16.5539 31.4461 10.5176 24 10.5176C16.5539 10.5176 10.5176 16.5539 10.5176 24C10.5176 30.2575 14.7806 35.5194 20.5608 37.0398Z" fill="white"/>
<path id="Bow Tie Shadow" d="M29.0916 30.703C28.7484 30.544 27.4291 31.4902 26.5534 32.2165C26.3704 31.9575 26.0254 31.7693 25.247 31.9047C24.5657 32.0231 24.1896 32.1874 24.0218 32.4706C22.9466 32.0629 21.1376 31.4337 20.7006 32.0414C20.2229 32.7056 20.82 35.8476 21.4544 36.2556C21.7857 36.4686 23.3702 35.4501 24.1976 34.7478C24.3311 34.9359 24.546 35.0435 24.9879 35.0333C25.6561 35.0178 26.7399 34.8623 26.9082 34.5511C26.9184 34.5322 26.9272 34.5098 26.9347 34.4844C27.7851 34.8022 29.282 35.1386 29.6164 35.0884C30.4878 34.9575 29.495 30.8899 29.0916 30.703Z" fill="#3CA82B"/>
<g id="Bow Tie">
<path d="M26.6337 32.3093C26.6698 32.3736 26.6988 32.4415 26.7235 32.5105C26.8447 32.8496 27.0423 33.9283 26.8929 34.1947C26.7435 34.4612 25.7733 34.5898 25.1748 34.6002C24.5763 34.6105 24.4415 34.3916 24.3203 34.0525C24.2233 33.7813 24.1755 33.1435 24.1767 32.7783C24.1522 32.2367 24.3501 32.0462 25.2648 31.8982C25.9418 31.7887 26.2997 31.9161 26.5062 32.1341C27.4673 31.4168 29.0708 30.4046 29.2272 30.5896C30.007 31.512 30.1056 33.7079 29.9367 34.5914C29.8815 34.8802 27.2993 34.3052 27.2993 33.9938C27.2993 32.7004 26.9637 32.3456 26.6337 32.3093Z" fill="#4CBA3C"/>
<path d="M20.9773 31.9054C21.1888 31.5707 22.9039 31.9869 23.8453 32.4059C23.8453 32.4059 23.6518 33.2824 23.9598 34.315C24.0499 34.617 21.7939 35.9614 21.4995 35.7301C21.1591 35.4628 20.5328 32.6089 20.9773 31.9054Z" fill="#4CBA3C"/>
</g>
<path id="Beak" fill-rule="evenodd" clip-rule="evenodd" d="M21.808 25.1063C21.9467 24.5029 22.5931 23.3659 24.9014 23.3935C26.0683 23.3887 27.5178 23.393 28.4789 23.2839C29.9072 23.1216 30.9675 22.7761 31.674 22.5068C32.6731 22.1256 33.0277 22.2106 33.152 22.4387C33.2886 22.6893 33.1277 23.1221 32.7785 23.5205C32.1117 24.2814 30.9128 24.8711 28.7955 25.0461C26.6781 25.2211 25.2754 24.6531 24.6715 25.5778C24.4111 25.9766 24.6125 26.9166 26.6601 27.2126C29.427 27.6119 31.6995 26.7314 31.9803 27.2632C32.2611 27.795 30.6436 28.8769 27.8722 28.8996C25.1008 28.9222 23.3697 27.9292 22.7558 27.4356C21.9769 26.8094 21.6284 25.8961 21.808 25.1063Z" fill="#FFCC33"/>
<g id="Eyes" opacity="0.8">
<path d="M25.3374 18.5086C25.492 18.2554 25.8348 18.0601 26.3958 18.0601C26.9568 18.0601 27.2207 18.2833 27.4034 18.5322C27.4406 18.5829 27.3843 18.6425 27.3266 18.6175C27.3128 18.6115 27.2987 18.6054 27.2844 18.5992C27.0793 18.5096 26.8274 18.3995 26.3958 18.3934C25.9342 18.3868 25.6432 18.5024 25.4599 18.6021C25.3981 18.6356 25.3008 18.5686 25.3374 18.5086Z" fill="#14307E"/>
<path d="M19.0216 18.8324C19.5664 18.6048 19.9945 18.6342 20.2971 18.7058C20.3609 18.7209 20.4051 18.6523 20.3542 18.6112C20.1193 18.4217 19.5935 18.1865 18.9078 18.4422C18.2961 18.6703 18.0078 19.1441 18.0061 19.4557C18.0057 19.5291 18.1568 19.5354 18.1958 19.4732C18.3014 19.3053 18.4769 19.0601 19.0216 18.8324Z" fill="#14307E"/>
<path fill-rule="evenodd" clip-rule="evenodd" d="M26.8723 21.9714C26.3907 21.9714 26.0001 21.5819 26.0001 21.1024C26.0001 20.623 26.3907 20.2334 26.8723 20.2334C27.3539 20.2334 27.7445 20.623 27.7445 21.1024C27.7445 21.5819 27.3539 21.9714 26.8723 21.9714ZM27.4866 20.8145C27.4866 20.6904 27.3849 20.5898 27.2608 20.5898C27.1366 20.5898 27.036 20.6904 27.035 20.8145C27.035 20.9387 27.1366 21.0393 27.2608 21.0393C27.386 21.0393 27.4866 20.9387 27.4866 20.8145Z" fill="#14307E"/>
<path fill-rule="evenodd" clip-rule="evenodd" d="M21.0935 21.7038C21.0935 22.2635 20.6387 22.7173 20.0769 22.7173C19.5161 22.7173 19.0602 22.2635 19.0602 21.7038C19.0602 21.1441 19.5161 20.6904 20.0769 20.6904C20.6376 20.6904 21.0935 21.1441 21.0935 21.7038ZM20.7939 21.3678C20.7939 21.2233 20.6762 21.1056 20.5306 21.1056C20.3862 21.1056 20.2684 21.2223 20.2674 21.3678C20.2674 21.5123 20.3851 21.63 20.5306 21.63C20.6762 21.63 20.7939 21.5123 20.7939 21.3678Z" fill="#14307E"/>
</g>
</g>
</svg>
