<svg width="16" height="17" viewBox="0 0 16 17" fill="none" xmlns="http://www.w3.org/2000/svg">
<g id="Icon">
<path id="Shape" d="M11.4419 5.92388C11.686 5.6798 11.686 5.28407 11.4419 5.03999C11.1979 4.79591 10.8021 4.79591 10.5581 5.03999L8 7.59805L5.44194 5.03999C5.19786 4.79591 4.80214 4.79591 4.55806 5.03999C4.31398 5.28407 4.31398 5.6798 4.55806 5.92388L7.11612 8.48193L4.55806 11.04C4.31398 11.2841 4.31398 11.6798 4.55806 11.9239C4.80214 12.168 5.19786 12.168 5.44194 11.9239L8 9.36582L10.5581 11.9239C10.8021 12.168 11.1979 12.168 11.4419 11.9239C11.686 11.6798 11.686 11.2841 11.4419 11.04L8.88388 8.48193L11.4419 5.92388Z" fill="white" fill-opacity="0.84"/>
</g>
</svg>
