<svg width="96" height="64" viewBox="0 0 96 64" fill="none" xmlns="http://www.w3.org/2000/svg">
<path opacity="0.2" d="M79.2214 24.65L80.3786 24.35C80.5929 24.3071 80.8072 24.0929 80.85 23.8786L81.15 22.7214C81.2357 22.4214 81.4929 22.25 81.75 22.25C82.05 22.25 82.3072 22.4643 82.35 22.7214L82.65 23.8786C82.6928 24.0929 82.9071 24.3071 83.1214 24.35L84.2786 24.65C84.5786 24.7357 84.75 24.9929 84.75 25.25C84.75 25.55 84.5357 25.8071 84.2786 25.85L83.1214 26.15C82.9071 26.1929 82.6928 26.4071 82.65 26.6214L82.35 27.7786C82.2643 28.0786 82.0071 28.25 81.75 28.25C81.45 28.25 81.1928 28.0357 81.15 27.7786L80.85 26.6214C80.8072 26.4071 80.5929 26.1929 80.3786 26.15L79.2214 25.85C78.9214 25.7643 78.75 25.5071 78.75 25.25C78.75 24.95 78.9643 24.6929 79.2214 24.65Z" fill="#888888"/>
<path opacity="0.2" d="M11.9571 19.85L13.6928 19.4C14.0143 19.3357 14.3357 19.0143 14.4 18.6929L14.85 16.9571C14.9786 16.5071 15.3643 16.25 15.75 16.25C16.2 16.25 16.5857 16.5714 16.65 16.9571L17.1 18.6929C17.1643 19.0143 17.4857 19.3357 17.8072 19.4L19.5429 19.85C19.9929 19.9786 20.25 20.3643 20.25 20.75C20.25 21.2 19.9286 21.5857 19.5429 21.65L17.8072 22.1C17.4857 22.1643 17.1643 22.4857 17.1 22.8071L16.65 24.5429C16.5214 24.9929 16.1357 25.25 15.75 25.25C15.3 25.25 14.9143 24.9286 14.85 24.5429L14.4 22.8071C14.3357 22.4857 14.0143 22.1643 13.6928 22.1L11.9571 21.65C11.5071 21.5214 11.25 21.1357 11.25 20.75C11.25 20.3 11.5714 19.9143 11.9571 19.85Z" fill="#888888"/>
<path opacity="0.2" d="M0.471418 35.9L1.62857 35.6C1.84285 35.5571 2.05715 35.3429 2.10001 35.1286L2.39999 33.9714C2.4857 33.6714 2.74286 33.5 3 33.5C3.3 33.5 3.55715 33.7143 3.60001 33.9714L3.89999 35.1286C3.94285 35.3429 4.15715 35.5571 4.37143 35.6L5.52858 35.9C5.82858 35.9857 6 36.2429 6 36.5C6 36.8 5.78572 37.0571 5.52858 37.1L4.37143 37.4C4.15715 37.4429 3.94285 37.6571 3.89999 37.8714L3.60001 39.0286C3.5143 39.3286 3.25714 39.5 3 39.5C2.7 39.5 2.44285 39.2857 2.39999 39.0286L2.10001 37.8714C2.05715 37.6571 1.84285 37.4429 1.62857 37.4L0.471418 37.1C0.171418 37.0143 0 36.7571 0 36.5C0 36.2 0.214275 35.9429 0.471418 35.9Z" fill="#888888"/>
<path opacity="0.2" d="M94.875 35C94.2562 35 93.75 34.4937 93.75 33.875C93.75 33.2562 94.2562 32.75 94.875 32.75C95.4937 32.75 96 33.2562 96 33.875C96 34.4937 95.4937 35 94.875 35Z" fill="#888888"/>
<path opacity="0.2" d="M17.25 48.5C16.425 48.5 15.75 47.825 15.75 47C15.75 46.175 16.425 45.5 17.25 45.5C18.075 45.5 18.75 46.175 18.75 47C18.75 47.825 18.075 48.5 17.25 48.5Z" fill="#888888"/>
<path d="M35.3261 23.963C39.0562 17.8585 47.0493 15.618 53.57 18.7037C54.0748 18.9452 54.2431 19.5624 53.9626 20.032L52.1116 23.0507C51.6629 23.7752 52.364 24.6607 53.2194 24.446L65.2651 21.4273C65.798 21.2931 66.1065 20.7699 65.9662 20.2735L62.8251 8.70848C62.6007 7.89007 61.4649 7.7425 61.0161 8.46699L59.2072 11.432C58.9408 11.8748 58.3518 12.0224 57.875 11.7809C47.3438 6.41427 34.1762 9.92937 28.0763 19.8978C25.5942 23.9496 24.6687 28.4575 25.1034 32.8045C25.1875 33.6095 25.9868 34.1595 26.8002 33.9583L31.4418 32.791C32.6057 32.4959 33.3769 31.5031 33.405 30.3493C33.4751 28.1758 34.0781 25.9889 35.3121 23.9764L35.3261 23.963Z" fill="#3969EF"/>
<path d="M50.3934 45.5725C47.1068 46.316 43.5562 46.0004 40.3396 44.4729C39.7978 44.2128 39.6172 43.5482 39.9182 43.0425L41.9046 39.7916C42.3862 39.0113 41.6338 38.0578 40.7158 38.2889L27.7887 41.5398C27.2168 41.6843 26.8858 42.2478 27.0362 42.7824L30.4072 55.237C30.648 56.1184 31.867 56.2773 32.3485 55.4971L34.2898 52.304C34.5758 51.8272 35.2078 51.6682 35.7195 51.9283C39.4167 53.8189 43.4167 54.686 47.3548 54.621C48.8695 54.596 50 53.2986 50 51.7837V49C50 47.8208 50.1361 46.6733 50.3934 45.5725Z" fill="#DE5833"/>
<path d="M68.179 34C69.7065 34 71.0124 32.8502 70.9992 31.3228C70.9933 30.6421 70.9563 29.963 70.889 29.2875C70.7987 28.4206 69.941 27.8282 69.0681 28.0449L64.0869 29.302C62.8378 29.6198 62.0101 30.689 61.98 31.9316C61.9539 32.7442 61.8589 33.5586 61.6904 34.3663C62.7552 34.1265 63.8628 34 65 34H68.179Z" fill="#DE5833"/>
<path d="M65 61C71.6274 61 77 55.6274 77 49C77 42.3726 71.6274 37 65 37C58.3726 37 53 42.3726 53 49C53 55.6274 58.3726 61 65 61Z" fill="#21C000"/>
<path d="M71.6635 46.9834C72.0538 46.593 72.0538 45.9601 71.6635 45.5698L70.2692 44.1756C69.8789 43.7852 69.246 43.7852 68.8556 44.1756L63.9516 49.0796C63.5612 49.47 62.9284 49.47 62.538 49.0796L61.1436 47.6853C60.7533 47.295 60.1204 47.295 59.73 47.6853L58.3358 49.0796C57.9454 49.4699 57.9454 50.1028 58.3358 50.4932L62.538 54.6953C62.9284 55.0856 63.5612 55.0856 63.9516 54.6953L71.6635 46.9834Z" fill="white"/>
<path d="M81.3239 40.0391C81.5535 40.0391 81.7831 40.1291 81.9587 40.3047C82.3099 40.6559 82.3099 41.2277 81.9587 41.5789L80.1577 43.3799C79.8065 43.7311 79.2347 43.7311 78.8835 43.3799C78.5323 43.0288 78.5323 42.4569 78.8835 42.1057L80.6845 40.3047C80.8601 40.1291 81.0898 40.0391 81.3194 40.0391H81.3239Z" fill="#CCCCCC"/>
<path d="M80.4233 48.1437H83.1249C83.6201 48.1437 84.0254 48.5489 84.0254 49.0442C84.0254 49.5395 83.6201 49.9447 83.1249 49.9447H80.4233C79.9281 49.9447 79.5228 49.5395 79.5228 49.0442C79.5228 48.5489 79.9281 48.1437 80.4233 48.1437Z" fill="#CCCCCC"/>
<path d="M78.8927 54.7136C79.0683 54.538 79.2979 54.448 79.5275 54.448H79.532C79.7617 54.448 79.9913 54.538 80.1669 54.7136L81.9679 56.5147C82.3191 56.8659 82.3191 57.4377 81.9679 57.7889C81.6167 58.1401 81.0449 58.1401 80.6937 57.7889L78.8927 55.9879C78.5415 55.6367 78.5415 55.0648 78.8927 54.7136Z" fill="#CCCCCC"/>
</svg>
