<svg width="96" height="64" viewBox="0 0 96 64" fill="none" xmlns="http://www.w3.org/2000/svg">
<g clip-path="url(#clip0_8855_93405)">
<g clip-path="url(#clip1_8855_93405)">
<path d="M44.8947 8.49364C38.9449 8.49364 34.0745 13.1443 33.7146 18.9993L33.7023 18.9993C33.6992 20.4611 32.5132 21.6453 31.0506 21.6453C29.5861 21.6453 28.3988 20.458 28.3988 18.9935C28.3988 18.8347 28.4128 18.6791 28.4396 18.5279C29.0387 9.97586 36.1697 3.20705 44.8796 3.19922L45.341 3.19922C54.4412 3.19922 61.8369 10.5855 61.8369 19.6951L61.8369 29.2024C61.8369 31.7082 59.8046 33.7405 57.2988 33.7405L32.9369 33.7405C30.4311 33.7405 28.3988 31.7082 28.3988 29.2024L28.3988 28.9993L37.0004 28.9993L37.0004 28.446L56.5425 28.446L56.5425 19.6951C56.5425 13.5114 51.519 8.49364 45.341 8.49364L44.8947 8.49364Z" fill="#CBCBCB"/>
<path d="M25.9177 8.78124C26.7531 8.78124 27.4304 8.10399 27.4304 7.26855C27.4304 6.43311 26.7531 5.75586 25.9177 5.75586C25.0822 5.75586 24.405 6.43311 24.405 7.26855C24.405 8.10399 25.0822 8.78124 25.9177 8.78124Z" fill="#DDDDDD"/>
<path fill-rule="evenodd" clip-rule="evenodd" d="M65.823 34.2461C59.0935 35.502 53.9997 41.4059 53.9997 48.4995C53.9997 52.3373 55.4907 55.8269 57.925 58.4205L46.6345 60.894C45.6285 61.1133 44.5848 61.1133 43.5788 60.894L28.9057 57.6795C26.2661 57.1047 24.3903 54.7676 24.3903 52.0674L24.3903 32.9999C24.3903 30.2468 26.6216 28.0156 29.3747 28.0156L60.8386 28.0156C63.5917 28.0156 65.823 30.2468 65.823 32.9999L65.823 34.2461Z" fill="#DDDDDD"/>
<path fill-rule="evenodd" clip-rule="evenodd" d="M45.1071 28.0154L60.8391 28.0154L60.8391 28.0078C63.5922 28.0078 65.8234 30.239 65.8234 32.9921L65.8234 34.246C59.0938 35.5017 53.9997 41.4057 53.9997 48.4995C53.9997 52.3342 55.4882 55.8211 57.919 58.4141L46.6349 60.8862C46.1282 60.9996 45.6214 61.0526 45.1071 61.0526L45.1071 28.0154Z" fill="#CBCBCB"/>
<path d="M50.0908 40.1323C50.0908 37.7952 48.1999 35.9043 45.8628 35.9043C43.5257 35.9043 41.6348 37.7952 41.6348 40.1323C41.6348 41.6903 42.4744 43.0442 43.7299 43.7779L42.0735 50.2673L49.6521 50.2673L47.9957 43.7779C49.2437 43.0442 50.0908 41.6903 50.0908 40.1323Z" fill="#888888"/>
<path d="M23.6491 20.1269C24.4845 20.1269 25.1618 19.4497 25.1618 18.6143C25.1618 17.7788 24.4845 17.1016 23.6491 17.1016C22.8137 17.1016 22.1364 17.7788 22.1364 18.6143C22.1364 19.4497 22.8137 20.1269 23.6491 20.1269Z" fill="#DDDDDD"/>
<path d="M20.962 12.5346L18.7518 13.185C18.5771 13.2411 18.4229 13.3869 18.3715 13.5775L17.6211 15.9325C17.436 16.5044 16.6959 16.4708 16.552 15.8876L15.9557 13.4766C15.9043 13.2859 15.7707 13.1177 15.596 13.0617L13.4372 12.243C12.9129 12.0412 12.9438 11.2337 13.4783 11.0767L15.6885 10.4263C15.8632 10.3702 16.0174 10.2244 16.0688 10.0338L16.8193 7.6788C17.0043 7.10687 17.7444 7.14052 17.8883 7.72366L18.4846 10.1347C18.536 10.3254 18.6696 10.4936 18.8444 10.5497L21.0031 11.3683C21.5274 11.5702 21.4965 12.3776 20.962 12.5346Z" fill="#DDDDDD"/>
</g>
<path d="M68.5 60C74.8513 60 80 54.8513 80 48.5C80 42.1487 74.8513 37 68.5 37C62.1487 37 57 42.1487 57 48.5C57 54.8513 62.1487 60 68.5 60Z" fill="#4CBA3C"/>
<path d="M85.9239 47.3945L88.6255 47.3945C89.1207 47.3945 89.526 47.7998 89.526 48.295C89.526 48.7903 89.1207 49.1955 88.6255 49.1955L85.9239 49.1955C85.4287 49.1955 85.0234 48.7903 85.0234 48.295C85.0234 47.7998 85.4287 47.3945 85.9239 47.3945Z" fill="#CCCCCC"/>
<path d="M86.8244 39.2891C87.054 39.2891 87.2836 39.3791 87.4592 39.5547C87.8104 39.9059 87.8104 40.4777 87.4592 40.8289L85.6582 42.6299C85.307 42.9811 84.7352 42.9811 84.384 42.6299C84.0328 42.2788 84.0328 41.7069 84.384 41.3557L86.185 39.5547C86.3606 39.3791 86.5902 39.2891 86.8199 39.2891L86.8244 39.2891Z" fill="#CCCCCC"/>
<path d="M85.0282 53.6973C84.7985 53.6973 84.5689 53.7873 84.3933 53.9629C84.0421 54.3141 84.0421 54.8859 84.3933 55.2371L86.1943 57.0382C86.5455 57.3894 87.1173 57.3894 87.4685 57.0382C87.8197 56.687 87.8197 56.1151 87.4685 55.7639L85.6675 53.9629C85.4919 53.7873 85.2623 53.6973 85.0327 53.6973L85.0282 53.6973Z" fill="#CCCCCC"/>
<path d="M75.1421 46.5354C75.5327 46.1449 75.5327 45.5117 75.1421 45.1212L73.7279 43.707C73.3374 43.3164 72.7042 43.3164 72.3137 43.707L67.3639 48.6567C66.9734 49.0472 66.3403 49.0472 65.9497 48.6567L64.5354 47.2425C64.1448 46.8519 63.5117 46.852 63.1212 47.2425L61.707 48.6567C61.3164 49.0472 61.3164 49.6804 61.707 50.0709L65.9497 54.3136C66.3403 54.7041 66.9734 54.7041 67.3639 54.3136L75.1421 46.5354Z" fill="white"/>
</g>
<defs>
<clipPath id="clip0_8855_93405">
<rect width="96" height="64" fill="white" transform="matrix(1 0 0 -1 0 64)"/>
</clipPath>
<clipPath id="clip1_8855_93405">
<rect width="96" height="64" fill="white" transform="matrix(-1 8.74228e-08 8.74228e-08 1 96 0)"/>
</clipPath>
</defs>
</svg>
