<svg fill="none" viewBox="0 0 16 16" xmlns="http://www.w3.org/2000/svg">
  <path fill="#8FABF9" d="M3.113.75h5.774a1.5 1.5 0 0 1 1.5 1.5v1.016a5.002 5.002 0 0 0 0 9.468v1.656a.5.5 0 0 1-.747.434l-3.392-1.933a.5.5 0 0 0-.496 0L2.36 14.824a.5.5 0 0 1-.747-.434V2.25a1.5 1.5 0 0 1 1.5-1.5Z"/>
  <path fill="#fff" d="M16 8a4 4 0 1 1-8 0 4 4 0 0 1 8 0Z"/>
  <path fill="#888" fill-rule="evenodd" d="M12 11a3 3 0 1 0 0-6 3 3 0 0 0 0 6Zm0 1a4 4 0 1 0 0-8 4 4 0 0 0 0 8Z" clip-rule="evenodd"/>
  <path fill="#3969EF" fill-rule="evenodd" d="M12 6a.5.5 0 0 1 .5.5v1.932l.68-.566a.5.5 0 0 1 .64.768l-1.5 1.25a.5.5 0 0 1-.64 0l-1.5-1.25a.5.5 0 0 1 .64-.768l.68.566V6.5A.5.5 0 0 1 12 6Z" clip-rule="evenodd"/>
  <path fill="#2B55CA" d="M3 0a2 2 0 0 0-2 2v12.61a1 1 0 0 0 1.52.854L6 13.346l3.48 2.118A1 1 0 0 0 11 14.61V12.9a4.964 4.964 0 0 1-1-.316v2.026l-3.48-2.118a1 1 0 0 0-1.04 0L2 14.61V2a1 1 0 0 1 1-1h6a1 1 0 0 1 1 1v1.416a4.962 4.962 0 0 1 1-.316V2a2 2 0 0 0-2-2H3Z"/>
</svg>
