<svg xmlns="http://www.w3.org/2000/svg" viewBox="0 0 160 160">
  <defs>
    <style>
      .d{fill:#565656}
    </style>
  </defs>
  <path d="M80.73 160.4a80 80 0 1 0-80-80 80 80 0 0 0 80 80z" fill-rule="evenodd" fill="#de5833"/>
  <path d="M98.68 151.82c-3.35-6.51-6.54-12.5-8.55-16.46-5.28-10.57-10.59-25.48-8.16-35.09.44-1.75-5-64.68-8.8-66.71-4.26-2.26-9.49-5.86-14.28-6.66a30.79 30.79 0 0 0-8.13.13c-.43.06-.45.85 0 1a10.64 10.64 0 0 1 4.81 3c.23.28-.07.7-.42.72-1.1 0-3.11.49-5.76 2.75a.39.39 0 0 0 .34.66c5.67-1.13 11.48-.58 14.89 2.53a.39.39 0 0 1 0 .55.29.29 0 0 1-.16.09c-55.93 15.2 8 93.68-4.81 109.76a.4.4 0 0 0 0 .55h.06c6.79 3.2 38.56 3.56 37.22-.21z" fill="#ddd" fill-rule="evenodd"/>
  <path d="M61.52 144.7a.4.4 0 0 1 0-.24c2.24-10.08-2.72-24.56-7.91-39.65-9.67-28.17-20.08-58.5 14.16-66.55a.4.4 0 0 0 .31-.46.41.41 0 0 0-.07-.15c-3.5-4.14-10-5.49-18.27-2.64a.34.34 0 0 1-.45-.17.35.35 0 0 1 0-.34c1.62-2.24 4.79-4 6.35-4.71a.39.39 0 0 0 0-.73 35.41 35.41 0 0 0-4.76-1.13c-.46-.07-.5-.86 0-.92 11.7-1.58 23.92 1.94 30.06 9.64a.43.43 0 0 0 .26.15c27.11 3.53 26.22 40.14 26 44.5a.37.37 0 0 1-.41.35C103 81.1 76.77 77.88 88 102.25a.49.49 0 0 1-.27.62h-.08C80.44 104.23 90.32 129.8 99 145a67.08 67.08 0 1 0-37.5-.27zm92.54-64.3A73.33 73.33 0 1 1 80.73 7.07a73.34 73.34 0 0 1 73.33 73.33z" fill="#fff" fill-rule="evenodd"/>
  <path class="d" d="M63.86 54.83a8 8 0 0 0 .85.19A.92.92 0 0 0 65 55a.4.4 0 0 0 .27-.19.34.34 0 0 0 0-.28.55.55 0 0 0-.12-.24 2.58 2.58 0 0 0-.49-.5 7.15 7.15 0 0 0-1.87-1 7.69 7.69 0 0 0-5.81 0 6.18 6.18 0 0 0-3.53 4.17 6.27 6.27 0 0 0-.21 2 2.64 2.64 0 0 0 .14.69 1.15 1.15 0 0 0 .12.25.47.47 0 0 0 .21.16.37.37 0 0 0 .31 0 .72.72 0 0 0 .18-.21 3.41 3.41 0 0 0 .24-.6 6.45 6.45 0 0 1 3.27-4 8 8 0 0 1 6.15-.42z"/>
  <path class="d" d="M98.72 54.76a6.42 6.42 0 0 0 .65.41.88.88 0 0 0 .27.1.36.36 0 0 0 .3-.08.35.35 0 0 0 .12-.24 1 1 0 0 0 0-.24 2.18 2.18 0 0 0-.25-.56 6.35 6.35 0 0 0-1.22-1.41A6.67 6.67 0 0 0 93.81 51a5.62 5.62 0 0 0-4.93 3.94 2.51 2.51 0 0 0-.1.61 1 1 0 0 0 0 .24.42.42 0 0 0 .13.21.35.35 0 0 0 .28.07.39.39 0 0 0 .22-.11 2.66 2.66 0 0 0 .39-.43 5.61 5.61 0 0 1 3.85-2.28 6.89 6.89 0 0 1 5.07 1.51z"/>
  <path class="d" d="M97.45 61.83a4.53 4.53 0 1 0 4.55 4.53 4.53 4.53 0 0 0-4.53-4.53zm1.55 4.4a.92.92 0 0 1-.92-.92.93.93 0 1 1 1.85 0 .92.92 0 0 1-.92.92z"/>
  <path class="d" d="M63.69 64.11a5.25 5.25 0 1 0 5.25 5.25 5.25 5.25 0 0 0-5.25-5.25zm1.86 5.06a1.12 1.12 0 1 1 1.12-1.12 1.12 1.12 0 0 1-1.12 1.12z"/>
  <path d="M74.08 88.15c.52-3 3.42-8.87 14.88-9.36 5.78-.35 13-.72 17.71-1.53a63.36 63.36 0 0 0 15.64-4.74c10.19-4.54 11.22.53 8.12 4.5s-11.25 7.47-21.7 8.92-17.57-1-20.31 3.77c-1.19 2.05.07 6.67 10.3 7.58 13.84 1.23 25.51-5.41 28-1.2s-7.81 8.38-21.55 9.26-22.6-3.6-25.78-5.88c-4.01-2.9-5.99-7.35-5.31-11.32z" fill="#fc3" fill-rule="evenodd"/>
  <path d="M107.65 114.42c-1.7-.78-8.2 3.89-12.51 7.46-.91-1.27-2.61-2.2-6.44-1.55-3.36.58-5.22 1.39-6 2.79-5.3-2-14.22-5.11-16.38-2.12-2.35 3.28.59 18.76 3.72 20.77 1.63 1 9.44-4 13.52-7.43.66.93 1.72 1.46 3.89 1.41 3.29-.08 8.63-.85 9.46-2.38A1.2 1.2 0 0 0 97 133c4.19 1.56 11.57 3.23 13.22 3 4.31-.61-.58-20.66-2.57-21.58z" fill="#399f29" fill-rule="evenodd"/>
  <path d="M95.53 122.34a7.28 7.28 0 0 1 .44 1c.6 1.68 1.56 7 .84 8.3s-5.52 2-8.47 2-3.61-1-4.21-2.7a24.71 24.71 0 0 1-.71-6.28c-.12-2.67.86-3.6 5.36-4.34 3.34-.54 5.1.09 6.12 1.17 4.74-3.53 12.64-8.52 13.41-7.61 3.85 4.54 4.33 15.37 3.5 19.72-.27 1.43-13-1.41-13-2.94-.02-6.39-1.65-8.14-3.28-8.32zm-27.88-2c1-1.65 9.5.39 14.14 2.47a20.66 20.66 0 0 0 .56 9.41c.44 1.49-10.67 8.11-12.13 7-1.68-1.34-4.76-15.4-2.57-18.86z" fill="#4cba3c" fill-rule="evenodd"/>
</svg>
