<svg width="17" height="16" viewBox="0 0 17 16" fill="none" xmlns="http://www.w3.org/2000/svg">
<g id="Identity-Theft-Restoration-Multicolor-16" clip-path="url(#clip0_2211_14734)">
<path id="Subtract" d="M3.16667 1C1.69391 1 0.5 2.19391 0.5 3.66667V12.3333C0.5 13.8061 1.69391 15 3.16667 15H6.72041C7.18558 15 7.5 14.4652 7.5 14C7.5 13.3423 7.81752 12.7587 8.30764 12.3942C8.12681 12.1528 8.01294 11.8545 8.01294 11.5001C8.01294 10.6023 8.74366 10.0643 9.44236 9.90125C9.70994 9.83881 10.306 9.76123 10.8935 9.6929C10.9038 9.61688 10.9136 9.54056 10.9234 9.46409C10.9708 9.0956 11.0186 8.72369 11.1144 8.36635C11.3096 7.6375 11.8916 6.98392 12.7644 7.01302C13.5625 7.03963 14.1278 7.63485 14.3613 8.28875C14.4884 8.64457 14.5349 9.03779 14.5798 9.41822C14.5908 9.51107 14.6017 9.60315 14.6136 9.69375C14.8809 9.72486 15.1608 9.74604 15.4389 9.7816C15.9471 9.84659 16.5 9.46672 16.5 8.95436V3.66667C16.5 2.19391 15.3061 1 13.8333 1H3.16667Z" fill="#FFCC33"/>
<g id="Subtract_2">
<path fill-rule="evenodd" clip-rule="evenodd" d="M3.16667 1C1.69391 1 0.5 2.19391 0.5 3.66667V12.3333C0.5 13.8061 1.69391 15 3.16667 15H6.72041C7.18558 15 7.5 14.4652 7.5 14L3.16667 14C2.24619 14 1.5 13.2538 1.5 12.3333V7H15.5V9.80605C15.977 9.87386 16.5 9.50179 16.5 9.02V3.66667C16.5 2.19391 15.3061 1 13.8333 1H3.16667ZM13.8333 2H3.16667C2.24619 2 1.5 2.74619 1.5 3.66667V5H15.5V3.66667C15.5 2.74619 14.7538 2 13.8333 2Z" fill="#92540C"/>
<path d="M16.0068 13.8787C16.2428 13.5475 15.8535 13.1697 15.4503 13.2227C15.3077 13.2414 15.1831 13.3217 15.0884 13.43C14.9926 13.5395 14.8828 13.6363 14.7617 13.7177C14.6272 13.8081 14.5229 13.9442 14.4979 14.1043C14.439 14.4818 14.7744 14.8584 15.1098 14.6752C15.4658 14.4807 15.7727 14.2074 16.0068 13.8787Z" fill="#92540C"/>
</g>
<path id="Star" d="M9.66959 10.875C8.79406 11.0793 8.79406 11.9207 9.66959 12.125C9.98631 12.1989 11.0052 12.3165 11.7853 12.4003C11.8751 13.1284 12.0011 14.0794 12.0803 14.375C12.3028 15.2057 13.1971 15.2057 13.4196 14.375C13.4986 14.08 13.6243 13.1321 13.714 12.4045C14.5246 12.3205 15.5888 12.2002 15.8303 12.125C16.6582 11.8675 16.7257 11.084 15.8303 10.875C15.5142 10.8013 14.4985 10.684 13.719 10.6002C13.629 9.8437 13.5001 8.85045 13.4196 8.62504C13.1408 7.8444 12.3088 7.77201 12.0803 8.62504C12.0011 8.92065 11.8751 9.87164 11.7853 10.5997C11.0052 10.6835 9.98631 10.8011 9.66959 10.875Z" fill="#7295F6"/>
<path id="Mote" d="M10.5 14C10.5 14.5523 10.0523 15 9.5 15C8.94772 15 8.5 14.5523 8.5 14C8.5 13.4477 8.94772 13 9.5 13C10.0523 13 10.5 13.4477 10.5 14Z" fill="#ADC2FC"/>
</g>
<defs>
<clipPath id="clip0_2211_14734">
<rect width="16" height="16" fill="white" transform="translate(0.5)"/>
</clipPath>
</defs>
</svg>
