<svg width="48" height="48" viewBox="0 0 48 48" fill="none" xmlns="http://www.w3.org/2000/svg">
<g id="Image">
<path id="Subtract" d="M34.3535 25.565C29.3706 26.1337 25.5 30.3648 25.5 35.4999C25.5 36.8807 24.3807 38 23 38H14.4315C11.0071 38 8.83751 34.3271 10.4903 31.328L21.0588 12.1513C21.5333 11.2902 22.2196 10.6679 23 10.2846V9.82495H24.8745C26.4587 9.78177 28.0625 10.5572 28.941 12.1513L35.3581 23.7953C35.7804 24.5615 35.2227 25.4657 34.3535 25.565Z" fill="#E2A412"/>
<path id="Subtract_2" d="M34.3346 25.5671C29.3608 26.1444 25.5 30.3713 25.5 35.4999C25.5 36.8807 24.3807 38 23 38H12.4315C9.00707 38 6.83751 34.3271 8.49034 31.328L19.0588 12.1513C20.7694 9.04724 25.2304 9.04724 26.941 12.1513L34.3346 25.5671Z" fill="#F9BE1A"/>
<path id="Vector" d="M35.5 43.5C39.9183 43.5 43.5 39.9183 43.5 35.5C43.5 31.0817 39.9183 27.5 35.5 27.5C31.0817 27.5 27.5 31.0817 27.5 35.5C27.5 39.9183 31.0817 43.5 35.5 43.5Z" fill="#4CBA3C"/>
<path id="Union" fill-rule="evenodd" clip-rule="evenodd" d="M36.7474 32.7303C35.3216 31.9936 33.5737 32.5285 32.758 33.9858L32.755 33.989C32.4851 34.4694 32.3533 34.9915 32.3379 35.5104C32.3318 35.7858 32.1631 36.0228 31.9086 36.0933L30.8936 36.3719C30.7158 36.42 30.541 36.2887 30.5226 36.0965C30.4276 35.0588 30.6299 33.9826 31.1727 33.0153C32.5066 30.6356 35.386 29.7965 37.6888 31.0776C37.7931 31.1353 37.9219 31.1001 37.9801 30.9944L38.3757 30.2865C38.4738 30.1136 38.7222 30.1488 38.7713 30.3442L39.4581 33.105C39.4888 33.2235 39.4214 33.3484 39.3048 33.3805L36.6708 34.1011C36.4837 34.1524 36.3304 33.941 36.4285 33.768L36.8333 33.0474C36.8946 32.9353 36.8578 32.7879 36.7474 32.7303ZM34.0122 38.3096C35.4929 39.0462 37.308 38.5113 38.1551 37.054L38.1582 37.0508C38.4385 36.5704 38.5754 36.0483 38.5913 35.5295C38.5977 35.254 38.7728 35.017 39.0371 34.9466L40.0912 34.6679C40.2758 34.6199 40.4574 34.7512 40.4765 34.9434C40.5752 35.9811 40.365 37.0572 39.8014 38.0245C38.4162 40.4042 35.4261 41.2434 33.0346 39.9622C32.9263 39.9046 32.7926 39.9398 32.7321 40.0455L32.3213 40.7533C32.2194 40.9263 31.9615 40.891 31.9105 40.6957L31.1972 37.9348C31.1654 37.8163 31.2355 37.6914 31.3565 37.6594L34.0918 36.9387C34.2861 36.8875 34.4453 37.0989 34.3434 37.2718L33.9231 37.9925C33.8594 38.1046 33.8976 38.2519 34.0122 38.3096Z" fill="white"/>
<g id="Union_2">
<path d="M46.2507 29.5C46.3994 29.5 46.5481 29.56 46.6618 29.677C46.8892 29.9109 46.8892 30.2919 46.6618 30.5258L45.4956 31.7256C45.2682 31.9596 44.898 31.9596 44.6706 31.7256C44.4431 31.4917 44.4431 31.1107 44.6706 30.8768L45.8367 29.677C45.9505 29.56 46.0991 29.5 46.2478 29.5H46.2507Z" fill="#CCCCCC"/>
<path d="M45.6676 34.8991H47.4169C47.7376 34.8991 48 35.1691 48 35.499C48 35.829 47.7376 36.0989 47.4169 36.0989H45.6676C45.3469 36.0989 45.0845 35.829 45.0845 35.499C45.0845 35.1691 45.3469 34.8991 45.6676 34.8991Z" fill="#CCCCCC"/>
<path d="M44.6765 39.2759C44.7902 39.1589 44.9389 39.0989 45.0876 39.0989H45.0905C45.2392 39.0989 45.3879 39.1589 45.5016 39.2759L46.6678 40.4757C46.8952 40.7096 46.8952 41.0906 46.6678 41.3245C46.4403 41.5585 46.0701 41.5585 45.8427 41.3245L44.6765 40.1247C44.4491 39.8908 44.4491 39.5098 44.6765 39.2759Z" fill="#CCCCCC"/>
</g>
<g id="Union_3">
<path d="M23 34C24.1046 34 25 33.1046 25 32C25 30.8954 24.1046 30 23 30C21.8954 30 21 30.8954 21 32C21 33.1046 21.8954 34 23 34Z" fill="#92540C"/>
<path d="M22.5637 16C21.7108 16 21.0295 16.7103 21.065 17.5624L21.44 26.5624C21.4735 27.3659 22.1346 28 22.9387 28H23.0611C23.8653 28 24.5264 27.3659 24.5598 26.5624L24.9348 17.5624C24.9704 16.7103 24.2891 16 23.4361 16H22.5637Z" fill="#92540C"/>
</g>
</g>
</svg>
