<svg width="24" height="24" viewBox="0 0 24 24" fill="none" xmlns="http://www.w3.org/2000/svg">
<circle cx="12" cy="12" r="11" fill="white"/>
<path fill-rule="evenodd" clip-rule="evenodd" d="M24 12C24 18.6274 18.6274 24 12 24C5.37258 24 0 18.6274 0 12C0 5.37258 5.37258 0 12 0C18.6274 0 24 5.37258 24 12ZM5 12C5 8.13368 8.13368 5 12 5C15.8663 5 19 8.13368 19 12C19 15.8663 15.8663 19 12 19C8.13368 19 5 15.8663 5 12ZM11.425 15.1769H12.6614V14.1135H11.425V15.1769ZM12.6755 13.3223V12.7187C13.5811 12.4457 14.2279 11.6119 14.2279 10.6198C14.2279 9.41268 13.2504 8.43513 12.0432 8.43513C10.8361 8.43513 9.85851 9.41265 9.85851 10.6198H11.1089C11.1089 10.1021 11.5256 9.68553 12.0432 9.68553C12.5609 9.68553 12.9776 10.1021 12.9776 10.6198C12.9776 11.1375 12.5609 11.5541 12.0432 11.5541H11.425V13.3223H12.6755ZM12.6754 12.7187L12.6755 12.7187L12.6754 12.7187Z" fill="#333333"/>
</svg>
