<svg width="72" height="72" viewBox="0 0 72 72" fill="none" xmlns="http://www.w3.org/2000/svg">
<path d="M17.791 60.3726C13.8773 61.7746 10.0957 57.993 11.4977 54.0793L23.6425 20.175C24.1296 18.8152 25.8666 18.4254 26.888 19.4468L52.4235 44.9823C53.4449 46.0037 53.0551 47.7407 51.6953 48.2278L17.791 60.3726Z" fill="#FFD65C"/>
<path fill-rule="evenodd" clip-rule="evenodd" d="M38.485 52.9601C34.7602 51.3773 30.7039 48.5441 27.0153 44.8555C23.3265 41.1668 20.4933 37.1104 18.9106 33.3855L20.5678 28.7592C21.2254 32.6954 24.3171 37.9809 29.1035 42.7673C33.8897 47.5535 39.1751 50.6452 43.1112 51.3029L38.485 52.9601Z" fill="#876ECB"/>
<path fill-rule="evenodd" clip-rule="evenodd" d="M28.6164 56.4955C26.0641 55.329 23.3657 53.3948 20.9209 50.95C18.4762 48.5052 16.5419 45.8068 15.3755 43.2545L17.0877 38.4744C17.1948 41.2184 19.3955 45.2482 23.0091 48.8618C26.6227 52.4754 30.6525 54.6762 33.3965 54.7832L28.6164 56.4955Z" fill="#876ECB"/>
<path fill-rule="evenodd" clip-rule="evenodd" d="M20.6452 59.3507C19.0835 58.4612 17.5112 57.2434 16.0691 55.8014C14.6272 54.3594 13.4094 52.7871 12.5199 51.2255L13.9917 47.1168C14.433 49.0261 15.9233 51.4792 18.1573 53.7132C20.3914 55.9473 22.8446 57.4376 24.7539 57.8789L20.6452 59.3507Z" fill="#876ECB"/>
<g opacity="0.4">
<path d="M20.3769 59.4467C17.4096 60.5096 15.0641 56.8071 17.2929 54.5784L38.2646 33.6067C39.0334 32.8379 40.2799 32.8379 41.0488 33.6067L52.4244 44.9823C53.4458 46.0037 53.0561 47.7408 51.6962 48.2279L20.3769 59.4467Z" fill="#FFCC33" style="mix-blend-mode:multiply"/>
</g>
<path d="M54.2736 46.833C50.8138 50.2928 41.4648 46.5531 33.3919 38.4803C25.319 30.4074 21.5794 21.0583 25.0392 17.5985C28.499 14.1387 37.8481 17.8783 45.9209 25.9512C53.9938 34.0241 57.7334 43.3732 54.2736 46.833Z" fill="#FFCC33"/>
<path d="M33.3919 38.4792C41.4647 46.5521 50.8138 50.2917 54.2736 46.8319C57.7334 43.3721 53.9938 34.0231 45.9209 25.9502L33.3919 38.4792Z" fill="#FFDE7A"/>
<path fill-rule="evenodd" clip-rule="evenodd" d="M50.6671 45.1696C51.6345 45.1633 52.0267 44.9036 52.1855 44.7448C52.3443 44.586 52.6039 44.1938 52.6103 43.2264C52.6168 42.2411 52.3475 40.8871 51.6801 39.2187C50.3497 35.8926 47.6558 31.8624 43.8328 28.0394C40.0097 24.2163 35.9795 21.5225 32.6534 20.192C30.985 19.5247 29.631 19.2553 28.6458 19.2618C27.6783 19.2682 27.2862 19.5279 27.1274 19.6867C26.9686 19.8455 26.7089 20.2377 26.7025 21.2051C26.696 22.1903 26.9654 23.5444 27.6327 25.2127C28.9631 28.5388 31.657 32.569 35.4801 36.3921C39.3031 40.2151 43.3333 42.909 46.6594 44.2394C48.3278 44.9068 49.6818 45.1761 50.6671 45.1696ZM33.3919 38.4803C41.4648 46.5531 50.8138 50.2928 54.2736 46.833C57.7334 43.3732 53.9938 34.0241 45.9209 25.9512C37.8481 17.8783 28.499 14.1387 25.0392 17.5985C21.5794 21.0583 25.319 30.4074 33.3919 38.4803Z" fill="#E2A412"/>
<path fill-rule="evenodd" clip-rule="evenodd" d="M35.9742 12.4529C36.426 11.7741 37.3427 11.5901 38.0215 12.0419C40.8333 13.9135 41.6111 16.9625 41.017 19.9838C40.4332 22.9522 38.5349 26.0151 35.8185 28.4732C35.2139 29.0203 34.2801 28.9737 33.7329 28.3691C33.1858 27.7644 33.2324 26.8306 33.8371 26.2835C36.1983 24.1468 37.6857 21.6191 38.1193 19.414C38.5425 17.2619 37.9693 15.5547 36.3852 14.5003C35.7063 14.0484 35.5223 13.1318 35.9742 12.4529Z" fill="#DE5833"/>
<path fill-rule="evenodd" clip-rule="evenodd" d="M61.8067 36.3493C55.945 33.8255 48.9508 36.3193 44.6301 39.9022C44.0023 40.4227 43.0715 40.3358 42.5509 39.7081C42.0304 39.0803 42.1173 38.1495 42.745 37.6289C47.5231 33.6669 55.6936 30.502 62.9746 33.6369C63.7236 33.9594 64.0694 34.828 63.7469 35.577C63.4244 36.326 62.5558 36.6718 61.8067 36.3493Z" fill="#3969EF"/>
<path fill-rule="evenodd" clip-rule="evenodd" d="M59.8821 14.9358C60.7008 16.2512 61.1523 18.0861 60.7695 19.5637C60.4987 20.6094 59.8215 21.3013 58.998 21.6858C58.246 22.037 57.41 22.1184 56.7077 22.1229C56.0297 22.1273 55.337 22.0582 54.7527 21.9929C54.7756 22.18 54.8008 22.3768 54.8275 22.5795C54.8744 22.9362 54.9217 23.2806 54.9673 23.6129C55.0025 23.8695 55.0368 24.1188 55.0691 24.3609C55.1318 24.831 55.2018 25.3674 55.2018 25.6531C55.2018 25.962 55.1394 26.4126 54.8274 26.8241C54.4899 27.2693 54.0241 27.4559 53.6371 27.5079C53.009 27.5924 52.4116 27.3516 52.0879 27.2079C51.32 26.867 50.3748 26.2427 49.5502 25.6798C49.301 25.5098 49.0597 25.343 48.8277 25.1828C48.5867 25.0163 48.3559 24.8569 48.1369 24.7079C48.1435 24.8394 48.1516 24.9765 48.1608 25.1197C48.1649 25.1851 48.1694 25.2522 48.174 25.3209C48.2288 26.1482 48.2988 27.2028 48.0874 28.2341C47.9237 29.033 47.1433 29.5478 46.3444 29.3841C45.5456 29.2204 45.0307 28.44 45.1944 27.6411C45.3229 27.0141 45.2795 26.3361 45.2193 25.3965C45.2174 25.3672 45.2156 25.3377 45.2137 25.308C45.1563 24.4102 45.0875 23.2501 45.4152 22.102C45.4952 21.8221 45.6613 21.5239 45.9492 21.2906C46.2279 21.0647 46.528 20.9746 46.7597 20.9433C47.1704 20.8878 47.5215 20.9948 47.6862 21.0509C48.0612 21.1788 48.4625 21.4071 48.7989 21.6134C49.3174 21.9314 49.9548 22.3718 50.5759 22.8009C50.7929 22.9508 51.0078 23.0993 51.2151 23.2407C51.4951 23.4319 51.7607 23.61 52.0082 23.7706C51.9714 23.5017 51.9339 23.2259 51.8996 22.9647C51.818 22.3446 51.7406 21.7105 51.703 21.2227C51.6849 20.9888 51.6711 20.7319 51.6809 20.5107C51.685 20.4164 51.6964 20.2239 51.7566 20.0164C51.7847 19.9193 51.8557 19.7006 52.0298 19.4782C52.2291 19.2237 52.628 18.8985 53.2162 18.8985C53.6909 18.8985 54.272 18.9654 54.786 19.0245C54.8516 19.032 54.916 19.0394 54.9791 19.0466C55.5897 19.1157 56.1658 19.1732 56.6885 19.1698C57.2283 19.1663 57.5645 19.096 57.7485 19.01C57.861 18.9575 57.8839 18.927 57.9108 18.8232C58.0384 18.3306 57.891 17.3254 57.3749 16.4962C56.8592 15.6677 56.4325 15.6402 56.1761 15.7258C55.4025 15.9838 54.5662 15.5659 54.3081 14.7924C54.0501 14.0188 54.468 13.1825 55.2415 12.9244C57.4188 12.1981 59.0629 13.6197 59.8821 14.9358ZM54.6311 20.6402C54.6316 20.6292 54.632 20.6316 54.631 20.6445C54.631 20.643 54.6311 20.6415 54.6311 20.6402Z" fill="#DE5833"/>
</svg>
