<svg fill="none" viewBox="0 0 128 96" xmlns="http://www.w3.org/2000/svg">
  <path fill="#888" d="m105.629 38.2 1.542-.4a.875.875 0 0 0 .629-.629l.4-1.543A.84.84 0 0 1 109 35c.4 0 .743.286.8.628l.4 1.543a.875.875 0 0 0 .629.629l1.542.4c.4.114.629.457.629.8 0 .4-.286.743-.629.8l-1.542.4a.875.875 0 0 0-.629.628l-.4 1.543a.84.84 0 0 1-.8.629c-.4 0-.743-.286-.8-.629l-.4-1.543a.875.875 0 0 0-.629-.628l-1.542-.4A.842.842 0 0 1 105 39c0-.4.286-.743.629-.8Zm-89.686-6.4 2.314-.6c.429-.086.857-.514.943-.943l.6-2.314c.171-.6.686-.943 1.2-.943.6 0 1.114.428 1.2.943l.6 2.314c.086.429.514.857.943.943l2.314.6c.6.171.943.686.943 1.2 0 .6-.429 1.114-.943 1.2l-2.314.6c-.429.086-.857.514-.943.943l-.6 2.314c-.171.6-.686.943-1.2.943-.6 0-1.114-.429-1.2-.943l-.6-2.314c-.086-.429-.514-.857-.943-.943l-2.314-.6c-.6-.172-.943-.686-.943-1.2 0-.6.429-1.114.943-1.2ZM.629 53.2l1.542-.4a.876.876 0 0 0 .629-.629l.4-1.543A.841.841 0 0 1 4 50c.4 0 .743.286.8.628l.4 1.543a.876.876 0 0 0 .629.629l1.542.4c.4.114.629.457.629.8 0 .4-.286.743-.629.8l-1.542.4a.875.875 0 0 0-.629.628l-.4 1.543A.841.841 0 0 1 4 58c-.4 0-.743-.286-.8-.629l-.4-1.543a.875.875 0 0 0-.629-.628L.63 54.8A.841.841 0 0 1 0 54c0-.4.286-.743.629-.8ZM126.5 52c-.825 0-1.5-.675-1.5-1.5s.675-1.5 1.5-1.5 1.5.675 1.5 1.5-.675 1.5-1.5 1.5ZM23 70c-1.1 0-2-.9-2-2s.9-2 2-2 2 .9 2 2-.9 2-2 2Z" opacity=".2"/>
  <path fill="#557FF3" d="M73 35.045c1.641-.099 2.983-1.405 2.682-3.021-1.656-8.896-9.591-15.698-19.237-16.013V16h-4.89v.418c-9.175 1.856-16.063 9.686-16.063 19.063 0 6.221 3.032 11.761 7.751 15.328l-5.067 5.77c-.133.15-.238.308-.32.47H36.19v2.944h3.337a2.18 2.18 0 0 0 .61-.049 338.422 338.422 0 0 0 9.371-2.2c.88-.221 1.486-1.013 1.556-1.918.021-.277.048-.552.08-.826C52.387 44.219 61.588 35.733 73 35.045Z"/>
  <path fill="#7295F6" d="M72.995 35.045C72.74 24.485 63.662 16 52.5 16 41.178 16 32 24.73 32 35.5c0 5.406 2.313 10.298 6.048 13.83.885.837 1.038 2.237.233 3.152l-3.597 4.097c-1.322 1.505.012 3.795 1.968 3.364 3.828-.845 8.934-2.032 13.678-3.327.416-.113.708-.483.744-.913.917-11.112 10.265-19.952 21.92-20.658Z"/>
  <path fill="#fff" d="M52.57 49.398a22.174 22.174 0 0 1 2.916-5.123c-.575-1.338-1.93-2.315-3.468-2.315-2.04 0-3.76 1.72-3.76 3.72 0 2.04 1.72 3.76 3.76 3.76.187 0 .371-.014.552-.042ZM48.378 36.76c0 1.52.44 2.76 1.2 3.68l5.32-1.36c-.32-.32-.6-.92-.6-1.6 0-1.26 1.093-2.069 2.362-3.006 1.752-1.295 3.838-2.837 3.838-6.154 0-3.84-3.28-6.4-8.56-6.4-3.28 0-6.6 1.28-8.8 3.76l3.84 4.4c1.12-1.28 2.68-2.08 4.2-2.08 1.72 0 2.36.68 2.36 1.56 0 .799-.824 1.387-1.813 2.094-1.486 1.062-3.347 2.391-3.347 5.106Z"/>
  <path fill="#4CBA3C" fill-rule="evenodd" d="M86.634 78.794c.823.195 1.476 1.168 2.321 1.205L89 80h2.997a.003.003 0 0 0 .003-.003c0-.002.002-.004.004-.004 1.643.107 2.67-1.861 1.511-3.18l-3.302-3.76c-.767-.873-.622-2.209.22-3.011 3.447-3.29 5.583-7.85 5.583-12.89 0-9.662-7.85-17.56-17.749-18.12a.016.016 0 0 1-.015-.016.016.016 0 0 0-.016-.016h-4.375a.164.164 0 0 0-.165.164c0 .08-.057.148-.135.163-8.71 1.61-15.291 8.979-15.291 17.826 0 7.318 4.502 13.624 10.987 16.497 3.895 1.753 11.198 3.682 17.377 5.144Z" clip-rule="evenodd"/>
  <path fill="#63C853" fill-rule="evenodd" d="M87.134 70.007c-.856.775-1.016 2.105-.254 2.972l3.328 3.79c1.236 1.406-.012 3.546-1.838 3.13-6.928-1.577-18.269-4.377-22.734-6.732C59.336 70.236 55 64.097 55 57c0-9.941 8.507-18 19-18s19 8.059 19 18c0 5.114-2.251 9.73-5.866 13.007Z" clip-rule="evenodd"/>
  <path fill="#fff" fill-rule="evenodd" d="M63.928 62.688C67.296 64.827 70.59 66 74 66c3.41 0 6.704-1.173 10.072-3.312l-2.144-3.376C78.997 61.173 76.44 62 74 62c-2.44 0-4.996-.827-7.928-2.688l-2.144 3.376ZM70.4 53.8c-.547-.486-1.419-.8-2.4-.8-.981 0-1.853.314-2.4.8a3 3 0 1 1 4.8 0Zm12 0c-.547-.486-1.419-.8-2.4-.8-.982 0-1.853.314-2.4.8a3 3 0 1 1 4.8 0Z" clip-rule="evenodd"/>
</svg>
