<svg width="96" height="64" viewBox="0 0 96 64" fill="none" xmlns="http://www.w3.org/2000/svg">
<g id="Sync-Desktop-New-96">
<path id="Vector" opacity="0.2" d="M79.2214 24.65L80.3786 24.35C80.5929 24.3071 80.8072 24.0929 80.85 23.8786L81.15 22.7214C81.2357 22.4214 81.4929 22.25 81.75 22.25C82.05 22.25 82.3072 22.4643 82.35 22.7214L82.65 23.8786C82.6928 24.0929 82.9071 24.3071 83.1214 24.35L84.2786 24.65C84.5786 24.7357 84.75 24.9929 84.75 25.25C84.75 25.55 84.5357 25.8071 84.2786 25.85L83.1214 26.15C82.9071 26.1929 82.6928 26.4071 82.65 26.6214L82.35 27.7786C82.2643 28.0786 82.0071 28.25 81.75 28.25C81.45 28.25 81.1928 28.0357 81.15 27.7786L80.85 26.6214C80.8072 26.4071 80.5929 26.1929 80.3786 26.15L79.2214 25.85C78.9214 25.7643 78.75 25.5071 78.75 25.25C78.75 24.95 78.9643 24.6929 79.2214 24.65Z" fill="#888888"/>
<path id="Vector_2" opacity="0.2" d="M11.9571 19.85L13.6928 19.4C14.0143 19.3357 14.3357 19.0143 14.4 18.6929L14.85 16.9571C14.9786 16.5071 15.3643 16.25 15.75 16.25C16.2 16.25 16.5857 16.5714 16.65 16.9571L17.1 18.6929C17.1643 19.0143 17.4857 19.3357 17.8072 19.4L19.5429 19.85C19.9929 19.9786 20.25 20.3643 20.25 20.75C20.25 21.2 19.9286 21.5857 19.5429 21.65L17.8072 22.1C17.4857 22.1643 17.1643 22.4857 17.1 22.8071L16.65 24.5429C16.5214 24.9929 16.1357 25.25 15.75 25.25C15.3 25.25 14.9143 24.9286 14.85 24.5429L14.4 22.8071C14.3357 22.4857 14.0143 22.1643 13.6928 22.1L11.9571 21.65C11.5071 21.5214 11.25 21.1357 11.25 20.75C11.25 20.3 11.5714 19.9143 11.9571 19.85Z" fill="#888888"/>
<path id="Vector_3" opacity="0.2" d="M0.471418 35.9L1.62857 35.6C1.84285 35.5571 2.05715 35.3429 2.10001 35.1286L2.39999 33.9714C2.4857 33.6714 2.74286 33.5 3 33.5C3.3 33.5 3.55715 33.7143 3.60001 33.9714L3.89999 35.1286C3.94285 35.3429 4.15715 35.5571 4.37143 35.6L5.52858 35.9C5.82858 35.9857 6 36.2429 6 36.5C6 36.8 5.78572 37.0571 5.52858 37.1L4.37143 37.4C4.15715 37.4429 3.94285 37.6571 3.89999 37.8714L3.60001 39.0286C3.5143 39.3286 3.25714 39.5 3 39.5C2.7 39.5 2.44285 39.2857 2.39999 39.0286L2.10001 37.8714C2.05715 37.6571 1.84285 37.4429 1.62857 37.4L0.471418 37.1C0.171418 37.0143 0 36.7571 0 36.5C0 36.2 0.214275 35.9429 0.471418 35.9Z" fill="#888888"/>
<path id="Vector_4" opacity="0.2" d="M94.875 35C94.2562 35 93.75 34.4937 93.75 33.875C93.75 33.2562 94.2562 32.75 94.875 32.75C95.4937 32.75 96 33.2562 96 33.875C96 34.4937 95.4937 35 94.875 35Z" fill="#888888"/>
<path id="Vector_5" opacity="0.2" d="M17.25 48.5C16.425 48.5 15.75 47.825 15.75 47C15.75 46.175 16.425 45.5 17.25 45.5C18.075 45.5 18.75 46.175 18.75 47C18.75 47.825 18.075 48.5 17.25 48.5Z" fill="#888888"/>
<path id="Subtract" d="M50.5393 45C50.1878 46.2734 50 47.6148 50 49V53H42V45H50.5393Z" fill="#ABABAB"/>
<path id="Rectangle 773" d="M26 9.98095C26 8.8869 26.9003 8 28.0109 8H69.9891C71.0997 8 72 8.8869 72 9.98095V32.019C72 33.1131 71.0997 34 69.9891 34H28.0109C26.9003 34 26 33.1131 26 32.019V9.98095Z" fill="#888888"/>
<path id="Subtract_2" d="M47 56C48.6569 56 50 54.6569 50 53H35.25C34.4216 53 33.75 53.6716 33.75 54.5C33.75 55.3284 34.4216 56 35.25 56H47Z" fill="#888888"/>
<path id="Subtract_3" d="M68.6031 7.97021L25.3969 8.00022C24.6254 8.00022 24 8.68522 24 9.53022V44.7202C24 45.5652 24.6254 46.2502 25.3969 46.2502H50.2515C51.5431 39.2793 57.6551 34.0002 65 34.0002L70 33.9702V9.50021C70 8.65522 69.3746 7.97021 68.6031 7.97021Z" fill="#CCCCCC"/>
<path id="Subtract_4" d="M66.9587 11H27.0413C26.4662 11 26 11.5117 26 12.1429V41.8571C26 42.4883 26.4662 43 27.0413 43H51.2481C53.5628 37.7023 58.849 34 65 34H68V12.1429C68 11.5117 67.5338 11 66.9587 11Z" fill="#FFD65C"/>
<path id="Vector_6" d="M52.6499 29.7115C50.8076 32.8812 46.8598 34.0445 43.6392 32.4423C43.3899 32.3169 43.3068 31.9964 43.4453 31.7526L44.3595 30.1852C44.5811 29.809 44.2349 29.3493 43.8124 29.4607L37.863 31.0281C37.5998 31.0978 37.4474 31.3695 37.5167 31.6272L39.0681 37.6321C39.1789 38.0571 39.7399 38.1337 39.9615 37.7575L40.855 36.218C40.9866 35.9881 41.2775 35.9115 41.513 36.0369C46.7144 38.8234 53.2178 36.9982 56.2306 31.8223C57.4565 29.7185 57.9136 27.3778 57.6989 25.1208C57.6574 24.7028 57.2626 24.4172 56.8609 24.5217L54.5684 25.1277C53.9935 25.281 53.6126 25.7965 53.5988 26.3956C53.5641 27.5241 53.2663 28.6596 52.6568 29.7045L52.6499 29.7115Z" fill="#F9BE1A"/>
<path id="Vector_7" d="M40.9112 23.0385C42.6853 19.8688 46.4869 18.7055 49.5882 20.3077C49.8282 20.4331 49.9083 20.7536 49.7749 20.9974L48.8945 22.5648C48.6811 22.941 49.0146 23.4007 49.4214 23.2893L55.1505 21.7219C55.4039 21.6522 55.5506 21.3805 55.4839 21.1228L53.99 15.1179C53.8833 14.6929 53.343 14.6163 53.1296 14.9925L52.2693 16.532C52.1426 16.7619 51.8624 16.8385 51.6357 16.7131C46.6269 13.9266 40.3643 15.7518 37.4631 20.9277C36.2826 23.0315 35.8424 25.3722 36.0492 27.6292C36.0892 28.0472 36.4694 28.3328 36.8562 28.2283L39.0638 27.6223C39.6173 27.469 39.9841 26.9535 39.9975 26.3544C40.0308 25.2259 40.3176 24.0904 40.9045 23.0455L40.9112 23.0385Z" fill="#F9BE1A"/>
<path id="Vector_8" d="M65.5 61C72.4036 61 78 55.6274 78 49C78 42.3726 72.4036 37 65.5 37C58.5964 37 53 42.3726 53 49C53 55.6274 58.5964 61 65.5 61Z" fill="#557FF3"/>
<g id="Union">
<path d="M81.5749 40.2891C81.8045 40.2891 82.0341 40.3791 82.2097 40.5547C82.5609 40.9059 82.5609 41.4777 82.2097 41.8289L80.4087 43.6299C80.0575 43.9811 79.4857 43.9811 79.1345 43.6299C78.7833 43.2788 78.7833 42.7069 79.1345 42.3557L80.9355 40.5547C81.1111 40.3791 81.3407 40.2891 81.5704 40.2891H81.5749Z" fill="#CCCCCC"/>
<path d="M80.6743 48.3937H83.3758C83.8711 48.3937 84.2763 48.7989 84.2763 49.2942C84.2763 49.7895 83.8711 50.1947 83.3758 50.1947H80.6743C80.179 50.1947 79.7738 49.7895 79.7738 49.2942C79.7738 48.7989 80.179 48.3937 80.6743 48.3937Z" fill="#CCCCCC"/>
<path d="M79.1436 54.9636C79.3192 54.788 79.5489 54.698 79.7785 54.698H79.783C80.0126 54.698 80.2423 54.788 80.4179 54.9636L82.2189 56.7647C82.5701 57.1159 82.5701 57.6877 82.2189 58.0389C81.8677 58.3901 81.2959 58.3901 80.9447 58.0389L79.1436 56.2379C78.7924 55.8867 78.7924 55.3148 79.1436 54.9636Z" fill="#CCCCCC"/>
</g>
<path id="Union_2" fill-rule="evenodd" clip-rule="evenodd" d="M67.5 43C67.5 42.7239 67.2761 42.5 67 42.5H63.5C63.2239 42.5 63 42.7239 63 43V46.5C63 46.7761 62.7761 47 62.5 47H59C58.7239 47 58.5 47.2239 58.5 47.5V51C58.5 51.2761 58.7239 51.5 59 51.5H62.5C62.7761 51.5 63 51.7239 63 52V55.5C63 55.7761 63.2239 56 63.5 56H67C67.2761 56 67.5 55.7761 67.5 55.5V52C67.5 51.7239 67.7239 51.5 68 51.5H71.5C71.7761 51.5 72 51.2761 72 51V47.5C72 47.2239 71.7761 47 71.5 47H68C67.7239 47 67.5 46.7761 67.5 46.5V43Z" fill="white"/>
</g>
</svg>
