<svg fill="none" viewBox="0 0 16 16" xmlns="http://www.w3.org/2000/svg">
  <path fill="#F9BE1A" fill-rule="evenodd" d="M2.052 2.5C1.195 2.5.5 3.195.5 4.052v7.896c0 .857.695 1.552 1.552 1.552H8V12a2 2 0 0 1 1-1.732v-.833C9 7.477 10.63 6 12.5 6c1.241 0 2.377.65 3 1.66V4.053c0-.857-.695-1.552-1.552-1.552H2.052Z" clip-rule="evenodd"/>
  <path fill="#FFD65C" fill-rule="evenodd" d="m8 7-6.98 6.107a1.548 1.548 0 0 1-.52-1.159V4.052c0-.857.695-1.552 1.552-1.552h.188L8 7Zm0 0 5.76-4.5h.188c.857 0 1.552.695 1.552 1.552V7.66a3.534 3.534 0 0 0-3-1.66c-1.417 0-2.695.847-3.232 2.11L8 7Z" clip-rule="evenodd"/>
  <path fill="#FFF0C2" d="M7.537 8.71.56 3.619A1.552 1.552 0 0 1 2.051 2.5h11.897c.666 0 1.233.419 1.454 1.007L12.03 6.031c-1.218.163-2.276.95-2.756 2.063l-.815.61a.776.776 0 0 1-.922.006Z"/>
  <path fill="#E2A412" fill-rule="evenodd" d="M2.052 2A2.052 2.052 0 0 0 0 4.052v7.896C0 13.081.919 14 2.052 14H8v-1H2.052A1.05 1.05 0 0 1 1 11.948V4.052C1 3.47 1.47 3 2.052 3h11.896C14.53 3 15 3.47 15 4.052V7.03c.613.61 1 1.448 1 2.402v-5.38A2.052 2.052 0 0 0 13.948 2H2.052Z" clip-rule="evenodd"/>
  <path fill="#E2A412" fill-rule="evenodd" d="M.5 4.052c0-.456.197-.866.51-1.15l.43-.277a1.56 1.56 0 0 1 .612-.125h11.896c.857 0 1.552.695 1.552 1.552V7.66a3.434 3.434 0 0 0-.5-.63V4.433L12.88 6.02A3.548 3.548 0 0 0 12.5 6c-1.693 0-3.189 1.21-3.457 2.892l-.284.212a1.276 1.276 0 0 1-1.517.01l-.49-.358-5.29 4.628A1.552 1.552 0 0 1 .5 11.948V4.052Zm7.332 4.254-6.647-4.85A1.05 1.05 0 0 1 2.052 3h11.896c.321 0 .609.144.802.37L8.16 8.305a.276.276 0 0 1-.328.002Zm-1.908-.154L1.092 12.38A1.048 1.048 0 0 1 1 11.948v-7.39l4.924 3.594Z" clip-rule="evenodd"/>
  <path fill="#C18010" d="M2.052 2A2.052 2.052 0 0 0 0 4.052v7.896C0 13.081.919 14 2.052 14H8v-1H2.052A1.05 1.05 0 0 1 1 11.948V4.052C1 3.47 1.47 3 2.052 3h11.896C14.53 3 15 3.47 15 4.052V7.03c.613.61 1 1.448 1 2.402v-5.38A2.052 2.052 0 0 0 13.948 2H2.052Z"/>
  <path fill="#ABABAB" fill-rule="evenodd" d="M12.5 8.5c-.58 0-1 .445-1 .935V11.5H10V9.435C10 8.064 11.146 7 12.5 7S15 8.064 15 9.435V11.5h-1.5V9.435c0-.49-.42-.935-1-.935Z" clip-rule="evenodd"/>
  <path fill="#FC3" d="M9.75 12a.25.25 0 0 1 .25-.25h5a.25.25 0 0 1 .25.25v3a.25.25 0 0 1-.25.25h-5a.25.25 0 0 1-.25-.25v-3Z"/>
  <path fill="#E2A412" fill-rule="evenodd" d="M9 12a1 1 0 0 1 1-1h5a1 1 0 0 1 1 1v3a1 1 0 0 1-1 1h-5a1 1 0 0 1-1-1v-3Zm1.5.5v2h4v-2h-4Z" clip-rule="evenodd"/>
</svg>
