<svg width="49" height="48" viewBox="0 0 49 48" fill="none" xmlns="http://www.w3.org/2000/svg">
<path d="M27 31H20V37H27V31Z" fill="#ABABAB"/>
<path d="M9 10.5C9 9.67157 9.67157 9 10.5 9H38C38.8284 9 39.5 9.67157 39.5 10.5V18.5C39.5 19.3284 38.8284 20 38 20H10.5C9.67157 20 9 19.3284 9 18.5V10.5Z" fill="#888888"/>
<path d="M14.5 38C14.5 37.4477 14.9477 37 15.5 37H27V37.5C27 38.3284 26.3284 39 25.5 39H15.5C14.9477 39 14.5 38.5523 14.5 38Z" fill="#888888"/>
<path d="M9.5 9C8.67157 9 8 9.67157 8 10.5V31.5C8 32.3284 8.67157 33 9.5 33H27V24C27 21.7909 28.7909 20 31 20H38V10.5C38 9.67157 37.3284 9 36.5 9H9.5Z" fill="#CCCCCC"/>
<path d="M10 10.5C9.72386 10.5 9.5 10.7239 9.5 11V31C9.5 31.2761 9.72386 31.5 10 31.5H27V24C27 21.7909 28.7909 20 31 20H36.5V11C36.5 10.7239 36.2761 10.5 36 10.5H10Z" fill="#FFD65C"/>
<g clip-path="url(#clip0_7336_56927)">
<path d="M27 28.25H25.875C24.7014 28.25 23.75 27.2986 23.75 26.125V23.875C23.75 22.7014 24.7014 21.75 25.875 21.75H27.6923C27.4363 22.1257 27.2425 22.5474 27.126 23H25.875C25.3918 23 25 23.3918 25 23.875V26.125C25 26.6082 25.3918 27 25.875 27H27V28.25Z" fill="#F9BE1A"/>
<path d="M27 26H26.5C26.2239 26 26 25.7761 26 25.5V24.5C26 24.2239 26.2239 24 26.5 24H27V26Z" fill="#F9BE1A"/>
<path d="M29.6049 20.25H28.625C28.2798 20.25 28 19.9702 28 19.625C28 19.2798 28.2798 19 28.625 19H29V17.625C29 17.2798 29.2798 17 29.625 17C29.9702 17 30.25 17.2798 30.25 17.625V19.625C30.25 19.8304 30.1509 20.0126 29.998 20.1265C29.8641 20.1611 29.733 20.2023 29.6049 20.25Z" fill="#F9BE1A"/>
<path d="M18.5 26C18.2239 26 18 25.7761 18 25.5V24.5C18 24.2239 18.2239 24 18.5 24H19.5C19.7761 24 20 24.2239 20 24.5V25.5C20 25.7761 19.7761 26 19.5 26H18.5Z" fill="#F9BE1A"/>
<path fill-rule="evenodd" clip-rule="evenodd" d="M17.875 28.25C16.7014 28.25 15.75 27.2986 15.75 26.125V23.875C15.75 22.7014 16.7014 21.75 17.875 21.75H20.125C21.2986 21.75 22.25 22.7014 22.25 23.875V26.125C22.25 27.2986 21.2986 28.25 20.125 28.25H17.875ZM17 26.125C17 26.6082 17.3918 27 17.875 27H20.125C20.6082 27 21 26.6082 21 26.125V23.875C21 23.3918 20.6082 23 20.125 23H17.875C17.3918 23 17 23.3918 17 23.875V26.125Z" fill="#F9BE1A"/>
<path d="M18.5 18C18.2239 18 18 17.7761 18 17.5V16.5C18 16.2239 18.2239 16 18.5 16H19.5C19.7761 16 20 16.2239 20 16.5V17.5C20 17.7761 19.7761 18 19.5 18H18.5Z" fill="#F9BE1A"/>
<path fill-rule="evenodd" clip-rule="evenodd" d="M17.875 20.25C16.7014 20.25 15.75 19.2986 15.75 18.125V15.875C15.75 14.7014 16.7014 13.75 17.875 13.75H20.125C21.2986 13.75 22.25 14.7014 22.25 15.875V18.125C22.25 19.2986 21.2986 20.25 20.125 20.25H17.875ZM17 18.125C17 18.6082 17.3918 19 17.875 19H20.125C20.6082 19 21 18.6082 21 18.125V15.875C21 15.3918 20.6082 15 20.125 15H17.875C17.3918 15 17 15.3918 17 15.875V18.125Z" fill="#F9BE1A"/>
<path d="M24.375 17C24.7202 17 25 16.7202 25 16.375V15.125H25.375C25.7202 15.125 26 14.8452 26 14.5C26 14.1548 25.7202 13.875 25.375 13.875H24.375C24.0298 13.875 23.75 14.1548 23.75 14.5V16.375C23.75 16.7202 24.0298 17 24.375 17Z" fill="#F9BE1A"/>
<path d="M27.625 15.125C27.2798 15.125 27 14.8452 27 14.5C27 14.1548 27.2798 13.875 27.625 13.875H29.625C29.9702 13.875 30.25 14.1548 30.25 14.5V15.375C30.25 15.7202 29.9702 16 29.625 16C29.2798 16 29 15.7202 29 15.375V15.125H27.625Z" fill="#F9BE1A"/>
<path d="M24.5 20.125C24.4789 20.125 24.4581 20.124 24.4375 20.1219C24.4169 20.124 24.3961 20.125 24.375 20.125C24.0298 20.125 23.75 19.8452 23.75 19.5V18.625C23.75 18.2798 24.0298 18 24.375 18C24.7202 18 25 18.2798 25 18.625V18.875H26.375C26.7202 18.875 27 19.1548 27 19.5C27 19.8452 26.7202 20.125 26.375 20.125H24.5Z" fill="#F9BE1A"/>
<path d="M26 17.375C26 17.7202 26.2798 18 26.625 18H27.375C27.7202 18 28 17.7202 28 17.375V16.625C28 16.2798 27.7202 16 27.375 16H26.625C26.2798 16 26 16.2798 26 16.625V17.375Z" fill="#F9BE1A"/>
</g>
<path d="M30.9999 22H34.9999C36.1045 22 36.9999 22.8954 36.9999 24V35.5V42C36.9999 43.1046 36.1045 44 34.9999 44H31.9736H30.9999C29.8954 44 28.9999 43.1046 28.9999 42V24C28.9999 22.8954 29.8954 22 30.9999 22Z" fill="#444444"/>
<path d="M32.3334 22H41.6667C42.7713 22 43.6667 22.8954 43.6667 24V42C43.6667 43.1046 42.7713 44 41.6668 44H32.3334C31.2288 44 30.3334 43.1046 30.3334 42V38.0769V24C30.3334 22.8954 31.2288 22 32.3334 22Z" fill="#666666"/>
<path fill-rule="evenodd" clip-rule="evenodd" d="M41.7859 42.6654H32.214C31.9108 42.6654 31.6666 42.4017 31.6666 42.0795V23.9179C31.6666 23.5957 31.9108 23.332 32.214 23.332H41.7859C42.089 23.332 42.3333 23.5957 42.3333 23.9179V42.0795C42.3333 42.4017 42.089 42.6654 41.7859 42.6654ZM35.6665 23.9988C35.2984 23.9988 34.9999 24.2973 34.9999 24.6654C34.9999 25.0336 35.2984 25.3321 35.6665 25.3321H38.3332C38.7014 25.3321 38.9999 25.0336 38.9999 24.6654C38.9999 24.2973 38.7014 23.9988 38.3332 23.9988H35.6665Z" fill="#ADC2FC"/>
<path d="M45.7021 31.7617H47.5032C47.8334 31.7617 48.1035 32.0319 48.1035 32.3621C48.1035 32.6922 47.8334 32.9624 47.5032 32.9624H45.7021C45.372 32.9624 45.1018 32.6922 45.1018 32.3621C45.1018 32.0319 45.372 31.7617 45.7021 31.7617Z" fill="#CCCCCC"/>
<path d="M46.3025 26.3594C46.4556 26.3594 46.6087 26.4194 46.7258 26.5365C46.9599 26.7706 46.9599 27.1518 46.7258 27.386L45.5251 28.5866C45.2909 28.8208 44.9097 28.8208 44.6756 28.5866C44.4415 28.3525 44.4415 27.9713 44.6756 27.7372L45.8763 26.5365C45.9933 26.4194 46.1464 26.3594 46.2995 26.3594H46.3025Z" fill="#CCCCCC"/>
<path d="M45.1049 35.9648C44.9519 35.9648 44.7988 36.0249 44.6817 36.1419C44.4476 36.3761 44.4476 36.7573 44.6817 36.9914L45.8824 38.1921C46.1165 38.4262 46.4977 38.4262 46.7319 38.1921C46.966 37.958 46.966 37.5768 46.7319 37.3426L45.5312 36.1419C45.4141 36.0249 45.261 35.9648 45.1079 35.9648H45.1049Z" fill="#CCCCCC"/>
<path fill-rule="evenodd" clip-rule="evenodd" d="M33 31.7361V35.1667C33 35.903 33.597 36.5 34.3333 36.5H39.6667C40.403 36.5 41 35.903 41 35.1667V31.7361C41 31.0534 40.4466 30.5 39.7639 30.5H39.559C39.2164 30.5 38.9032 30.3064 38.75 30C38.5968 29.6936 38.2836 29.5 37.941 29.5H36.059C35.7164 29.5 35.4032 29.6936 35.25 30C35.0968 30.3064 34.7836 30.5 34.441 30.5H34.2361C33.5534 30.5 33 31.0534 33 31.7361ZM37 35.5C38.1046 35.5 39 34.6046 39 33.5C39 32.3954 38.1046 31.5 37 31.5C35.8954 31.5 35 32.3954 35 33.5C35 34.6046 35.8954 35.5 37 35.5Z" fill="#8FABF9"/>
<defs>
<clipPath id="clip0_7336_56927">
<rect width="16" height="16" fill="white" transform="matrix(1 0 0 -1 15 29)"/>
</clipPath>
</defs>
</svg>
