<svg width="128" height="97" viewBox="0 0 128 97" fill="none" xmlns="http://www.w3.org/2000/svg">
<path opacity="0.2" d="M105.629 38.6818L107.171 38.2818C107.457 38.2247 107.743 37.939 107.8 37.6532L108.2 36.1104C108.314 35.7104 108.657 35.4818 109 35.4818C109.4 35.4818 109.743 35.7675 109.8 36.1104L110.2 37.6532C110.257 37.939 110.543 38.2247 110.829 38.2818L112.371 38.6818C112.771 38.7961 113 39.139 113 39.4818C113 39.8818 112.714 40.2247 112.371 40.2818L110.829 40.6818C110.543 40.739 110.257 41.0247 110.2 41.3104L109.8 42.8532C109.686 43.2532 109.343 43.4818 109 43.4818C108.6 43.4818 108.257 43.1961 108.2 42.8532L107.8 41.3104C107.743 41.0247 107.457 40.739 107.171 40.6818L105.629 40.2818C105.229 40.1675 105 39.8247 105 39.4818C105 39.0818 105.286 38.739 105.629 38.6818Z" fill="#888888"/>
<path opacity="0.2" d="M15.9428 32.2818L18.2571 31.6818C18.6857 31.5961 19.1143 31.1675 19.2 30.739L19.8 28.4247C19.9714 27.8247 20.4857 27.4818 21 27.4818C21.6 27.4818 22.1143 27.9104 22.2 28.4247L22.8 30.739C22.8857 31.1675 23.3143 31.5961 23.7429 31.6818L26.0572 32.2818C26.6572 32.4532 27 32.9675 27 33.4818C27 34.0818 26.5714 34.5961 26.0572 34.6818L23.7429 35.2818C23.3143 35.3675 22.8857 35.7961 22.8 36.2247L22.2 38.539C22.0286 39.139 21.5143 39.4818 21 39.4818C20.4 39.4818 19.8857 39.0532 19.8 38.539L19.2 36.2247C19.1143 35.7961 18.6857 35.3675 18.2571 35.2818L15.9428 34.6818C15.3428 34.5104 15 33.9961 15 33.4818C15 32.8818 15.4285 32.3675 15.9428 32.2818Z" fill="#888888"/>
<path opacity="0.2" d="M0.628557 53.6818L2.17142 53.2818C2.45714 53.2247 2.74287 52.939 2.80001 52.6532L3.19999 51.1104C3.31427 50.7104 3.65714 50.4818 4 50.4818C4.4 50.4818 4.74287 50.7675 4.80001 51.1104L5.19999 52.6532C5.25713 52.939 5.54286 53.2247 5.82858 53.2818L7.37144 53.6818C7.77144 53.7961 8 54.139 8 54.4818C8 54.8818 7.7143 55.2247 7.37144 55.2818L5.82858 55.6818C5.54286 55.739 5.25713 56.0247 5.19999 56.3104L4.80001 57.8532C4.68573 58.2532 4.34286 58.4818 4 58.4818C3.6 58.4818 3.25713 58.1961 3.19999 57.8532L2.80001 56.3104C2.74287 56.0247 2.45714 55.739 2.17142 55.6818L0.628557 55.2818C0.228557 55.1675 0 54.8247 0 54.4818C0 54.0818 0.2857 53.739 0.628557 53.6818Z" fill="#888888"/>
<path opacity="0.2" d="M126.5 52.4818C125.675 52.4818 125 51.8068 125 50.9818C125 50.1568 125.675 49.4818 126.5 49.4818C127.325 49.4818 128 50.1568 128 50.9818C128 51.8068 127.325 52.4818 126.5 52.4818Z" fill="#888888"/>
<path opacity="0.2" d="M23 70.4818C21.9 70.4818 21 69.5818 21 68.4818C21 67.3818 21.9 66.4818 23 66.4818C24.1 66.4818 25 67.3818 25 68.4818C25 69.5818 24.1 70.4818 23 70.4818Z" fill="#888888"/>
<path d="M38.625 24.4819H89.375C91.3769 24.4819 93 26.2729 93 28.4819V46.4819C93 49.2434 90.7614 51.4819 88 51.4819H79C72.3726 51.4819 67 56.8545 67 63.4819V68.4819H35V28.4819C35 26.2729 36.6231 24.4819 38.625 24.4819Z" fill="#3969EF"/>
<path d="M67 65.4819H40V29.4819H88V51.4819H79C72.3726 51.4819 67 56.8545 67 63.4819V65.4819Z" fill="#CCDAFF"/>
<path d="M67.7166 41.4469C67.7128 41.4395 67.719 41.431 67.7272 41.4322C68.0915 41.4863 68.4735 41.6088 68.9066 41.8329C69.152 41.9599 69.381 42.1304 69.5997 42.3444C69.8044 42.5447 70.0298 42.9878 69.8057 43.1662C69.6294 43.3066 69.4355 43.482 69.2063 43.7276C68.9771 43.9733 68.8008 44.2715 68.6245 44.6575C68.4482 45.0434 68.3777 45.482 68.3777 45.9908C68.3777 46.5873 68.4835 47.0785 68.695 47.4996C68.9066 47.9206 69.1534 48.2364 69.4355 48.4996C69.7176 48.7627 69.9644 48.9382 70.1759 49.0434C70.4065 49.1582 70.4866 49.3749 70.3972 49.6164C70.3492 49.7461 70.2983 49.8813 70.2641 49.9733C70.0878 50.4469 69.8233 50.9382 69.4355 51.4996C69.1005 51.9908 68.7303 52.4294 68.3424 52.8504C67.9546 53.2715 67.4786 53.4645 66.9497 53.4645C66.5794 53.4645 66.2797 53.4118 66.0505 53.3066C65.8213 53.2013 65.5745 53.0961 65.3277 52.9908C65.0809 52.8855 64.7459 52.8329 64.3228 52.8329C63.8997 52.8329 63.5823 52.8855 63.3003 52.9908C63.0182 53.0961 62.7714 53.2013 62.5245 53.3241C62.2777 53.4469 61.9956 53.482 61.6607 53.482C61.1494 53.482 60.7087 53.289 60.3384 52.8855C59.9682 52.482 59.5627 52.0083 59.1748 51.4645C58.7165 50.7978 58.311 50.0083 57.9936 49.061C57.6763 48.1136 57.5 47.1487 57.5 46.1838C57.5 45.1487 57.6939 44.289 58.0818 43.5697C58.4696 42.8504 58.9809 42.3417 59.598 41.9733C60.215 41.6048 60.8497 41.4294 61.5196 41.4294C61.8722 41.4294 62.2072 41.482 62.5069 41.6048C62.8066 41.7276 63.1063 41.8329 63.3884 41.9557C63.6705 42.0785 63.8997 42.1311 64.1289 42.1311C64.3581 42.1311 64.5872 42.061 64.8693 41.9382C65.1514 41.8154 65.4687 41.6926 65.8213 41.5697C66.1739 41.4469 66.5442 41.3943 66.9497 41.3943C67.1055 41.3943 67.3464 41.4112 67.7058 41.4617C67.7141 41.4629 67.7203 41.4543 67.7166 41.4469ZM65.3541 40.8417C65.3483 40.8475 65.3416 40.8524 65.3342 40.8562C64.9328 41.0629 64.5486 41.1662 64.1818 41.1662C64.1466 41.1662 64.1114 41.1662 64.0762 41.1641C64.0133 41.1602 63.9726 41.1032 63.9526 41.0434C63.9349 40.9908 63.9526 40.9382 63.9526 40.868C63.9526 40.4645 64.0407 40.061 64.217 39.675C64.3933 39.289 64.6049 38.9733 64.8341 38.7101C65.1161 38.3592 65.4864 38.0785 65.9271 37.8504C66.2509 37.6829 66.5651 37.5722 66.8629 37.5182C67.0431 37.4856 67.2141 37.6147 67.2141 37.7978C67.2141 38.2013 67.1436 38.6048 66.9849 38.9908C66.8262 39.3768 66.6147 39.7276 66.3679 40.0259C66.1058 40.3388 65.7745 40.6173 65.374 40.8271C65.3667 40.831 65.36 40.8359 65.3541 40.8417Z" fill="#3969EF"/>
<path d="M67 63.4819H30V68.4819H67V63.4819Z" fill="#7295F6"/>
<path d="M67 68.4819H30L32.5303 71.3109C33.2014 72.0609 34.1122 72.4819 35.0615 72.4819H63C65.2091 72.4819 67 70.6911 67 68.4819Z" fill="#3969EF"/>
<path d="M71 63.4819C71 59.0637 74.5817 55.4819 79 55.4819H95C99.4183 55.4819 103 59.0637 103 63.4819V79.4819C103 83.9002 99.4183 87.4819 95 87.4819H79C74.5817 87.4819 71 83.9002 71 79.4819V63.4819Z" fill="#DE5833"/>
<path d="M90.8144 70.9463C90.7167 71.0086 90.4033 70.9726 89.9905 70.9256C86.3305 70.2819 85.974 72.3703 87.7374 75.5496C86.1406 76.0255 88.0239 80.6299 89.5596 84.0874C87.8801 84.6823 84.7882 84.5541 83.3578 84.0264C83.3554 84.0191 83.3531 84.0105 83.3507 84.0032C83.0367 83.8873 82.6472 83.8885 82.465 83.6402C81.9731 80.2572 75.1098 64.1131 83.4951 63.0558C83.5477 63.0407 82.412 62.6877 80.8826 63.07C78.9708 63.4524 82.7398 57.8645 86.6996 62.7636C91.0025 63.7043 91.3105 70.6303 90.815 70.9457L90.8144 70.9463Z" fill="white"/>
<path d="M92.2901 81.5711C92.2475 81.8456 92.1529 82.0286 91.9845 82.0543C91.6651 82.1031 90.2366 81.7761 89.4247 81.4673C89.3324 81.892 87.1561 82.294 86.8115 81.7236C86.0218 82.4063 84.5088 83.3965 84.1924 83.1891C83.5866 82.7925 83.0168 79.7383 83.4728 79.0928C84.1654 78.4632 85.6215 79.1483 86.6432 79.5101C86.9895 78.9244 88.6667 78.7023 89.0148 79.1831C89.9322 78.4857 91.4632 77.5023 91.6124 77.6816C92.3566 78.5785 92.4507 80.7126 92.2895 81.5717L92.2901 81.5711Z" fill="#4CBA3C"/>
<path fill-rule="evenodd" clip-rule="evenodd" d="M84.5294 72.3512C84.8415 70.1359 89.0264 70.829 90.8977 70.5801C92.2615 70.4221 93.2736 70.0865 93.9477 69.8248C95.4954 69.189 95.7591 69.8199 95.0023 70.8101C92.8655 73.3432 88.1132 71.4995 87.2623 72.8094C87.0137 73.1974 87.206 74.1108 89.1606 74.3987C91.8019 74.7868 93.9716 73.9308 94.2395 74.4482C93.6373 77.2132 83.6096 76.2718 84.5282 72.3518L84.5294 72.3512Z" fill="#FFCC33"/>
<path d="M87.9002 65.9372C88.1723 65.3649 89.5954 65.3607 89.8722 65.9604C89.9076 66.0098 89.8543 66.0672 89.7991 66.0434C88.702 65.4565 87.8319 66.2624 87.9002 65.9372Z" fill="#14307E"/>
<path d="M81.8699 66.2519C82.4805 65.9127 83.3122 66.2495 83.142 66.0372C82.5536 65.4442 80.9357 65.9042 80.9004 66.8584C80.9004 66.9298 81.0442 66.9359 81.0814 66.8755C81.182 66.712 81.3498 66.474 81.8699 66.2526V66.2519Z" fill="#14307E"/>
<path fill-rule="evenodd" clip-rule="evenodd" d="M89.3654 69.3036C88.2766 69.2982 88.2766 67.6197 89.3654 67.6143C90.4542 67.6197 90.4542 69.2982 89.3654 69.3036Z" fill="#14307E"/>
<path fill-rule="evenodd" clip-rule="evenodd" d="M83.8471 69.0435C83.8255 70.3381 81.9278 70.3381 81.9062 69.0435C81.9122 67.7549 83.8411 67.7555 83.8471 69.0435Z" fill="#14307E"/>
<path fill-rule="evenodd" clip-rule="evenodd" d="M86.9997 59.4378C80.348 59.4378 74.9557 64.83 74.9557 71.4818C74.9557 78.1335 80.348 83.5258 86.9997 83.5258C93.6515 83.5258 99.0438 78.1335 99.0438 71.4818C99.0438 64.83 93.6515 59.4378 86.9997 59.4378ZM73.0439 71.4818C73.0439 63.7742 79.2922 57.526 86.9997 57.526C94.7073 57.526 100.956 63.7742 100.956 71.4818C100.956 79.1894 94.7073 85.4376 86.9997 85.4376C79.2922 85.4376 73.0439 79.1894 73.0439 71.4818Z" fill="white"/>
<path d="M109.605 60.4819C109.911 60.4819 110.217 60.602 110.452 60.8361C110.92 61.3044 110.92 62.0668 110.452 62.5351L108.05 64.9364C107.582 65.4047 106.819 65.4047 106.351 64.9364C105.883 64.4682 105.883 63.7058 106.351 63.2375L108.753 60.8361C108.987 60.602 109.293 60.4819 109.599 60.4819H109.605Z" fill="#CCCCCC"/>
<path d="M108.404 71.288H112.006C112.667 71.288 113.207 71.8283 113.207 72.4886C113.207 73.149 112.667 73.6893 112.006 73.6893H108.404C107.744 73.6893 107.204 73.149 107.204 72.4886C107.204 71.8283 107.744 71.288 108.404 71.288Z" fill="#CCCCCC"/>
<path d="M106.363 80.048C106.598 79.8139 106.904 79.6938 107.21 79.6938H107.216C107.522 79.6938 107.828 79.8139 108.062 80.048L110.464 82.4494C110.932 82.9177 110.932 83.6801 110.464 84.1484C109.995 84.6166 109.233 84.6166 108.765 84.1484L106.363 81.747C105.895 81.2787 105.895 80.5163 106.363 80.048Z" fill="#CCCCCC"/>
</svg>
